<svg width="595" height="417" viewBox="0 0 595 417" fill="none" xmlns="http://www.w3.org/2000/svg">
<path d="M347.171 340.276V360.247H352.84L351.743 338.808L347.171 340.276Z" fill="#AAABB0"/>
<path d="M262.011 336.246V356.218H267.685L266.588 334.779L262.011 336.246Z" fill="#AAABB0"/>
<path d="M361.073 306.93C361.073 304.905 359.435 303.263 357.415 303.263C355.395 303.263 353.757 304.905 353.757 306.93V335.147C353.757 337.172 355.395 338.814 357.415 338.814C359.435 338.814 361.073 337.172 361.073 335.147V306.93Z" fill="#AAABB0"/>
<path d="M267.224 299.047C267.224 297.022 265.586 295.38 263.566 295.38C261.546 295.38 259.908 297.022 259.908 299.047V335.141C259.908 337.166 261.546 338.808 263.566 338.808C265.586 338.808 267.224 337.166 267.224 335.141V299.047Z" fill="#AAABB0"/>
<path d="M370.407 90.5221C370.407 90.5221 377.723 87.4052 378.821 90.5221C379.918 93.639 380.467 120.575 380.467 120.575H373.514L370.407 90.5221Z" fill="#AAABB0"/>
<path d="M290.28 90.5221C290.28 90.5221 282.959 87.4052 281.861 90.5221C280.764 93.639 280.215 120.575 280.215 120.575H287.168L290.28 90.5221Z" fill="#AAABB0"/>
<path d="M291.372 63.7674L290.274 86.1244H295.214V63.2177L291.372 63.7674Z" fill="#AAABB0"/>
<path d="M287.169 120.575L288.634 88.3233C288.634 88.3233 288.085 81.1769 305.461 83.3758C322.837 85.5747 373.701 89.9724 373.701 89.9724V120.575H287.169Z" fill="#303030"/>
<path d="M356.687 290.438L353.943 339.726C353.943 339.726 313.692 362.083 264.848 340.826L269.238 288.971L356.687 290.438Z" fill="#303030"/>
<path d="M318.451 96.3821L319.362 128.266H376.077L372.784 86.1244L318.451 96.3821Z" fill="#444053"/>
<path d="M324.214 269.362H270.792V337.159H324.214V269.362Z" fill="#4C4981"/>
<path d="M304.55 297.035C304.55 297.035 312.233 290.988 313.512 292.819C314.791 294.649 308.946 302.532 306.564 301.614C304.182 300.696 304.55 297.035 304.55 297.035Z" fill="#FFB9B9"/>
<path d="M517.798 118.739H167.12V294.649H517.798V118.739Z" fill="#303030"/>
<path d="M287.349 62.4865C287.349 62.4865 284.605 36.8312 287.349 33.7198C290.094 30.6084 336.194 1.09947 378.821 35.7317C378.821 35.7317 382.844 35.9186 382.114 45.077C381.683 50.8734 381.713 56.6948 382.202 62.4865C382.202 62.4865 290.461 69.0832 287.349 62.4865Z" fill="#33323D"/>
<path opacity="0.1" d="M287.349 62.4865C287.349 62.4865 284.605 36.8312 287.349 33.7198C290.094 30.6084 336.194 1.09947 378.821 35.7317C378.821 35.7317 382.844 35.9186 382.114 45.077C381.683 50.8734 381.713 56.6948 382.202 62.4865C382.202 62.4865 290.461 69.0832 287.349 62.4865Z" fill="black"/>
<path d="M287.349 65.7849C287.349 65.7849 284.605 40.1295 287.349 37.0181C290.094 33.9067 336.194 4.39781 378.821 39.0301C378.821 39.0301 382.844 39.217 382.114 48.3753C381.683 54.1717 381.713 59.9931 382.202 65.7849C382.202 65.7849 290.461 72.3815 287.349 65.7849Z" fill="#303030"/>
<path d="M383.761 54.0593C383.761 54.0593 386.686 65.0537 385.775 66.8843C384.864 68.7148 385.028 73.8492 385.028 73.8492C385.028 73.8492 385.226 77.1475 383.761 77.5103C382.295 77.8731 381.017 78.06 382.202 79.1595C383.388 80.2589 382.202 81.9081 382.202 81.9081C382.202 81.9081 381.56 84.4753 382.202 86.1244C382.844 87.7736 378.448 88.4607 378.821 90.5222C379.195 92.5836 380.424 98.3996 378.821 98.5865C377.219 98.7734 379.37 105.914 377.927 105.914C376.483 105.914 375.457 118.739 375.457 118.739C375.457 118.739 365.304 110.131 358.537 112.511C358.537 112.511 359.086 105.365 361.281 102.797C363.476 100.23 362.812 93.6391 362.812 93.6391L373.701 60.8374L383.761 54.0593Z" fill="#4C4981"/>
<path d="M329.427 205.661C327.051 208.294 324.488 194.232 324.488 194.232C324.488 194.232 317.721 203.577 313.33 197.349C310.29 193.034 312.688 180.808 314.428 173.711C315.207 170.556 315.866 168.412 315.866 168.412L325.744 166.763C325.744 166.763 325.777 168.918 325.997 171.534C326.293 175.069 326.935 179.456 328.302 180.506C330.711 182.325 331.809 203.006 329.427 205.661Z" fill="#AE6E79"/>
<path opacity="0.1" d="M324.307 41.0474C324.307 41.0474 307.107 40.866 302.903 50.0243C298.699 59.1827 298.512 62.3051 296.866 63.7673C295.219 65.2296 314.79 72.9311 314.79 72.9311L315.707 104.446C315.707 104.446 319.549 100.549 325.767 102.314C331.985 104.078 339.855 102.314 339.855 102.314C339.855 102.314 339.487 101.648 344.613 102.314C349.739 102.979 366.017 94.3701 366.017 94.3701C366.017 94.3701 366.286 80.5832 365.924 77.6477C365.561 74.7122 377.537 53.1412 377.537 53.1412C377.537 53.1412 386.866 44.1643 377.174 41.0474C377.174 41.0474 373.744 35.8691 364.919 35.9186C356.094 35.968 324.307 41.0474 324.307 41.0474Z" fill="black"/>
<path d="M324.307 40.4978C324.307 40.4978 307.107 40.3164 302.903 49.4747C298.699 58.633 298.512 61.7554 296.866 63.2176C295.219 64.6799 314.79 72.3814 314.79 72.3814L315.707 103.897C315.707 103.897 319.549 99.9993 325.767 101.764C331.985 103.528 339.855 101.764 339.855 101.764C339.855 101.764 339.487 101.099 344.613 101.764C349.739 102.429 366.017 93.8205 366.017 93.8205C366.017 93.8205 372.416 83.3758 372.054 80.4458C371.692 77.5158 384.858 55.3402 384.858 55.3402C384.858 55.3402 386.872 43.6147 377.174 40.4978C377.174 40.4978 373.744 35.3194 364.919 35.3689C356.094 35.4184 324.307 40.4978 324.307 40.4978Z" fill="#4C4981"/>
<path opacity="0.1" d="M326.042 171.518C322.271 170.341 316.355 172.936 314.473 173.717C315.252 170.561 315.911 168.417 315.911 168.417L325.789 166.768C325.789 166.768 325.806 168.923 326.042 171.518Z" fill="black"/>
<path d="M302.167 63.2177H296.866C296.866 63.2177 295.768 74.3989 296.866 77.6972C297.963 80.9955 298.512 80.5173 298.144 82.958C297.777 85.3988 300.707 89.1369 300.707 89.1369C300.707 89.1369 301.07 98.3502 302.903 101.78C304.736 105.211 300.889 120.592 300.889 120.592C301.938 123.247 303.49 125.674 305.46 127.738C308.572 130.85 310.218 142.394 309.302 146.791C308.385 151.189 311.865 152.838 311.865 152.838C311.865 152.838 313.33 173.365 313.879 173.365C314.428 173.365 325.037 167.868 328.329 172.628L325.766 153.756L325.953 117.293C325.953 117.293 322.474 112.709 324.307 108.679C326.14 104.65 322.841 95.1178 322.841 95.1178L318.083 73.8657L302.167 63.2177Z" fill="#4C4981"/>
<path d="M269.238 352.919C269.238 352.919 261.555 351.27 261.374 352.919C261.193 354.568 252.225 371.428 263.388 376.376C274.551 381.323 304.363 391.949 352.845 378.206C352.845 378.206 355.951 379.306 355.221 372.528C354.492 365.75 354.492 358.235 354.492 358.235C354.492 358.235 347.17 356.218 341.682 356.954C336.194 357.691 288.447 367.399 269.238 352.919Z" fill="#33323D"/>
<path opacity="0.1" d="M269.238 352.919C269.238 352.919 261.555 351.27 261.374 352.919C261.193 354.568 252.225 371.428 263.388 376.376C274.551 381.323 304.363 391.949 352.845 378.206C352.845 378.206 355.951 379.306 355.221 372.528C354.492 365.75 354.492 358.235 354.492 358.235C354.492 358.235 347.17 356.218 341.682 356.954C336.194 357.691 288.447 367.399 269.238 352.919Z" fill="black"/>
<path d="M269.238 350.72C269.238 350.72 261.555 349.071 261.374 350.72C261.193 352.37 252.225 369.229 263.388 374.177C274.551 379.124 304.363 389.751 352.845 376.008C352.845 376.008 355.951 377.107 355.221 370.329C354.492 363.551 354.492 356.036 354.492 356.036C354.492 356.036 347.17 354.019 341.682 354.755C336.194 355.492 288.447 365.2 269.238 350.72Z" fill="#303030"/>
<path d="M314.044 69.8033C313.572 72.4914 312.502 75.0751 312.337 77.7962C312.172 80.5173 313.221 83.6122 315.729 84.6787C316.428 84.8881 317.107 85.1642 317.754 85.5033C318.72 86.1574 319.115 87.3888 319.318 88.5432C319.587 90.0336 319.652 91.5539 319.51 93.0619C319.373 94.5791 319.049 96.2118 319.795 97.5366C321.107 99.8839 324.526 99.5376 327.128 98.8779L326.233 105.821C326.162 106.371 326.118 106.992 326.518 107.366C326.708 107.499 326.922 107.593 327.148 107.642C327.374 107.691 327.608 107.695 327.836 107.651C330.097 107.508 332.424 107.195 334.361 106.002C336.298 104.809 337.742 102.589 337.374 100.351C336.946 97.7565 334.268 95.695 334.63 93.0894C334.91 91.0719 336.88 89.7911 338.175 88.2409C340.519 85.4043 340.645 81.0945 338.806 77.8842C336.968 74.6738 333.417 72.6838 329.762 72.321C327.737 72.1176 325.629 72.365 323.725 71.6613C323.062 71.4179 322.465 71.0243 321.979 70.5112C321.494 69.9982 321.133 69.3796 320.926 68.7039" fill="#444053"/>
<path d="M250.217 314.258L252.132 310.08C252.132 310.08 262.472 300.432 264.848 299.756C267.225 299.08 276.922 296.133 278.388 296.133C279.853 296.133 306.564 294.666 306.564 294.666L309.67 301.999L276.148 309.371L264.848 317.616L250.217 314.258Z" fill="#767D9F"/>
<path d="M330.756 201.747L329.005 215.242L328.33 220.437L320.465 221.537C320.465 221.537 319.615 219.712 318.413 216.908C314.763 208.398 307.892 190.851 311.876 187.822C317.173 183.787 318.462 197.168 318.462 197.168L324.499 194.232L330.756 201.747Z" fill="#FFB9B9"/>
<path d="M329.444 226.852H289.726V286.953H329.444V226.852Z" fill="white"/>
<path opacity="0.1" d="M329.444 226.852H289.726V286.953H329.444V226.852Z" fill="black"/>
<path d="M347.295 230.106L308.004 224.288L299.228 283.742L338.519 289.561L347.295 230.106Z" fill="white"/>
<path d="M331.927 232.953L311.703 229.958L307.186 260.558L327.41 263.553L331.927 232.953Z" fill="#FADE4B"/>
<path d="M329.52 272.895L305.019 269.266L304.038 275.912L328.539 279.54L329.52 272.895Z" fill="#FADE4B"/>
<path opacity="0.1" d="M339.855 75.218C352.534 75.218 362.812 64.9229 362.812 52.2232C362.812 39.5236 352.534 29.2285 339.855 29.2285C327.177 29.2285 316.898 39.5236 316.898 52.2232C316.898 64.9229 327.177 75.218 339.855 75.218Z" fill="black"/>
<path d="M339.855 74.6683C352.534 74.6683 362.812 64.3732 362.812 51.6736C362.812 38.9739 352.534 28.6788 339.855 28.6788C327.177 28.6788 316.898 38.9739 316.898 51.6736C316.898 64.3732 327.177 74.6683 339.855 74.6683Z" fill="#AE6E79"/>
<path d="M320.926 68.7148C320.77 68.1226 320.826 67.4942 321.085 66.9392C321.958 65.1197 324.444 64.9603 326.458 65.0537C331.194 65.2736 336.392 65.3011 340.096 62.3051C341.633 61.0737 343.351 57.9788 345.584 58.567C347.571 59.0893 348.4 61.7884 350.469 62.3876C351.967 62.8218 353.52 62.1292 355.046 61.8379C357.241 61.4036 359.491 61.7664 361.719 61.7829C363.948 61.7994 366.368 61.3761 367.888 59.7434C369.941 57.5446 369.606 54.1088 369.425 51.0964C369.2 47.205 369.463 43.3008 370.21 39.4753C370.956 35.6713 372.103 31.4164 370.007 28.1566C368.009 25.0507 363.871 24.1986 361.044 21.8183C358.399 19.6195 357 16.0958 354.206 14.0563C350.688 11.4891 345.908 11.8574 341.583 12.3027L332.199 13.3032C329.778 13.5616 327.259 13.8529 325.267 15.2987C321.672 17.9044 321.178 23.3191 317.776 26.1721C316.261 27.4365 314.324 28.0632 312.595 29.0087C310.866 29.9542 309.198 31.4494 309 33.4064C308.835 35.0556 309.725 36.5783 310.158 38.167C311.184 41.96 309.582 45.863 308.556 49.6836C307.529 53.5041 307.332 58.1437 310.312 60.6779C310.915 61.1947 311.618 61.5905 312.205 62.1292C314.219 63.9708 314.494 67.0767 314.027 69.7593" fill="#444053"/>
<path d="M341.727 80.3963C342.03 80.3963 342.275 79.781 342.275 79.022C342.275 78.263 342.03 77.6477 341.727 77.6477C341.423 77.6477 341.178 78.263 341.178 79.022C341.178 79.781 341.423 80.3963 341.727 80.3963Z" fill="#444053"/>
<path d="M341.727 86.1245C342.03 86.1245 342.275 85.5092 342.275 84.7502C342.275 83.9911 342.03 83.3759 341.727 83.3759C341.423 83.3759 341.178 83.9911 341.178 84.7502C341.178 85.5092 341.423 86.1245 341.727 86.1245Z" fill="#444053"/>
<path d="M329.554 205.622C330.141 204.946 330.531 203.209 330.756 200.917L324.214 192.748C324.214 192.748 326.985 208.585 329.554 205.622Z" fill="#AE6E79"/>
<path opacity="0.1" d="M336.93 340.644C336.93 340.644 326.195 357.268 292.656 355.487C261.061 353.837 245.639 338.264 246.375 332.767C247.11 327.269 244.361 313.889 251.127 310.041C255.052 307.815 260.216 309.134 263.86 310.64C265.119 311.153 266.497 311.297 267.835 311.057C269.172 310.816 270.414 310.201 271.417 309.283C274.749 306.276 280.961 302.889 290.769 305.556C292.03 305.893 293.362 305.868 294.61 305.484C298.693 304.236 308.413 302.07 315.465 306.88C316.58 307.65 317.89 308.086 319.243 308.138C320.596 308.189 321.935 307.854 323.105 307.172L323.204 307.111C326.497 305.094 341.863 324.153 341.863 324.153C341.863 324.153 342.599 338.814 336.93 340.644Z" fill="black"/>
<path d="M336.93 341.194C336.93 341.194 326.195 357.817 292.656 356.036C261.061 354.387 245.639 338.814 246.375 333.316C247.11 327.819 244.361 314.439 251.127 310.591C255.052 308.365 260.216 309.684 263.86 311.19C265.119 311.702 266.497 311.847 267.835 311.606C269.172 311.366 270.414 310.751 271.417 309.832C274.749 306.825 280.961 303.439 290.769 306.105C292.03 306.442 293.362 306.418 294.61 306.034C298.693 304.786 308.413 302.62 315.465 307.43C316.58 308.2 317.89 308.636 319.243 308.687C320.596 308.739 321.935 308.404 323.105 307.721L323.204 307.661C326.497 305.643 341.863 324.702 341.863 324.702C341.863 324.702 342.599 339.363 336.93 341.194Z" fill="#767D9F"/>
<path opacity="0.1" d="M292.657 347.702C304.732 347.702 314.522 337.897 314.522 325.802C314.522 313.706 304.732 303.901 292.657 303.901C280.581 303.901 270.792 313.706 270.792 325.802C270.792 337.897 280.581 347.702 292.657 347.702Z" fill="black"/>
<path d="M292.657 348.252C304.732 348.252 314.522 338.447 314.522 326.351C314.522 314.256 304.732 304.451 292.657 304.451C280.581 304.451 270.792 314.256 270.792 326.351C270.792 338.447 280.581 348.252 292.657 348.252Z" fill="#FFB9B9"/>
<path d="M286.389 307.419C284.095 308.04 281.834 309.228 280.714 311.179C280.039 312.356 279.803 313.768 278.826 314.747C277.443 316.138 275.111 316.165 273.239 316.946C271.368 317.726 270.133 320.475 271.966 321.343C270.056 321.442 268.64 323.207 268.404 324.961C268.168 326.714 268.832 328.462 269.474 330.133C271.571 335.543 273.827 341.188 278.448 345.036C285.977 351.314 297.327 351.023 307.442 350.358C308.268 350.385 309.087 350.196 309.818 349.808C310.916 349.082 311.053 347.691 311.234 346.471C311.997 341.26 314.818 336.527 316.662 331.552C318.506 326.577 319.263 320.733 316.157 316.33C311.585 309.799 294.083 305.33 286.389 307.419Z" fill="#B96B6B"/>
<path opacity="0.1" d="M329.005 215.242L328.33 220.437L320.466 221.537C320.466 221.537 319.615 219.711 318.413 216.908L328.879 214.94L329.005 215.242Z" fill="black"/>
<path d="M337.292 330.018L341.869 324.702L340.953 295.386C341.403 293.271 341.71 291.127 341.869 288.971C342.05 285.854 339.581 278.894 339.581 278.894C339.964 277.501 340.484 276.149 341.134 274.859C342.231 272.66 339.586 267.713 339.586 267.713C339.586 267.713 335.646 254.888 337.292 248.473C338.938 242.058 336.891 238.396 336.891 238.396C336.891 238.396 335.283 231.25 335.464 228.32C335.646 225.39 331.804 222.636 331.804 222.636L328.879 215.49L317.172 217.688V242.426C317.172 242.426 317.902 266.064 317.172 270.648C316.442 275.233 318.632 279.625 318.632 279.625C318.632 279.625 317.353 286.403 318.451 288.971C319.549 291.538 321.744 297.766 321.744 297.766C321.337 299.992 321.463 302.283 322.112 304.451C323.209 307.661 322.112 309.492 322.112 309.492L337.292 330.018Z" fill="#767D9F"/>
<g opacity="0.1">
<path opacity="0.1" d="M370.226 37.6668C369.608 40.8846 369.33 44.1589 369.398 47.4353C369.445 44.711 369.729 41.996 370.248 39.3214C370.731 36.8807 371.346 34.253 371.214 31.8177C371.012 33.7868 370.682 35.7406 370.226 37.6668Z" fill="black"/>
<path opacity="0.1" d="M312.222 60.3591C311.635 59.8094 310.932 59.4246 310.328 58.9023C308.726 57.5335 308.051 55.5491 307.919 53.4052C307.76 56.1537 308.32 58.8144 310.328 60.5515C310.932 61.0737 311.635 61.4695 312.222 62.0082C313.449 63.225 314.161 64.8692 314.209 66.5984C314.368 64.2896 313.901 61.8873 312.222 60.3591Z" fill="black"/>
<path opacity="0.1" d="M310.471 39.8326C310.567 38.6715 310.467 37.5026 310.175 36.3749C309.857 35.1985 309.286 34.0496 309.077 32.8677C309.077 32.9941 309.033 33.126 309.017 33.2635C308.858 34.9126 309.747 36.4354 310.175 38.024C310.333 38.6157 310.432 39.2215 310.471 39.8326Z" fill="black"/>
<path opacity="0.1" d="M367.905 57.9349C366.385 59.5841 363.965 59.9909 361.737 59.9744C359.508 59.9579 357.253 59.5951 355.063 60.0349C353.537 60.3427 351.984 61.0298 350.486 60.5846C348.417 59.9854 347.588 57.2863 345.607 56.764C343.351 56.1703 341.634 59.2652 340.119 60.4966C336.414 63.4651 331.217 63.4376 326.481 63.2452C324.466 63.1518 321.98 63.3112 321.113 65.1362C320.849 65.6897 320.792 66.3201 320.954 66.9118L314.248 67.9673C314.222 68.5203 314.162 69.0711 314.066 69.6164L320.954 68.517C320.792 67.9252 320.849 67.2948 321.113 66.7414C321.98 64.9164 324.466 64.7569 326.481 64.8504C331.217 65.0703 336.414 65.0978 340.119 62.1018C341.655 60.8704 343.373 57.7755 345.607 58.3692C347.588 58.8859 348.417 61.5906 350.486 62.1897C351.984 62.6185 353.537 61.9314 355.063 61.64C357.258 61.2003 359.508 61.5631 361.737 61.5796C363.965 61.5961 366.385 61.1728 367.905 59.5401C369.426 57.9074 369.645 55.4722 369.552 53.0974C369.486 54.939 369.107 56.6431 367.905 57.9349Z" fill="black"/>
</g>
<g opacity="0.1">
<path opacity="0.1" d="M317.102 84.3378C316.455 83.9969 315.777 83.7207 315.077 83.5132C313.886 82.9711 312.94 82.0024 312.426 80.7976C312.837 82.6941 313.88 84.4203 315.625 85.1624C316.326 85.3698 317.004 85.646 317.651 85.987C318.064 86.2794 318.398 86.6705 318.622 87.1249C318.402 86.0474 318.002 84.948 317.102 84.3378Z" fill="black"/>
<path opacity="0.1" d="M326.475 97.7124C323.945 98.3556 320.641 98.6909 319.253 96.5415C319.296 97.0594 319.446 97.5628 319.692 98.0202C320.877 100.137 323.775 100.065 326.239 99.543L326.475 97.7124Z" fill="black"/>
<path opacity="0.1" d="M336.727 99.2186C337.078 101.45 335.629 103.677 333.708 104.848C331.788 106.019 329.444 106.343 327.183 106.497C326.824 106.544 326.458 106.502 326.118 106.376C326.015 106.608 325.982 106.866 326.023 107.117C326.063 107.368 326.176 107.602 326.347 107.789C326.519 107.977 326.741 108.111 326.987 108.174C327.232 108.238 327.491 108.228 327.732 108.146C329.993 108.003 332.32 107.69 334.257 106.497C336.195 105.304 337.644 103.083 337.27 100.846C337.165 100.281 336.982 99.7333 336.727 99.2186Z" fill="black"/>
<path opacity="0.1" d="M339.164 79.3188C339.499 80.6554 339.525 82.0509 339.24 83.399C338.954 84.747 338.365 86.012 337.518 87.0974C336.222 88.6696 334.252 89.9284 333.972 91.9459C333.879 92.8734 334.07 93.8074 334.521 94.623C334.472 94.2821 334.472 93.9359 334.521 93.595C334.801 91.5776 336.771 90.2967 338.066 88.7465C340.196 86.1683 340.492 82.3698 339.164 79.3188Z" fill="black"/>
</g>
<g opacity="0.1">
<path opacity="0.1" d="M273.245 317.792C275.111 317.017 277.444 316.99 278.832 315.593C279.809 314.615 280.045 313.202 280.72 312.031C281.818 310.074 284.095 308.892 286.39 308.271C294.073 306.182 311.591 310.646 316.157 317.116C317.496 319.074 318.225 321.384 318.254 323.757C318.43 321.018 317.694 318.298 316.163 316.022C311.597 309.552 294.095 305.088 286.395 307.177C284.101 307.798 281.84 308.98 280.726 310.937C280.051 312.108 279.815 313.521 278.838 314.499C277.449 315.89 275.117 315.918 273.251 316.698C271.829 317.287 270.776 319.024 271.16 320.189C271.313 319.662 271.579 319.174 271.939 318.76C272.299 318.347 272.745 318.016 273.245 317.792Z" fill="black"/>
<path opacity="0.1" d="M268.416 325.78C268.646 324.021 270.062 322.262 271.977 322.163C271.776 322.079 271.596 321.951 271.451 321.788C271.306 321.625 271.199 321.432 271.138 321.223C270.409 321.494 269.768 321.959 269.285 322.569C268.801 323.178 268.493 323.908 268.394 324.68C268.341 325.128 268.341 325.58 268.394 326.027C268.416 325.945 268.416 325.862 268.416 325.78Z" fill="black"/>
</g>
<path d="M384.671 126.567H334.729V191.802H384.671V126.567Z" fill="white"/>
<path opacity="0.1" d="M384.671 126.567H334.729V191.802H384.671V126.567Z" fill="black"/>
<path d="M403.753 130.394L354.533 138.875L365.574 203.166L414.793 194.685L403.753 130.394Z" fill="white"/>
<path d="M378.027 180.709L366.463 182.702L369.057 197.806L380.621 195.814L378.027 180.709Z" fill="#FADE4B"/>
<path d="M394.028 177.949L382.464 179.942L385.058 195.046L396.622 193.054L394.028 177.949Z" fill="#FADE4B"/>
<path d="M405.336 155.82L364.782 162.795L367.383 177.968L407.937 170.993L405.336 155.82Z" fill="#FADE4B"/>
<path d="M401.955 137.711L361.401 144.687L361.982 148.072L402.536 141.096L401.955 137.711Z" fill="#FADE4B"/>
<path d="M403.286 143.938L362.731 150.913L363.312 154.298L403.866 147.323L403.286 143.938Z" fill="#FADE4B"/>
<path d="M362.812 108.844C362.812 108.844 339.855 131.932 351.38 137.798C362.905 143.663 370.408 118.283 370.408 118.283L372.23 112.511L362.812 108.844Z" fill="#AE6E79"/>
<path opacity="0.1" d="M360.803 106.805L357.966 113.083C357.966 113.083 371.961 115.051 374.886 119.289L373.152 108.212L371.094 103.484L360.803 106.805Z" fill="black"/>
<path d="M361.352 106.255L358.515 112.533C358.515 112.533 372.51 114.501 375.435 118.739L373.7 107.662L371.642 102.935L361.352 106.255Z" fill="#4C4981"/>
<path d="M446.068 221.68L445.766 221.888L446.183 222.075L446.633 222.037L446.688 221.723L446.068 221.68Z" fill="#464A5F"/>
<path opacity="0.1" d="M446.068 221.68L445.766 221.888L446.183 222.075L446.633 222.037L446.688 221.723L446.068 221.68Z" fill="black"/>
<path d="M446.067 221.679L445.76 221.877L445.519 221.581L445.667 221.339L445.804 221.295L446.067 221.679Z" fill="#9C9CA1"/>
<path opacity="0.1" d="M446.067 221.679L445.76 221.877L445.519 221.581L445.667 221.339L445.804 221.295L446.067 221.679Z" fill="black"/>
<path d="M500.088 183.688L477.619 151.184C477.42 150.893 477.166 150.646 476.871 150.454C476.576 150.262 476.247 150.131 475.901 150.067C475.555 150.003 475.201 150.008 474.857 150.082C474.513 150.156 474.187 150.297 473.898 150.496L423.813 184.931C423.227 185.334 422.825 185.953 422.694 186.653C422.564 187.353 422.715 188.076 423.116 188.663L445.524 221.581L500.088 183.688Z" fill="#9C9CA1"/>
<path opacity="0.1" d="M500.088 183.688L477.619 151.184C477.42 150.893 477.166 150.646 476.871 150.454C476.576 150.262 476.247 150.131 475.901 150.067C475.555 150.003 475.201 150.008 474.857 150.082C474.513 150.156 474.187 150.297 473.898 150.496L423.813 184.931C423.227 185.334 422.825 185.953 422.694 186.653C422.564 187.353 422.715 188.076 423.116 188.663L445.524 221.581L500.088 183.688Z" fill="black"/>
<path d="M500.636 183.765L478.168 151.261C477.968 150.97 477.713 150.722 477.418 150.531C477.123 150.339 476.793 150.207 476.447 150.144C476.101 150.08 475.745 150.085 475.401 150.159C475.057 150.232 474.731 150.373 474.441 150.573L424.362 185.03C423.776 185.433 423.373 186.052 423.242 186.751C423.11 187.45 423.26 188.173 423.659 188.762L446.067 221.696L500.636 183.765Z" fill="#9C9CA1"/>
<path d="M519.417 190.192L500.757 184.189L446.183 222.081L465.139 228.293C465.563 228.431 466.014 228.468 466.455 228.401C466.896 228.334 467.315 228.165 467.68 227.908L519.57 191.209C519.668 191.154 519.746 191.071 519.795 190.971C519.844 190.87 519.861 190.757 519.844 190.647C519.828 190.537 519.778 190.434 519.702 190.352C519.625 190.271 519.526 190.215 519.417 190.192Z" fill="#464A5F"/>
<path opacity="0.1" d="M519.417 190.192L500.757 184.189L446.183 222.081L465.139 228.293C465.563 228.431 466.014 228.468 466.455 228.401C466.896 228.334 467.315 228.165 467.68 227.908L519.57 191.209C519.668 191.154 519.746 191.071 519.795 190.971C519.844 190.87 519.861 190.757 519.844 190.647C519.828 190.537 519.778 190.434 519.702 190.352C519.625 190.271 519.526 190.215 519.417 190.192Z" fill="black"/>
<path d="M519.302 189.812L500.642 183.804L446.067 221.696L465.024 227.897C465.447 228.037 465.898 228.076 466.339 228.01C466.781 227.945 467.2 227.776 467.565 227.518L519.455 190.818C519.549 190.762 519.623 190.679 519.67 190.581C519.716 190.482 519.732 190.372 519.716 190.264C519.699 190.156 519.651 190.055 519.577 189.975C519.503 189.894 519.408 189.838 519.302 189.812Z" fill="#464A5F"/>
<g opacity="0.1">
<path opacity="0.1" d="M491.822 182.314L490.445 180.335C490.362 180.22 490.238 180.142 490.099 180.116C489.96 180.091 489.817 180.12 489.699 180.198L487.651 181.567C487.537 181.648 487.457 181.77 487.43 181.908C487.402 182.046 487.428 182.189 487.503 182.309L488.771 184.26C488.85 184.377 488.972 184.459 489.11 184.489C489.248 184.518 489.392 184.494 489.512 184.42L491.669 183.062C491.786 182.981 491.868 182.858 491.896 182.719C491.925 182.58 491.899 182.434 491.822 182.314Z" fill="black"/>
<path opacity="0.1" d="M488.145 184.865L486.762 182.891C486.679 182.777 486.555 182.698 486.416 182.673C486.277 182.647 486.133 182.676 486.015 182.754L483.974 184.134C483.858 184.214 483.777 184.336 483.749 184.474C483.72 184.612 483.746 184.756 483.82 184.876L485.088 186.827C485.166 186.945 485.287 187.028 485.425 187.059C485.563 187.09 485.708 187.066 485.829 186.992L487.991 185.634C488.052 185.595 488.105 185.543 488.145 185.482C488.186 185.422 488.215 185.354 488.229 185.282C488.243 185.21 488.243 185.137 488.229 185.065C488.214 184.993 488.186 184.925 488.145 184.865Z" fill="black"/>
<path opacity="0.1" d="M484.282 187.542L482.899 185.569C482.816 185.454 482.692 185.375 482.553 185.35C482.414 185.324 482.27 185.353 482.152 185.431L480.105 186.811C479.989 186.892 479.908 187.015 479.881 187.155C479.853 187.294 479.88 187.439 479.957 187.558L481.225 189.51C481.304 189.627 481.425 189.709 481.563 189.738C481.701 189.768 481.845 189.743 481.966 189.669L484.122 188.312C484.184 188.272 484.237 188.221 484.278 188.16C484.32 188.1 484.349 188.032 484.364 187.96C484.378 187.889 484.379 187.815 484.365 187.743C484.351 187.671 484.322 187.603 484.282 187.542Z" fill="black"/>
<path opacity="0.1" d="M480.368 190.258L478.985 188.279C478.903 188.165 478.78 188.088 478.642 188.062C478.504 188.037 478.362 188.065 478.244 188.141L476.197 189.526C476.082 189.608 476.003 189.73 475.976 189.868C475.948 190.006 475.974 190.149 476.049 190.269L477.317 192.22C477.395 192.336 477.515 192.418 477.652 192.449C477.789 192.48 477.932 192.457 478.052 192.385L480.215 191.022C480.275 190.982 480.327 190.93 480.367 190.87C480.408 190.81 480.436 190.743 480.45 190.672C480.464 190.601 480.465 190.528 480.451 190.456C480.436 190.385 480.409 190.318 480.368 190.258Z" fill="black"/>
<path opacity="0.1" d="M476.461 192.968L475.078 190.994C474.995 190.879 474.871 190.801 474.732 190.775C474.593 190.75 474.45 190.779 474.332 190.857L472.29 192.237C472.174 192.317 472.094 192.439 472.065 192.577C472.037 192.715 472.062 192.859 472.136 192.979L473.404 194.93C473.483 195.048 473.604 195.131 473.742 195.162C473.88 195.192 474.024 195.168 474.145 195.095L476.307 193.732C476.368 193.692 476.42 193.64 476.46 193.58C476.5 193.52 476.529 193.453 476.543 193.382C476.557 193.311 476.557 193.238 476.543 193.167C476.529 193.095 476.501 193.028 476.461 192.968Z" fill="black"/>
<path opacity="0.1" d="M472.724 195.925L471.006 193.473C470.988 193.446 470.964 193.423 470.937 193.405C470.91 193.387 470.879 193.374 470.847 193.368C470.815 193.362 470.782 193.362 470.75 193.369C470.718 193.376 470.687 193.389 470.66 193.407L468.147 195.106C468.119 195.124 468.095 195.147 468.077 195.174C468.058 195.201 468.045 195.232 468.038 195.264C468.032 195.297 468.032 195.33 468.038 195.362C468.044 195.394 468.057 195.425 468.075 195.452L469.65 197.877C469.686 197.932 469.743 197.972 469.808 197.986C469.872 198.001 469.94 197.989 469.996 197.954L472.652 196.305C472.684 196.286 472.712 196.261 472.733 196.232C472.755 196.202 472.769 196.168 472.776 196.131C472.783 196.095 472.782 196.058 472.773 196.023C472.764 195.987 472.747 195.954 472.724 195.925Z" fill="black"/>
<path opacity="0.1" d="M468.816 198.635L467.088 196.184C467.069 196.156 467.045 196.133 467.017 196.114C466.989 196.096 466.958 196.084 466.926 196.078C466.893 196.071 466.86 196.072 466.827 196.079C466.795 196.086 466.764 196.099 466.736 196.118L464.223 197.816C464.169 197.854 464.132 197.911 464.12 197.976C464.107 198.041 464.121 198.108 464.157 198.162L465.732 200.587C465.749 200.616 465.771 200.64 465.798 200.66C465.825 200.68 465.856 200.694 465.888 200.701C465.921 200.708 465.954 200.708 465.987 200.702C466.019 200.696 466.05 200.683 466.078 200.664L468.729 199.015C468.763 198.999 468.792 198.975 468.816 198.946C468.84 198.917 468.856 198.883 468.865 198.846C468.873 198.81 468.873 198.772 468.865 198.735C468.856 198.699 468.84 198.664 468.816 198.635Z" fill="black"/>
<path opacity="0.1" d="M465.353 201.038L463.635 198.608C463.597 198.555 463.539 198.519 463.475 198.508C463.41 198.496 463.344 198.511 463.289 198.547L460.776 200.24C460.721 200.278 460.683 200.336 460.669 200.402C460.656 200.468 460.669 200.536 460.705 200.592L462.28 203.017C462.317 203.071 462.373 203.11 462.437 203.124C462.502 203.138 462.569 203.127 462.625 203.094L465.282 201.444C465.318 201.427 465.35 201.401 465.375 201.369C465.399 201.337 465.415 201.299 465.422 201.259C465.429 201.22 465.427 201.179 465.415 201.14C465.403 201.101 465.381 201.066 465.353 201.038Z" fill="black"/>
<path opacity="0.1" d="M461.478 203.72L459.76 201.268C459.722 201.215 459.664 201.179 459.6 201.168C459.535 201.157 459.469 201.171 459.415 201.208L456.901 202.901C456.873 202.919 456.849 202.943 456.831 202.971C456.812 202.998 456.799 203.029 456.792 203.062C456.786 203.095 456.785 203.129 456.792 203.161C456.798 203.194 456.811 203.225 456.83 203.253L458.405 205.677C458.442 205.732 458.498 205.77 458.562 205.785C458.627 205.799 458.694 205.788 458.751 205.754L461.407 204.105C461.439 204.086 461.466 204.061 461.488 204.03C461.509 204 461.524 203.965 461.53 203.929C461.537 203.892 461.536 203.855 461.527 203.819C461.518 203.783 461.501 203.749 461.478 203.72Z" fill="black"/>
<path opacity="0.1" d="M457.724 206.304L456.006 203.852C455.988 203.825 455.964 203.802 455.937 203.783C455.91 203.765 455.879 203.753 455.847 203.747C455.815 203.741 455.782 203.741 455.75 203.748C455.718 203.754 455.687 203.768 455.66 203.786L453.147 205.485C453.119 205.503 453.095 205.526 453.077 205.553C453.058 205.58 453.045 205.611 453.038 205.643C453.032 205.675 453.032 205.708 453.038 205.741C453.044 205.773 453.057 205.804 453.075 205.831L454.65 208.255C454.686 208.311 454.743 208.35 454.808 208.365C454.872 208.379 454.94 208.368 454.996 208.332L457.652 206.683C457.684 206.665 457.712 206.64 457.733 206.61C457.755 206.58 457.769 206.546 457.776 206.51C457.783 206.474 457.782 206.437 457.773 206.401C457.764 206.366 457.747 206.332 457.724 206.304Z" fill="black"/>
<path opacity="0.1" d="M453.97 208.932L452.269 206.474C452.231 206.421 452.173 206.385 452.108 206.374C452.044 206.363 451.978 206.377 451.923 206.414L449.41 208.107C449.382 208.125 449.358 208.149 449.339 208.177C449.321 208.204 449.308 208.235 449.301 208.268C449.294 208.301 449.294 208.334 449.301 208.367C449.307 208.4 449.32 208.431 449.338 208.459L450.914 210.883C450.95 210.938 451.007 210.976 451.071 210.99C451.135 211.005 451.203 210.994 451.259 210.96L453.916 209.311C453.946 209.291 453.972 209.265 453.992 209.235C454.012 209.204 454.025 209.17 454.03 209.134C454.035 209.098 454.032 209.061 454.022 209.026C454.012 208.991 453.994 208.959 453.97 208.932Z" fill="black"/>
<path opacity="0.1" d="M450.216 211.532L448.498 209.08C448.48 209.053 448.457 209.029 448.429 209.011C448.402 208.993 448.371 208.981 448.339 208.974C448.307 208.968 448.274 208.969 448.242 208.975C448.21 208.982 448.179 208.995 448.152 209.014L445.639 210.702C445.611 210.719 445.587 210.743 445.569 210.77C445.55 210.797 445.537 210.827 445.53 210.86C445.524 210.892 445.524 210.925 445.53 210.958C445.536 210.99 445.549 211.021 445.568 211.048L447.143 213.472C447.179 213.528 447.235 213.567 447.3 213.582C447.364 213.596 447.432 213.584 447.488 213.549L450.145 211.9C450.175 211.882 450.201 211.857 450.221 211.828C450.241 211.799 450.255 211.766 450.262 211.732C450.269 211.697 450.268 211.661 450.26 211.627C450.252 211.592 450.237 211.56 450.216 211.532Z" fill="black"/>
<path opacity="0.1" d="M489.353 178.735L487.97 176.757C487.887 176.642 487.763 176.563 487.624 176.538C487.485 176.512 487.342 176.541 487.223 176.619L485.198 178.004C485.082 178.085 485.002 178.207 484.973 178.345C484.945 178.483 484.97 178.627 485.045 178.746L486.312 180.698C486.392 180.815 486.513 180.897 486.651 180.926C486.789 180.956 486.933 180.931 487.053 180.857L489.216 179.5C489.335 179.416 489.416 179.289 489.442 179.146C489.468 179.003 489.436 178.855 489.353 178.735Z" fill="black"/>
<path opacity="0.1" d="M483.946 170.913L482.563 168.923C482.481 168.81 482.358 168.732 482.22 168.707C482.082 168.681 481.94 168.709 481.822 168.786L479.775 170.165C479.66 170.246 479.579 170.368 479.55 170.506C479.522 170.644 479.547 170.788 479.622 170.907L480.89 172.859C480.968 172.977 481.089 173.06 481.227 173.09C481.365 173.121 481.51 173.097 481.63 173.024L483.793 171.666C483.912 171.586 483.994 171.462 484.023 171.321C484.052 171.18 484.024 171.034 483.946 170.913Z" fill="black"/>
<path opacity="0.1" d="M485.67 181.286L484.287 179.313C484.205 179.199 484.082 179.122 483.944 179.096C483.806 179.071 483.664 179.099 483.546 179.175L481.499 180.555C481.384 180.636 481.305 180.758 481.277 180.896C481.25 181.035 481.276 181.178 481.351 181.297L482.613 183.249C482.692 183.366 482.813 183.449 482.951 183.48C483.089 183.511 483.233 183.487 483.354 183.414L485.517 182.056C485.578 182.016 485.63 181.964 485.671 181.904C485.712 181.843 485.74 181.775 485.755 181.703C485.769 181.632 485.769 181.558 485.754 181.486C485.74 181.415 485.711 181.347 485.67 181.286Z" fill="black"/>
<path opacity="0.1" d="M481.806 183.963L480.423 181.99C480.34 181.875 480.217 181.797 480.078 181.771C479.939 181.745 479.795 181.775 479.677 181.852L477.635 183.216C477.518 183.296 477.436 183.419 477.408 183.558C477.379 183.698 477.406 183.843 477.482 183.963L478.749 185.915C478.829 186.032 478.95 186.113 479.088 186.143C479.226 186.173 479.37 186.148 479.49 186.074L481.653 184.716C481.771 184.636 481.854 184.512 481.883 184.371C481.911 184.23 481.884 184.084 481.806 183.963Z" fill="black"/>
<path opacity="0.1" d="M477.893 186.679L476.515 184.7C476.433 184.585 476.309 184.507 476.17 184.481C476.031 184.456 475.887 184.485 475.769 184.563L473.722 185.964C473.607 186.045 473.527 186.168 473.5 186.306C473.472 186.444 473.499 186.587 473.574 186.706L474.841 188.658C474.921 188.775 475.042 188.857 475.18 188.886C475.318 188.916 475.462 188.891 475.582 188.817L477.739 187.46C477.802 187.42 477.856 187.367 477.898 187.306C477.94 187.244 477.969 187.175 477.983 187.102C477.997 187.029 477.997 186.954 477.981 186.881C477.966 186.809 477.936 186.74 477.893 186.679Z" fill="black"/>
<path opacity="0.1" d="M480.352 173.59L478.969 171.617C478.886 171.503 478.763 171.426 478.625 171.4C478.488 171.375 478.345 171.403 478.228 171.479L476.181 172.859C476.065 172.939 475.984 173.061 475.956 173.199C475.927 173.337 475.953 173.481 476.027 173.601L477.295 175.553C477.373 175.67 477.494 175.753 477.632 175.784C477.77 175.815 477.915 175.791 478.036 175.718L480.198 174.36C480.259 174.32 480.312 174.268 480.353 174.207C480.393 174.147 480.422 174.079 480.436 174.007C480.45 173.936 480.45 173.862 480.436 173.79C480.421 173.719 480.393 173.651 480.352 173.59Z" fill="black"/>
<path opacity="0.1" d="M476.488 176.273L475.105 174.294C475.023 174.179 474.899 174.101 474.76 174.075C474.621 174.049 474.477 174.079 474.359 174.156L472.317 175.52C472.202 175.6 472.121 175.722 472.092 175.86C472.064 175.998 472.089 176.142 472.164 176.262L473.432 178.213C473.511 178.33 473.632 178.412 473.77 178.442C473.908 178.471 474.052 178.447 474.172 178.373L476.335 177.015C476.451 176.935 476.531 176.813 476.56 176.675C476.588 176.536 476.563 176.393 476.488 176.273Z" fill="black"/>
<path opacity="0.1" d="M472.575 178.983L471.192 177.009C471.111 176.895 470.988 176.817 470.85 176.79C470.713 176.764 470.57 176.791 470.452 176.866L468.404 178.268C468.29 178.349 468.21 178.472 468.183 178.61C468.155 178.748 468.181 178.891 468.256 179.01L469.524 180.962C469.603 181.08 469.723 181.163 469.861 181.193C469.999 181.224 470.144 181.2 470.265 181.127L472.422 179.764C472.484 179.724 472.538 179.671 472.58 179.61C472.622 179.548 472.651 179.479 472.665 179.406C472.68 179.333 472.679 179.258 472.664 179.185C472.648 179.113 472.618 179.044 472.575 178.983Z" fill="black"/>
<path opacity="0.1" d="M473.986 189.389L472.603 187.416C472.521 187.301 472.398 187.223 472.261 187.196C472.123 187.17 471.98 187.197 471.862 187.273L469.831 188.658C469.716 188.739 469.637 188.861 469.609 188.999C469.582 189.137 469.608 189.281 469.683 189.4L470.929 191.352C471.007 191.468 471.127 191.55 471.264 191.58C471.401 191.611 471.544 191.588 471.664 191.516L473.827 190.153C473.887 190.114 473.94 190.062 473.981 190.003C474.022 189.943 474.05 189.875 474.065 189.804C474.08 189.733 474.08 189.66 474.067 189.589C474.053 189.517 474.026 189.45 473.986 189.389Z" fill="black"/>
<path opacity="0.1" d="M470.078 192.099L468.695 190.126C468.612 190.011 468.489 189.932 468.35 189.907C468.211 189.881 468.067 189.91 467.949 189.988L465.907 191.368C465.791 191.448 465.711 191.57 465.682 191.708C465.654 191.846 465.679 191.99 465.754 192.11L467.021 194.062C467.1 194.179 467.221 194.262 467.359 194.293C467.497 194.324 467.641 194.3 467.762 194.227L469.925 192.869C469.986 192.829 470.038 192.777 470.079 192.717C470.12 192.656 470.148 192.588 470.163 192.516C470.177 192.445 470.177 192.371 470.162 192.299C470.148 192.228 470.119 192.16 470.078 192.099Z" fill="black"/>
<path opacity="0.1" d="M466.341 195.057L464.623 192.605C464.605 192.578 464.582 192.554 464.554 192.536C464.527 192.518 464.496 192.506 464.464 192.499C464.432 192.493 464.399 192.494 464.367 192.5C464.335 192.507 464.304 192.52 464.277 192.539L461.764 194.238C461.736 194.255 461.712 194.278 461.694 194.306C461.675 194.333 461.662 194.363 461.655 194.396C461.649 194.428 461.649 194.461 461.655 194.493C461.661 194.526 461.674 194.557 461.693 194.584L463.268 197.008C463.285 197.036 463.308 197.061 463.335 197.08C463.362 197.099 463.392 197.113 463.424 197.12C463.456 197.127 463.49 197.128 463.522 197.122C463.555 197.116 463.586 197.103 463.613 197.085L466.27 195.436C466.302 195.418 466.329 195.393 466.35 195.363C466.372 195.333 466.386 195.299 466.393 195.263C466.4 195.227 466.399 195.19 466.39 195.154C466.381 195.118 466.364 195.085 466.341 195.057Z" fill="black"/>
<path opacity="0.1" d="M462.878 197.459L461.16 195.002C461.121 194.949 461.064 194.913 460.999 194.901C460.935 194.89 460.868 194.904 460.814 194.941L458.306 196.634C458.251 196.672 458.213 196.73 458.199 196.796C458.186 196.861 458.199 196.93 458.235 196.986L459.81 199.41C459.847 199.465 459.903 199.503 459.968 199.518C460.032 199.532 460.099 199.521 460.156 199.487L462.812 197.838C462.845 197.821 462.874 197.796 462.896 197.766C462.918 197.736 462.932 197.702 462.939 197.665C462.945 197.628 462.943 197.59 462.932 197.555C462.922 197.519 462.903 197.486 462.878 197.459Z" fill="black"/>
<path opacity="0.1" d="M459.003 200.142L457.285 197.69C457.247 197.637 457.189 197.601 457.125 197.59C457.06 197.578 456.994 197.593 456.94 197.629L454.426 199.322C454.398 199.34 454.374 199.363 454.356 199.391C454.337 199.418 454.324 199.448 454.318 199.481C454.311 199.513 454.311 199.546 454.317 199.578C454.324 199.611 454.336 199.641 454.355 199.669L455.93 202.099C455.967 202.153 456.023 202.192 456.087 202.206C456.152 202.22 456.219 202.209 456.275 202.175L458.932 200.526C458.964 200.508 458.991 200.482 459.013 200.452C459.034 200.421 459.049 200.387 459.055 200.35C459.062 200.314 459.061 200.276 459.052 200.24C459.043 200.204 459.026 200.171 459.003 200.142Z" fill="black"/>
<path opacity="0.1" d="M455.249 202.747L453.531 200.295C453.513 200.268 453.49 200.245 453.462 200.227C453.435 200.209 453.404 200.196 453.372 200.19C453.34 200.184 453.307 200.184 453.275 200.191C453.243 200.198 453.213 200.211 453.186 200.23L450.672 201.906C450.644 201.924 450.621 201.947 450.602 201.974C450.583 202.001 450.57 202.032 450.564 202.064C450.557 202.097 450.557 202.13 450.563 202.162C450.57 202.194 450.582 202.225 450.601 202.252L452.176 204.677C452.212 204.732 452.268 204.772 452.333 204.786C452.398 204.801 452.465 204.789 452.522 204.754L455.178 203.105C455.206 203.086 455.231 203.062 455.25 203.034C455.269 203.006 455.283 202.974 455.289 202.941C455.296 202.908 455.296 202.873 455.289 202.84C455.282 202.807 455.269 202.775 455.249 202.747Z" fill="black"/>
<path opacity="0.1" d="M479.233 180.242L477.85 178.268C477.767 178.155 477.644 178.078 477.506 178.052C477.369 178.026 477.226 178.055 477.109 178.131L475.062 179.516C474.947 179.597 474.867 179.719 474.84 179.858C474.812 179.996 474.839 180.139 474.913 180.258L476.181 182.21C476.26 182.325 476.381 182.406 476.517 182.436C476.654 182.465 476.797 182.441 476.917 182.369L479.079 181.011C479.14 180.971 479.193 180.92 479.234 180.859C479.274 180.799 479.303 180.731 479.317 180.659C479.331 180.587 479.331 180.513 479.317 180.442C479.302 180.37 479.274 180.302 479.233 180.242Z" fill="black"/>
<path opacity="0.1" d="M475.319 182.957L473.936 180.978C473.854 180.864 473.73 180.785 473.591 180.76C473.452 180.734 473.308 180.763 473.19 180.841L471.148 182.226C471.033 182.307 470.952 182.428 470.924 182.567C470.895 182.705 470.92 182.849 470.995 182.968L472.263 184.92C472.341 185.038 472.462 185.121 472.6 185.151C472.738 185.182 472.883 185.158 473.003 185.085L475.166 183.721C475.226 183.682 475.278 183.63 475.318 183.57C475.359 183.51 475.387 183.442 475.401 183.371C475.415 183.3 475.416 183.227 475.402 183.156C475.388 183.085 475.36 183.018 475.319 182.957Z" fill="black"/>
<path opacity="0.1" d="M471.417 185.667L470.034 183.694C469.951 183.579 469.827 183.501 469.688 183.475C469.549 183.45 469.406 183.479 469.287 183.557L467.24 184.936C467.125 185.017 467.046 185.14 467.018 185.278C466.991 185.416 467.017 185.559 467.092 185.678L468.36 187.63C468.438 187.748 468.559 187.831 468.697 187.861C468.835 187.892 468.98 187.868 469.101 187.795L471.258 186.432C471.318 186.392 471.371 186.341 471.412 186.281C471.453 186.221 471.481 186.154 471.496 186.083C471.511 186.012 471.512 185.938 471.498 185.867C471.484 185.796 471.457 185.728 471.417 185.667Z" fill="black"/>
<path opacity="0.1" d="M467.504 188.378L466.121 186.404C466.039 186.291 465.916 186.213 465.778 186.188C465.64 186.162 465.498 186.19 465.38 186.267L463.333 187.646C463.218 187.728 463.139 187.85 463.111 187.988C463.084 188.126 463.11 188.269 463.185 188.389L464.453 190.362C464.531 190.478 464.651 190.56 464.788 190.591C464.924 190.622 465.068 190.599 465.188 190.527L467.351 189.169C467.415 189.129 467.47 189.076 467.513 189.014C467.556 188.952 467.585 188.881 467.6 188.807C467.614 188.733 467.613 188.656 467.597 188.582C467.58 188.508 467.549 188.439 467.504 188.378Z" fill="black"/>
<path opacity="0.1" d="M463.794 191.335L462.076 188.883C462.058 188.856 462.034 188.833 462.007 188.815C461.98 188.796 461.949 188.784 461.917 188.778C461.885 188.772 461.852 188.772 461.82 188.779C461.788 188.786 461.757 188.799 461.73 188.817L459.217 190.516C459.162 190.553 459.124 190.61 459.111 190.675C459.097 190.739 459.11 190.807 459.146 190.862L460.721 193.292C460.738 193.32 460.761 193.344 460.789 193.362C460.816 193.381 460.846 193.394 460.878 193.401C460.911 193.407 460.944 193.407 460.976 193.401C461.008 193.395 461.039 193.382 461.066 193.364L463.723 191.714C463.754 191.696 463.782 191.671 463.803 191.641C463.825 191.612 463.839 191.577 463.846 191.541C463.853 191.505 463.852 191.468 463.843 191.432C463.834 191.397 463.817 191.364 463.794 191.335Z" fill="black"/>
<path opacity="0.1" d="M460.309 193.737L458.591 191.28C458.552 191.227 458.493 191.191 458.428 191.179C458.362 191.168 458.295 191.182 458.24 191.22L455.732 192.913C455.677 192.951 455.639 193.009 455.625 193.074C455.612 193.14 455.625 193.208 455.661 193.265L457.236 195.689C457.272 195.745 457.328 195.784 457.393 195.798C457.457 195.813 457.525 195.801 457.581 195.766L460.238 194.117C460.27 194.098 460.297 194.074 460.318 194.044C460.34 194.014 460.354 193.98 460.361 193.944C460.368 193.907 460.367 193.87 460.358 193.835C460.349 193.799 460.332 193.766 460.309 193.737Z" fill="black"/>
<path opacity="0.1" d="M456.435 196.409L454.717 193.952C454.677 193.898 454.619 193.862 454.553 193.851C454.488 193.84 454.421 193.854 454.366 193.891L451.852 195.584C451.798 195.623 451.761 195.681 451.747 195.746C451.734 195.812 451.746 195.879 451.781 195.936L453.361 198.36C453.397 198.416 453.454 198.455 453.518 198.47C453.583 198.484 453.651 198.473 453.707 198.437L456.358 196.788C456.391 196.771 456.42 196.747 456.442 196.718C456.465 196.688 456.48 196.654 456.488 196.617C456.495 196.581 456.494 196.543 456.485 196.507C456.476 196.471 456.459 196.437 456.435 196.409Z" fill="black"/>
<path opacity="0.1" d="M452.68 199.026L450.963 196.574C450.944 196.546 450.92 196.523 450.892 196.505C450.864 196.487 450.833 196.474 450.801 196.468C450.768 196.462 450.735 196.462 450.702 196.469C450.67 196.476 450.639 196.489 450.611 196.508L448.098 198.206C448.044 198.244 448.007 198.302 447.995 198.366C447.982 198.431 447.996 198.498 448.032 198.553L449.607 200.977C449.624 201.006 449.646 201.031 449.673 201.05C449.7 201.07 449.731 201.084 449.763 201.091C449.796 201.098 449.829 201.099 449.862 201.092C449.894 201.086 449.925 201.073 449.953 201.054L452.604 199.405C452.637 199.388 452.666 199.364 452.688 199.334C452.71 199.305 452.726 199.27 452.733 199.234C452.741 199.197 452.74 199.16 452.731 199.124C452.721 199.088 452.704 199.054 452.68 199.026Z" fill="black"/>
<path opacity="0.1" d="M451.495 205.347L449.778 202.896C449.739 202.843 449.681 202.807 449.617 202.795C449.552 202.784 449.486 202.798 449.432 202.835L446.918 204.528C446.891 204.546 446.867 204.569 446.848 204.596C446.829 204.624 446.816 204.654 446.81 204.686C446.803 204.719 446.803 204.752 446.809 204.784C446.816 204.817 446.828 204.847 446.847 204.875L448.422 207.304C448.459 207.359 448.515 207.397 448.58 207.412C448.644 207.426 448.711 207.415 448.768 207.381L451.424 205.732C451.456 205.713 451.484 205.688 451.505 205.658C451.526 205.627 451.541 205.593 451.548 205.556C451.554 205.52 451.553 205.482 451.544 205.446C451.535 205.41 451.519 205.376 451.495 205.347Z" fill="black"/>
<path opacity="0.1" d="M447.741 207.953L446.024 205.501C446.005 205.474 445.982 205.451 445.955 205.433C445.927 205.414 445.897 205.402 445.865 205.396C445.832 205.39 445.799 205.39 445.767 205.397C445.735 205.404 445.705 205.417 445.678 205.435L443.164 207.134C443.137 207.152 443.113 207.175 443.094 207.202C443.076 207.229 443.063 207.26 443.056 207.292C443.049 207.324 443.049 207.358 443.055 207.39C443.062 207.422 443.075 207.453 443.093 207.48L444.668 209.905C444.704 209.96 444.76 210 444.825 210.014C444.89 210.028 444.958 210.017 445.014 209.981L447.67 208.332C447.702 208.314 447.73 208.289 447.751 208.259C447.772 208.23 447.787 208.195 447.794 208.159C447.8 208.123 447.799 208.086 447.79 208.05C447.781 208.015 447.765 207.982 447.741 207.953Z" fill="black"/>
<path opacity="0.1" d="M453.636 192.374L451.99 190.065C451.938 189.993 451.86 189.945 451.773 189.929C451.686 189.914 451.597 189.933 451.523 189.983L449.152 191.582C449.115 191.607 449.084 191.638 449.059 191.675C449.034 191.712 449.017 191.753 449.008 191.797C449 191.84 449 191.885 449.008 191.928C449.017 191.972 449.034 192.013 449.059 192.05L450.541 194.331C450.564 194.369 450.594 194.401 450.63 194.427C450.666 194.453 450.706 194.471 450.749 194.481C450.792 194.491 450.837 194.492 450.88 194.484C450.924 194.476 450.965 194.46 451.002 194.435L453.51 192.858C453.551 192.836 453.588 192.805 453.617 192.768C453.646 192.731 453.667 192.689 453.679 192.643C453.69 192.598 453.693 192.551 453.686 192.504C453.678 192.458 453.661 192.414 453.636 192.374Z" fill="black"/>
<path opacity="0.1" d="M449.882 194.98L448.263 192.671C448.238 192.634 448.206 192.603 448.169 192.579C448.132 192.555 448.091 192.538 448.048 192.53C448.004 192.522 447.96 192.522 447.917 192.531C447.874 192.54 447.833 192.558 447.796 192.583L445.425 194.21C445.389 194.234 445.357 194.265 445.332 194.301C445.308 194.337 445.291 194.378 445.282 194.421C445.273 194.464 445.273 194.509 445.282 194.552C445.29 194.595 445.308 194.635 445.332 194.672L446.814 196.959C446.862 197.032 446.937 197.085 447.023 197.104C447.109 197.124 447.2 197.109 447.275 197.063L449.783 195.485C449.825 195.461 449.862 195.428 449.89 195.388C449.919 195.348 449.938 195.303 449.948 195.255C449.957 195.207 449.956 195.158 449.945 195.11C449.933 195.063 449.912 195.018 449.882 194.98Z" fill="black"/>
<path opacity="0.1" d="M446.128 197.585L444.509 195.271C444.457 195.199 444.38 195.151 444.293 195.135C444.206 195.12 444.116 195.139 444.043 195.189L441.672 196.788C441.635 196.813 441.603 196.844 441.579 196.881C441.554 196.918 441.537 196.959 441.528 197.002C441.519 197.046 441.519 197.091 441.528 197.134C441.537 197.177 441.554 197.219 441.579 197.256L443.06 199.537C443.083 199.575 443.114 199.607 443.149 199.633C443.185 199.659 443.226 199.677 443.269 199.687C443.312 199.696 443.356 199.697 443.4 199.69C443.443 199.682 443.485 199.665 443.521 199.641L446.03 198.064C446.068 198.04 446.102 198.008 446.128 197.971C446.155 197.933 446.173 197.891 446.182 197.846C446.191 197.801 446.191 197.755 446.182 197.71C446.173 197.665 446.155 197.623 446.128 197.585Z" fill="black"/>
<path opacity="0.1" d="M442.423 200.257L440.705 197.8C440.667 197.747 440.609 197.711 440.545 197.699C440.48 197.688 440.414 197.702 440.36 197.739L437.846 199.432C437.791 199.47 437.753 199.528 437.74 199.594C437.726 199.659 437.739 199.728 437.775 199.784L439.35 202.208C439.387 202.263 439.443 202.301 439.508 202.316C439.572 202.33 439.639 202.319 439.696 202.285L442.352 200.636C442.385 200.62 442.414 200.595 442.437 200.566C442.46 200.536 442.475 200.501 442.482 200.464C442.489 200.428 442.487 200.39 442.477 200.354C442.467 200.318 442.448 200.285 442.423 200.257Z" fill="black"/>
<path opacity="0.1" d="M486.845 174.887L485.357 172.771C485.274 172.657 485.15 172.58 485.011 172.555C484.872 172.531 484.728 172.561 484.611 172.639L478.804 176.713C478.692 176.794 478.615 176.916 478.588 177.053C478.562 177.189 478.588 177.331 478.662 177.449L480.061 179.615C480.102 179.675 480.153 179.726 480.213 179.766C480.274 179.806 480.341 179.834 480.412 179.848C480.483 179.862 480.556 179.861 480.626 179.847C480.697 179.832 480.764 179.804 480.824 179.763L486.718 175.635C486.831 175.551 486.907 175.426 486.931 175.287C486.954 175.147 486.923 175.004 486.845 174.887Z" fill="black"/>
<path opacity="0.1" d="M448.916 201.549L447.094 198.971C447.075 198.943 447.051 198.919 447.023 198.901C446.995 198.883 446.964 198.871 446.931 198.865C446.898 198.86 446.865 198.861 446.832 198.868C446.8 198.876 446.77 198.89 446.743 198.91L440.475 203.308C440.422 203.345 440.385 203.401 440.373 203.465C440.36 203.529 440.374 203.595 440.409 203.649L442.122 206.304C442.14 206.333 442.164 206.357 442.192 206.376C442.22 206.396 442.252 206.409 442.285 206.416C442.318 206.422 442.353 206.422 442.386 206.415C442.419 206.408 442.451 206.395 442.478 206.375L448.85 201.906C448.906 201.867 448.944 201.808 448.956 201.741C448.969 201.674 448.954 201.605 448.916 201.549Z" fill="black"/>
<path opacity="0.1" d="M468.854 181.83L467.175 179.368C467.137 179.314 467.08 179.277 467.015 179.264C466.951 179.252 466.884 179.265 466.829 179.302L452.911 188.713C452.856 188.75 452.818 188.807 452.805 188.871C452.792 188.936 452.804 189.004 452.84 189.059L454.558 191.698C454.576 191.726 454.6 191.751 454.628 191.77C454.656 191.79 454.688 191.803 454.721 191.81C454.754 191.816 454.788 191.816 454.822 191.809C454.855 191.802 454.886 191.789 454.914 191.769L468.788 182.182C468.816 182.163 468.839 182.139 468.857 182.112C468.876 182.084 468.888 182.053 468.894 182.02C468.9 181.987 468.9 181.954 468.893 181.921C468.886 181.889 468.873 181.858 468.854 181.83Z" fill="black"/>
</g>
<path d="M492.191 182.38L490.808 180.401C490.725 180.286 490.601 180.208 490.462 180.182C490.323 180.157 490.179 180.186 490.061 180.264L488.02 181.649C487.904 181.729 487.823 181.851 487.795 181.989C487.766 182.127 487.792 182.271 487.866 182.391L489.134 184.343C489.212 184.46 489.333 184.543 489.471 184.574C489.609 184.605 489.754 184.581 489.875 184.508L492.037 183.144C492.097 183.104 492.149 183.053 492.19 182.993C492.23 182.933 492.258 182.865 492.272 182.794C492.287 182.723 492.287 182.65 492.273 182.579C492.259 182.508 492.231 182.44 492.191 182.38Z" fill="#464A5F"/>
<path d="M488.491 184.931L487.108 182.957C487.026 182.844 486.903 182.767 486.765 182.741C486.627 182.716 486.485 182.744 486.367 182.82L484.32 184.2C484.205 184.28 484.124 184.402 484.095 184.54C484.067 184.678 484.092 184.822 484.167 184.942L485.434 186.893C485.513 187.011 485.634 187.094 485.772 187.125C485.91 187.155 486.054 187.132 486.175 187.058L488.338 185.7C488.399 185.66 488.451 185.609 488.492 185.548C488.533 185.488 488.562 185.42 488.576 185.348C488.59 185.276 488.59 185.202 488.576 185.131C488.561 185.059 488.532 184.991 488.491 184.931Z" fill="#464A5F"/>
<path d="M484.65 187.613L483.267 185.64C483.184 185.525 483.06 185.447 482.921 185.421C482.782 185.396 482.638 185.425 482.52 185.503L480.479 186.888C480.363 186.968 480.282 187.09 480.254 187.228C480.225 187.366 480.251 187.51 480.325 187.63L481.593 189.581C481.672 189.698 481.793 189.78 481.931 189.81C482.069 189.839 482.213 189.815 482.334 189.741L484.496 188.383C484.557 188.343 484.61 188.291 484.65 188.231C484.691 188.17 484.72 188.102 484.734 188.031C484.748 187.959 484.748 187.885 484.734 187.813C484.719 187.742 484.691 187.674 484.65 187.613Z" fill="#464A5F"/>
<path d="M480.731 190.324L479.348 188.345C479.265 188.231 479.142 188.154 479.004 188.128C478.867 188.103 478.724 188.131 478.607 188.207L476.56 189.592C476.499 189.633 476.448 189.686 476.408 189.747C476.368 189.808 476.341 189.876 476.328 189.947C476.314 190.019 476.315 190.093 476.331 190.164C476.346 190.235 476.375 190.302 476.417 190.362L477.685 192.314C477.763 192.431 477.884 192.514 478.022 192.545C478.16 192.576 478.305 192.552 478.426 192.478L480.582 191.115C480.646 191.075 480.701 191.022 480.743 190.959C480.786 190.897 480.815 190.826 480.829 190.752C480.843 190.677 480.841 190.601 480.824 190.527C480.807 190.454 480.775 190.384 480.731 190.324Z" fill="#464A5F"/>
<path d="M476.823 193.034L475.44 191.06C475.358 190.947 475.235 190.87 475.097 190.844C474.959 190.818 474.817 190.847 474.7 190.923L472.652 192.303C472.538 192.384 472.458 192.506 472.431 192.644C472.403 192.782 472.429 192.925 472.504 193.045L473.767 194.996C473.845 195.114 473.966 195.197 474.104 195.228C474.242 195.258 474.387 195.234 474.507 195.161L476.67 193.798C476.73 193.758 476.782 193.706 476.822 193.646C476.863 193.586 476.891 193.519 476.905 193.448C476.919 193.377 476.92 193.304 476.906 193.233C476.892 193.161 476.864 193.094 476.823 193.034Z" fill="#464A5F"/>
<path d="M473.086 195.991L471.368 193.539C471.35 193.512 471.327 193.489 471.299 193.471C471.272 193.453 471.241 193.44 471.209 193.434C471.177 193.428 471.144 193.428 471.112 193.435C471.08 193.442 471.049 193.455 471.023 193.473L468.509 195.172C468.481 195.19 468.457 195.213 468.439 195.24C468.42 195.267 468.407 195.298 468.401 195.33C468.394 195.362 468.394 195.396 468.4 195.428C468.407 195.46 468.419 195.491 468.438 195.518L470.013 197.943C470.049 197.998 470.105 198.038 470.17 198.052C470.235 198.066 470.302 198.055 470.359 198.02L473.015 196.37C473.047 196.352 473.074 196.327 473.096 196.298C473.117 196.268 473.131 196.234 473.138 196.197C473.145 196.161 473.144 196.124 473.135 196.089C473.126 196.053 473.109 196.02 473.086 195.991Z" fill="#464A5F"/>
<path d="M469.178 198.701L467.46 196.249C467.441 196.222 467.417 196.199 467.39 196.18C467.362 196.162 467.331 196.15 467.298 196.144C467.266 196.137 467.232 196.138 467.2 196.145C467.167 196.152 467.136 196.165 467.109 196.184L464.601 197.882C464.573 197.9 464.549 197.923 464.531 197.95C464.512 197.977 464.499 198.008 464.492 198.04C464.486 198.073 464.486 198.106 464.492 198.138C464.498 198.17 464.511 198.201 464.529 198.228L466.105 200.658C466.122 200.686 466.145 200.71 466.173 200.728C466.2 200.747 466.23 200.76 466.262 200.767C466.295 200.773 466.328 200.774 466.36 200.767C466.392 200.761 466.423 200.748 466.45 200.73L469.107 199.081C469.138 199.062 469.165 199.037 469.185 199.007C469.206 198.977 469.22 198.943 469.227 198.907C469.234 198.871 469.233 198.834 469.225 198.799C469.216 198.763 469.2 198.73 469.178 198.701Z" fill="#464A5F"/>
<path d="M465.715 201.104L463.997 198.646C463.959 198.593 463.901 198.557 463.837 198.546C463.772 198.535 463.706 198.549 463.652 198.586L461.138 200.257C461.083 200.295 461.045 200.353 461.032 200.418C461.018 200.484 461.031 200.552 461.067 200.609L462.642 203.033C462.679 203.088 462.735 203.126 462.8 203.14C462.864 203.155 462.931 203.144 462.988 203.11L465.644 201.461C465.673 201.443 465.697 201.419 465.716 201.391C465.736 201.362 465.749 201.331 465.756 201.297C465.762 201.264 465.762 201.23 465.755 201.196C465.748 201.163 465.735 201.131 465.715 201.104Z" fill="#464A5F"/>
<path d="M461.84 203.792L460.123 201.356C460.084 201.303 460.026 201.267 459.962 201.256C459.897 201.245 459.831 201.259 459.777 201.296L457.263 202.989C457.235 203.007 457.211 203.031 457.193 203.059C457.174 203.086 457.161 203.117 457.154 203.15C457.148 203.183 457.148 203.217 457.154 203.249C457.161 203.282 457.173 203.313 457.192 203.341L458.767 205.765C458.804 205.82 458.86 205.858 458.925 205.872C458.989 205.887 459.056 205.876 459.113 205.842L461.769 204.193C461.805 204.175 461.836 204.15 461.859 204.118C461.883 204.086 461.899 204.049 461.906 204.01C461.913 203.971 461.911 203.931 461.899 203.893C461.888 203.855 461.868 203.82 461.84 203.792Z" fill="#464A5F"/>
<path d="M458.087 206.392L456.369 203.94C456.351 203.913 456.328 203.889 456.3 203.871C456.273 203.853 456.242 203.841 456.21 203.835C456.178 203.828 456.145 203.829 456.113 203.836C456.081 203.842 456.05 203.855 456.024 203.874L453.51 205.573C453.482 205.591 453.458 205.614 453.44 205.641C453.421 205.668 453.408 205.699 453.402 205.731C453.395 205.763 453.395 205.796 453.401 205.829C453.408 205.861 453.42 205.892 453.439 205.919L455.014 208.343C455.031 208.371 455.054 208.396 455.081 208.415C455.108 208.434 455.138 208.448 455.17 208.455C455.203 208.462 455.236 208.463 455.268 208.457C455.301 208.451 455.332 208.438 455.359 208.42L458.016 206.771C458.048 206.753 458.075 206.728 458.097 206.698C458.118 206.668 458.132 206.634 458.139 206.598C458.146 206.562 458.145 206.525 458.136 206.489C458.127 206.454 458.11 206.42 458.087 206.392Z" fill="#464A5F"/>
<path d="M454.332 208.997L452.615 206.54C452.576 206.487 452.519 206.451 452.454 206.44C452.389 206.429 452.323 206.443 452.269 206.48L449.755 208.173C449.7 208.211 449.662 208.269 449.649 208.334C449.635 208.4 449.648 208.468 449.684 208.525L451.259 210.949C451.296 211.004 451.352 211.042 451.417 211.056C451.481 211.071 451.548 211.06 451.605 211.026L454.261 209.377C454.293 209.359 454.321 209.334 454.342 209.304C454.363 209.274 454.378 209.24 454.385 209.204C454.391 209.168 454.39 209.13 454.381 209.095C454.372 209.059 454.356 209.026 454.332 208.997Z" fill="#464A5F"/>
<path d="M450.579 211.598L448.861 209.146C448.843 209.119 448.82 209.095 448.793 209.077C448.765 209.059 448.735 209.047 448.702 209.04C448.67 209.034 448.637 209.035 448.605 209.041C448.573 209.048 448.543 209.061 448.516 209.08L446.002 210.779C445.974 210.796 445.951 210.82 445.932 210.847C445.913 210.874 445.9 210.904 445.894 210.937C445.887 210.969 445.887 211.002 445.893 211.035C445.9 211.067 445.912 211.098 445.931 211.125L447.506 213.549C447.523 213.577 447.546 213.602 447.573 213.621C447.6 213.64 447.63 213.654 447.663 213.661C447.695 213.668 447.728 213.669 447.761 213.663C447.793 213.657 447.824 213.644 447.852 213.626L450.508 211.977C450.54 211.959 450.567 211.934 450.589 211.904C450.61 211.874 450.625 211.84 450.631 211.804C450.638 211.768 450.637 211.731 450.628 211.695C450.619 211.659 450.602 211.626 450.579 211.598Z" fill="#464A5F"/>
<path d="M489.715 178.818L488.332 176.839C488.249 176.726 488.127 176.648 487.989 176.623C487.851 176.597 487.709 176.625 487.591 176.701L485.544 178.087C485.429 178.168 485.35 178.29 485.322 178.428C485.295 178.566 485.321 178.71 485.396 178.829L486.658 180.78C486.737 180.898 486.858 180.981 486.996 181.012C487.134 181.043 487.278 181.019 487.399 180.945L489.561 179.582C489.622 179.542 489.674 179.491 489.714 179.431C489.754 179.37 489.783 179.303 489.797 179.232C489.811 179.161 489.811 179.088 489.797 179.017C489.783 178.946 489.755 178.878 489.715 178.818Z" fill="#464A5F"/>
<path d="M484.309 170.979L482.926 169.005C482.843 168.892 482.72 168.815 482.583 168.789C482.445 168.764 482.303 168.792 482.185 168.868L480.138 170.248C480.023 170.329 479.944 170.451 479.916 170.589C479.888 170.727 479.915 170.871 479.99 170.99L481.257 172.941C481.336 173.058 481.456 173.14 481.592 173.17C481.729 173.201 481.872 173.178 481.993 173.106L484.155 171.749C484.216 171.709 484.269 171.657 484.31 171.596C484.351 171.536 484.379 171.468 484.393 171.396C484.408 171.324 484.407 171.251 484.393 171.179C484.378 171.107 484.35 171.039 484.309 170.979Z" fill="#464A5F"/>
<path d="M486.032 181.352L484.649 179.368C484.567 179.254 484.444 179.177 484.306 179.151C484.169 179.126 484.026 179.154 483.909 179.23L481.861 180.61C481.747 180.691 481.667 180.813 481.64 180.951C481.612 181.09 481.638 181.233 481.713 181.352L482.981 183.304C483.059 183.42 483.179 183.502 483.316 183.533C483.453 183.563 483.596 183.54 483.716 183.469L485.879 182.111C485.999 182.03 486.083 181.905 486.112 181.763C486.14 181.621 486.112 181.473 486.032 181.352Z" fill="#464A5F"/>
<path d="M482.168 184.029L480.807 182.056C480.724 181.942 480.602 181.865 480.464 181.84C480.326 181.814 480.184 181.842 480.066 181.918L478.019 183.298C477.903 183.379 477.822 183.503 477.795 183.642C477.767 183.781 477.794 183.926 477.871 184.046L479.133 185.997C479.213 186.114 479.334 186.196 479.472 186.226C479.61 186.255 479.754 186.231 479.874 186.157L482.036 184.799C482.096 184.757 482.146 184.704 482.185 184.643C482.224 184.582 482.25 184.513 482.262 184.442C482.275 184.37 482.273 184.297 482.257 184.226C482.24 184.155 482.21 184.088 482.168 184.029Z" fill="#464A5F"/>
<path d="M478.261 186.745L476.878 184.766C476.795 184.651 476.671 184.573 476.532 184.547C476.393 184.522 476.25 184.551 476.131 184.628L474.09 186.014C473.974 186.094 473.894 186.216 473.865 186.354C473.836 186.492 473.862 186.636 473.936 186.756L475.204 188.707C475.282 188.825 475.403 188.908 475.541 188.939C475.679 188.97 475.824 188.946 475.945 188.872L478.107 187.509C478.168 187.469 478.219 187.418 478.26 187.358C478.3 187.297 478.328 187.23 478.343 187.159C478.357 187.088 478.357 187.015 478.343 186.944C478.329 186.873 478.301 186.805 478.261 186.745Z" fill="#464A5F"/>
<path d="M480.714 173.656L479.331 171.672C479.248 171.558 479.126 171.481 478.988 171.455C478.85 171.43 478.708 171.458 478.59 171.534L476.543 172.914C476.428 172.995 476.349 173.117 476.321 173.255C476.294 173.394 476.32 173.537 476.395 173.656L477.663 175.608C477.741 175.724 477.861 175.806 477.998 175.836C478.134 175.867 478.278 175.844 478.398 175.773L480.56 174.415C480.681 174.334 480.764 174.209 480.793 174.067C480.822 173.925 480.794 173.777 480.714 173.656Z" fill="#464A5F"/>
<path d="M476.851 176.339L475.468 174.36C475.385 174.246 475.262 174.169 475.125 174.144C474.987 174.118 474.845 174.146 474.727 174.222L472.68 175.608C472.564 175.688 472.483 175.81 472.455 175.948C472.426 176.086 472.452 176.23 472.526 176.35L473.794 178.301C473.872 178.419 473.993 178.502 474.131 178.533C474.269 178.563 474.414 178.54 474.535 178.466L476.697 177.103C476.757 177.063 476.809 177.011 476.85 176.951C476.89 176.891 476.918 176.824 476.933 176.753C476.947 176.682 476.947 176.609 476.933 176.538C476.919 176.467 476.891 176.399 476.851 176.339Z" fill="#464A5F"/>
<path d="M472.943 179.049L471.56 177.075C471.477 176.961 471.353 176.882 471.214 176.857C471.075 176.831 470.931 176.86 470.813 176.938L468.772 178.318C468.656 178.398 468.575 178.52 468.547 178.658C468.518 178.796 468.543 178.94 468.618 179.06L469.886 181.017C469.964 181.135 470.085 181.218 470.223 181.248C470.361 181.279 470.506 181.255 470.627 181.182L472.783 179.818C472.845 179.779 472.898 179.728 472.939 179.667C472.981 179.607 473.01 179.539 473.025 179.467C473.039 179.396 473.04 179.322 473.026 179.25C473.012 179.178 472.983 179.11 472.943 179.049Z" fill="#464A5F"/>
<path d="M474.348 189.455L472.965 187.482C472.882 187.368 472.759 187.291 472.622 187.265C472.484 187.24 472.342 187.268 472.224 187.344L470.177 188.713C470.062 188.794 469.983 188.916 469.955 189.054C469.927 189.192 469.954 189.336 470.029 189.455L471.296 191.406C471.375 191.523 471.495 191.605 471.631 191.635C471.768 191.666 471.911 191.643 472.032 191.571L474.194 190.208C474.313 190.128 474.396 190.004 474.424 189.863C474.453 189.722 474.426 189.576 474.348 189.455Z" fill="#464A5F"/>
<path d="M470.441 192.165L469.058 190.192C468.975 190.078 468.852 190.001 468.714 189.975C468.577 189.95 468.434 189.978 468.317 190.054L466.27 191.461C466.154 191.542 466.073 191.664 466.045 191.802C466.016 191.94 466.042 192.084 466.116 192.204L467.384 194.155C467.462 194.273 467.583 194.356 467.721 194.387C467.859 194.417 468.004 194.393 468.125 194.32L470.287 192.962C470.352 192.922 470.408 192.869 470.451 192.807C470.495 192.744 470.525 192.673 470.539 192.598C470.554 192.523 470.552 192.445 470.535 192.371C470.518 192.297 470.486 192.226 470.441 192.165Z" fill="#464A5F"/>
<path d="M466.703 195.123L464.985 192.671C464.967 192.644 464.943 192.62 464.916 192.602C464.889 192.584 464.858 192.571 464.826 192.565C464.794 192.559 464.761 192.56 464.729 192.566C464.697 192.573 464.666 192.586 464.639 192.605L462.148 194.304C462.12 194.321 462.096 194.344 462.078 194.372C462.059 194.399 462.046 194.429 462.039 194.462C462.033 194.494 462.032 194.527 462.039 194.559C462.045 194.592 462.058 194.623 462.076 194.65L463.651 197.074C463.669 197.102 463.692 197.127 463.718 197.146C463.745 197.165 463.776 197.179 463.808 197.186C463.84 197.193 463.874 197.194 463.906 197.188C463.939 197.182 463.97 197.169 463.997 197.151L466.653 195.502C466.683 195.481 466.708 195.455 466.727 195.424C466.745 195.393 466.757 195.359 466.762 195.323C466.767 195.287 466.764 195.251 466.754 195.217C466.743 195.182 466.726 195.15 466.703 195.123Z" fill="#464A5F"/>
<path d="M463.245 197.508L461.527 195.051C461.488 194.998 461.429 194.962 461.364 194.95C461.299 194.939 461.231 194.954 461.176 194.991L458.663 196.684C458.609 196.723 458.571 196.78 458.558 196.846C458.545 196.911 458.557 196.979 458.591 197.036L460.172 199.46C460.208 199.516 460.264 199.555 460.329 199.569C460.394 199.584 460.461 199.572 460.518 199.537L463.168 197.888C463.201 197.871 463.23 197.847 463.253 197.817C463.275 197.787 463.291 197.753 463.298 197.717C463.305 197.68 463.305 197.642 463.295 197.606C463.286 197.57 463.269 197.537 463.245 197.508Z" fill="#464A5F"/>
<path d="M459.365 200.213L457.647 197.756C457.608 197.703 457.551 197.667 457.486 197.656C457.422 197.644 457.355 197.658 457.301 197.695L454.788 199.388C454.732 199.426 454.694 199.484 454.681 199.55C454.668 199.616 454.68 199.684 454.716 199.74L456.291 202.165C456.328 202.219 456.385 202.258 456.449 202.272C456.513 202.286 456.581 202.275 456.637 202.241L459.293 200.592C459.327 200.576 459.356 200.552 459.379 200.522C459.401 200.492 459.416 200.457 459.423 200.42C459.43 200.384 459.428 200.346 459.418 200.31C459.408 200.274 459.39 200.241 459.365 200.213Z" fill="#464A5F"/>
<path d="M455.617 202.813L453.916 200.361C453.898 200.334 453.874 200.311 453.847 200.293C453.82 200.275 453.789 200.262 453.757 200.256C453.725 200.25 453.692 200.25 453.66 200.257C453.628 200.264 453.597 200.277 453.57 200.295L451.057 201.994C451.002 202.031 450.964 202.088 450.951 202.153C450.937 202.217 450.95 202.285 450.985 202.34L452.56 204.765C452.596 204.82 452.653 204.86 452.718 204.874C452.782 204.889 452.85 204.877 452.906 204.842L455.563 203.193C455.594 203.174 455.621 203.148 455.641 203.117C455.661 203.087 455.675 203.052 455.68 203.016C455.685 202.98 455.682 202.943 455.671 202.908C455.661 202.872 455.642 202.84 455.617 202.813Z" fill="#464A5F"/>
<path d="M479.595 180.313L478.217 178.334C478.135 178.219 478.011 178.141 477.872 178.115C477.733 178.09 477.589 178.119 477.471 178.197L475.424 179.582C475.309 179.663 475.23 179.785 475.202 179.924C475.174 180.062 475.201 180.205 475.276 180.324L476.544 182.276C476.623 182.393 476.744 182.474 476.882 182.504C477.02 182.534 477.164 182.509 477.284 182.435L479.441 181.077C479.502 181.037 479.553 180.986 479.594 180.926C479.634 180.866 479.662 180.798 479.677 180.727C479.691 180.656 479.691 180.583 479.677 180.512C479.663 180.441 479.635 180.373 479.595 180.313Z" fill="#464A5F"/>
<path d="M475.687 183.023L474.304 181.05C474.222 180.936 474.1 180.857 473.962 180.831C473.824 180.804 473.681 180.831 473.563 180.907L471.516 182.292C471.401 182.373 471.321 182.496 471.294 182.634C471.266 182.772 471.293 182.915 471.368 183.034L472.635 184.986C472.714 185.102 472.834 185.184 472.97 185.215C473.107 185.245 473.25 185.222 473.371 185.151L475.533 183.787C475.593 183.747 475.645 183.696 475.686 183.636C475.726 183.576 475.754 183.508 475.768 183.437C475.783 183.366 475.783 183.293 475.769 183.222C475.755 183.151 475.727 183.084 475.687 183.023Z" fill="#464A5F"/>
<path d="M471.779 185.733L470.38 183.765C470.297 183.651 470.173 183.572 470.034 183.547C469.895 183.521 469.752 183.55 469.634 183.628L467.636 185.002C467.52 185.083 467.439 185.204 467.411 185.343C467.382 185.481 467.408 185.625 467.482 185.744L468.75 187.696C468.828 187.814 468.949 187.897 469.087 187.927C469.225 187.958 469.37 187.934 469.491 187.861L471.653 186.503C471.712 186.461 471.762 186.408 471.8 186.346C471.839 186.285 471.864 186.216 471.876 186.145C471.888 186.073 471.885 186 471.869 185.929C471.852 185.859 471.822 185.792 471.779 185.733Z" fill="#464A5F"/>
<path d="M467.866 188.444L466.483 186.47C466.401 186.357 466.278 186.279 466.14 186.254C466.002 186.228 465.86 186.256 465.743 186.333L463.695 187.712C463.581 187.794 463.501 187.916 463.474 188.054C463.446 188.192 463.472 188.335 463.547 188.455L464.815 190.406C464.893 190.522 465.013 190.604 465.15 190.635C465.287 190.666 465.43 190.643 465.55 190.571L467.713 189.213C467.774 189.173 467.826 189.121 467.867 189.061C467.908 189 467.937 188.932 467.951 188.861C467.965 188.789 467.965 188.715 467.951 188.644C467.936 188.572 467.907 188.504 467.866 188.444Z" fill="#464A5F"/>
<path d="M464.134 191.401L462.417 188.949C462.398 188.922 462.374 188.898 462.346 188.88C462.318 188.862 462.287 188.849 462.255 188.843C462.222 188.837 462.189 188.838 462.156 188.844C462.124 188.851 462.093 188.864 462.065 188.883L459.552 190.582C459.497 190.619 459.459 190.676 459.446 190.741C459.432 190.805 459.445 190.873 459.48 190.928L461.056 193.358C461.074 193.386 461.097 193.41 461.125 193.429C461.153 193.447 461.184 193.46 461.216 193.467C461.249 193.474 461.283 193.474 461.315 193.467C461.348 193.461 461.379 193.448 461.407 193.429L464.058 191.78C464.09 191.763 464.118 191.738 464.14 191.708C464.162 191.679 464.177 191.645 464.184 191.609C464.191 191.572 464.191 191.535 464.182 191.499C464.174 191.463 464.157 191.43 464.134 191.401Z" fill="#464A5F"/>
<path d="M460.672 193.803L458.954 191.352C458.936 191.324 458.912 191.301 458.885 191.283C458.857 191.265 458.827 191.252 458.795 191.246C458.762 191.24 458.729 191.24 458.697 191.247C458.665 191.254 458.635 191.267 458.608 191.286L456.111 192.979C456.056 193.017 456.017 193.075 456.004 193.14C455.991 193.206 456.004 193.274 456.039 193.331L457.615 195.755C457.652 195.809 457.708 195.848 457.772 195.862C457.836 195.876 457.904 195.866 457.96 195.832L460.617 194.183C460.647 194.163 460.673 194.137 460.693 194.107C460.713 194.076 460.726 194.042 460.731 194.006C460.736 193.97 460.734 193.933 460.723 193.898C460.713 193.863 460.695 193.831 460.672 193.803Z" fill="#464A5F"/>
<path d="M456.797 196.491L455.08 194.034C455.04 193.981 454.981 193.945 454.916 193.933C454.851 193.922 454.783 193.937 454.728 193.974L452.22 195.667C452.165 195.705 452.127 195.763 452.114 195.828C452.1 195.894 452.113 195.962 452.149 196.019L453.724 198.443C453.76 198.499 453.816 198.538 453.881 198.552C453.946 198.567 454.014 198.555 454.07 198.52L456.726 196.871C456.758 196.853 456.785 196.828 456.807 196.798C456.828 196.768 456.843 196.734 456.849 196.698C456.856 196.662 456.855 196.624 456.846 196.589C456.837 196.553 456.82 196.52 456.797 196.491Z" fill="#464A5F"/>
<path d="M453.043 199.092L451.325 196.64C451.307 196.612 451.283 196.589 451.255 196.571C451.227 196.553 451.196 196.54 451.163 196.534C451.131 196.528 451.097 196.528 451.065 196.535C451.032 196.542 451.002 196.555 450.974 196.574L448.466 198.272C448.438 198.29 448.415 198.313 448.396 198.341C448.377 198.368 448.364 198.398 448.358 198.431C448.351 198.463 448.351 198.496 448.357 198.528C448.364 198.561 448.376 198.591 448.395 198.619L449.97 201.049C449.988 201.076 450.011 201.1 450.038 201.119C450.065 201.137 450.095 201.15 450.128 201.157C450.16 201.164 450.193 201.164 450.225 201.158C450.258 201.151 450.288 201.138 450.316 201.12L452.972 199.471C453.003 199.452 453.03 199.427 453.051 199.397C453.071 199.367 453.086 199.333 453.092 199.297C453.099 199.261 453.098 199.225 453.09 199.189C453.081 199.154 453.065 199.12 453.043 199.092Z" fill="#464A5F"/>
<path d="M451.863 205.419L450.146 202.962C450.106 202.908 450.047 202.872 449.982 202.861C449.917 202.85 449.849 202.864 449.794 202.901L447.281 204.594C447.226 204.632 447.187 204.69 447.174 204.756C447.161 204.821 447.173 204.89 447.209 204.946L448.785 207.37C448.821 207.425 448.878 207.463 448.942 207.478C449.006 207.492 449.074 207.481 449.13 207.447L451.787 205.798C451.82 205.781 451.848 205.757 451.871 205.727C451.893 205.698 451.909 205.663 451.916 205.627C451.924 205.591 451.923 205.553 451.914 205.517C451.904 205.481 451.887 205.447 451.863 205.419Z" fill="#464A5F"/>
<path d="M448.109 208.019L446.391 205.567C446.372 205.54 446.349 205.516 446.321 205.498C446.293 205.48 446.262 205.467 446.229 205.461C446.197 205.455 446.163 205.456 446.131 205.462C446.098 205.469 446.067 205.483 446.04 205.501L443.526 207.2C443.472 207.237 443.434 207.294 443.42 207.359C443.407 207.423 443.419 207.491 443.455 207.546L445.03 209.971C445.048 209.999 445.071 210.023 445.099 210.043C445.126 210.062 445.157 210.075 445.19 210.083C445.222 210.09 445.256 210.09 445.289 210.084C445.322 210.078 445.353 210.066 445.381 210.048L448.032 208.398C448.065 208.381 448.094 208.357 448.117 208.328C448.139 208.298 448.154 208.264 448.162 208.227C448.169 208.191 448.168 208.153 448.159 208.117C448.15 208.081 448.133 208.048 448.109 208.019Z" fill="#464A5F"/>
<path d="M453.998 192.445L452.379 190.131C452.327 190.059 452.25 190.011 452.163 189.995C452.075 189.98 451.986 189.999 451.913 190.049L449.525 191.648C449.452 191.699 449.401 191.776 449.384 191.863C449.366 191.95 449.384 192.041 449.432 192.116L450.914 194.402C450.963 194.477 451.04 194.529 451.127 194.547C451.214 194.566 451.305 194.549 451.38 194.501L453.883 192.924C453.923 192.901 453.958 192.87 453.986 192.834C454.014 192.797 454.034 192.755 454.045 192.71C454.056 192.665 454.057 192.618 454.049 192.573C454.041 192.527 454.024 192.484 453.998 192.445Z" fill="#464A5F"/>
<path d="M450.244 195.046L448.625 192.737C448.6 192.7 448.568 192.669 448.531 192.645C448.495 192.621 448.453 192.604 448.41 192.596C448.367 192.588 448.322 192.588 448.279 192.597C448.236 192.606 448.195 192.624 448.158 192.649L445.788 194.254C445.715 194.303 445.664 194.379 445.646 194.466C445.629 194.552 445.646 194.642 445.694 194.716L447.176 197.003C447.225 197.077 447.301 197.129 447.388 197.149C447.475 197.168 447.566 197.153 447.643 197.107L450.151 195.529C450.189 195.504 450.221 195.471 450.247 195.433C450.272 195.395 450.289 195.352 450.298 195.307C450.307 195.262 450.306 195.216 450.297 195.171C450.288 195.126 450.27 195.083 450.244 195.046Z" fill="#464A5F"/>
<path d="M446.491 197.651L444.844 195.337C444.793 195.266 444.717 195.217 444.63 195.202C444.544 195.186 444.455 195.205 444.383 195.255L442.007 196.854C441.933 196.904 441.882 196.981 441.865 197.069C441.848 197.156 441.865 197.247 441.913 197.321L443.395 199.608C443.445 199.683 443.521 199.735 443.608 199.753C443.696 199.772 443.787 199.755 443.862 199.707L446.37 198.13C446.411 198.107 446.446 198.077 446.475 198.041C446.503 198.004 446.524 197.962 446.535 197.917C446.546 197.872 446.548 197.825 446.541 197.779C446.533 197.734 446.516 197.69 446.491 197.651Z" fill="#464A5F"/>
<path d="M442.791 200.328L441.073 197.871C441.034 197.818 440.975 197.782 440.91 197.77C440.845 197.759 440.777 197.774 440.722 197.811L438.209 199.504C438.154 199.543 438.117 199.601 438.105 199.666C438.093 199.732 438.106 199.8 438.143 199.856L439.718 202.28C439.754 202.336 439.81 202.375 439.875 202.389C439.94 202.404 440.007 202.392 440.064 202.357L442.72 200.708C442.752 200.69 442.779 200.665 442.801 200.635C442.822 200.605 442.837 200.571 442.843 200.535C442.85 200.499 442.849 200.461 442.84 200.426C442.831 200.39 442.814 200.357 442.791 200.328Z" fill="#464A5F"/>
<path d="M487.212 174.97L485.747 172.848C485.663 172.734 485.539 172.657 485.4 172.632C485.261 172.608 485.118 172.638 485 172.716L479.161 176.789C479.048 176.871 478.971 176.993 478.945 177.13C478.918 177.266 478.944 177.408 479.018 177.526L480.423 179.692C480.464 179.752 480.515 179.803 480.575 179.843C480.636 179.883 480.703 179.911 480.774 179.925C480.845 179.939 480.918 179.938 480.988 179.924C481.059 179.909 481.126 179.881 481.186 179.84L487.075 175.712C487.188 175.629 487.265 175.506 487.291 175.368C487.316 175.23 487.288 175.088 487.212 174.97Z" fill="#464A5F"/>
<path d="M449.278 201.615L447.456 199.037C447.437 199.009 447.413 198.985 447.385 198.967C447.357 198.949 447.326 198.937 447.293 198.931C447.26 198.926 447.227 198.927 447.194 198.934C447.162 198.942 447.131 198.956 447.105 198.976L440.837 203.374C440.783 203.412 440.746 203.469 440.734 203.534C440.722 203.598 440.735 203.665 440.771 203.72L442.489 206.37C442.507 206.399 442.531 206.423 442.559 206.442C442.587 206.462 442.619 206.475 442.652 206.482C442.685 206.488 442.72 206.488 442.753 206.481C442.786 206.474 442.818 206.461 442.846 206.441L449.217 201.972C449.272 201.932 449.309 201.873 449.321 201.806C449.332 201.739 449.317 201.67 449.278 201.615Z" fill="#464A5F"/>
<path d="M469.216 181.896L467.57 179.45C467.532 179.395 467.474 179.357 467.408 179.343C467.343 179.33 467.275 179.343 467.218 179.379L453.306 188.779C453.278 188.797 453.254 188.82 453.236 188.847C453.217 188.874 453.204 188.905 453.197 188.937C453.191 188.969 453.191 189.003 453.197 189.035C453.203 189.067 453.216 189.098 453.235 189.125L454.947 191.764C454.965 191.792 454.989 191.817 455.017 191.836C455.045 191.856 455.077 191.869 455.11 191.876C455.143 191.882 455.178 191.882 455.211 191.875C455.244 191.868 455.276 191.855 455.304 191.835L469.178 182.248C469.229 182.206 469.261 182.146 469.269 182.08C469.276 182.014 469.257 181.948 469.216 181.896Z" fill="#464A5F"/>
<path opacity="0.1" d="M469.282 173.497L461.884 162.728C461.68 162.428 461.365 162.222 461.01 162.154C460.654 162.086 460.286 162.162 459.985 162.365L439.608 176.069C439.458 176.171 439.329 176.301 439.229 176.453C439.13 176.604 439.061 176.774 439.027 176.952C438.993 177.13 438.994 177.314 439.03 177.491C439.067 177.669 439.138 177.838 439.24 177.988L446.781 189.065C446.882 189.215 447.012 189.344 447.164 189.444C447.315 189.544 447.485 189.612 447.663 189.646C447.841 189.68 448.024 189.678 448.201 189.64C448.379 189.603 448.547 189.53 448.696 189.427L468.931 175.404C469.08 175.302 469.206 175.172 469.304 175.021C469.402 174.87 469.47 174.701 469.502 174.523C469.535 174.346 469.532 174.164 469.495 173.988C469.457 173.812 469.385 173.645 469.282 173.497Z" fill="black"/>
<path d="M469.622 173.563L462.224 162.794C462.019 162.496 461.704 162.29 461.349 162.223C460.994 162.155 460.626 162.229 460.325 162.431L439.975 176.146C439.824 176.247 439.694 176.377 439.594 176.528C439.493 176.679 439.423 176.849 439.389 177.028C439.354 177.206 439.355 177.39 439.391 177.568C439.428 177.746 439.5 177.915 439.602 178.065L447.121 189.131C447.222 189.281 447.352 189.41 447.504 189.51C447.655 189.61 447.825 189.678 448.003 189.712C448.181 189.746 448.364 189.744 448.541 189.706C448.719 189.669 448.887 189.596 449.036 189.493L469.282 175.47C469.429 175.367 469.555 175.237 469.652 175.085C469.749 174.933 469.815 174.764 469.847 174.587C469.879 174.41 469.875 174.228 469.836 174.052C469.798 173.877 469.725 173.71 469.622 173.563Z" fill="#939498"/>
<path d="M515.498 190.967L499.802 185.722L449.459 220.75L465.04 225.835C465.46 225.973 465.906 226.01 466.343 225.946C466.781 225.881 467.197 225.715 467.559 225.462L515.641 191.973C515.734 191.917 515.809 191.836 515.857 191.738C515.904 191.639 515.921 191.53 515.905 191.422C515.89 191.314 515.843 191.213 515.771 191.132C515.698 191.051 515.603 190.994 515.498 190.967Z" fill="#FADE4B"/>
</svg>
