<svg width="353" height="374" viewBox="0 0 353 374" fill="none" xmlns="http://www.w3.org/2000/svg">
<path d="M180.171 329.276V349.247H185.84L184.743 327.808L180.171 329.276Z" fill="#AAABB0"/>
<path d="M95.0107 325.246V345.218H100.685L99.5879 323.779L95.0107 325.246Z" fill="#AAABB0"/>
<path d="M194.073 295.93C194.073 293.905 192.435 292.263 190.415 292.263C188.395 292.263 186.757 293.905 186.757 295.93V324.147C186.757 326.172 188.395 327.814 190.415 327.814C192.435 327.814 194.073 326.172 194.073 324.147V295.93Z" fill="#AAABB0"/>
<path d="M100.224 288.047C100.224 286.022 98.5863 284.38 96.5661 284.38C94.5459 284.38 92.9082 286.022 92.9082 288.047V324.141C92.9082 326.166 94.5459 327.808 96.5661 327.808C98.5863 327.808 100.224 326.166 100.224 324.141V288.047Z" fill="#AAABB0"/>
<path d="M203.407 79.5221C203.407 79.5221 210.723 76.4052 211.821 79.5221C212.918 82.639 213.467 109.575 213.467 109.575H206.514L203.407 79.5221Z" fill="#AAABB0"/>
<path d="M123.28 79.5221C123.28 79.5221 115.959 76.4052 114.861 79.5221C113.764 82.639 113.215 109.575 113.215 109.575H120.168L123.28 79.5221Z" fill="#AAABB0"/>
<path d="M124.372 52.7674L123.274 75.1244H128.214V52.2177L124.372 52.7674Z" fill="#AAABB0"/>
<path d="M120.169 109.575L121.634 77.3233C121.634 77.3233 121.085 70.1769 138.461 72.3758C155.837 74.5747 206.701 78.9724 206.701 78.9724V109.575H120.169Z" fill="#303030"/>
<path d="M189.687 279.438L186.943 328.726C186.943 328.726 146.692 351.083 97.8477 329.826L102.238 277.971L189.687 279.438Z" fill="#303030"/>
<path d="M151.451 85.3821L152.362 117.266H209.077L205.784 75.1244L151.451 85.3821Z" fill="#444053"/>
<path d="M157.214 258.362H103.792V326.159H157.214V258.362Z" fill="#4C4981"/>
<path d="M137.55 286.035C137.55 286.035 145.233 279.988 146.512 281.819C147.791 283.649 141.946 291.532 139.564 290.614C137.182 289.696 137.55 286.035 137.55 286.035Z" fill="#FFB9B9"/>
<path d="M350.798 107.739H0.120117V283.649H350.798V107.739Z" fill="#303030"/>
<path d="M120.349 51.4865C120.349 51.4865 117.605 25.8312 120.349 22.7198C123.094 19.6084 169.194 -9.90053 211.821 24.7317C211.821 24.7317 215.844 24.9186 215.114 34.077C214.683 39.8734 214.713 45.6948 215.202 51.4865C215.202 51.4865 123.461 58.0832 120.349 51.4865Z" fill="#33323D"/>
<path opacity="0.1" d="M120.349 51.4865C120.349 51.4865 117.605 25.8312 120.349 22.7198C123.094 19.6084 169.194 -9.90053 211.821 24.7317C211.821 24.7317 215.844 24.9186 215.114 34.077C214.683 39.8734 214.713 45.6948 215.202 51.4865C215.202 51.4865 123.461 58.0832 120.349 51.4865Z" fill="black"/>
<path d="M120.349 54.7849C120.349 54.7849 117.605 29.1295 120.349 26.0181C123.094 22.9067 169.194 -6.60219 211.821 28.0301C211.821 28.0301 215.844 28.217 215.114 37.3753C214.683 43.1717 214.713 48.9931 215.202 54.7849C215.202 54.7849 123.461 61.3815 120.349 54.7849Z" fill="#303030"/>
<path d="M216.761 43.0593C216.761 43.0593 219.686 54.0537 218.775 55.8843C217.864 57.7148 218.028 62.8492 218.028 62.8492C218.028 62.8492 218.226 66.1475 216.761 66.5103C215.295 66.8731 214.017 67.06 215.202 68.1595C216.388 69.2589 215.202 70.9081 215.202 70.9081C215.202 70.9081 214.56 73.4753 215.202 75.1244C215.844 76.7736 211.448 77.4607 211.821 79.5222C212.195 81.5836 213.424 87.3996 211.821 87.5865C210.219 87.7734 212.37 94.9143 210.927 94.9143C209.483 94.9143 208.457 107.739 208.457 107.739C208.457 107.739 198.304 99.1306 191.537 101.511C191.537 101.511 192.086 94.3645 194.281 91.7974C196.476 89.2302 195.812 82.6391 195.812 82.6391L206.701 49.8374L216.761 43.0593Z" fill="#4C4981"/>
<path d="M162.427 194.661C160.051 197.294 157.488 183.232 157.488 183.232C157.488 183.232 150.721 192.577 146.33 186.349C143.29 182.034 145.688 169.808 147.428 162.711C148.207 159.556 148.866 157.412 148.866 157.412L158.744 155.763C158.744 155.763 158.777 157.918 158.997 160.534C159.293 164.069 159.935 168.456 161.302 169.506C163.711 171.325 164.809 192.006 162.427 194.661Z" fill="#AE6E79"/>
<path opacity="0.1" d="M157.307 30.0474C157.307 30.0474 140.107 29.866 135.903 39.0243C131.699 48.1827 131.512 51.3051 129.866 52.7673C128.219 54.2296 147.79 61.9311 147.79 61.9311L148.707 93.4465C148.707 93.4465 152.549 89.549 158.767 91.3136C164.985 93.0782 172.855 91.3136 172.855 91.3136C172.855 91.3136 172.487 90.6484 177.613 91.3136C182.739 91.9787 199.017 83.3701 199.017 83.3701C199.017 83.3701 199.286 69.5832 198.924 66.6477C198.561 63.7122 210.537 42.1412 210.537 42.1412C210.537 42.1412 219.866 33.1643 210.174 30.0474C210.174 30.0474 206.744 24.8691 197.919 24.9186C189.094 24.968 157.307 30.0474 157.307 30.0474Z" fill="black"/>
<path d="M157.307 29.4978C157.307 29.4978 140.107 29.3164 135.903 38.4747C131.699 47.633 131.512 50.7554 129.866 52.2176C128.219 53.6799 147.79 61.3814 147.79 61.3814L148.707 92.8968C148.707 92.8968 152.549 88.9993 158.767 90.7639C164.985 92.5285 172.855 90.7639 172.855 90.7639C172.855 90.7639 172.487 90.0987 177.613 90.7639C182.739 91.429 199.017 82.8205 199.017 82.8205C199.017 82.8205 205.416 72.3758 205.054 69.4458C204.692 66.5158 217.858 44.3402 217.858 44.3402C217.858 44.3402 219.872 32.6147 210.174 29.4978C210.174 29.4978 206.744 24.3194 197.919 24.3689C189.094 24.4184 157.307 29.4978 157.307 29.4978Z" fill="#4C4981"/>
<path opacity="0.1" d="M159.042 160.518C155.271 159.341 149.355 161.936 147.473 162.717C148.252 159.561 148.911 157.417 148.911 157.417L158.789 155.768C158.789 155.768 158.806 157.923 159.042 160.518Z" fill="black"/>
<path d="M135.167 52.2177H129.866C129.866 52.2177 128.768 63.3989 129.866 66.6972C130.963 69.9955 131.512 69.5173 131.144 71.958C130.777 74.3988 133.707 78.1369 133.707 78.1369C133.707 78.1369 134.07 87.3502 135.903 90.7804C137.736 94.2106 133.889 109.592 133.889 109.592C134.938 112.247 136.49 114.674 138.46 116.738C141.572 119.849 143.218 131.394 142.302 135.791C141.385 140.189 144.865 141.838 144.865 141.838C144.865 141.838 146.33 162.365 146.879 162.365C147.428 162.365 158.037 156.868 161.329 161.628L158.766 142.756L158.953 106.293C158.953 106.293 155.474 101.709 157.307 97.6794C159.14 93.6499 155.841 84.1178 155.841 84.1178L151.083 62.8657L135.167 52.2177Z" fill="#4C4981"/>
<path d="M102.238 341.919C102.238 341.919 94.5549 340.27 94.3738 341.919C94.1927 343.568 85.225 360.428 96.3879 365.376C107.551 370.323 137.363 380.949 185.845 367.206C185.845 367.206 188.951 368.306 188.221 361.528C187.492 354.75 187.492 347.235 187.492 347.235C187.492 347.235 180.17 345.218 174.682 345.954C169.194 346.691 121.447 356.399 102.238 341.919Z" fill="#33323D"/>
<path opacity="0.1" d="M102.238 341.919C102.238 341.919 94.5549 340.27 94.3738 341.919C94.1927 343.568 85.225 360.428 96.3879 365.376C107.551 370.323 137.363 380.949 185.845 367.206C185.845 367.206 188.951 368.306 188.221 361.528C187.492 354.75 187.492 347.235 187.492 347.235C187.492 347.235 180.17 345.218 174.682 345.954C169.194 346.691 121.447 356.399 102.238 341.919Z" fill="black"/>
<path d="M102.238 339.72C102.238 339.72 94.5549 338.071 94.3738 339.72C94.1927 341.37 85.225 358.229 96.3879 363.177C107.551 368.124 137.363 378.751 185.845 365.008C185.845 365.008 188.951 366.107 188.221 359.329C187.492 352.551 187.492 345.036 187.492 345.036C187.492 345.036 180.17 343.019 174.682 343.755C169.194 344.492 121.447 354.2 102.238 339.72Z" fill="#303030"/>
<path d="M147.044 58.8033C146.572 61.4914 145.502 64.0751 145.337 66.7962C145.172 69.5173 146.221 72.6122 148.729 73.6787C149.428 73.8881 150.107 74.1642 150.754 74.5033C151.72 75.1574 152.115 76.3888 152.318 77.5432C152.587 79.0336 152.652 80.5539 152.51 82.0619C152.373 83.5791 152.049 85.2118 152.795 86.5366C154.107 88.8839 157.526 88.5376 160.128 87.8779L159.233 94.8208C159.162 95.3706 159.118 95.9917 159.518 96.3656C159.708 96.4991 159.922 96.5932 160.148 96.6423C160.374 96.6914 160.608 96.6945 160.836 96.6514C163.097 96.5085 165.424 96.1952 167.361 95.0023C169.298 93.8094 170.742 91.5885 170.374 89.3512C169.946 86.7565 167.268 84.695 167.63 82.0894C167.91 80.0719 169.88 78.7911 171.175 77.2409C173.519 74.4043 173.645 70.0945 171.806 66.8842C169.968 63.6738 166.417 61.6838 162.762 61.321C160.737 61.1176 158.629 61.365 156.725 60.6613C156.062 60.4179 155.465 60.0243 154.979 59.5112C154.494 58.9982 154.133 58.3796 153.926 57.7039" fill="#444053"/>
<path d="M83.2168 303.258L85.1322 299.08C85.1322 299.08 95.4719 289.432 97.8482 288.756C100.225 288.08 109.922 285.133 111.388 285.133C112.853 285.133 139.564 283.666 139.564 283.666L142.67 290.999L109.148 298.371L97.8482 306.616L83.2168 303.258Z" fill="#767D9F"/>
<path d="M163.756 190.747L162.005 204.242L161.33 209.437L153.465 210.537C153.465 210.537 152.615 208.712 151.413 205.908C147.763 197.398 140.892 179.851 144.876 176.822C150.173 172.787 151.462 186.168 151.462 186.168L157.499 183.232L163.756 190.747Z" fill="#FFB9B9"/>
<path d="M162.444 215.852H122.726V275.953H162.444V215.852Z" fill="white"/>
<path opacity="0.1" d="M162.444 215.852H122.726V275.953H162.444V215.852Z" fill="black"/>
<path d="M180.295 219.106L141.004 213.288L132.228 272.742L171.519 278.561L180.295 219.106Z" fill="white"/>
<path d="M164.927 221.953L144.703 218.958L140.186 249.558L160.41 252.553L164.927 221.953Z" fill="#FADE4B"/>
<path d="M162.52 261.895L138.019 258.266L137.038 264.912L161.539 268.54L162.52 261.895Z" fill="#FADE4B"/>
<path opacity="0.1" d="M172.855 64.218C185.534 64.218 195.812 53.9229 195.812 41.2232C195.812 28.5236 185.534 18.2285 172.855 18.2285C160.177 18.2285 149.898 28.5236 149.898 41.2232C149.898 53.9229 160.177 64.218 172.855 64.218Z" fill="black"/>
<path d="M172.855 63.6683C185.534 63.6683 195.812 53.3732 195.812 40.6736C195.812 27.9739 185.534 17.6788 172.855 17.6788C160.177 17.6788 149.898 27.9739 149.898 40.6736C149.898 53.3732 160.177 63.6683 172.855 63.6683Z" fill="#AE6E79"/>
<path d="M153.926 57.7148C153.77 57.1226 153.826 56.4942 154.085 55.9392C154.958 54.1197 157.444 53.9603 159.458 54.0537C164.194 54.2736 169.392 54.3011 173.096 51.3051C174.633 50.0737 176.351 46.9788 178.584 47.567C180.571 48.0893 181.4 50.7884 183.469 51.3876C184.967 51.8219 186.52 51.1292 188.046 50.8379C190.241 50.4036 192.491 50.7664 194.719 50.7829C196.948 50.7994 199.368 50.3761 200.888 48.7434C202.941 46.5446 202.606 43.1088 202.425 40.0964C202.2 36.205 202.463 32.3008 203.21 28.4753C203.956 24.6713 205.103 20.4164 203.007 17.1566C201.009 14.0507 196.871 13.1986 194.044 10.8183C191.399 8.61948 190 5.09578 187.206 3.05632C183.688 0.489138 178.908 0.857448 174.583 1.30272L165.199 2.30321C162.778 2.56158 160.259 2.85293 158.267 4.29869C154.672 6.90435 154.178 12.3191 150.776 15.1721C149.261 16.4365 147.324 17.0632 145.595 18.0087C143.866 18.9542 142.198 20.4494 142 22.4064C141.835 24.0556 142.725 25.5783 143.158 27.167C144.184 30.96 142.582 34.863 141.556 38.6836C140.529 42.5041 140.332 47.1437 143.312 49.6779C143.915 50.1947 144.618 50.5905 145.205 51.1292C147.219 52.9708 147.494 56.0767 147.027 58.7593" fill="#444053"/>
<path d="M174.727 69.3963C175.03 69.3963 175.275 68.781 175.275 68.022C175.275 67.263 175.03 66.6477 174.727 66.6477C174.423 66.6477 174.178 67.263 174.178 68.022C174.178 68.781 174.423 69.3963 174.727 69.3963Z" fill="#444053"/>
<path d="M174.727 75.1245C175.03 75.1245 175.275 74.5092 175.275 73.7502C175.275 72.9911 175.03 72.3759 174.727 72.3759C174.423 72.3759 174.178 72.9911 174.178 73.7502C174.178 74.5092 174.423 75.1245 174.727 75.1245Z" fill="#444053"/>
<path d="M162.554 194.622C163.141 193.946 163.531 192.209 163.756 189.917L157.214 181.748C157.214 181.748 159.985 197.585 162.554 194.622Z" fill="#AE6E79"/>
<path opacity="0.1" d="M169.93 329.644C169.93 329.644 159.195 346.268 125.656 344.487C94.0611 342.837 78.6393 327.264 79.3747 321.767C80.1101 316.269 77.3606 302.889 84.1275 299.041C88.0515 296.815 93.2159 298.134 96.86 299.64C98.119 300.153 99.4972 300.297 100.835 300.057C102.172 299.816 103.414 299.201 104.417 298.283C107.749 295.276 113.961 291.889 123.769 294.556C125.03 294.893 126.362 294.868 127.61 294.484C131.693 293.236 141.413 291.07 148.465 295.88C149.58 296.65 150.89 297.086 152.243 297.138C153.596 297.189 154.935 296.854 156.105 296.172L156.204 296.111C159.497 294.094 174.863 313.153 174.863 313.153C174.863 313.153 175.599 327.814 169.93 329.644Z" fill="black"/>
<path d="M169.93 330.194C169.93 330.194 159.195 346.817 125.656 345.036C94.0611 343.387 78.6393 327.814 79.3747 322.316C80.1101 316.819 77.3606 303.439 84.1275 299.591C88.0515 297.365 93.2159 298.684 96.86 300.19C98.119 300.702 99.4972 300.847 100.835 300.606C102.172 300.366 103.414 299.751 104.417 298.832C107.749 295.825 113.961 292.439 123.769 295.105C125.03 295.442 126.362 295.418 127.61 295.034C131.693 293.786 141.413 291.62 148.465 296.43C149.58 297.2 150.89 297.636 152.243 297.687C153.596 297.739 154.935 297.404 156.105 296.721L156.204 296.661C159.497 294.643 174.863 313.702 174.863 313.702C174.863 313.702 175.599 328.363 169.93 330.194Z" fill="#767D9F"/>
<path opacity="0.1" d="M125.657 336.702C137.732 336.702 147.522 326.897 147.522 314.802C147.522 302.706 137.732 292.901 125.657 292.901C113.581 292.901 103.792 302.706 103.792 314.802C103.792 326.897 113.581 336.702 125.657 336.702Z" fill="black"/>
<path d="M125.657 337.252C137.732 337.252 147.522 327.447 147.522 315.351C147.522 303.256 137.732 293.451 125.657 293.451C113.581 293.451 103.792 303.256 103.792 315.351C103.792 327.447 113.581 337.252 125.657 337.252Z" fill="#FFB9B9"/>
<path d="M119.389 296.419C117.095 297.04 114.834 298.228 113.714 300.179C113.039 301.356 112.803 302.768 111.826 303.747C110.443 305.138 108.111 305.165 106.239 305.946C104.368 306.726 103.133 309.475 104.966 310.343C103.056 310.442 101.64 312.207 101.404 313.961C101.168 315.714 101.832 317.462 102.474 319.133C104.571 324.543 106.827 330.188 111.448 334.036C118.977 340.314 130.327 340.023 140.442 339.358C141.268 339.385 142.087 339.196 142.818 338.808C143.916 338.082 144.053 336.691 144.234 335.471C144.997 330.26 147.818 325.527 149.662 320.552C151.506 315.577 152.263 309.733 149.157 305.33C144.585 298.799 127.083 294.33 119.389 296.419Z" fill="#B96B6B"/>
<path opacity="0.1" d="M162.005 204.242L161.33 209.437L153.466 210.537C153.466 210.537 152.615 208.711 151.413 205.908L161.879 203.94L162.005 204.242Z" fill="black"/>
<path d="M170.292 319.018L174.869 313.702L173.953 284.386C174.403 282.271 174.71 280.127 174.869 277.971C175.05 274.854 172.581 267.894 172.581 267.894C172.964 266.501 173.484 265.149 174.134 263.859C175.231 261.66 172.586 256.713 172.586 256.713C172.586 256.713 168.646 243.888 170.292 237.473C171.938 231.058 169.891 227.396 169.891 227.396C169.891 227.396 168.283 220.25 168.464 217.32C168.646 214.39 164.804 211.636 164.804 211.636L161.879 204.49L150.172 206.688V231.426C150.172 231.426 150.902 255.064 150.172 259.648C149.442 264.233 151.632 268.625 151.632 268.625C151.632 268.625 150.353 275.403 151.451 277.971C152.549 280.538 154.744 286.766 154.744 286.766C154.337 288.992 154.463 291.283 155.112 293.451C156.209 296.661 155.112 298.492 155.112 298.492L170.292 319.018Z" fill="#767D9F"/>
<g opacity="0.1">
<path opacity="0.1" d="M203.226 26.6668C202.608 29.8846 202.33 33.1589 202.398 36.4353C202.445 33.711 202.729 30.996 203.248 28.3214C203.731 25.8807 204.346 23.253 204.214 20.8177C204.012 22.7868 203.682 24.7406 203.226 26.6668V26.6668Z" fill="black"/>
<path opacity="0.1" d="M145.222 49.3591C144.635 48.8094 143.932 48.4246 143.328 47.9023C141.726 46.5335 141.051 44.5491 140.919 42.4052C140.76 45.1537 141.32 47.8144 143.328 49.5515C143.932 50.0737 144.635 50.4695 145.222 51.0082C146.449 52.225 147.161 53.8692 147.209 55.5984C147.368 53.2896 146.901 50.8873 145.222 49.3591Z" fill="black"/>
<path opacity="0.1" d="M143.471 28.8326C143.567 27.6715 143.467 26.5026 143.175 25.3749C142.857 24.1985 142.286 23.0496 142.077 21.8677C142.077 21.9941 142.033 22.126 142.017 22.2635C141.858 23.9126 142.747 25.4354 143.175 27.024C143.333 27.6157 143.432 28.2215 143.471 28.8326V28.8326Z" fill="black"/>
<path opacity="0.1" d="M200.905 46.9349C199.385 48.5841 196.965 48.9909 194.737 48.9744C192.508 48.9579 190.253 48.5951 188.063 49.0349C186.537 49.3427 184.984 50.0298 183.486 49.5846C181.417 48.9854 180.588 46.2863 178.607 45.764C176.351 45.1703 174.634 48.2652 173.119 49.4966C169.414 52.4651 164.217 52.4376 159.481 52.2452C157.466 52.1518 154.98 52.3112 154.113 54.1362C153.849 54.6897 153.792 55.3201 153.954 55.9118L147.248 56.9673C147.222 57.5203 147.162 58.0711 147.066 58.6164L153.954 57.517C153.792 56.9252 153.849 56.2948 154.113 55.7414C154.98 53.9164 157.466 53.7569 159.481 53.8504C164.217 54.0703 169.414 54.0978 173.119 51.1018C174.655 49.8704 176.373 46.7755 178.607 47.3692C180.588 47.8859 181.417 50.5906 183.486 51.1897C184.984 51.6185 186.537 50.9314 188.063 50.64C190.258 50.2003 192.508 50.5631 194.737 50.5796C196.965 50.5961 199.385 50.1728 200.905 48.5401C202.426 46.9074 202.645 44.4722 202.552 42.0974C202.486 43.939 202.107 45.6431 200.905 46.9349Z" fill="black"/>
</g>
<g opacity="0.1">
<path opacity="0.1" d="M150.102 73.3378C149.455 72.9969 148.777 72.7207 148.077 72.5132C146.886 71.9711 145.94 71.0024 145.426 69.7976C145.837 71.6941 146.88 73.4203 148.625 74.1624C149.326 74.3698 150.004 74.646 150.651 74.987C151.064 75.2794 151.398 75.6705 151.622 76.1249C151.402 75.0474 151.002 73.948 150.102 73.3378Z" fill="black"/>
<path opacity="0.1" d="M159.475 86.7124C156.945 87.3556 153.641 87.6909 152.253 85.5415C152.296 86.0594 152.446 86.5628 152.692 87.0202C153.877 89.1367 156.775 89.0652 159.239 88.543L159.475 86.7124Z" fill="black"/>
<path opacity="0.1" d="M169.727 88.2186C170.078 90.4505 168.629 92.6769 166.708 93.8478C164.788 95.0187 162.444 95.343 160.183 95.4969C159.824 95.5435 159.458 95.502 159.118 95.376C159.015 95.6084 158.982 95.8658 159.023 96.1168C159.063 96.3678 159.176 96.6015 159.347 96.7893C159.519 96.9771 159.741 97.1109 159.987 97.1742C160.232 97.2376 160.491 97.2278 160.732 97.1461C162.993 97.0031 165.32 96.6898 167.257 95.4969C169.195 94.304 170.644 92.0832 170.27 89.8458C170.165 89.2809 169.982 88.7333 169.727 88.2186V88.2186Z" fill="black"/>
<path opacity="0.1" d="M172.164 68.3188C172.499 69.6554 172.525 71.0509 172.24 72.399C171.954 73.747 171.365 75.012 170.518 76.0974C169.222 77.6696 167.252 78.9284 166.972 80.9459C166.879 81.8734 167.07 82.8074 167.521 83.623C167.472 83.2821 167.472 82.9359 167.521 82.595C167.801 80.5776 169.771 79.2967 171.066 77.7465C173.196 75.1683 173.492 71.3698 172.164 68.3188Z" fill="black"/>
</g>
<g opacity="0.1">
<path opacity="0.1" d="M106.245 306.792C108.111 306.017 110.444 305.99 111.832 304.593C112.809 303.615 113.045 302.202 113.72 301.031C114.818 299.074 117.095 297.892 119.39 297.271C127.073 295.182 144.591 299.646 149.157 306.116C150.496 308.074 151.225 310.384 151.254 312.757C151.43 310.018 150.694 307.298 149.163 305.022C144.597 298.552 127.095 294.088 119.395 296.177C117.101 296.798 114.84 297.98 113.726 299.937C113.051 301.108 112.815 302.521 111.838 303.499C110.449 304.89 108.117 304.918 106.251 305.698C104.829 306.287 103.776 308.024 104.16 309.189C104.313 308.662 104.579 308.174 104.939 307.76C105.299 307.347 105.745 307.016 106.245 306.792V306.792Z" fill="black"/>
<path opacity="0.1" d="M101.416 314.78C101.646 313.021 103.062 311.262 104.977 311.163C104.776 311.079 104.596 310.951 104.451 310.788C104.306 310.625 104.199 310.432 104.138 310.223C103.409 310.494 102.768 310.959 102.285 311.569C101.801 312.178 101.493 312.908 101.394 313.68C101.341 314.128 101.341 314.58 101.394 315.027C101.416 314.945 101.416 314.862 101.416 314.78Z" fill="black"/>
</g>
<path d="M217.671 115.567H167.729V180.802H217.671V115.567Z" fill="white"/>
<path opacity="0.1" d="M217.671 115.567H167.729V180.802H217.671V115.567Z" fill="black"/>
<path d="M236.753 119.394L187.533 127.875L198.574 192.166L247.793 183.685L236.753 119.394Z" fill="white"/>
<path d="M211.027 169.709L199.463 171.702L202.057 186.806L213.621 184.814L211.027 169.709Z" fill="#FADE4B"/>
<path d="M227.028 166.949L215.464 168.942L218.058 184.046L229.622 182.054L227.028 166.949Z" fill="#FADE4B"/>
<path d="M238.336 144.82L197.782 151.795L200.383 166.968L240.937 159.993L238.336 144.82Z" fill="#FADE4B"/>
<path d="M234.955 126.711L194.401 133.687L194.982 137.072L235.536 130.096L234.955 126.711Z" fill="#FADE4B"/>
<path d="M236.286 132.938L195.731 139.913L196.312 143.298L236.866 136.323L236.286 132.938Z" fill="#FADE4B"/>
<path d="M195.812 97.8442C195.812 97.8442 172.855 120.932 184.38 126.798C195.905 132.663 203.408 107.283 203.408 107.283L205.23 101.511L195.812 97.8442Z" fill="#AE6E79"/>
<path opacity="0.1" d="M193.803 95.8048L190.966 102.083C190.966 102.083 204.961 104.051 207.886 108.289L206.152 97.2121L204.094 92.4845L193.803 95.8048Z" fill="black"/>
<path d="M194.352 95.2551L191.515 101.533C191.515 101.533 205.51 103.501 208.435 107.739L206.7 96.6624L204.642 91.9348L194.352 95.2551Z" fill="#4C4981"/>
<path d="M279.068 210.68L278.766 210.888L279.183 211.075L279.633 211.037L279.688 210.723L279.068 210.68Z" fill="#464A5F"/>
<path opacity="0.1" d="M279.068 210.68L278.766 210.888L279.183 211.075L279.633 211.037L279.688 210.723L279.068 210.68Z" fill="black"/>
<path d="M279.067 210.679L278.76 210.877L278.519 210.581L278.667 210.339L278.804 210.295L279.067 210.679Z" fill="#9C9CA1"/>
<path opacity="0.1" d="M279.067 210.679L278.76 210.877L278.519 210.581L278.667 210.339L278.804 210.295L279.067 210.679Z" fill="black"/>
<path d="M333.088 172.688L310.619 140.184C310.42 139.893 310.166 139.646 309.871 139.454C309.576 139.262 309.247 139.131 308.901 139.067C308.555 139.003 308.201 139.008 307.857 139.082C307.513 139.156 307.187 139.297 306.898 139.496L256.813 173.931C256.227 174.334 255.825 174.953 255.694 175.653C255.564 176.353 255.715 177.076 256.116 177.663L278.524 210.581L333.088 172.688Z" fill="#9C9CA1"/>
<path opacity="0.1" d="M333.088 172.688L310.619 140.184C310.42 139.893 310.166 139.646 309.871 139.454C309.576 139.262 309.247 139.131 308.901 139.067C308.555 139.003 308.201 139.008 307.857 139.082C307.513 139.156 307.187 139.297 306.898 139.496L256.813 173.931C256.227 174.334 255.825 174.953 255.694 175.653C255.564 176.353 255.715 177.076 256.116 177.663L278.524 210.581L333.088 172.688Z" fill="black"/>
<path d="M333.636 172.765L311.168 140.261C310.968 139.97 310.713 139.722 310.418 139.531C310.123 139.339 309.793 139.207 309.447 139.144C309.101 139.08 308.745 139.085 308.401 139.159C308.057 139.232 307.731 139.373 307.441 139.573L257.362 174.03C256.776 174.433 256.373 175.052 256.242 175.751C256.11 176.45 256.26 177.173 256.659 177.762L279.067 210.696L333.636 172.765Z" fill="#9C9CA1"/>
<path d="M352.417 179.192L333.757 173.189L279.183 211.081L298.139 217.293C298.563 217.431 299.014 217.468 299.455 217.401C299.896 217.334 300.315 217.165 300.68 216.908L352.57 180.209C352.668 180.154 352.746 180.071 352.795 179.971C352.844 179.87 352.861 179.757 352.845 179.647C352.828 179.537 352.778 179.434 352.702 179.352C352.625 179.271 352.526 179.215 352.417 179.192Z" fill="#464A5F"/>
<path opacity="0.1" d="M352.417 179.192L333.757 173.189L279.183 211.081L298.139 217.293C298.563 217.431 299.014 217.468 299.455 217.401C299.896 217.334 300.315 217.165 300.68 216.908L352.57 180.209C352.668 180.154 352.746 180.071 352.795 179.971C352.844 179.87 352.861 179.757 352.845 179.647C352.828 179.537 352.778 179.434 352.702 179.352C352.625 179.271 352.526 179.215 352.417 179.192Z" fill="black"/>
<path d="M352.302 178.812L333.642 172.804L279.067 210.696L298.024 216.897C298.447 217.037 298.898 217.076 299.339 217.01C299.781 216.945 300.2 216.776 300.565 216.518L352.455 179.818C352.549 179.762 352.623 179.679 352.67 179.581C352.716 179.482 352.732 179.372 352.716 179.264C352.699 179.156 352.651 179.055 352.577 178.975C352.503 178.894 352.408 178.838 352.302 178.812V178.812Z" fill="#464A5F"/>
<g opacity="0.1">
<path opacity="0.1" d="M324.822 171.314L323.445 169.335C323.362 169.22 323.238 169.142 323.099 169.116C322.96 169.091 322.817 169.12 322.699 169.198L320.651 170.567C320.537 170.648 320.457 170.77 320.43 170.908C320.402 171.046 320.428 171.189 320.503 171.309L321.771 173.26C321.85 173.377 321.972 173.459 322.11 173.489C322.248 173.518 322.392 173.494 322.512 173.42L324.669 172.062C324.786 171.981 324.868 171.858 324.896 171.719C324.925 171.58 324.899 171.434 324.822 171.314V171.314Z" fill="black"/>
<path opacity="0.1" d="M321.145 173.865L319.762 171.891C319.679 171.777 319.555 171.698 319.416 171.673C319.277 171.647 319.133 171.676 319.015 171.754L316.974 173.134C316.858 173.214 316.777 173.336 316.749 173.474C316.72 173.612 316.746 173.756 316.82 173.876L318.088 175.827C318.166 175.945 318.287 176.028 318.425 176.059C318.563 176.09 318.708 176.066 318.829 175.992L320.991 174.634C321.052 174.595 321.105 174.543 321.145 174.482C321.186 174.422 321.215 174.354 321.229 174.282C321.243 174.21 321.243 174.137 321.229 174.065C321.214 173.993 321.186 173.925 321.145 173.865Z" fill="black"/>
<path opacity="0.1" d="M317.282 176.542L315.899 174.569C315.816 174.454 315.692 174.375 315.553 174.35C315.414 174.324 315.27 174.353 315.152 174.431L313.105 175.811C312.989 175.892 312.908 176.015 312.881 176.155C312.853 176.294 312.88 176.439 312.957 176.558L314.225 178.51C314.304 178.627 314.425 178.709 314.563 178.738C314.701 178.768 314.845 178.743 314.966 178.669L317.122 177.312C317.184 177.272 317.237 177.221 317.278 177.16C317.32 177.1 317.349 177.032 317.364 176.96C317.378 176.889 317.379 176.815 317.365 176.743C317.351 176.671 317.322 176.603 317.282 176.542V176.542Z" fill="black"/>
<path opacity="0.1" d="M313.368 179.258L311.985 177.279C311.903 177.165 311.78 177.088 311.642 177.062C311.504 177.037 311.362 177.065 311.244 177.141L309.197 178.526C309.082 178.608 309.003 178.73 308.976 178.868C308.948 179.006 308.974 179.149 309.049 179.269L310.317 181.22C310.395 181.336 310.515 181.418 310.652 181.449C310.789 181.48 310.932 181.457 311.052 181.385L313.215 180.022C313.275 179.982 313.327 179.93 313.367 179.87C313.408 179.81 313.436 179.743 313.45 179.672C313.464 179.601 313.465 179.528 313.451 179.456C313.436 179.385 313.409 179.318 313.368 179.258Z" fill="black"/>
<path opacity="0.1" d="M309.461 181.968L308.078 179.994C307.995 179.879 307.871 179.801 307.732 179.775C307.593 179.75 307.45 179.779 307.332 179.857L305.29 181.237C305.174 181.317 305.094 181.439 305.065 181.577C305.037 181.715 305.062 181.859 305.136 181.979L306.404 183.93C306.483 184.048 306.604 184.131 306.742 184.162C306.88 184.192 307.024 184.168 307.145 184.095L309.307 182.732C309.368 182.692 309.42 182.64 309.46 182.58C309.5 182.52 309.529 182.453 309.543 182.382C309.557 182.311 309.557 182.238 309.543 182.167C309.529 182.095 309.501 182.028 309.461 181.968Z" fill="black"/>
<path opacity="0.1" d="M305.724 184.925L304.006 182.473C303.988 182.446 303.964 182.423 303.937 182.405C303.91 182.387 303.879 182.374 303.847 182.368C303.815 182.362 303.782 182.362 303.75 182.369C303.718 182.376 303.687 182.389 303.66 182.407L301.147 184.106C301.119 184.124 301.095 184.147 301.077 184.174C301.058 184.201 301.045 184.232 301.038 184.264C301.032 184.297 301.032 184.33 301.038 184.362C301.044 184.394 301.057 184.425 301.075 184.452L302.65 186.877C302.686 186.932 302.743 186.972 302.808 186.986C302.872 187.001 302.94 186.989 302.996 186.954L305.652 185.305C305.684 185.286 305.712 185.261 305.733 185.232C305.755 185.202 305.769 185.168 305.776 185.131C305.783 185.095 305.782 185.058 305.773 185.023C305.764 184.987 305.747 184.954 305.724 184.925V184.925Z" fill="black"/>
<path opacity="0.1" d="M301.816 187.635L300.088 185.184C300.069 185.156 300.045 185.133 300.017 185.114C299.989 185.096 299.958 185.084 299.926 185.078C299.893 185.071 299.86 185.072 299.827 185.079C299.795 185.086 299.764 185.099 299.736 185.118L297.223 186.816C297.169 186.854 297.132 186.911 297.12 186.976C297.107 187.041 297.121 187.108 297.157 187.162L298.732 189.587C298.749 189.616 298.771 189.64 298.798 189.66C298.825 189.68 298.856 189.694 298.888 189.701C298.921 189.708 298.954 189.708 298.987 189.702C299.019 189.696 299.05 189.683 299.078 189.664L301.729 188.015C301.763 187.999 301.792 187.975 301.816 187.946C301.84 187.917 301.856 187.883 301.865 187.846C301.873 187.81 301.873 187.772 301.865 187.735C301.856 187.699 301.84 187.664 301.816 187.635V187.635Z" fill="black"/>
<path opacity="0.1" d="M298.353 190.038L296.635 187.608C296.597 187.555 296.539 187.519 296.475 187.508C296.41 187.496 296.344 187.511 296.289 187.547L293.776 189.24C293.721 189.278 293.683 189.336 293.669 189.402C293.656 189.468 293.669 189.536 293.705 189.592L295.28 192.017C295.317 192.071 295.373 192.11 295.437 192.124C295.502 192.138 295.569 192.127 295.625 192.094L298.282 190.444C298.318 190.427 298.35 190.401 298.375 190.369C298.399 190.337 298.415 190.299 298.422 190.259C298.429 190.22 298.427 190.179 298.415 190.14C298.403 190.101 298.381 190.066 298.353 190.038V190.038Z" fill="black"/>
<path opacity="0.1" d="M294.478 192.72L292.76 190.268C292.722 190.215 292.664 190.179 292.6 190.168C292.535 190.157 292.469 190.171 292.415 190.208L289.901 191.901C289.873 191.919 289.849 191.943 289.831 191.971C289.812 191.998 289.799 192.029 289.792 192.062C289.786 192.095 289.785 192.129 289.792 192.161C289.798 192.194 289.811 192.225 289.83 192.253L291.405 194.677C291.442 194.732 291.498 194.77 291.562 194.785C291.627 194.799 291.694 194.788 291.751 194.754L294.407 193.105C294.439 193.086 294.466 193.061 294.488 193.03C294.509 193 294.524 192.965 294.53 192.929C294.537 192.892 294.536 192.855 294.527 192.819C294.518 192.783 294.501 192.749 294.478 192.72V192.72Z" fill="black"/>
<path opacity="0.1" d="M290.724 195.304L289.006 192.852C288.988 192.825 288.964 192.802 288.937 192.783C288.91 192.765 288.879 192.753 288.847 192.747C288.815 192.741 288.782 192.741 288.75 192.748C288.718 192.754 288.687 192.768 288.66 192.786L286.147 194.485C286.119 194.503 286.095 194.526 286.077 194.553C286.058 194.58 286.045 194.611 286.038 194.643C286.032 194.675 286.032 194.708 286.038 194.741C286.044 194.773 286.057 194.804 286.075 194.831L287.65 197.255C287.686 197.311 287.743 197.35 287.808 197.365C287.872 197.379 287.94 197.368 287.996 197.332L290.652 195.683C290.684 195.665 290.712 195.64 290.733 195.61C290.755 195.58 290.769 195.546 290.776 195.51C290.783 195.474 290.782 195.437 290.773 195.401C290.764 195.366 290.747 195.332 290.724 195.304V195.304Z" fill="black"/>
<path opacity="0.1" d="M286.97 197.932L285.269 195.474C285.231 195.421 285.173 195.385 285.108 195.374C285.044 195.363 284.978 195.377 284.923 195.414L282.41 197.107C282.382 197.125 282.358 197.149 282.339 197.177C282.321 197.204 282.308 197.235 282.301 197.268C282.294 197.301 282.294 197.334 282.301 197.367C282.307 197.4 282.32 197.431 282.338 197.459L283.914 199.883C283.95 199.938 284.007 199.976 284.071 199.99C284.135 200.005 284.203 199.994 284.259 199.96L286.916 198.311C286.946 198.291 286.972 198.265 286.992 198.235C287.012 198.204 287.025 198.17 287.03 198.134C287.035 198.098 287.032 198.061 287.022 198.026C287.012 197.991 286.994 197.959 286.97 197.932Z" fill="black"/>
<path opacity="0.1" d="M283.216 200.532L281.498 198.08C281.48 198.053 281.457 198.029 281.429 198.011C281.402 197.993 281.371 197.981 281.339 197.974C281.307 197.968 281.274 197.969 281.242 197.975C281.21 197.982 281.179 197.995 281.152 198.014L278.639 199.702C278.611 199.719 278.587 199.743 278.569 199.77C278.55 199.797 278.537 199.827 278.53 199.86C278.524 199.892 278.524 199.925 278.53 199.958C278.536 199.99 278.549 200.021 278.568 200.048L280.143 202.472C280.179 202.528 280.235 202.567 280.3 202.582C280.364 202.596 280.432 202.584 280.488 202.549L283.145 200.9C283.175 200.882 283.201 200.857 283.221 200.828C283.241 200.799 283.255 200.766 283.262 200.732C283.269 200.697 283.268 200.661 283.26 200.627C283.252 200.592 283.237 200.56 283.216 200.532V200.532Z" fill="black"/>
<path opacity="0.1" d="M322.353 167.735L320.97 165.757C320.887 165.642 320.763 165.563 320.624 165.538C320.485 165.512 320.342 165.541 320.223 165.619L318.198 167.004C318.082 167.085 318.002 167.207 317.973 167.345C317.945 167.483 317.97 167.627 318.045 167.746L319.312 169.698C319.392 169.815 319.513 169.897 319.651 169.926C319.789 169.956 319.933 169.931 320.053 169.857L322.216 168.5C322.335 168.416 322.416 168.289 322.442 168.146C322.468 168.003 322.436 167.855 322.353 167.735Z" fill="black"/>
<path opacity="0.1" d="M316.946 159.913L315.563 157.923C315.481 157.81 315.358 157.732 315.22 157.707C315.082 157.681 314.94 157.709 314.822 157.786L312.775 159.165C312.66 159.246 312.579 159.368 312.55 159.506C312.522 159.644 312.547 159.788 312.622 159.907L313.89 161.859C313.968 161.977 314.089 162.06 314.227 162.09C314.365 162.121 314.51 162.097 314.63 162.024L316.793 160.666C316.912 160.586 316.994 160.462 317.023 160.321C317.052 160.18 317.024 160.034 316.946 159.913V159.913Z" fill="black"/>
<path opacity="0.1" d="M318.67 170.286L317.287 168.313C317.205 168.199 317.082 168.122 316.944 168.096C316.806 168.071 316.664 168.099 316.546 168.175L314.499 169.555C314.384 169.636 314.305 169.758 314.277 169.896C314.25 170.035 314.276 170.178 314.351 170.297L315.613 172.249C315.692 172.366 315.813 172.449 315.951 172.48C316.089 172.511 316.233 172.487 316.354 172.414L318.517 171.056C318.578 171.016 318.63 170.964 318.671 170.904C318.712 170.843 318.74 170.775 318.755 170.703C318.769 170.632 318.769 170.558 318.754 170.486C318.74 170.415 318.711 170.347 318.67 170.286Z" fill="black"/>
<path opacity="0.1" d="M314.806 172.963L313.423 170.99C313.34 170.875 313.217 170.797 313.078 170.771C312.939 170.745 312.795 170.775 312.677 170.852L310.635 172.216C310.518 172.296 310.436 172.419 310.408 172.558C310.379 172.698 310.406 172.843 310.482 172.963L311.749 174.915C311.829 175.032 311.95 175.113 312.088 175.143C312.226 175.173 312.37 175.148 312.49 175.074L314.653 173.716C314.771 173.636 314.854 173.512 314.883 173.371C314.911 173.23 314.884 173.084 314.806 172.963V172.963Z" fill="black"/>
<path opacity="0.1" d="M310.893 175.679L309.515 173.7C309.433 173.585 309.309 173.507 309.17 173.481C309.031 173.456 308.887 173.485 308.769 173.563L306.722 174.964C306.607 175.045 306.527 175.168 306.5 175.306C306.472 175.444 306.499 175.587 306.574 175.706L307.841 177.658C307.921 177.775 308.042 177.857 308.18 177.886C308.318 177.916 308.462 177.891 308.582 177.817L310.739 176.46C310.802 176.42 310.856 176.367 310.898 176.306C310.94 176.244 310.969 176.175 310.983 176.102C310.997 176.029 310.997 175.954 310.981 175.881C310.966 175.809 310.936 175.74 310.893 175.679Z" fill="black"/>
<path opacity="0.1" d="M313.352 162.59L311.969 160.617C311.886 160.503 311.763 160.426 311.625 160.4C311.488 160.375 311.345 160.403 311.228 160.479L309.181 161.859C309.065 161.939 308.984 162.061 308.956 162.199C308.927 162.337 308.953 162.481 309.027 162.601L310.295 164.553C310.373 164.67 310.494 164.753 310.632 164.784C310.77 164.815 310.915 164.791 311.036 164.718L313.198 163.36C313.259 163.32 313.312 163.268 313.353 163.207C313.393 163.147 313.422 163.079 313.436 163.007C313.45 162.936 313.45 162.862 313.436 162.79C313.421 162.719 313.393 162.651 313.352 162.59Z" fill="black"/>
<path opacity="0.1" d="M309.488 165.273L308.105 163.294C308.023 163.179 307.899 163.101 307.76 163.075C307.621 163.049 307.477 163.079 307.359 163.156L305.317 164.52C305.202 164.6 305.121 164.722 305.092 164.86C305.064 164.998 305.089 165.142 305.164 165.262L306.432 167.213C306.511 167.33 306.632 167.412 306.77 167.442C306.908 167.471 307.052 167.447 307.172 167.373L309.335 166.015C309.451 165.935 309.531 165.813 309.56 165.675C309.588 165.536 309.563 165.393 309.488 165.273Z" fill="black"/>
<path opacity="0.1" d="M305.575 167.983L304.192 166.009C304.111 165.895 303.988 165.817 303.85 165.79C303.713 165.764 303.57 165.791 303.452 165.866L301.404 167.268C301.29 167.349 301.21 167.472 301.183 167.61C301.155 167.748 301.181 167.891 301.256 168.01L302.524 169.962C302.603 170.08 302.723 170.163 302.861 170.193C302.999 170.224 303.144 170.2 303.265 170.127L305.422 168.764C305.484 168.724 305.538 168.671 305.58 168.61C305.622 168.548 305.651 168.479 305.665 168.406C305.68 168.333 305.679 168.258 305.664 168.185C305.648 168.113 305.618 168.044 305.575 167.983Z" fill="black"/>
<path opacity="0.1" d="M306.986 178.389L305.603 176.416C305.521 176.301 305.398 176.223 305.261 176.196C305.123 176.17 304.98 176.197 304.862 176.273L302.831 177.658C302.716 177.739 302.637 177.861 302.609 177.999C302.582 178.137 302.608 178.281 302.683 178.4L303.929 180.352C304.007 180.468 304.127 180.55 304.264 180.58C304.401 180.611 304.544 180.588 304.664 180.516L306.827 179.153C306.887 179.114 306.94 179.062 306.981 179.003C307.022 178.943 307.05 178.875 307.065 178.804C307.08 178.733 307.08 178.66 307.067 178.589C307.053 178.517 307.026 178.45 306.986 178.389Z" fill="black"/>
<path opacity="0.1" d="M303.078 181.099L301.695 179.126C301.612 179.011 301.489 178.932 301.35 178.907C301.211 178.881 301.067 178.91 300.949 178.988L298.907 180.368C298.791 180.448 298.711 180.57 298.682 180.708C298.654 180.846 298.679 180.99 298.754 181.11L300.021 183.062C300.1 183.179 300.221 183.262 300.359 183.293C300.497 183.324 300.641 183.3 300.762 183.227L302.925 181.869C302.986 181.829 303.038 181.777 303.079 181.717C303.12 181.656 303.148 181.588 303.163 181.516C303.177 181.445 303.177 181.371 303.162 181.299C303.148 181.228 303.119 181.16 303.078 181.099Z" fill="black"/>
<path opacity="0.1" d="M299.341 184.057L297.623 181.605C297.605 181.578 297.582 181.554 297.554 181.536C297.527 181.518 297.496 181.506 297.464 181.499C297.432 181.493 297.399 181.494 297.367 181.5C297.335 181.507 297.304 181.52 297.277 181.539L294.764 183.238C294.736 183.255 294.712 183.278 294.694 183.306C294.675 183.333 294.662 183.363 294.655 183.396C294.649 183.428 294.649 183.461 294.655 183.493C294.661 183.526 294.674 183.557 294.693 183.584L296.268 186.008C296.285 186.036 296.308 186.061 296.335 186.08C296.362 186.099 296.392 186.113 296.424 186.12C296.456 186.127 296.49 186.128 296.522 186.122C296.555 186.116 296.586 186.103 296.613 186.085L299.27 184.436C299.302 184.418 299.329 184.393 299.35 184.363C299.372 184.333 299.386 184.299 299.393 184.263C299.4 184.227 299.399 184.19 299.39 184.154C299.381 184.118 299.364 184.085 299.341 184.057V184.057Z" fill="black"/>
<path opacity="0.1" d="M295.878 186.459L294.16 184.002C294.121 183.949 294.064 183.913 293.999 183.901C293.935 183.89 293.868 183.904 293.814 183.941L291.306 185.634C291.251 185.672 291.213 185.73 291.199 185.796C291.186 185.861 291.199 185.93 291.235 185.986L292.81 188.41C292.847 188.465 292.903 188.503 292.968 188.518C293.032 188.532 293.099 188.521 293.156 188.487L295.812 186.838C295.845 186.821 295.874 186.796 295.896 186.766C295.918 186.736 295.932 186.702 295.939 186.665C295.945 186.628 295.943 186.59 295.932 186.555C295.922 186.519 295.903 186.486 295.878 186.459V186.459Z" fill="black"/>
<path opacity="0.1" d="M292.003 189.142L290.285 186.69C290.247 186.637 290.189 186.601 290.125 186.59C290.06 186.578 289.994 186.593 289.94 186.629L287.426 188.322C287.398 188.34 287.374 188.363 287.356 188.391C287.337 188.418 287.324 188.448 287.318 188.481C287.311 188.513 287.311 188.546 287.317 188.578C287.324 188.611 287.336 188.641 287.355 188.669L288.93 191.099C288.967 191.153 289.023 191.192 289.087 191.206C289.152 191.22 289.219 191.209 289.275 191.175L291.932 189.526C291.964 189.508 291.991 189.482 292.013 189.452C292.034 189.421 292.049 189.387 292.055 189.35C292.062 189.314 292.061 189.276 292.052 189.24C292.043 189.204 292.026 189.171 292.003 189.142V189.142Z" fill="black"/>
<path opacity="0.1" d="M288.249 191.747L286.531 189.295C286.513 189.268 286.49 189.245 286.462 189.227C286.435 189.209 286.404 189.196 286.372 189.19C286.34 189.184 286.307 189.184 286.275 189.191C286.243 189.198 286.213 189.211 286.186 189.23L283.672 190.906C283.644 190.924 283.621 190.947 283.602 190.974C283.583 191.001 283.57 191.032 283.564 191.064C283.557 191.097 283.557 191.13 283.563 191.162C283.57 191.194 283.582 191.225 283.601 191.252L285.176 193.677C285.212 193.732 285.268 193.772 285.333 193.786C285.398 193.801 285.465 193.789 285.522 193.754L288.178 192.105C288.206 192.086 288.231 192.062 288.25 192.034C288.269 192.006 288.283 191.974 288.289 191.941C288.296 191.908 288.296 191.873 288.289 191.84C288.282 191.807 288.269 191.775 288.249 191.747V191.747Z" fill="black"/>
<path opacity="0.1" d="M312.233 169.242L310.85 167.268C310.767 167.155 310.644 167.078 310.506 167.052C310.369 167.026 310.226 167.055 310.109 167.131L308.062 168.516C307.947 168.597 307.867 168.719 307.84 168.858C307.812 168.996 307.839 169.139 307.913 169.258L309.181 171.21C309.26 171.325 309.381 171.406 309.517 171.436C309.654 171.465 309.797 171.441 309.917 171.369L312.079 170.011C312.14 169.971 312.193 169.92 312.234 169.859C312.274 169.799 312.303 169.731 312.317 169.659C312.331 169.587 312.331 169.513 312.317 169.442C312.302 169.37 312.274 169.302 312.233 169.242Z" fill="black"/>
<path opacity="0.1" d="M308.319 171.957L306.936 169.978C306.854 169.864 306.73 169.785 306.591 169.76C306.452 169.734 306.308 169.763 306.19 169.841L304.148 171.226C304.033 171.307 303.952 171.428 303.924 171.567C303.895 171.705 303.92 171.849 303.995 171.968L305.263 173.92C305.341 174.038 305.462 174.121 305.6 174.151C305.738 174.182 305.883 174.158 306.003 174.085L308.166 172.721C308.226 172.682 308.278 172.63 308.318 172.57C308.359 172.51 308.387 172.442 308.401 172.371C308.415 172.3 308.416 172.227 308.402 172.156C308.388 172.085 308.36 172.018 308.319 171.957Z" fill="black"/>
<path opacity="0.1" d="M304.417 174.667L303.034 172.694C302.951 172.579 302.827 172.501 302.688 172.475C302.549 172.45 302.406 172.479 302.287 172.557L300.24 173.936C300.125 174.017 300.046 174.14 300.018 174.278C299.991 174.416 300.017 174.559 300.092 174.678L301.36 176.63C301.438 176.748 301.559 176.831 301.697 176.861C301.835 176.892 301.98 176.868 302.101 176.795L304.258 175.432C304.318 175.392 304.371 175.341 304.412 175.281C304.453 175.221 304.481 175.154 304.496 175.083C304.511 175.012 304.512 174.938 304.498 174.867C304.484 174.796 304.457 174.728 304.417 174.667V174.667Z" fill="black"/>
<path opacity="0.1" d="M300.504 177.378L299.121 175.404C299.039 175.291 298.916 175.213 298.778 175.188C298.64 175.162 298.498 175.19 298.38 175.267L296.333 176.646C296.218 176.728 296.139 176.85 296.111 176.988C296.084 177.126 296.11 177.269 296.185 177.389L297.453 179.362C297.531 179.478 297.651 179.56 297.788 179.591C297.924 179.622 298.068 179.599 298.188 179.527L300.351 178.169C300.415 178.129 300.47 178.076 300.513 178.014C300.556 177.952 300.585 177.881 300.6 177.807C300.614 177.733 300.613 177.656 300.597 177.582C300.58 177.508 300.549 177.439 300.504 177.378Z" fill="black"/>
<path opacity="0.1" d="M296.794 180.335L295.076 177.883C295.058 177.856 295.034 177.833 295.007 177.815C294.98 177.796 294.949 177.784 294.917 177.778C294.885 177.772 294.852 177.772 294.82 177.779C294.788 177.786 294.757 177.799 294.73 177.817L292.217 179.516C292.162 179.553 292.124 179.61 292.111 179.675C292.097 179.739 292.11 179.807 292.146 179.862L293.721 182.292C293.738 182.32 293.761 182.344 293.789 182.362C293.816 182.381 293.846 182.394 293.878 182.401C293.911 182.407 293.944 182.407 293.976 182.401C294.008 182.395 294.039 182.382 294.066 182.364L296.723 180.714C296.754 180.696 296.782 180.671 296.803 180.641C296.825 180.612 296.839 180.577 296.846 180.541C296.853 180.505 296.852 180.468 296.843 180.432C296.834 180.397 296.817 180.364 296.794 180.335Z" fill="black"/>
<path opacity="0.1" d="M293.309 182.737L291.591 180.28C291.552 180.227 291.493 180.191 291.428 180.179C291.362 180.168 291.295 180.182 291.24 180.22L288.732 181.913C288.677 181.951 288.639 182.009 288.625 182.074C288.612 182.14 288.625 182.208 288.661 182.265L290.236 184.689C290.272 184.745 290.328 184.784 290.393 184.798C290.457 184.813 290.525 184.801 290.581 184.766L293.238 183.117C293.27 183.098 293.297 183.074 293.318 183.044C293.34 183.014 293.354 182.98 293.361 182.944C293.368 182.907 293.367 182.87 293.358 182.835C293.349 182.799 293.332 182.766 293.309 182.737Z" fill="black"/>
<path opacity="0.1" d="M289.435 185.409L287.717 182.952C287.677 182.898 287.619 182.862 287.553 182.851C287.488 182.84 287.421 182.854 287.366 182.891L284.852 184.584C284.798 184.623 284.761 184.681 284.747 184.746C284.734 184.812 284.746 184.879 284.781 184.936L286.361 187.36C286.397 187.416 286.454 187.455 286.518 187.47C286.583 187.484 286.651 187.473 286.707 187.437L289.358 185.788C289.391 185.771 289.42 185.747 289.442 185.718C289.465 185.688 289.48 185.654 289.488 185.617C289.495 185.581 289.494 185.543 289.485 185.507C289.476 185.471 289.459 185.437 289.435 185.409V185.409Z" fill="black"/>
<path opacity="0.1" d="M285.68 188.026L283.963 185.574C283.944 185.546 283.92 185.523 283.892 185.505C283.864 185.487 283.833 185.474 283.801 185.468C283.768 185.462 283.735 185.462 283.702 185.469C283.67 185.476 283.639 185.489 283.611 185.508L281.098 187.206C281.044 187.244 281.007 187.302 280.995 187.366C280.982 187.431 280.996 187.498 281.032 187.553L282.607 189.977C282.624 190.006 282.646 190.031 282.673 190.05C282.7 190.07 282.731 190.084 282.763 190.091C282.796 190.098 282.829 190.099 282.862 190.092C282.894 190.086 282.925 190.073 282.953 190.054L285.604 188.405C285.637 188.388 285.666 188.364 285.688 188.334C285.71 188.305 285.726 188.27 285.733 188.234C285.741 188.197 285.74 188.16 285.731 188.124C285.721 188.088 285.704 188.054 285.68 188.026V188.026Z" fill="black"/>
<path opacity="0.1" d="M284.495 194.347L282.778 191.896C282.739 191.843 282.681 191.807 282.617 191.795C282.552 191.784 282.486 191.798 282.432 191.835L279.918 193.528C279.891 193.546 279.867 193.569 279.848 193.596C279.829 193.624 279.816 193.654 279.81 193.686C279.803 193.719 279.803 193.752 279.809 193.784C279.816 193.817 279.828 193.847 279.847 193.875L281.422 196.304C281.459 196.359 281.515 196.397 281.58 196.412C281.644 196.426 281.711 196.415 281.768 196.381L284.424 194.732C284.456 194.713 284.484 194.688 284.505 194.658C284.526 194.627 284.541 194.593 284.548 194.556C284.554 194.52 284.553 194.482 284.544 194.446C284.535 194.41 284.519 194.376 284.495 194.347V194.347Z" fill="black"/>
<path opacity="0.1" d="M280.741 196.953L279.024 194.501C279.005 194.474 278.982 194.451 278.955 194.433C278.927 194.414 278.897 194.402 278.865 194.396C278.832 194.39 278.799 194.39 278.767 194.397C278.735 194.404 278.705 194.417 278.678 194.435L276.164 196.134C276.137 196.152 276.113 196.175 276.094 196.202C276.076 196.229 276.063 196.26 276.056 196.292C276.049 196.324 276.049 196.358 276.055 196.39C276.062 196.422 276.075 196.453 276.093 196.48L277.668 198.905C277.704 198.96 277.76 199 277.825 199.014C277.89 199.028 277.958 199.017 278.014 198.981L280.67 197.332C280.702 197.314 280.73 197.289 280.751 197.259C280.772 197.23 280.787 197.195 280.794 197.159C280.8 197.123 280.799 197.086 280.79 197.05C280.781 197.015 280.765 196.982 280.741 196.953Z" fill="black"/>
<path opacity="0.1" d="M286.636 181.374L284.99 179.065C284.938 178.993 284.86 178.945 284.773 178.929C284.686 178.914 284.597 178.933 284.523 178.983L282.152 180.582C282.115 180.607 282.084 180.638 282.059 180.675C282.034 180.712 282.017 180.753 282.008 180.797C282 180.84 282 180.885 282.008 180.928C282.017 180.972 282.034 181.013 282.059 181.05L283.541 183.331C283.564 183.369 283.594 183.401 283.63 183.427C283.666 183.453 283.706 183.471 283.749 183.481C283.792 183.491 283.837 183.492 283.88 183.484C283.924 183.476 283.965 183.46 284.002 183.435L286.51 181.858C286.551 181.836 286.588 181.805 286.617 181.768C286.646 181.731 286.667 181.689 286.679 181.643C286.69 181.598 286.693 181.551 286.686 181.504C286.678 181.458 286.661 181.414 286.636 181.374V181.374Z" fill="black"/>
<path opacity="0.1" d="M282.882 183.98L281.263 181.671C281.238 181.634 281.206 181.603 281.169 181.579C281.132 181.555 281.091 181.538 281.048 181.53C281.004 181.522 280.96 181.522 280.917 181.531C280.874 181.54 280.833 181.558 280.796 181.583L278.425 183.21C278.389 183.234 278.357 183.265 278.332 183.301C278.308 183.337 278.291 183.378 278.282 183.421C278.273 183.464 278.273 183.509 278.282 183.552C278.29 183.595 278.308 183.635 278.332 183.672L279.814 185.959C279.862 186.032 279.937 186.085 280.023 186.104C280.109 186.124 280.2 186.109 280.275 186.063L282.783 184.485C282.825 184.461 282.862 184.428 282.89 184.388C282.919 184.348 282.938 184.303 282.948 184.255C282.957 184.207 282.956 184.158 282.945 184.11C282.933 184.063 282.912 184.018 282.882 183.98V183.98Z" fill="black"/>
<path opacity="0.1" d="M279.128 186.585L277.509 184.271C277.457 184.199 277.38 184.151 277.293 184.135C277.206 184.12 277.116 184.139 277.043 184.189L274.672 185.788C274.635 185.813 274.603 185.844 274.579 185.881C274.554 185.918 274.537 185.959 274.528 186.002C274.519 186.046 274.519 186.091 274.528 186.134C274.537 186.177 274.554 186.219 274.579 186.256L276.06 188.537C276.083 188.575 276.114 188.607 276.149 188.633C276.185 188.659 276.226 188.677 276.269 188.687C276.312 188.696 276.356 188.697 276.4 188.69C276.443 188.682 276.485 188.665 276.521 188.641L279.03 187.064C279.068 187.04 279.102 187.008 279.128 186.971C279.155 186.933 279.173 186.891 279.182 186.846C279.191 186.801 279.191 186.755 279.182 186.71C279.173 186.665 279.155 186.623 279.128 186.585V186.585Z" fill="black"/>
<path opacity="0.1" d="M275.423 189.257L273.705 186.8C273.667 186.747 273.609 186.711 273.545 186.699C273.48 186.688 273.414 186.702 273.36 186.739L270.846 188.432C270.791 188.47 270.753 188.528 270.74 188.594C270.726 188.659 270.739 188.728 270.775 188.784L272.35 191.208C272.387 191.263 272.443 191.301 272.508 191.316C272.572 191.33 272.639 191.319 272.696 191.285L275.352 189.636C275.385 189.62 275.414 189.595 275.437 189.566C275.46 189.536 275.475 189.501 275.482 189.464C275.489 189.428 275.487 189.39 275.477 189.354C275.467 189.318 275.448 189.285 275.423 189.257V189.257Z" fill="black"/>
<path opacity="0.1" d="M319.845 163.887L318.357 161.771C318.274 161.657 318.15 161.58 318.011 161.555C317.872 161.531 317.728 161.561 317.611 161.639L311.804 165.713C311.692 165.794 311.615 165.916 311.588 166.053C311.562 166.189 311.588 166.331 311.662 166.449L313.061 168.615C313.102 168.675 313.153 168.726 313.213 168.766C313.274 168.806 313.341 168.834 313.412 168.848C313.483 168.862 313.556 168.861 313.626 168.847C313.697 168.832 313.764 168.804 313.824 168.763L319.718 164.635C319.831 164.551 319.907 164.426 319.931 164.287C319.954 164.147 319.923 164.004 319.845 163.887V163.887Z" fill="black"/>
<path opacity="0.1" d="M281.916 190.549L280.094 187.971C280.075 187.943 280.051 187.919 280.023 187.901C279.995 187.883 279.964 187.871 279.931 187.865C279.898 187.86 279.865 187.861 279.832 187.868C279.8 187.876 279.77 187.89 279.743 187.91L273.475 192.308C273.422 192.345 273.385 192.401 273.373 192.465C273.36 192.529 273.374 192.595 273.409 192.649L275.122 195.304C275.14 195.333 275.164 195.357 275.192 195.376C275.22 195.396 275.252 195.409 275.285 195.416C275.318 195.422 275.353 195.422 275.386 195.415C275.419 195.408 275.451 195.395 275.478 195.375L281.85 190.906C281.906 190.867 281.944 190.808 281.956 190.741C281.969 190.674 281.954 190.605 281.916 190.549V190.549Z" fill="black"/>
<path opacity="0.1" d="M301.854 170.83L300.175 168.368C300.137 168.314 300.08 168.277 300.015 168.264C299.951 168.252 299.884 168.265 299.829 168.302L285.911 177.713C285.856 177.75 285.818 177.807 285.805 177.871C285.792 177.936 285.804 178.004 285.84 178.059L287.558 180.698C287.576 180.726 287.6 180.751 287.628 180.77C287.656 180.79 287.688 180.803 287.721 180.81C287.754 180.816 287.788 180.816 287.822 180.809C287.855 180.802 287.886 180.789 287.914 180.769L301.788 171.182C301.816 171.163 301.839 171.139 301.857 171.112C301.876 171.084 301.888 171.053 301.894 171.02C301.9 170.987 301.9 170.954 301.893 170.921C301.886 170.889 301.873 170.858 301.854 170.83V170.83Z" fill="black"/>
</g>
<path d="M325.191 171.38L323.808 169.401C323.725 169.286 323.601 169.208 323.462 169.182C323.323 169.157 323.179 169.186 323.061 169.264L321.02 170.649C320.904 170.729 320.823 170.851 320.795 170.989C320.766 171.127 320.792 171.271 320.866 171.391L322.134 173.343C322.212 173.46 322.333 173.543 322.471 173.574C322.609 173.605 322.754 173.581 322.875 173.508L325.037 172.144C325.097 172.104 325.149 172.053 325.19 171.993C325.23 171.933 325.258 171.865 325.272 171.794C325.287 171.723 325.287 171.65 325.273 171.579C325.259 171.508 325.231 171.44 325.191 171.38Z" fill="#464A5F"/>
<path d="M321.491 173.931L320.108 171.957C320.026 171.844 319.903 171.767 319.765 171.741C319.627 171.716 319.485 171.744 319.367 171.82L317.32 173.2C317.205 173.28 317.124 173.402 317.095 173.54C317.067 173.678 317.092 173.822 317.167 173.942L318.434 175.893C318.513 176.011 318.634 176.094 318.772 176.125C318.91 176.155 319.054 176.132 319.175 176.058L321.338 174.7C321.399 174.66 321.451 174.609 321.492 174.548C321.533 174.488 321.562 174.42 321.576 174.348C321.59 174.276 321.59 174.202 321.576 174.131C321.561 174.059 321.532 173.991 321.491 173.931Z" fill="#464A5F"/>
<path d="M317.65 176.613L316.267 174.64C316.184 174.525 316.06 174.447 315.921 174.421C315.782 174.396 315.638 174.425 315.52 174.503L313.479 175.888C313.363 175.968 313.282 176.09 313.254 176.228C313.225 176.366 313.251 176.51 313.325 176.63L314.593 178.581C314.672 178.698 314.793 178.78 314.931 178.81C315.069 178.839 315.213 178.815 315.334 178.741L317.496 177.383C317.557 177.343 317.61 177.291 317.65 177.231C317.691 177.17 317.72 177.102 317.734 177.031C317.748 176.959 317.748 176.885 317.734 176.813C317.719 176.742 317.691 176.674 317.65 176.613Z" fill="#464A5F"/>
<path d="M313.731 179.324L312.348 177.345C312.265 177.231 312.142 177.154 312.004 177.128C311.867 177.103 311.724 177.131 311.607 177.207L309.56 178.592C309.499 178.633 309.448 178.686 309.408 178.747C309.368 178.808 309.341 178.876 309.328 178.947C309.314 179.019 309.315 179.093 309.331 179.164C309.346 179.235 309.375 179.302 309.417 179.362L310.685 181.314C310.763 181.431 310.884 181.514 311.022 181.545C311.16 181.576 311.305 181.552 311.426 181.478L313.582 180.115C313.646 180.075 313.701 180.022 313.743 179.959C313.786 179.897 313.815 179.826 313.829 179.752C313.843 179.677 313.841 179.601 313.824 179.527C313.807 179.454 313.775 179.384 313.731 179.324Z" fill="#464A5F"/>
<path d="M309.823 182.034L308.44 180.06C308.358 179.947 308.235 179.87 308.097 179.844C307.959 179.818 307.817 179.847 307.7 179.923L305.652 181.303C305.538 181.384 305.458 181.506 305.431 181.644C305.403 181.782 305.429 181.925 305.504 182.045L306.767 183.996C306.845 184.114 306.966 184.197 307.104 184.228C307.242 184.258 307.387 184.234 307.507 184.161L309.67 182.798C309.73 182.758 309.782 182.706 309.822 182.646C309.863 182.586 309.891 182.519 309.905 182.448C309.919 182.377 309.92 182.304 309.906 182.233C309.892 182.161 309.864 182.094 309.823 182.034Z" fill="#464A5F"/>
<path d="M306.086 184.991L304.368 182.539C304.35 182.512 304.327 182.489 304.299 182.471C304.272 182.453 304.241 182.44 304.209 182.434C304.177 182.428 304.144 182.428 304.112 182.435C304.08 182.442 304.049 182.455 304.023 182.473L301.509 184.172C301.481 184.19 301.457 184.213 301.439 184.24C301.42 184.267 301.407 184.298 301.401 184.33C301.394 184.362 301.394 184.396 301.4 184.428C301.407 184.46 301.419 184.491 301.438 184.518L303.013 186.943C303.049 186.998 303.105 187.038 303.17 187.052C303.235 187.066 303.302 187.055 303.359 187.02L306.015 185.37C306.047 185.352 306.074 185.327 306.096 185.298C306.117 185.268 306.131 185.234 306.138 185.197C306.145 185.161 306.144 185.124 306.135 185.089C306.126 185.053 306.109 185.02 306.086 184.991V184.991Z" fill="#464A5F"/>
<path d="M302.178 187.701L300.46 185.249C300.441 185.222 300.417 185.199 300.39 185.18C300.362 185.162 300.331 185.15 300.298 185.144C300.266 185.137 300.232 185.138 300.2 185.145C300.167 185.152 300.136 185.165 300.109 185.184L297.601 186.882C297.573 186.9 297.549 186.923 297.531 186.95C297.512 186.977 297.499 187.008 297.492 187.04C297.486 187.073 297.486 187.106 297.492 187.138C297.498 187.17 297.511 187.201 297.529 187.228L299.105 189.658C299.122 189.686 299.145 189.71 299.173 189.728C299.2 189.747 299.23 189.76 299.262 189.767C299.295 189.773 299.328 189.774 299.36 189.767C299.392 189.761 299.423 189.748 299.45 189.73L302.107 188.081C302.138 188.062 302.165 188.037 302.185 188.007C302.206 187.977 302.22 187.943 302.227 187.907C302.234 187.871 302.233 187.834 302.225 187.799C302.216 187.763 302.2 187.73 302.178 187.701V187.701Z" fill="#464A5F"/>
<path d="M298.715 190.104L296.997 187.646C296.959 187.593 296.901 187.557 296.837 187.546C296.772 187.535 296.706 187.549 296.652 187.586L294.138 189.257C294.083 189.295 294.045 189.353 294.032 189.418C294.018 189.484 294.031 189.552 294.067 189.609L295.642 192.033C295.679 192.088 295.735 192.126 295.8 192.14C295.864 192.155 295.931 192.144 295.988 192.11L298.644 190.461C298.673 190.443 298.697 190.419 298.716 190.391C298.736 190.362 298.749 190.331 298.756 190.297C298.762 190.264 298.762 190.23 298.755 190.196C298.748 190.163 298.735 190.131 298.715 190.104V190.104Z" fill="#464A5F"/>
<path d="M294.84 192.792L293.123 190.356C293.084 190.303 293.026 190.267 292.962 190.256C292.897 190.245 292.831 190.259 292.777 190.296L290.263 191.989C290.235 192.007 290.211 192.031 290.193 192.059C290.174 192.086 290.161 192.117 290.154 192.15C290.148 192.183 290.148 192.217 290.154 192.249C290.161 192.282 290.173 192.313 290.192 192.341L291.767 194.765C291.804 194.82 291.86 194.858 291.925 194.872C291.989 194.887 292.056 194.876 292.113 194.842L294.769 193.193C294.805 193.175 294.836 193.15 294.859 193.118C294.883 193.086 294.899 193.049 294.906 193.01C294.913 192.971 294.911 192.931 294.899 192.893C294.888 192.855 294.868 192.82 294.84 192.792V192.792Z" fill="#464A5F"/>
<path d="M291.087 195.392L289.369 192.94C289.351 192.913 289.328 192.889 289.3 192.871C289.273 192.853 289.242 192.841 289.21 192.835C289.178 192.828 289.145 192.829 289.113 192.836C289.081 192.842 289.05 192.855 289.024 192.874L286.51 194.573C286.482 194.591 286.458 194.614 286.44 194.641C286.421 194.668 286.408 194.699 286.402 194.731C286.395 194.763 286.395 194.796 286.401 194.829C286.408 194.861 286.42 194.892 286.439 194.919L288.014 197.343C288.031 197.371 288.054 197.396 288.081 197.415C288.108 197.434 288.138 197.448 288.17 197.455C288.203 197.462 288.236 197.463 288.268 197.457C288.301 197.451 288.332 197.438 288.359 197.42L291.016 195.771C291.048 195.753 291.075 195.728 291.097 195.698C291.118 195.668 291.132 195.634 291.139 195.598C291.146 195.562 291.145 195.525 291.136 195.489C291.127 195.454 291.11 195.42 291.087 195.392V195.392Z" fill="#464A5F"/>
<path d="M287.332 197.997L285.615 195.54C285.576 195.487 285.519 195.451 285.454 195.44C285.389 195.429 285.323 195.443 285.269 195.48L282.755 197.173C282.7 197.211 282.662 197.269 282.649 197.334C282.635 197.4 282.648 197.468 282.684 197.525L284.259 199.949C284.296 200.004 284.352 200.042 284.417 200.056C284.481 200.071 284.548 200.06 284.605 200.026L287.261 198.377C287.293 198.359 287.321 198.334 287.342 198.304C287.363 198.274 287.378 198.24 287.385 198.204C287.391 198.168 287.39 198.13 287.381 198.095C287.372 198.059 287.356 198.026 287.332 197.997V197.997Z" fill="#464A5F"/>
<path d="M283.579 200.598L281.861 198.146C281.843 198.119 281.82 198.095 281.793 198.077C281.765 198.059 281.735 198.047 281.702 198.04C281.67 198.034 281.637 198.035 281.605 198.041C281.573 198.048 281.543 198.061 281.516 198.08L279.002 199.779C278.974 199.796 278.951 199.82 278.932 199.847C278.913 199.874 278.9 199.904 278.894 199.937C278.887 199.969 278.887 200.002 278.893 200.035C278.9 200.067 278.912 200.098 278.931 200.125L280.506 202.549C280.523 202.577 280.546 202.602 280.573 202.621C280.6 202.64 280.63 202.654 280.663 202.661C280.695 202.668 280.728 202.669 280.761 202.663C280.793 202.657 280.824 202.644 280.852 202.626L283.508 200.977C283.54 200.959 283.567 200.934 283.589 200.904C283.61 200.874 283.625 200.84 283.631 200.804C283.638 200.768 283.637 200.731 283.628 200.695C283.619 200.659 283.602 200.626 283.579 200.598V200.598Z" fill="#464A5F"/>
<path d="M322.715 167.818L321.332 165.839C321.249 165.726 321.127 165.648 320.989 165.623C320.851 165.597 320.709 165.625 320.591 165.701L318.544 167.087C318.429 167.168 318.35 167.29 318.322 167.428C318.295 167.566 318.321 167.71 318.396 167.829L319.658 169.78C319.737 169.898 319.858 169.981 319.996 170.012C320.134 170.043 320.278 170.019 320.399 169.945L322.561 168.582C322.622 168.542 322.674 168.491 322.714 168.431C322.754 168.37 322.783 168.303 322.797 168.232C322.811 168.161 322.811 168.088 322.797 168.017C322.783 167.946 322.755 167.878 322.715 167.818Z" fill="#464A5F"/>
<path d="M317.309 159.979L315.926 158.005C315.843 157.892 315.72 157.815 315.583 157.789C315.445 157.764 315.303 157.792 315.185 157.868L313.138 159.248C313.023 159.329 312.944 159.451 312.916 159.589C312.888 159.727 312.915 159.871 312.99 159.99L314.257 161.941C314.336 162.058 314.456 162.14 314.592 162.17C314.729 162.201 314.872 162.178 314.993 162.106L317.155 160.749C317.216 160.709 317.269 160.657 317.31 160.596C317.351 160.536 317.379 160.468 317.393 160.396C317.408 160.324 317.407 160.251 317.393 160.179C317.378 160.107 317.35 160.039 317.309 159.979Z" fill="#464A5F"/>
<path d="M319.032 170.352L317.649 168.368C317.567 168.254 317.444 168.177 317.306 168.151C317.169 168.126 317.026 168.154 316.909 168.23L314.861 169.61C314.747 169.691 314.667 169.813 314.64 169.951C314.612 170.09 314.638 170.233 314.713 170.352L315.981 172.304C316.059 172.42 316.179 172.502 316.316 172.533C316.453 172.563 316.596 172.54 316.716 172.469L318.879 171.111C318.999 171.03 319.083 170.905 319.112 170.763C319.14 170.621 319.112 170.473 319.032 170.352Z" fill="#464A5F"/>
<path d="M315.168 173.029L313.807 171.056C313.724 170.942 313.602 170.865 313.464 170.84C313.326 170.814 313.184 170.842 313.066 170.918L311.019 172.298C310.903 172.379 310.822 172.503 310.795 172.642C310.767 172.781 310.794 172.926 310.871 173.046L312.133 174.997C312.213 175.114 312.334 175.196 312.472 175.226C312.61 175.255 312.754 175.231 312.874 175.157L315.036 173.799C315.096 173.757 315.146 173.704 315.185 173.643C315.224 173.582 315.25 173.513 315.262 173.442C315.275 173.37 315.273 173.297 315.257 173.226C315.24 173.155 315.21 173.088 315.168 173.029Z" fill="#464A5F"/>
<path d="M311.261 175.745L309.878 173.766C309.795 173.651 309.671 173.573 309.532 173.547C309.393 173.522 309.25 173.551 309.131 173.628L307.09 175.014C306.974 175.094 306.894 175.216 306.865 175.354C306.836 175.492 306.862 175.636 306.936 175.756L308.204 177.707C308.282 177.825 308.403 177.908 308.541 177.939C308.679 177.97 308.824 177.946 308.945 177.872L311.107 176.509C311.168 176.469 311.219 176.418 311.26 176.358C311.3 176.297 311.328 176.23 311.343 176.159C311.357 176.088 311.357 176.015 311.343 175.944C311.329 175.873 311.301 175.805 311.261 175.745Z" fill="#464A5F"/>
<path d="M313.714 162.656L312.331 160.672C312.248 160.558 312.126 160.481 311.988 160.455C311.85 160.43 311.708 160.458 311.59 160.534L309.543 161.914C309.428 161.995 309.349 162.117 309.321 162.255C309.294 162.394 309.32 162.537 309.395 162.656L310.663 164.608C310.741 164.724 310.861 164.806 310.998 164.836C311.134 164.867 311.278 164.844 311.398 164.773L313.56 163.415C313.681 163.334 313.764 163.209 313.793 163.067C313.822 162.925 313.794 162.777 313.714 162.656V162.656Z" fill="#464A5F"/>
<path d="M309.851 165.339L308.468 163.36C308.385 163.246 308.262 163.169 308.125 163.144C307.987 163.118 307.845 163.146 307.727 163.222L305.68 164.608C305.564 164.688 305.483 164.81 305.455 164.948C305.426 165.086 305.452 165.23 305.526 165.35L306.794 167.301C306.872 167.419 306.993 167.502 307.131 167.533C307.269 167.563 307.414 167.54 307.535 167.466L309.697 166.103C309.757 166.063 309.809 166.011 309.85 165.951C309.89 165.891 309.918 165.824 309.933 165.753C309.947 165.682 309.947 165.609 309.933 165.538C309.919 165.467 309.891 165.399 309.851 165.339Z" fill="#464A5F"/>
<path d="M305.943 168.049L304.56 166.075C304.477 165.961 304.353 165.882 304.214 165.857C304.075 165.831 303.931 165.86 303.813 165.938L301.772 167.318C301.656 167.398 301.575 167.52 301.547 167.658C301.518 167.796 301.543 167.94 301.618 168.06L302.886 170.017C302.964 170.135 303.085 170.218 303.223 170.248C303.361 170.279 303.506 170.255 303.627 170.182L305.783 168.818C305.845 168.779 305.898 168.728 305.939 168.667C305.981 168.607 306.01 168.539 306.025 168.467C306.039 168.396 306.04 168.322 306.026 168.25C306.012 168.178 305.983 168.11 305.943 168.049V168.049Z" fill="#464A5F"/>
<path d="M307.348 178.455L305.965 176.482C305.882 176.368 305.759 176.291 305.622 176.265C305.484 176.24 305.342 176.268 305.224 176.344L303.177 177.713C303.062 177.794 302.983 177.916 302.955 178.054C302.927 178.192 302.954 178.336 303.029 178.455L304.296 180.406C304.375 180.523 304.495 180.605 304.631 180.635C304.768 180.666 304.911 180.643 305.032 180.571L307.194 179.208C307.313 179.128 307.396 179.004 307.424 178.863C307.453 178.722 307.426 178.576 307.348 178.455V178.455Z" fill="#464A5F"/>
<path d="M303.441 181.165L302.058 179.192C301.975 179.078 301.852 179.001 301.714 178.975C301.577 178.95 301.434 178.978 301.317 179.054L299.27 180.461C299.154 180.542 299.073 180.664 299.045 180.802C299.016 180.94 299.042 181.084 299.116 181.204L300.384 183.155C300.462 183.273 300.583 183.356 300.721 183.387C300.859 183.417 301.004 183.393 301.125 183.32L303.287 181.962C303.352 181.922 303.408 181.869 303.451 181.807C303.495 181.744 303.525 181.673 303.539 181.598C303.554 181.523 303.552 181.445 303.535 181.371C303.518 181.297 303.486 181.226 303.441 181.165Z" fill="#464A5F"/>
<path d="M299.703 184.123L297.985 181.671C297.967 181.644 297.943 181.62 297.916 181.602C297.889 181.584 297.858 181.571 297.826 181.565C297.794 181.559 297.761 181.56 297.729 181.566C297.697 181.573 297.666 181.586 297.639 181.605L295.148 183.304C295.12 183.321 295.096 183.344 295.078 183.372C295.059 183.399 295.046 183.429 295.039 183.462C295.033 183.494 295.032 183.527 295.039 183.559C295.045 183.592 295.058 183.623 295.076 183.65L296.651 186.074C296.669 186.102 296.692 186.127 296.718 186.146C296.745 186.165 296.776 186.179 296.808 186.186C296.84 186.193 296.874 186.194 296.906 186.188C296.939 186.182 296.97 186.169 296.997 186.151L299.653 184.502C299.683 184.481 299.708 184.455 299.727 184.424C299.745 184.393 299.757 184.359 299.762 184.323C299.767 184.287 299.764 184.251 299.754 184.217C299.743 184.182 299.726 184.15 299.703 184.123V184.123Z" fill="#464A5F"/>
<path d="M296.245 186.508L294.527 184.051C294.488 183.998 294.429 183.962 294.364 183.95C294.299 183.939 294.231 183.954 294.176 183.991L291.663 185.684C291.609 185.723 291.571 185.78 291.558 185.846C291.545 185.911 291.557 185.979 291.591 186.036L293.172 188.46C293.208 188.516 293.264 188.555 293.329 188.569C293.394 188.584 293.461 188.572 293.518 188.537L296.168 186.888C296.201 186.871 296.23 186.847 296.253 186.817C296.275 186.787 296.291 186.753 296.298 186.717C296.305 186.68 296.305 186.642 296.295 186.606C296.286 186.57 296.269 186.537 296.245 186.508V186.508Z" fill="#464A5F"/>
<path d="M292.365 189.213L290.647 186.756C290.608 186.703 290.551 186.667 290.486 186.656C290.422 186.644 290.355 186.658 290.301 186.695L287.788 188.388C287.732 188.426 287.694 188.484 287.681 188.55C287.668 188.616 287.68 188.684 287.716 188.74L289.291 191.165C289.328 191.219 289.385 191.258 289.449 191.272C289.513 191.286 289.581 191.275 289.637 191.241L292.293 189.592C292.327 189.576 292.356 189.552 292.379 189.522C292.401 189.492 292.416 189.457 292.423 189.42C292.43 189.384 292.428 189.346 292.418 189.31C292.408 189.274 292.39 189.241 292.365 189.213V189.213Z" fill="#464A5F"/>
<path d="M288.617 191.813L286.916 189.361C286.898 189.334 286.874 189.311 286.847 189.293C286.82 189.275 286.789 189.262 286.757 189.256C286.725 189.25 286.692 189.25 286.66 189.257C286.628 189.264 286.597 189.277 286.57 189.295L284.057 190.994C284.002 191.031 283.964 191.088 283.951 191.153C283.937 191.217 283.95 191.285 283.985 191.34L285.56 193.765C285.596 193.82 285.653 193.86 285.718 193.874C285.782 193.889 285.85 193.877 285.906 193.842L288.563 192.193C288.594 192.174 288.621 192.148 288.641 192.117C288.661 192.087 288.675 192.052 288.68 192.016C288.685 191.98 288.682 191.943 288.671 191.908C288.661 191.872 288.642 191.84 288.617 191.813V191.813Z" fill="#464A5F"/>
<path d="M312.595 169.313L311.217 167.334C311.135 167.219 311.011 167.141 310.872 167.115C310.733 167.09 310.589 167.119 310.471 167.197L308.424 168.582C308.309 168.663 308.23 168.785 308.202 168.924C308.174 169.062 308.201 169.205 308.276 169.324L309.544 171.276C309.623 171.393 309.744 171.474 309.882 171.504C310.02 171.534 310.164 171.509 310.284 171.435L312.441 170.077C312.502 170.037 312.553 169.986 312.594 169.926C312.634 169.866 312.662 169.798 312.677 169.727C312.691 169.656 312.691 169.583 312.677 169.512C312.663 169.441 312.635 169.373 312.595 169.313V169.313Z" fill="#464A5F"/>
<path d="M308.687 172.023L307.304 170.05C307.222 169.936 307.1 169.857 306.962 169.831C306.824 169.804 306.681 169.831 306.563 169.907L304.516 171.292C304.401 171.373 304.321 171.496 304.294 171.634C304.266 171.772 304.293 171.915 304.368 172.034L305.635 173.986C305.714 174.102 305.834 174.184 305.97 174.215C306.107 174.245 306.25 174.222 306.371 174.151L308.533 172.787C308.593 172.747 308.645 172.696 308.686 172.636C308.726 172.576 308.754 172.508 308.768 172.437C308.783 172.366 308.783 172.293 308.769 172.222C308.755 172.151 308.727 172.084 308.687 172.023Z" fill="#464A5F"/>
<path d="M304.779 174.733L303.38 172.765C303.297 172.651 303.173 172.572 303.034 172.547C302.895 172.521 302.752 172.55 302.634 172.628L300.636 174.002C300.52 174.083 300.439 174.204 300.411 174.343C300.382 174.481 300.408 174.625 300.482 174.744L301.75 176.696C301.828 176.814 301.949 176.897 302.087 176.927C302.225 176.958 302.37 176.934 302.491 176.861L304.653 175.503C304.712 175.461 304.762 175.408 304.8 175.346C304.839 175.285 304.864 175.216 304.876 175.145C304.888 175.073 304.885 175 304.869 174.929C304.852 174.859 304.822 174.792 304.779 174.733V174.733Z" fill="#464A5F"/>
<path d="M300.866 177.444L299.483 175.47C299.401 175.357 299.278 175.279 299.14 175.254C299.002 175.228 298.86 175.256 298.743 175.333L296.695 176.712C296.581 176.794 296.501 176.916 296.474 177.054C296.446 177.192 296.472 177.335 296.547 177.455L297.815 179.406C297.893 179.522 298.013 179.604 298.15 179.635C298.287 179.666 298.43 179.643 298.55 179.571L300.713 178.213C300.774 178.173 300.826 178.121 300.867 178.061C300.908 178 300.937 177.932 300.951 177.861C300.965 177.789 300.965 177.715 300.951 177.644C300.936 177.572 300.907 177.504 300.866 177.444Z" fill="#464A5F"/>
<path d="M297.134 180.401L295.417 177.949C295.398 177.922 295.374 177.898 295.346 177.88C295.318 177.862 295.287 177.849 295.255 177.843C295.222 177.837 295.189 177.838 295.156 177.844C295.124 177.851 295.093 177.864 295.065 177.883L292.552 179.582C292.497 179.619 292.459 179.676 292.446 179.741C292.432 179.805 292.445 179.873 292.48 179.928L294.056 182.358C294.074 182.386 294.097 182.41 294.125 182.429C294.153 182.447 294.184 182.46 294.216 182.467C294.249 182.474 294.283 182.474 294.315 182.467C294.348 182.461 294.379 182.448 294.407 182.429L297.058 180.78C297.09 180.763 297.118 180.738 297.14 180.708C297.162 180.679 297.177 180.645 297.184 180.609C297.191 180.572 297.191 180.535 297.182 180.499C297.174 180.463 297.157 180.43 297.134 180.401Z" fill="#464A5F"/>
<path d="M293.672 182.803L291.954 180.352C291.936 180.324 291.912 180.301 291.885 180.283C291.857 180.265 291.827 180.252 291.795 180.246C291.762 180.24 291.729 180.24 291.697 180.247C291.665 180.254 291.635 180.267 291.608 180.286L289.111 181.979C289.056 182.017 289.017 182.075 289.004 182.14C288.991 182.206 289.004 182.274 289.039 182.331L290.615 184.755C290.652 184.809 290.708 184.848 290.772 184.862C290.836 184.876 290.904 184.866 290.96 184.832L293.617 183.183C293.647 183.163 293.673 183.137 293.693 183.107C293.713 183.076 293.726 183.042 293.731 183.006C293.736 182.97 293.734 182.933 293.723 182.898C293.713 182.863 293.695 182.831 293.672 182.803V182.803Z" fill="#464A5F"/>
<path d="M289.797 185.491L288.08 183.034C288.04 182.981 287.981 182.945 287.916 182.933C287.851 182.922 287.783 182.937 287.728 182.974L285.22 184.667C285.165 184.705 285.127 184.763 285.114 184.828C285.1 184.894 285.113 184.962 285.149 185.019L286.724 187.443C286.76 187.499 286.816 187.538 286.881 187.552C286.946 187.567 287.014 187.555 287.07 187.52L289.726 185.871C289.758 185.853 289.785 185.828 289.807 185.798C289.828 185.768 289.843 185.734 289.849 185.698C289.856 185.662 289.855 185.624 289.846 185.589C289.837 185.553 289.82 185.52 289.797 185.491V185.491Z" fill="#464A5F"/>
<path d="M286.043 188.092L284.325 185.64C284.307 185.612 284.283 185.589 284.255 185.571C284.227 185.553 284.196 185.54 284.163 185.534C284.131 185.528 284.097 185.528 284.065 185.535C284.032 185.542 284.002 185.555 283.974 185.574L281.466 187.272C281.438 187.29 281.415 187.313 281.396 187.341C281.377 187.368 281.364 187.398 281.358 187.431C281.351 187.463 281.351 187.496 281.357 187.528C281.364 187.561 281.376 187.591 281.395 187.619L282.97 190.049C282.988 190.076 283.011 190.1 283.038 190.119C283.065 190.137 283.095 190.15 283.128 190.157C283.16 190.164 283.193 190.164 283.225 190.158C283.258 190.151 283.288 190.138 283.316 190.12L285.972 188.471C286.003 188.452 286.03 188.427 286.051 188.397C286.071 188.367 286.086 188.333 286.092 188.297C286.099 188.261 286.098 188.225 286.09 188.189C286.081 188.154 286.065 188.12 286.043 188.092V188.092Z" fill="#464A5F"/>
<path d="M284.863 194.419L283.146 191.962C283.106 191.908 283.047 191.872 282.982 191.861C282.917 191.85 282.849 191.864 282.794 191.901L280.281 193.594C280.226 193.632 280.187 193.69 280.174 193.756C280.161 193.821 280.173 193.89 280.209 193.946L281.785 196.37C281.821 196.425 281.878 196.463 281.942 196.478C282.006 196.492 282.074 196.481 282.13 196.447L284.787 194.798C284.82 194.781 284.848 194.757 284.871 194.727C284.893 194.698 284.909 194.663 284.916 194.627C284.924 194.591 284.923 194.553 284.914 194.517C284.904 194.481 284.887 194.447 284.863 194.419V194.419Z" fill="#464A5F"/>
<path d="M281.109 197.019L279.391 194.567C279.372 194.54 279.349 194.516 279.321 194.498C279.293 194.48 279.262 194.467 279.229 194.461C279.197 194.455 279.163 194.456 279.131 194.462C279.098 194.469 279.067 194.483 279.04 194.501L276.526 196.2C276.472 196.237 276.434 196.294 276.42 196.359C276.407 196.423 276.419 196.491 276.455 196.546L278.03 198.971C278.048 198.999 278.071 199.023 278.099 199.043C278.126 199.062 278.157 199.075 278.19 199.083C278.222 199.09 278.256 199.09 278.289 199.084C278.322 199.078 278.353 199.066 278.381 199.048L281.032 197.398C281.065 197.381 281.094 197.357 281.117 197.328C281.139 197.298 281.154 197.264 281.162 197.227C281.169 197.191 281.168 197.153 281.159 197.117C281.15 197.081 281.133 197.048 281.109 197.019V197.019Z" fill="#464A5F"/>
<path d="M286.998 181.445L285.379 179.131C285.327 179.059 285.25 179.011 285.163 178.995C285.075 178.98 284.986 178.999 284.913 179.049L282.525 180.648C282.452 180.699 282.401 180.776 282.384 180.863C282.366 180.95 282.384 181.041 282.432 181.116L283.914 183.402C283.963 183.477 284.04 183.529 284.127 183.547C284.214 183.566 284.305 183.549 284.38 183.501L286.883 181.924C286.923 181.901 286.958 181.87 286.986 181.834C287.014 181.797 287.034 181.755 287.045 181.71C287.056 181.665 287.057 181.618 287.049 181.573C287.041 181.527 287.024 181.484 286.998 181.445V181.445Z" fill="#464A5F"/>
<path d="M283.244 184.046L281.625 181.737C281.6 181.7 281.568 181.669 281.531 181.645C281.495 181.621 281.453 181.604 281.41 181.596C281.367 181.588 281.322 181.588 281.279 181.597C281.236 181.606 281.195 181.624 281.158 181.649L278.788 183.254C278.715 183.303 278.664 183.379 278.646 183.466C278.629 183.552 278.646 183.642 278.694 183.716L280.176 186.003C280.225 186.077 280.301 186.129 280.388 186.149C280.475 186.168 280.566 186.153 280.643 186.107L283.151 184.529C283.189 184.504 283.221 184.471 283.247 184.433C283.272 184.395 283.289 184.352 283.298 184.307C283.307 184.262 283.306 184.216 283.297 184.171C283.288 184.126 283.27 184.083 283.244 184.046V184.046Z" fill="#464A5F"/>
<path d="M279.491 186.651L277.844 184.337C277.793 184.266 277.717 184.217 277.63 184.202C277.544 184.186 277.455 184.205 277.383 184.255L275.007 185.854C274.933 185.904 274.882 185.981 274.865 186.069C274.848 186.156 274.865 186.247 274.913 186.321L276.395 188.608C276.445 188.683 276.521 188.735 276.608 188.753C276.696 188.772 276.787 188.755 276.862 188.707L279.37 187.13C279.411 187.107 279.446 187.077 279.475 187.041C279.503 187.004 279.524 186.962 279.535 186.917C279.546 186.872 279.548 186.825 279.541 186.779C279.533 186.734 279.516 186.69 279.491 186.651V186.651Z" fill="#464A5F"/>
<path d="M275.791 189.328L274.073 186.871C274.034 186.818 273.975 186.782 273.91 186.77C273.845 186.759 273.777 186.774 273.722 186.811L271.209 188.504C271.154 188.543 271.117 188.601 271.105 188.666C271.093 188.732 271.106 188.8 271.143 188.856L272.718 191.28C272.754 191.336 272.81 191.375 272.875 191.389C272.94 191.404 273.007 191.392 273.064 191.357L275.72 189.708C275.752 189.69 275.779 189.665 275.801 189.635C275.822 189.605 275.837 189.571 275.843 189.535C275.85 189.499 275.849 189.461 275.84 189.426C275.831 189.39 275.814 189.357 275.791 189.328V189.328Z" fill="#464A5F"/>
<path d="M320.212 163.97L318.747 161.848C318.663 161.734 318.539 161.657 318.4 161.632C318.261 161.608 318.118 161.638 318 161.716L312.161 165.789C312.048 165.871 311.971 165.993 311.945 166.13C311.918 166.266 311.944 166.408 312.018 166.526L313.423 168.692C313.464 168.752 313.515 168.803 313.575 168.843C313.636 168.883 313.703 168.911 313.774 168.925C313.845 168.939 313.918 168.938 313.988 168.924C314.059 168.909 314.126 168.881 314.186 168.84L320.075 164.712C320.188 164.629 320.265 164.506 320.291 164.368C320.316 164.23 320.288 164.088 320.212 163.97Z" fill="#464A5F"/>
<path d="M282.278 190.615L280.456 188.037C280.437 188.009 280.413 187.985 280.385 187.967C280.357 187.949 280.326 187.937 280.293 187.931C280.26 187.926 280.227 187.927 280.194 187.934C280.162 187.942 280.131 187.956 280.105 187.976L273.837 192.374C273.783 192.412 273.746 192.469 273.734 192.534C273.722 192.598 273.735 192.665 273.771 192.72L275.489 195.37C275.507 195.399 275.531 195.423 275.559 195.442C275.587 195.462 275.619 195.475 275.652 195.482C275.685 195.488 275.72 195.488 275.753 195.481C275.786 195.474 275.818 195.461 275.846 195.441L282.217 190.972C282.272 190.932 282.309 190.873 282.321 190.806C282.332 190.739 282.317 190.67 282.278 190.615V190.615Z" fill="#464A5F"/>
<path d="M302.216 170.896L300.57 168.45C300.532 168.395 300.474 168.357 300.408 168.343C300.343 168.33 300.275 168.343 300.218 168.379L286.306 177.779C286.278 177.797 286.254 177.82 286.236 177.847C286.217 177.874 286.204 177.905 286.197 177.937C286.191 177.969 286.191 178.003 286.197 178.035C286.203 178.067 286.216 178.098 286.235 178.125L287.947 180.764C287.965 180.792 287.989 180.817 288.017 180.836C288.045 180.856 288.077 180.869 288.11 180.876C288.143 180.882 288.178 180.882 288.211 180.875C288.244 180.868 288.276 180.855 288.304 180.835L302.178 171.248C302.229 171.206 302.261 171.146 302.269 171.08C302.276 171.014 302.257 170.948 302.216 170.896V170.896Z" fill="#464A5F"/>
<path opacity="0.1" d="M302.282 162.497L294.884 151.728C294.68 151.428 294.365 151.222 294.01 151.154C293.654 151.086 293.286 151.162 292.985 151.365L272.608 165.069C272.458 165.171 272.329 165.301 272.229 165.453C272.13 165.604 272.061 165.774 272.027 165.952C271.993 166.13 271.994 166.314 272.03 166.491C272.067 166.669 272.138 166.838 272.24 166.988L279.781 178.065C279.882 178.215 280.012 178.344 280.164 178.444C280.315 178.544 280.485 178.612 280.663 178.646C280.841 178.68 281.024 178.678 281.201 178.64C281.379 178.603 281.547 178.53 281.696 178.427L301.931 164.404C302.08 164.302 302.206 164.172 302.304 164.021C302.402 163.87 302.47 163.701 302.502 163.523C302.535 163.346 302.532 163.164 302.495 162.988C302.457 162.812 302.385 162.645 302.282 162.497V162.497Z" fill="black"/>
<path d="M302.622 162.563L295.224 151.794C295.019 151.496 294.704 151.29 294.349 151.223C293.994 151.155 293.626 151.229 293.325 151.431L272.975 165.146C272.824 165.247 272.694 165.377 272.594 165.528C272.493 165.679 272.423 165.849 272.389 166.028C272.354 166.206 272.355 166.39 272.391 166.568C272.428 166.746 272.5 166.915 272.602 167.065L280.121 178.131C280.222 178.281 280.352 178.41 280.504 178.51C280.655 178.61 280.825 178.678 281.003 178.712C281.181 178.746 281.364 178.744 281.541 178.706C281.719 178.669 281.887 178.596 282.036 178.493L302.282 164.47C302.429 164.367 302.555 164.237 302.652 164.085C302.749 163.933 302.815 163.764 302.847 163.587C302.879 163.41 302.875 163.228 302.836 163.052C302.798 162.877 302.725 162.71 302.622 162.563Z" fill="#939498"/>
<path d="M348.498 179.967L332.802 174.722L282.459 209.75L298.04 214.835C298.46 214.973 298.906 215.01 299.343 214.946C299.781 214.881 300.197 214.715 300.559 214.462L348.641 180.973C348.734 180.917 348.809 180.836 348.857 180.738C348.904 180.639 348.921 180.53 348.905 180.422C348.89 180.314 348.843 180.213 348.771 180.132C348.698 180.051 348.603 179.994 348.498 179.967V179.967Z" fill="#FADE4B"/>
</svg>
