<svg width="424" height="315" viewBox="0 0 424 315" fill="none" xmlns="http://www.w3.org/2000/svg">
<g clip-path="url(#clip0)">
<path d="M208.736 315C324.018 315 417.472 305.904 417.472 294.683C417.472 283.462 324.018 274.366 208.736 274.366C93.4543 274.366 0 283.462 0 294.683C0 305.904 93.4543 315 208.736 315Z" fill="#38383D"/>
<path opacity="0.1" d="M146.692 306.608C201.028 306.608 245.077 299.984 245.077 291.812C245.077 283.64 201.028 277.016 146.692 277.016C92.3552 277.016 48.3066 283.64 48.3066 291.812C48.3066 299.984 92.3552 306.608 146.692 306.608Z" fill="#38383D"/>
<path d="M97.6633 115.163C51.4577 115.163 14.0049 152.494 14.0049 198.538C14.0049 244.583 51.4754 281.914 97.6633 281.914C103.356 281.916 109.034 281.342 114.61 280.2C106.65 267.158 102.452 252.181 102.476 236.916C102.476 196.661 131.105 163.067 169.183 155.258C161.726 143.012 151.226 132.888 138.698 125.865C126.17 118.842 112.037 115.156 97.6633 115.163Z" fill="white"/>
<path opacity="0.1" d="M22.4474 200.937C22.4474 154.892 59.9046 117.566 106.106 117.566C110.603 117.566 115.094 117.925 119.534 118.639C112.403 116.724 105.049 115.758 97.6633 115.764C51.4577 115.764 14.0049 153.094 14.0049 199.139C14.0049 240.657 44.4467 275.068 84.2971 281.446C66.5441 276.664 50.866 266.187 39.6864 251.634C28.5068 237.082 22.4483 219.265 22.4474 200.937Z" fill="black"/>
<path d="M168.783 154.653C181.072 147.222 191.231 136.758 198.279 124.272C205.327 111.787 209.026 97.7012 209.019 83.3755C209.019 37.3306 171.567 0 125.361 0C79.1554 0 41.707 37.3306 41.707 83.3755C41.7049 89.0504 42.281 94.7108 43.4266 100.27C56.5112 92.3317 71.5397 88.1456 86.8578 88.1721C127.24 88.1588 160.948 116.709 168.783 154.653Z" fill="#303030"/>
<path opacity="0.1" d="M201.81 83.3755C201.819 96.4326 198.747 109.309 192.842 120.964C186.936 132.62 178.363 142.727 167.814 150.471C168.173 151.853 168.505 153.244 168.797 154.653C181.086 147.222 191.245 136.758 198.293 124.272C205.341 111.787 209.04 97.7012 209.033 83.3755C209.033 37.3306 171.581 0 125.375 0C124.165 0 122.964 0.0309151 121.768 0.0839164C166.28 1.96988 201.81 38.5364 201.81 83.3755Z" fill="black"/>
<path d="M165.132 192.147C163.762 192.845 162.459 193.667 161.241 194.603C160.017 195.548 159.079 196.812 158.533 198.256C157.775 196.688 157.363 194.983 156.858 193.318C155.89 190.297 154.748 187.334 153.437 184.445C155.596 183.623 157.467 182.191 158.821 180.324C161.48 182.952 164.188 185.69 165.504 189.157C165.73 189.758 166.391 190.398 166.546 190.924C166.754 191.706 165.708 191.829 165.132 192.147Z" fill="#FFBFC5"/>
<path d="M91.9014 277.25C91.9014 296.958 106.167 299.047 123.77 299.047C141.373 299.047 155.635 296.958 155.635 277.25C155.635 257.542 141.369 250.056 123.77 250.056C106.172 250.056 91.9014 257.547 91.9014 277.25Z" fill="#303030"/>
<path d="M190.034 256.16C192.925 257.069 195.622 258.506 197.984 260.4C198.162 260.51 198.29 260.684 198.343 260.886C198.406 261.327 197.794 261.526 197.351 261.654C196.021 262.03 195.21 263.253 194.249 264.207C193.287 265.161 191.745 265.916 190.623 265.152C190.329 264.927 190.072 264.657 189.861 264.353L185.128 258.205C186.733 257.309 188.42 256.57 190.167 255.996" fill="#F1F1F1"/>
<path d="M198.547 257.441C199.177 258.077 199.434 258.995 200.063 259.649C200.476 260.043 200.948 260.369 201.463 260.616L205.089 262.604C205.651 262.936 206.245 263.213 206.861 263.43C207.543 263.623 208.238 263.771 208.94 263.871C209.945 264.065 210.929 264.361 211.874 264.755C212.583 265.046 213.376 265.545 213.372 266.309C213.341 266.685 213.185 267.04 212.928 267.317C211.501 269.11 208.971 269.525 206.684 269.75C201.738 270.271 196.677 270.66 191.842 269.498C190.897 269.325 190.005 268.94 189.232 268.372C187.774 267.166 187.459 264.971 188.026 263.165C188.18 262.47 188.592 261.86 189.179 261.455C189.945 261.014 190.898 261.221 191.78 261.155C192.709 261.024 193.608 260.736 194.439 260.303C194.993 260.055 195.627 259.733 195.769 259.079C195.91 258.426 195.161 257.86 195.325 257.312C195.636 256.08 197.971 256.853 198.547 257.441Z" fill="#303030"/>
<path opacity="0.1" d="M198.477 257.075C199.106 257.711 199.363 258.63 199.993 259.284C200.405 259.678 200.878 260.004 201.393 260.251L205.018 262.238C205.581 262.571 206.174 262.847 206.791 263.064C207.473 263.258 208.167 263.406 208.869 263.506C209.875 263.7 210.858 263.996 211.803 264.389C212.512 264.681 213.306 265.18 213.301 265.944C213.27 266.32 213.114 266.674 212.858 266.951C211.431 268.744 208.9 269.159 206.614 269.385C201.668 269.906 196.607 270.295 191.772 269.133C190.827 268.96 189.935 268.574 189.161 268.007C187.703 266.801 187.389 264.606 187.956 262.799C188.11 262.105 188.522 261.494 189.108 261.09C189.875 260.648 190.828 260.856 191.71 260.79C192.638 260.659 193.538 260.371 194.369 259.937C194.923 259.69 195.556 259.367 195.698 258.714C195.84 258.06 195.091 257.495 195.255 256.947C195.565 255.715 197.901 256.488 198.477 257.075Z" fill="black"/>
<path d="M206.954 277.166L208.478 278.169C208.944 278.417 209.327 278.794 209.582 279.255C209.914 280.028 209.467 280.903 208.97 281.583C207.481 283.613 205.447 285.184 203.103 286.114C202.29 286.451 201.431 286.664 200.554 286.746C200.355 286.779 200.151 286.754 199.965 286.675C199.5 286.428 199.566 285.77 199.562 285.244C199.562 283.729 198.396 282.497 197.346 281.38C196.295 280.262 195.258 278.893 195.498 277.404C195.717 276.52 196.177 275.713 196.827 275.072C197.398 274.354 198.07 273.722 198.821 273.195C199.898 272.493 200.275 272.873 201.286 273.513C203.185 274.718 205.075 275.935 206.954 277.166Z" fill="#F1F1F1"/>
<path d="M202.009 284.56C202.423 284.664 202.856 284.67 203.272 284.576C203.689 284.482 204.078 284.292 204.407 284.021C205.062 283.473 205.592 282.793 205.962 282.024C206.334 281.345 206.657 280.639 206.928 279.913C207.247 279.061 207.54 278.12 208.293 277.603C209.18 276.976 210.483 277.223 211.395 277.828C212.308 278.434 213 279.33 213.784 280.108C215.632 281.945 218.065 283.107 220.565 283.866C223.064 284.626 225.657 285.006 228.223 285.496C228.738 285.565 229.236 285.725 229.694 285.969C230.731 286.6 231.081 288.009 230.789 289.184C230.496 290.359 229.73 291.331 228.892 292.214C228.194 293.038 227.329 293.705 226.353 294.171C225.529 294.47 224.663 294.634 223.787 294.656C219.536 294.942 215.266 294.609 211.112 293.667C209.587 293.252 208.035 292.943 206.467 292.744C205.515 292.66 204.548 292.686 203.596 292.62C201.692 292.49 199.83 292.001 198.109 291.18C197.691 291.026 197.338 290.733 197.112 290.35C196.987 289.999 196.961 289.62 197.037 289.255L197.67 283.716C197.728 283.235 197.887 282.634 198.371 282.559C198.854 282.484 199.159 282.956 199.447 283.319C200.006 283.984 200.772 284.446 201.623 284.632C202.474 284.817 203.363 284.716 204.15 284.343" fill="#303030"/>
<path d="M165.208 214.713C167.995 214.399 171.23 214.346 173.118 216.418C174.275 217.69 174.625 219.47 175.024 221.135C175.65 223.936 176.667 226.636 178.047 229.156C178.933 230.719 180.01 232.181 180.706 233.842C181.401 235.502 181.663 237.375 182.071 239.182C183.704 246.266 187.693 252.592 193.389 257.131C192.383 259.857 189.472 261.416 186.64 262.114C185.956 262.339 185.222 262.362 184.526 262.18C183.998 261.952 183.53 261.608 183.156 261.173C181.833 259.747 180.6 258.241 179.465 256.663C175.383 251.231 171.244 245.688 169.019 239.279C168.239 237.026 167.459 234.42 165.265 233.462C164.016 232.923 162.584 233.091 161.241 233.321C158.241 233.826 155.288 234.581 152.413 235.578C149.346 236.642 145.836 237.949 143.031 236.324C141.352 235.348 140.372 233.48 139.987 231.58C139.601 229.681 139.796 227.72 139.987 225.794C140.005 224.927 140.214 224.073 140.598 223.294C140.987 222.711 141.485 222.209 142.065 221.815C144.571 219.923 147.358 218.433 150.326 217.398C153.158 216.4 156.207 216.073 159.163 215.574C161.169 215.226 163.184 214.939 165.208 214.713Z" fill="#38383D"/>
<path opacity="0.1" d="M165.646 214.678C168.434 214.364 171.669 214.311 173.557 216.383C174.714 217.655 175.064 219.435 175.463 221.1C176.088 223.901 177.105 226.601 178.485 229.121C179.371 230.684 180.448 232.146 181.144 233.807C181.84 235.468 182.101 237.34 182.509 239.147C184.142 246.231 188.131 252.557 193.828 257.097C192.822 259.822 189.91 261.381 187.078 262.079C186.395 262.304 185.66 262.327 184.964 262.145C184.437 261.917 183.968 261.573 183.595 261.138C182.272 259.712 181.039 258.206 179.903 256.628C175.822 251.196 171.682 245.653 169.458 239.244C168.678 236.991 167.898 234.385 165.704 233.427C164.454 232.888 163.023 233.056 161.68 233.286C158.679 233.791 155.726 234.546 152.852 235.543C149.785 236.607 146.275 237.914 143.47 236.289C141.79 235.313 140.811 233.445 140.425 231.545C140.039 229.646 140.234 227.685 140.425 225.759C140.444 224.892 140.653 224.039 141.037 223.26C141.425 222.677 141.923 222.174 142.504 221.78C145.01 219.888 147.797 218.398 150.764 217.363C153.596 216.365 156.645 216.038 159.601 215.539C161.607 215.192 163.622 214.904 165.646 214.678Z" fill="#38383D"/>
<path d="M181.171 234.756C182.472 235.404 183.667 236.246 184.716 237.251C185.846 238.453 186.533 240.003 187.118 241.549C187.348 242.076 187.488 242.637 187.535 243.21C187.556 243.496 187.511 243.783 187.405 244.049C187.298 244.315 187.132 244.554 186.919 244.747C186.404 245.083 185.791 245.239 185.177 245.188C184.37 245.188 183.559 245.188 182.753 245.126C182.261 245.123 181.775 245.03 181.317 244.853C180.897 244.639 180.519 244.354 180.2 244.009C178.779 242.694 177.614 241.127 176.765 239.389C176.18 238.104 175.214 235.136 176.136 233.797C177.058 232.459 180.169 234.186 181.171 234.756Z" fill="#FFBFC5"/>
<path d="M142.069 234.297C146.195 235.622 150.586 235.763 154.899 236.165C162.152 236.841 169.316 238.253 176.282 240.379C177.709 240.82 179.167 241.297 180.315 242.247C181.248 243.106 182.037 244.108 182.655 245.215C183.788 246.935 184.813 248.723 185.726 250.568C186.51 252.238 187.109 253.987 187.835 255.678C190.284 261.345 194.156 266.287 199.079 270.028C199.965 270.713 200.98 271.455 201.211 272.555C201.315 273.264 201.199 273.989 200.878 274.631C199.815 277.1 197.607 278.897 195.29 280.271C194.297 280.863 193.198 281.459 192.71 282.51C189.192 281.061 186.572 277.97 184.396 274.86C182.22 271.751 180.284 268.399 177.492 265.819C176.264 264.68 174.868 263.69 173.898 262.321C172.422 260.236 172.023 257.383 170.038 255.775C168.052 254.168 165.163 254.375 162.597 254.627C149.45 255.905 136.202 255.756 123.087 254.185C120.362 253.863 117.561 253.448 115.199 252.048C112.837 250.648 110.998 248.033 111.33 245.316C111.645 242.772 113.767 240.758 116.138 239.765C118.509 238.771 121.124 238.59 123.672 238.303C130.014 237.605 136.068 236.456 142.069 234.297Z" fill="#38383D"/>
<path d="M104.36 239.575C104.683 237.419 105.521 235.379 106.048 233.263C106.312 231.932 106.646 230.615 107.05 229.319C107.05 229.279 107.081 229.244 107.094 229.209C107.228 229.198 107.358 229.158 107.474 229.091C107.59 229.025 107.691 228.934 107.768 228.824C107.841 228.636 107.86 228.431 107.825 228.233C107.81 228.022 107.81 227.811 107.825 227.601C108.689 226.158 109.633 224.765 110.653 223.427C112.426 220.905 113.986 218.224 115.528 215.548C116.795 213.339 118.063 211.157 119.109 208.852C119.898 207.125 120.558 205.318 121.427 203.649C124.529 197.642 130.077 193.212 136.051 190.032C141.786 186.98 147.986 184.926 154.013 182.497C154.167 182.65 154.307 182.816 154.434 182.992C157.692 187.43 158.042 193.261 159.385 198.596C159.925 200.751 160.648 202.898 160.648 205.115C160.648 208.392 159.074 211.44 157.51 214.324C156.043 217.04 154.532 219.757 152.586 222.155C151.664 223.295 150.65 224.363 149.723 225.49C145.921 230.132 143.727 235.843 141.591 241.448C140.359 244.694 138.338 247.569 136.982 250.767C136.459 251.995 136.158 253.315 135.502 254.481C134.846 255.648 133.707 256.663 132.369 256.69C131.977 256.678 131.588 256.617 131.212 256.509C126.368 255.268 122.313 252.092 118.289 249.115C117.566 248.585 116.844 248.064 116.073 247.587C115.302 247.11 114.522 246.673 113.733 246.262L111.934 245.277C109.975 244.208 108.007 243.135 105.964 242.229C105.347 241.989 104.754 241.694 104.191 241.346C104.197 240.752 104.254 240.159 104.36 239.575Z" fill="#303030"/>
<path d="M167.681 191.776C173.844 191.776 178.84 186.797 178.84 180.655C178.84 174.513 173.844 169.533 167.681 169.533C161.518 169.533 156.521 174.513 156.521 180.655C156.521 186.797 161.518 191.776 167.681 191.776Z" fill="#FFBFC5"/>
<path d="M175.192 175.452C175.464 175.92 175.873 176.294 176.364 176.524C176.855 176.753 177.405 176.828 177.94 176.737C178.472 176.631 178.976 176.413 179.418 176.099C179.861 175.784 180.231 175.38 180.506 174.913C181.049 173.975 181.373 172.928 181.454 171.848C181.547 171.004 181.534 170.081 180.989 169.423C180.574 169.019 180.097 168.685 179.575 168.434C178.853 167.992 178.245 167.387 177.802 166.667C177.492 166.15 177.266 165.589 176.987 165.059C175.972 163.138 173.995 161.574 171.819 161.645C170.774 161.68 169.776 162.087 168.744 162.255C165.283 162.86 161.524 161.036 158.311 162.458C157.522 162.841 156.789 163.328 156.131 163.907C155.227 164.651 154.358 165.435 153.525 166.256C152.802 166.87 152.254 167.664 151.939 168.557C151.495 170.192 152.537 172.016 151.876 173.57C151.652 174.016 151.384 174.438 151.074 174.829C150.348 175.894 151.136 180.05 151.074 181.335C150.984 181.959 151.143 182.593 151.517 183.102C152.045 183.689 152.927 183.738 153.733 183.747H155.183C155.399 183.763 155.617 183.74 155.825 183.68C156.11 183.556 156.361 183.365 156.556 183.124C157.762 181.856 158.019 177.718 159.769 177.735C160.036 177.718 160.302 177.786 160.527 177.93C160.842 178.159 160.935 178.588 161.161 178.906C161.418 179.209 161.765 179.421 162.152 179.512C162.539 179.602 162.945 179.566 163.31 179.409C164.033 179.075 164.661 178.568 165.141 177.934C165.617 177.301 166.195 176.75 166.851 176.304C167.786 175.761 168.841 175.527 169.75 174.913C170.508 174.401 170.937 173.659 171.62 173.093C172.302 172.528 172.879 172.608 173.605 172.983C174.656 173.562 174.7 174.48 175.192 175.452Z" fill="#303030"/>
<path opacity="0.1" d="M149.408 195.045C152.013 194.674 154.668 194.886 157.181 195.663C158.02 195.856 158.778 196.305 159.348 196.948C159.674 197.434 159.886 197.986 159.968 198.565C160.481 201.225 160.151 203.979 159.024 206.444C158.945 206.567 158.893 206.706 158.871 206.85C158.848 206.995 158.857 207.143 158.896 207.284C159.011 207.461 159.162 207.611 159.339 207.725C159.495 207.876 159.618 208.058 159.699 208.259C159.779 208.46 159.817 208.676 159.808 208.892C159.799 209.109 159.745 209.321 159.648 209.515C159.551 209.709 159.414 209.88 159.246 210.018C159.038 210.168 158.763 210.3 158.723 210.552C158.683 210.804 158.94 211.047 159.144 211.241C159.441 211.531 159.661 211.891 159.781 212.288C159.902 212.685 159.921 213.105 159.836 213.511C159.726 213.837 159.65 214.173 159.609 214.514C159.654 214.933 159.779 215.339 159.977 215.711C160.316 216.551 160.431 217.464 160.31 218.361C160.202 218.784 160.192 219.227 160.279 219.655C160.403 219.938 160.571 220.2 160.775 220.432C161.577 221.51 161.75 223.312 160.589 223.966C161.086 224.221 161.492 224.624 161.748 225.12C162.005 225.616 162.1 226.179 162.02 226.731C162.716 226.364 163.558 226.837 164.139 227.367C164.719 227.897 165.309 228.55 166.093 228.59C166.643 228.617 167.223 228.334 167.72 228.559C168.482 228.899 168.455 230.132 169.204 230.498C169.86 230.825 170.778 230.295 171.336 230.768C171.531 230.931 171.628 231.183 171.819 231.355C172.24 231.744 172.905 231.58 173.481 231.554C174.841 231.501 176.096 232.437 176.8 233.577C177.505 234.716 177.758 236.107 177.939 237.45C178.089 238.188 178.074 238.949 177.895 239.681C177.801 240.044 177.601 240.372 177.322 240.623C177.042 240.875 176.694 241.038 176.322 241.094C169.475 241.536 162.716 239.897 156.046 238.281C154.088 237.804 152.098 237.247 150.462 236.072C148.978 234.999 147.887 233.488 146.824 232.004C144.861 229.261 142.884 226.501 141.479 223.44C139.671 219.505 138.864 215.194 138.076 210.932C137.803 209.79 137.706 208.614 137.788 207.443C138.026 206.074 138.552 204.771 139.33 203.618C140.268 202.091 141.304 200.626 142.432 199.232C144.147 197.125 146.713 195.429 149.408 195.045Z" fill="black"/>
<path d="M149.856 194.603C152.462 194.232 155.119 194.445 157.633 195.226C158.473 195.415 159.231 195.863 159.801 196.507C160.125 196.993 160.337 197.545 160.421 198.123C160.931 200.784 160.601 203.537 159.477 206.003C159.398 206.126 159.345 206.264 159.323 206.409C159.301 206.553 159.31 206.701 159.348 206.842C159.463 207.019 159.614 207.169 159.792 207.284C159.948 207.434 160.07 207.616 160.151 207.817C160.232 208.018 160.269 208.234 160.26 208.451C160.252 208.667 160.197 208.879 160.1 209.073C160.003 209.267 159.867 209.438 159.699 209.576C159.49 209.726 159.216 209.859 159.176 210.11C159.136 210.362 159.393 210.605 159.619 210.799C159.916 211.089 160.135 211.45 160.256 211.846C160.377 212.243 160.395 212.664 160.31 213.07C160.2 213.395 160.125 213.731 160.084 214.072C160.127 214.491 160.25 214.897 160.448 215.269C160.79 216.108 160.906 217.022 160.784 217.919C160.647 218.272 160.618 218.657 160.701 219.025C160.784 219.394 160.975 219.73 161.25 219.991C162.052 221.068 162.225 222.87 161.064 223.551C161.561 223.805 161.967 224.207 162.223 224.702C162.48 225.197 162.575 225.76 162.495 226.311C163.191 225.944 164.033 226.417 164.613 226.947C165.194 227.477 165.783 228.131 166.568 228.171C167.117 228.197 167.693 227.914 168.194 228.14C168.957 228.484 168.93 229.712 169.679 230.083C170.335 230.405 171.252 229.875 171.811 230.348C172.006 230.511 172.103 230.763 172.294 230.935C172.715 231.324 173.379 231.161 173.956 231.134C175.316 231.081 176.57 232.018 177.275 233.157C177.917 234.357 178.304 235.675 178.414 237.031C178.556 237.762 178.541 238.514 178.37 239.239C178.275 239.602 178.076 239.93 177.796 240.182C177.517 240.433 177.169 240.597 176.796 240.652C169.949 241.094 163.191 239.455 156.521 237.839C154.562 237.362 152.568 236.805 150.937 235.631C149.452 234.562 148.362 233.047 147.299 231.563C145.335 228.824 143.359 226.064 141.954 223.003C140.146 219.063 139.339 214.752 138.55 210.495C138.278 209.351 138.181 208.173 138.262 207.001C138.488 205.634 139 204.329 139.765 203.172C140.7 201.644 141.737 200.181 142.867 198.79C144.6 196.675 147.166 194.983 149.856 194.603Z" fill="#303030"/>
</g>
<defs>
<clipPath id="clip0">
<rect width="424" height="315" fill="white"/>
</clipPath>
</defs>
</svg>
