<svg width="437" height="349" viewBox="0 0 437 349" fill="none" xmlns="http://www.w3.org/2000/svg">
<path d="M173.464 130.099L173.004 131.051L170.019 137.192L138.718 201.567L85.6019 331.918L78.0098 331.977L131.155 201.567L167.37 127.077L170.019 128.389L173.004 129.869L173.464 130.099Z" fill="#38383D"/>
<path d="M266.654 331.977L260.405 331.918L207.285 201.567L176.808 138.882L173.004 131.051L172.539 130.099L173.004 129.869L176.808 127.983L178.637 127.077L214.308 201.567L266.654 331.977Z" fill="#38383D"/>
<path d="M176.812 109.568H170.02V331.977H176.812V109.568Z" fill="#38383D"/>
<path d="M172.64 72.9264C170.348 72.9286 168.151 73.8413 166.531 75.4642C164.911 77.0871 163.999 79.2875 163.997 81.5826V84.6763C163.972 85.8293 164.177 86.9758 164.6 88.0485C165.023 89.1212 165.656 90.0984 166.461 90.9229C167.266 91.7474 168.228 92.4024 169.289 92.8496C170.35 93.2968 171.49 93.5272 172.642 93.5272C173.793 93.5272 174.933 93.2968 175.995 92.8496C177.056 92.4024 178.018 91.7474 178.823 90.9229C179.628 90.0984 180.261 89.1212 180.684 88.0485C181.107 86.9758 181.312 85.8293 181.287 84.6763V81.5826C181.283 79.2872 180.371 77.0867 178.75 75.4639C177.129 73.8412 174.932 72.9286 172.64 72.9264ZM179.123 84.6637C179.123 86.3869 178.439 88.0395 177.223 89.2581C176.006 90.4766 174.356 91.1611 172.636 91.1611C170.915 91.1611 169.265 90.4766 168.049 89.2581C166.832 88.0395 166.148 86.3869 166.148 84.6637V81.5701C166.148 79.8468 166.832 78.1942 168.049 76.9757C169.265 75.7572 170.915 75.0726 172.636 75.0726C174.356 75.0726 176.006 75.7572 177.223 76.9757C178.439 78.1942 179.123 79.8468 179.123 81.5701V84.6637Z" fill="#535461"/>
<path opacity="0.1" d="M214.308 201.567H207.285L176.808 138.882V201.567H170.019V137.192L138.717 201.567H131.154L167.37 127.077L170.019 128.389V109.568H176.808V127.983L178.637 127.077L214.308 201.567Z" fill="black"/>
<path opacity="0.1" d="M181.287 81.8927V84.6761C181.312 85.8292 181.107 86.9757 180.684 88.0484C180.261 89.1211 179.628 90.0983 178.823 90.9228C178.018 91.7472 177.056 92.4023 175.995 92.8495C174.933 93.2967 173.793 93.5271 172.642 93.5271C171.49 93.5271 170.35 93.2967 169.289 92.8495C168.228 92.4023 167.266 91.7472 166.461 90.9228C165.656 90.0983 165.023 89.1211 164.6 88.0484C164.177 86.9757 163.972 85.8292 163.997 84.6761V81.8927H166.157V84.6761C166.157 86.3993 166.84 88.052 168.057 89.2705C169.273 90.489 170.924 91.1736 172.644 91.1736C174.365 91.1736 176.015 90.489 177.231 89.2705C178.448 88.052 179.131 86.3993 179.131 84.6761V81.8927H181.287Z" fill="black"/>
<path d="M303.242 82.5131H42.041V200.641H303.242V82.5131Z" fill="#38383D"/>
<path d="M297.994 86.223H46.6748V193.837H297.994V86.223Z" fill="white"/>
<g opacity="0.2">
<path opacity="0.2" d="M83.3752 97.9225H71.4932V103.343H83.3752V97.9225Z" fill="#FADE4B"/>
</g>
<g opacity="0.2">
<path opacity="0.2" d="M83.3752 108.406H71.4932V113.827H83.3752V108.406Z" fill="#FADE4B"/>
</g>
<g opacity="0.2">
<path opacity="0.2" d="M83.3752 118.886H71.4932V124.306H83.3752V118.886Z" fill="#FADE4B"/>
</g>
<g opacity="0.2">
<path opacity="0.2" d="M83.3752 129.366H71.4932V134.786H83.3752V129.366Z" fill="#FADE4B"/>
</g>
<g opacity="0.2">
<path opacity="0.2" d="M83.3752 139.85H71.4932V145.27H83.3752V139.85Z" fill="#FADE4B"/>
</g>
<g opacity="0.2">
<path opacity="0.2" d="M83.3752 150.329H71.4932V155.75H83.3752V150.329Z" fill="#FADE4B"/>
</g>
<g opacity="0.2">
<path opacity="0.2" d="M83.3752 160.809H71.4932V166.229H83.3752V160.809Z" fill="#FADE4B"/>
</g>
<g opacity="0.2">
<path opacity="0.2" d="M83.3752 171.289H71.4932V176.709H83.3752V171.289Z" fill="#FADE4B"/>
</g>
<g opacity="0.2">
<path opacity="0.2" d="M105.746 176.713H93.8643V182.133H105.746V176.713Z" fill="#FADE4B"/>
</g>
<g opacity="0.2">
<path opacity="0.2" d="M126.676 176.713H114.794V182.133H126.676V176.713Z" fill="#FADE4B"/>
</g>
<g opacity="0.2">
<path opacity="0.2" d="M147.603 176.713H135.721V182.133H147.603V176.713Z" fill="#FADE4B"/>
</g>
<g opacity="0.2">
<path opacity="0.2" d="M168.533 176.713H156.651V182.133H168.533V176.713Z" fill="#FADE4B"/>
</g>
<g opacity="0.2">
<path opacity="0.2" d="M189.46 176.713H177.578V182.133H189.46V176.713Z" fill="#FADE4B"/>
</g>
<g opacity="0.2">
<path opacity="0.2" d="M210.391 176.713H198.509V182.133H210.391V176.713Z" fill="#FADE4B"/>
</g>
<g opacity="0.2">
<path opacity="0.2" d="M231.318 176.713H219.436V182.133H231.318V176.713Z" fill="#FADE4B"/>
</g>
<g opacity="0.2">
<path opacity="0.2" d="M252.248 176.713H240.366V182.133H252.248V176.713Z" fill="#FADE4B"/>
</g>
<g opacity="0.2">
<path opacity="0.2" d="M273.175 176.713H261.293V182.133H273.175V176.713Z" fill="#FADE4B"/>
</g>
<path d="M105.746 137.318H93.8643V171.289H105.746V137.318Z" fill="#FADE4B"/>
<path d="M126.676 121.598H114.794V171.293H126.676V121.598Z" fill="#FADE4B"/>
<path d="M147.603 108.406H135.721V171.293H147.603V108.406Z" fill="#FADE4B"/>
<path d="M168.533 115.244H156.651V171.289H168.533V115.244Z" fill="#FADE4B"/>
<path d="M189.46 103.347H177.578V171.293H189.46V103.347Z" fill="#FADE4B"/>
<g opacity="0.2">
<path opacity="0.2" d="M210.391 129.366H198.509V171.289H210.391V129.366Z" fill="#FADE4B"/>
</g>
<g opacity="0.2">
<path opacity="0.2" d="M231.318 129.366H219.436V171.289H231.318V129.366Z" fill="#FADE4B"/>
</g>
<g opacity="0.2">
<path opacity="0.2" d="M252.248 129.366H240.366V171.289H252.248V129.366Z" fill="#FADE4B"/>
</g>
<g opacity="0.2">
<path opacity="0.2" d="M273.175 129.366H261.293V171.289H273.175V129.366Z" fill="#FADE4B"/>
</g>
<path d="M259.928 129.274L158.184 135.545V137.532L262.096 133.403L259.928 129.274Z" fill="#535461"/>
<path d="M380.39 170.673C380.39 170.673 385.714 161.903 384.299 148.146C382.885 134.388 377.766 112.121 377.766 112.121C377.766 112.121 379.988 99.6455 367.935 97.8933C367.935 97.8933 360.443 96.4974 355.086 93.1229C353.094 91.8653 351.399 90.3437 350.482 88.5118C350.482 88.5118 350.411 88.7172 350.273 89.0945C350.154 88.9059 350.045 88.7114 349.946 88.5118C349.946 88.5118 349.917 88.5873 349.871 88.7214L347.824 85.5272C347.824 85.5272 347.544 85.8248 347.071 86.3153C346.248 85.1318 345.547 83.8678 344.978 82.5426C345.487 82.4195 345.987 82.2598 346.473 82.0647C346.937 81.9107 347.356 81.6427 347.69 81.285C347.984 80.8771 348.173 80.4037 348.243 79.9059C348.569 78.3125 348.662 76.6802 348.519 75.06C348.406 73.8025 348.151 72.5449 348.239 71.2664C348.331 69.904 348.812 68.5878 348.879 67.2212C348.996 64.8151 347.803 62.5263 346.33 60.619C345.451 59.483 344.464 58.4266 343.702 57.211C343.041 56.1546 342.559 54.9893 341.848 53.9622C340.174 51.5729 337.382 50.1644 334.519 49.6656C331.657 49.1667 328.71 49.4769 325.843 49.9506C323.332 50.3698 320.821 50.9776 318.31 51.1243C316.116 51.2501 314.329 50.5081 312.32 51.9627C311.655 52.4541 311.102 53.0824 310.7 53.8054C310.297 54.5284 310.053 55.3294 309.985 56.1546C309.952 56.4355 309.974 56.7201 310.048 56.993C310.166 57.2757 310.306 57.549 310.466 57.8104C311.358 59.571 310.002 61.6627 310.178 63.6287C310.285 64.4981 310.682 65.3057 311.305 65.9205C311.928 66.5353 312.74 66.9213 313.61 67.0158C313.53 67.1835 313.442 67.347 313.367 67.5188C312.255 70.0341 311.755 72.7775 311.908 75.5239C312.061 78.2703 312.862 80.9412 314.246 83.3172C315.629 85.6932 317.556 87.7065 319.867 89.1918C322.179 90.677 324.809 91.5919 327.542 91.8611L328.321 92.4606C330.079 93.8229 332.054 95.4536 333.958 97.2267L333.921 97.2561L333.611 97.08C333.031 97.5393 332.422 97.9594 331.786 98.3376C330.024 99.4191 327.182 100.823 323.985 100.983C323.985 100.983 318.259 104.022 316.288 114.045C313.459 116.585 307.403 121.171 299.4 122.366C288.154 124.042 274.289 124.591 274.289 124.591C274.289 124.591 274.176 124.793 274.017 125.161L272.736 124.927C272.736 124.927 272.736 125.082 272.681 125.346L272.179 125.12C268.207 123.38 260.272 120.844 259.268 127.832C257.92 137.205 266.843 136.127 266.843 136.127C268.607 135.456 270.415 134.906 272.255 134.48L272.753 134.384C272.837 134.628 272.956 134.86 273.104 135.071H274.318C274.739 135.945 275.249 136.774 275.837 137.544L304.121 136.924C304.121 136.924 308.955 135.868 313.417 136.538C311.471 151.109 309.173 167.089 309.173 167.089C309.173 167.089 304.36 192.395 307.729 195.04C309.685 194.387 311.678 193.852 313.697 193.439C313.728 195.003 313.893 196.561 314.191 198.096L316.347 212.227C316.347 212.227 317.184 226.664 319.984 235.282L322.453 247.062L324.521 255.965L325.684 271.077C327.282 277.479 328.437 283.983 329.141 290.544C330.234 300.697 336.164 317.104 336.955 319.263C334.929 322.134 330.769 327.005 325.55 327.508C318.1 328.229 317.92 332.727 323.127 334.345C328.333 335.963 339.291 334.345 339.291 334.345L354.743 330.518C354.278 333.373 354.035 335.628 354.374 335.871C355.362 336.592 370.358 340.482 370.898 334.253C370.94 333.739 370.977 333.24 371.011 332.756C371.234 328.766 370.702 324.769 369.441 320.977C369.32 320.604 369.211 320.227 369.115 319.85C369.337 319.601 369.542 319.336 369.726 319.057C369.726 319.057 370.806 302.239 371.614 296.212C371.676 295.729 371.718 295.143 371.739 294.48C372.112 287.253 369.479 268.243 369.479 268.243C369.479 268.243 366.227 255.877 366.349 250.193C366.367 249.721 366.447 249.253 366.587 248.801C366.587 248.801 366.587 248.688 366.545 248.499C366.545 248.42 366.583 248.336 366.608 248.261C366.608 248.261 364.959 236.942 365.189 230.21C365.221 229.206 365.362 228.208 365.608 227.234C365.869 225.955 366.003 224.653 366.005 223.348C366.215 218.737 365.972 210.772 365.637 203.303C365.675 203.177 365.712 203.051 365.742 202.904C365.809 202.309 365.739 201.707 365.537 201.144C365.511 200.662 365.491 200.184 365.465 199.71C365.604 199.236 365.717 198.733 365.817 198.214H366.035V198.243C366.035 198.243 380.106 197.568 383.341 193.791C383.341 193.791 380.072 183.617 378.26 175.347L380.39 170.673ZM319.754 139.028L319.532 138.949C319.887 137.691 320.31 136.228 320.787 134.694C320.381 136.354 320.03 137.863 319.754 139.028ZM334.034 97.3232L334.097 97.3818L334.03 97.3441L334.034 97.3232ZM351.612 315.519C350.855 312.908 347.845 302.26 347.942 297.184C347.963 296.743 348.04 296.306 348.172 295.885C348.451 294.965 348.592 294.008 348.59 293.047C348.892 287.748 346.866 278.254 346.866 278.254C346.866 278.254 342.333 265.447 342.681 255.278C342.681 255.022 342.71 254.766 342.727 254.511C342.802 253.547 342.861 252.503 342.902 251.4V251.379C343.074 247.452 343.036 242.723 342.923 238.313L342.898 238.15C342.743 232.31 342.455 227.054 342.333 224.975C342.752 227.98 345.43 246.689 346.586 249.749C346.586 249.749 347.217 258.38 350.089 265.678L353.236 284.65C353.236 284.65 354.044 307.228 355.387 313.612C355.99 316.454 356.501 318.37 356.881 319.619C356.337 322.164 355.458 326.427 354.868 329.956C354.521 327.655 353.299 318.885 351.616 315.519H351.612Z" fill="url(#paint0_linear)"/>
<path d="M338.156 316.102C338.156 316.102 332.903 325.639 325.516 326.351C318.129 327.064 317.953 331.52 323.114 333.125C328.274 334.731 339.135 333.125 339.135 333.125L354.621 329.294C354.621 329.294 352.75 313.96 350.259 313.159C347.769 312.359 338.156 316.102 338.156 316.102Z" fill="#38383D"/>
<path d="M357.031 316.278C357.031 316.278 353.113 333.926 354.101 334.643C355.089 335.36 369.943 339.187 370.478 333.037C370.52 332.52 370.558 332.026 370.591 331.553C370.811 327.599 370.282 323.638 369.034 319.879C368.616 318.621 368.323 317.276 368.432 316.278C368.679 313.784 357.031 316.278 357.031 316.278Z" fill="#38383D"/>
<path d="M352.172 92.8462C352.172 92.8462 340.156 122.407 342.295 112.913C343.71 106.625 334.565 98.2705 328.241 93.3618C325.022 90.8467 322.536 89.2496 322.536 89.2496C322.536 89.2496 345.095 62.9077 343.496 74.272C343.058 77.3844 343.483 80.5577 344.727 83.4438C347.217 89.3712 352.172 92.8462 352.172 92.8462Z" fill="#FFB9B9"/>
<path d="M275.418 134.84C274.782 134.677 273.744 134.782 272.668 135.012C270.846 135.434 269.055 135.978 267.307 136.643C267.307 136.643 258.463 137.712 259.798 128.423C260.79 121.498 268.655 124.013 272.593 125.731C273.932 126.323 274.819 126.817 274.819 126.817L275.418 134.84Z" fill="#FFB9B9"/>
<path opacity="0.1" d="M275.418 134.841C274.782 134.677 273.744 134.782 272.668 135.012C271.706 132.581 272.438 126.817 272.593 125.732C273.932 126.323 274.82 126.817 274.82 126.817L275.418 134.841Z" fill="black"/>
<path d="M275.456 125.97L273.141 125.551C273.141 125.551 271.957 133.516 273.505 135.612H276.167L275.456 125.97Z" fill="#CBCDDA"/>
<path d="M321.875 140.504C321.875 140.504 314.802 136.266 313.957 141.615C313.111 146.963 311.998 156.102 311.998 156.102L310.039 167.734L307.503 191.041L307.859 195.007C307.859 195.007 315.392 192.466 317.158 193.359C318.925 194.252 320.364 183.555 320.364 183.555L323.294 172.5L323.738 149.059L321.875 140.504Z" fill="#38383D"/>
<path opacity="0.1" d="M321.372 141.593C321.372 141.593 314.299 137.355 313.454 142.704C312.608 148.053 311.495 157.191 311.495 157.191L309.536 168.824L307 192.13L307.356 196.096C307.356 196.096 314.889 193.556 316.655 194.449C318.422 195.341 319.861 184.644 319.861 184.644L322.791 173.59L323.235 150.149L321.372 141.593Z" fill="#38383D"/>
<path d="M318.062 113.047C318.062 113.047 310.721 121.338 299.575 123.007C288.43 124.675 274.677 125.216 274.677 125.216C274.677 125.216 271.207 131.433 276.213 138.051L304.254 137.431C304.254 137.431 310.461 136.081 315.27 137.431L318.062 113.047Z" fill="#38383D"/>
<path opacity="0.05" d="M318.556 113C318.556 113 311.215 121.292 300.069 122.96C288.924 124.628 275.171 125.169 275.171 125.169C275.171 125.169 271.701 131.386 276.707 138.005L304.748 137.384C304.748 137.384 310.955 136.034 315.764 137.384L318.556 113Z" fill="#38383D"/>
<path opacity="0.1" d="M343.538 83.1881C340.801 89.0568 336.042 93.3828 329.141 93.3828C328.835 93.3828 328.538 93.3828 328.241 93.3618C325.022 90.8467 322.536 89.2496 322.536 89.2496C322.536 89.2496 345.095 62.9078 343.496 74.272C343.002 77.7512 342.437 80.5766 343.538 83.1881Z" fill="black"/>
<path d="M346.333 75.6216C346.331 79.0279 345.32 82.357 343.429 85.188C341.537 88.019 338.85 90.2248 335.707 91.5264C332.565 92.828 329.107 93.1671 325.772 92.5007C322.436 91.8343 319.373 90.1925 316.97 87.7827C314.566 85.3728 312.93 82.3033 312.268 78.9622C311.605 75.621 311.947 72.1583 313.25 69.0117C314.553 65.8651 316.758 63.1761 319.586 61.2845C322.414 59.3929 325.739 58.3837 329.14 58.3846C331.401 58.3801 333.64 58.8231 335.729 59.688C337.818 60.5528 339.716 61.8226 341.313 63.4243C342.911 65.026 344.177 66.9281 345.038 69.0213C345.9 71.1145 346.34 73.3576 346.333 75.6216Z" fill="#FFB9B9"/>
<path d="M356.843 180.88C356.843 180.88 318.489 184.271 317.082 179.367C315.676 174.462 320.996 161.182 320.996 161.182L319.263 142.642L319.2 141.933C319.2 141.933 324.005 121.875 323.829 120.274C323.662 118.832 331.564 102.001 333.187 98.5597C333.38 98.1615 333.48 97.9435 333.48 97.9435L333.786 98.1196L333.92 98.1992L335.799 99.2975L343.22 97.5369L352.164 92.8462L353.001 144.159L356.843 180.88Z" fill="#CBCDDA"/>
<path opacity="0.1" d="M336.908 98.5638C336.908 98.5638 334.284 97.8512 333.259 100.48C332.857 101.609 332.382 102.711 331.836 103.779L330.814 109.882L328.944 119.523L327.562 162.176L328.186 169.75L331.614 163.647L332.237 123.778V118.819C332.438 114.532 333.405 110.315 335.092 106.369L335.569 105.25L338.549 101.414L336.908 98.5638Z" fill="black"/>
<path d="M336.377 98.0273C336.377 98.0273 333.749 97.3147 332.727 99.943C332.325 101.073 331.849 102.175 331.3 103.242L330.279 109.35L328.408 118.991L327.031 161.643L327.655 169.222L331.083 163.098L331.706 123.254V118.283C331.911 113.996 332.878 109.78 334.561 105.833L335.042 104.713L338.022 100.882L336.377 98.0273Z" fill="#38383D"/>
<path opacity="0.1" d="M347.59 87.0194C347.59 87.0194 338.512 96.6608 335.306 97.8051C335.306 97.8051 336.909 105.116 338.512 106.541C338.512 106.541 348.037 96.8117 349.724 96.0236L351.139 92.5569L347.59 87.0194Z" fill="black"/>
<path d="M347.59 86.4703C347.59 86.4703 338.512 96.1117 335.306 97.2561C335.306 97.2561 336.909 104.567 338.512 105.992C338.512 105.992 348.037 96.2626 349.724 95.4745L351.139 92.012L347.59 86.4703Z" fill="#CBCDDA"/>
<path opacity="0.1" d="M334.012 97.9436L333.92 98.1951L331.011 106.005L325.809 120.739C325.809 120.739 325.763 120.89 325.671 121.158C324.809 123.841 320.175 138.4 319.263 142.629L319.2 141.921C319.2 141.921 324.005 121.863 323.829 120.261C323.662 118.819 331.564 101.989 333.188 98.5472C333.447 98.3712 333.648 98.2203 333.786 98.1071L334.012 97.9436Z" fill="black"/>
<path d="M333.48 97.9393L330.475 106.005L325.273 120.739C325.273 120.739 325.227 120.89 325.135 121.158C324.223 124.017 319.02 140.336 318.602 143.321C318.129 146.599 311.587 164.318 311.587 164.318L307.85 194.998C304.501 192.395 309.256 167.332 309.256 167.332C309.256 167.332 314.596 130.162 315.86 117.796C317.124 105.43 323.942 101.817 323.942 101.817C327.089 101.658 329.927 100.266 331.672 99.1969C332.303 98.8189 332.907 98.3988 333.48 97.9393Z" fill="#38383D"/>
<path opacity="0.1" d="M371.169 295.331C370.37 301.305 369.303 317.968 369.303 317.968C365.565 323.58 357.287 320.55 357.287 320.55C357.287 320.55 356.4 318.873 355.064 312.526C353.729 306.18 352.93 283.825 352.93 283.825L349.812 265.045C346.966 257.822 346.342 249.267 346.342 249.267C345.087 245.968 342.069 224.308 342.069 224.308C342.069 224.308 343.325 243.738 342.517 253.991C341.709 264.244 346.606 278.04 346.606 278.04C346.606 278.04 349.368 290.968 347.941 294.979C346.514 298.991 351.503 315.566 351.503 315.566C351.084 320.382 336.913 318.42 336.913 318.42C336.913 318.42 330.246 300.5 329.078 289.714C328.378 283.215 327.233 276.773 325.65 270.431L324.495 255.454L322.444 246.601L320 234.926C317.238 226.371 316.396 212.064 316.396 212.064L314.258 198.025C312.86 191.083 314.676 182.934 315.882 178.671C316.405 176.822 316.823 175.695 316.823 175.695C318.05 176.567 325.073 177.59 328.705 178.419C330.694 178.878 332.738 179.042 334.774 178.906C343.959 178.175 353.045 176.507 361.891 173.926C362.489 173.746 362.807 173.641 362.807 173.641L362.996 175.246L363.439 179.069L364.23 185.856C364.23 185.856 366.633 222.045 365.21 226.936C363.787 231.828 366.189 248.315 366.189 248.315C364.854 252.226 369.035 268.122 369.035 268.122C369.035 268.122 371.973 289.358 371.169 295.331Z" fill="black"/>
<path d="M371.169 294.807C370.37 300.781 369.303 317.443 369.303 317.443C365.565 323.061 357.287 320.026 357.287 320.026C357.287 320.026 356.4 318.349 355.064 312.007C353.729 305.664 352.93 283.3 352.93 283.3L349.812 264.496C346.987 257.273 346.342 248.696 346.342 248.696C345.087 245.397 342.069 223.738 342.069 223.738C342.069 223.738 343.325 243.167 342.517 253.421C341.709 263.674 346.606 277.486 346.606 277.486C346.606 277.486 349.368 290.414 347.941 294.426C346.514 298.437 351.503 315.016 351.503 315.016C351.084 319.829 336.913 317.867 336.913 317.867C336.913 317.867 330.246 299.967 329.078 289.178C328.378 282.679 327.233 276.236 325.65 269.895L324.495 254.921L322.444 246.097L320 234.423C317.238 225.863 316.396 211.556 316.396 211.556L314.258 197.518C312.86 190.576 314.676 182.427 315.882 178.164C316.405 176.319 316.823 175.192 316.823 175.192C318.05 176.064 325.073 177.082 328.705 177.912C330.693 178.373 332.738 178.537 334.774 178.398C343.959 177.668 353.045 175.999 361.891 173.418L362.807 173.138L362.996 174.739L363.439 178.566L364.23 185.353C364.23 185.353 366.633 221.537 365.21 226.433C363.787 231.329 366.189 247.812 366.189 247.812C364.854 251.719 369.035 267.614 369.035 267.614C369.035 267.614 371.973 288.825 371.169 294.807Z" fill="#303030"/>
<path opacity="0.1" d="M346.334 75.6218C346.339 78.6338 345.554 81.5944 344.057 84.2068C341.379 84.6805 338.529 84.1565 336.524 82.3833C335.151 81.1718 334.264 79.516 333.084 78.1118C332.32 77.2488 331.499 76.4379 330.627 75.6847C330.057 75.1166 329.404 74.64 328.689 74.272C328.33 74.0901 327.933 73.9933 327.53 73.9889C327.128 73.9846 326.729 74.0728 326.366 74.2468C325.42 74.775 325.111 75.9529 324.562 76.8919C324.15 77.698 323.444 78.3147 322.591 78.6148C322.164 78.7515 321.705 78.7474 321.281 78.6033C320.857 78.4592 320.49 78.1826 320.235 77.8141C319.653 76.8123 320.08 75.2487 319.105 74.6367C318.847 74.5095 318.582 74.4002 318.309 74.3097C317.054 73.7396 316.907 72.0503 316.799 70.667C316.744 69.9879 316.598 69.2208 316.028 68.8561C315.459 68.4914 314.71 68.6758 314.032 68.6884C313.831 68.6963 313.631 68.6808 313.434 68.6423C315.032 65.0336 317.819 62.0844 321.33 60.2883C324.84 58.4922 328.859 57.9583 332.715 58.7759C336.571 59.5936 340.03 61.7131 342.512 64.7797C344.995 67.8464 346.35 71.674 346.351 75.6218H346.334Z" fill="black"/>
<path d="M312.379 53.2203C311.718 53.7087 311.169 54.3333 310.77 55.0521C310.371 55.7709 310.13 56.5672 310.064 57.3871C310.032 57.661 310.054 57.9386 310.127 58.2045C310.244 58.4867 310.384 58.7587 310.545 59.0177C311.424 60.7657 310.081 62.8365 310.252 64.7857C310.369 65.7066 310.815 66.5539 311.507 67.1706C312.2 67.7872 313.092 68.1314 314.019 68.1393C314.697 68.1393 315.442 67.938 316.016 68.3069C316.589 68.6758 316.731 69.4387 316.786 70.1178C316.894 71.5012 317.033 73.1905 318.292 73.7606C318.564 73.8532 318.829 73.9624 319.088 74.0876C320.067 74.6996 319.64 76.2673 320.222 77.265C320.477 77.6334 320.844 77.9101 321.268 78.0542C321.692 78.1983 322.152 78.2023 322.578 78.0657C323.43 77.7668 324.134 77.1515 324.545 76.347C325.085 75.4038 325.407 74.251 326.353 73.7019C326.716 73.5263 327.114 73.4368 327.517 73.4404C327.92 73.4441 328.317 73.5407 328.676 73.7229C329.391 74.0924 330.045 74.5703 330.614 75.1397C331.487 75.8919 332.308 76.7028 333.071 77.5668C334.251 78.9669 335.138 80.6227 336.511 81.8342C339.097 84.1104 343.057 84.3493 346.246 83.0372C346.706 82.8835 347.122 82.6186 347.456 82.2659C347.747 81.8604 347.935 81.3899 348.004 80.8952C348.328 79.3171 348.421 77.7003 348.28 76.0955C348.167 74.8379 347.912 73.5803 348 72.3228C348.088 70.973 348.569 69.6693 348.636 68.3195C348.753 65.9301 347.569 63.6623 346.125 61.7718C345.254 60.6442 344.275 59.6004 343.521 58.3931C342.864 57.3451 342.387 56.1924 341.684 55.1779C340.035 52.8095 337.256 51.4052 334.418 50.9148C331.581 50.4243 328.664 50.7262 325.822 51.1998C323.344 51.619 320.85 52.2143 318.338 52.361C316.141 52.5161 314.371 51.7741 312.379 53.2203Z" fill="#472727"/>
<path opacity="0.1" d="M333.481 97.9393L330.476 106.005L325.274 120.739C325.274 120.739 325.228 120.89 325.136 121.158V121.179L331.682 99.1885C332.309 98.8129 332.91 98.3956 333.481 97.9393Z" fill="black"/>
<path d="M365.967 190.241C365.967 190.241 366.276 199.999 363.652 202.452L356.667 189.26L362.526 186.405L365.967 190.241Z" fill="#FFB9B9"/>
<path opacity="0.1" d="M382.273 193.804C379.067 197.547 365.113 198.218 365.113 198.218L351.302 176.42C351.302 176.42 348.033 174.148 341.893 163.916C335.753 153.683 335.954 145.802 336.297 139.917C336.64 134.032 340.483 117.117 340.483 117.117C341.081 113.311 349.69 89.4508 349.69 89.4508C350.594 91.2575 352.277 92.7666 354.244 94.0116C359.559 97.3651 366.98 98.74 366.98 98.74C378.933 100.48 376.727 112.846 376.727 112.846C376.727 112.846 376.861 160.914 376.125 166.665C375.388 172.417 382.273 193.804 382.273 193.804Z" fill="black"/>
<path d="M366.147 192.11L365.745 195.677L360.894 193.896L357.337 188.501L360.007 186.405L366.147 192.11Z" fill="#CBCDDA"/>
<path opacity="0.1" d="M365.975 178.294L363.438 178.554L338.984 181.002C335.057 181.397 331.093 181.202 327.223 180.423L315.881 178.151C316.404 176.307 316.823 175.179 316.823 175.179C318.049 176.051 325.072 177.07 328.705 177.9C330.693 178.361 332.738 178.525 334.773 178.386C343.958 177.656 353.044 175.987 361.89 173.406L362.995 174.726L365.975 178.294Z" fill="black"/>
<g opacity="0.1">
<path opacity="0.1" d="M317.078 175.313C316.997 175.273 316.919 175.229 316.843 175.179C316.843 175.179 316.843 175.204 316.818 175.242L317.078 175.313Z" fill="black"/>
<path opacity="0.1" d="M369.055 267.61C369.055 267.61 364.87 251.715 366.209 247.808C366.209 247.808 363.807 231.334 365.234 226.429C366.661 221.525 364.25 185.349 364.25 185.349L363.459 178.562L363.016 174.735L362.832 173.133L361.911 173.414L361.342 173.582L361.413 174.202L361.857 178.025L362.648 184.812C362.648 184.812 365.05 221.001 363.631 225.893C362.212 230.784 364.606 247.271 364.606 247.271C363.271 251.182 367.452 267.074 367.452 267.074C367.452 267.074 370.382 288.293 369.591 294.262C368.8 300.232 367.72 316.898 367.72 316.898C364.991 321.002 359.839 320.491 357.257 319.917L357.303 320.017C357.303 320.017 365.581 323.052 369.319 317.435C369.319 317.435 370.386 300.764 371.19 294.799C371.993 288.834 369.055 267.61 369.055 267.61Z" fill="black"/>
<path opacity="0.1" d="M347.965 294.443C349.388 290.431 346.63 277.503 346.63 277.503C346.63 277.503 341.737 263.67 342.537 253.437C342.872 249.166 342.851 243.306 342.708 237.927C341.574 230.99 340.486 223.256 340.486 223.256C340.486 223.256 341.742 242.685 340.938 252.934C340.134 263.184 345.027 277.004 345.027 277.004C345.027 277.004 347.789 289.928 346.362 293.939C344.935 297.951 349.915 314.509 349.915 314.509C349.56 318.366 340.415 317.863 336.786 317.527L336.924 317.896C336.924 317.896 351.075 319.858 351.518 315.046C351.527 315.033 346.542 298.454 347.965 294.443Z" fill="black"/>
</g>
<path d="M382.804 193.804C379.602 197.547 365.644 198.218 365.644 198.218L351.833 176.42C351.833 176.42 348.564 174.148 342.42 163.916C336.276 153.683 336.485 145.802 336.824 139.917C337.163 134.032 341.01 117.117 341.01 117.117C341.608 113.311 350.217 89.4508 350.217 89.4508C351.117 91.2575 352.8 92.7666 354.771 94.0116C360.086 97.3651 367.507 98.74 367.507 98.74C379.456 100.48 377.25 112.846 377.25 112.846C377.25 112.846 377.384 160.914 376.648 166.665C375.911 172.417 382.804 193.804 382.804 193.804Z" fill="#38383D"/>
<path opacity="0.1" d="M352.775 101.28L349.77 102.399L351.771 103.804L336.829 139.904C337.176 134.036 341.014 117.105 341.014 117.105C341.613 113.298 350.222 89.4381 350.222 89.4381C351.122 91.2448 352.804 92.7539 354.776 93.9989L352.775 101.28Z" fill="#38383D"/>
<path opacity="0.1" d="M356.379 165.592L371.664 161.648L373.668 167.864L358.049 171.679L356.379 165.592Z" fill="black"/>
<path opacity="0.1" d="M365.122 103.821C365.122 103.821 358.178 110.364 360.798 124.948C363.418 139.531 367.608 155.364 367.608 155.364L356.308 186.719C356.308 186.719 364.184 194.944 368.056 195.942L379.335 170.87C379.335 170.87 384.609 162.18 383.207 148.544C381.804 134.908 376.732 112.842 376.732 112.842C376.732 112.842 376.736 99.4107 365.122 103.821Z" fill="black"/>
<path d="M365.653 103.821C365.653 103.821 358.706 110.364 361.317 124.948C363.929 139.531 368.123 155.364 368.123 155.364L356.822 186.719C356.822 186.719 364.699 194.944 368.57 195.942L379.871 170.87C379.871 170.87 385.144 162.18 383.742 148.544C382.34 134.908 377.267 112.842 377.267 112.842C377.267 112.842 377.267 99.4107 365.653 103.821Z" fill="#38383D"/>
<path opacity="0.1" d="M357.199 187.386C357.199 187.386 366.009 199.601 365.343 202.854C364.678 206.107 362.095 204.367 362.095 204.367L358.626 199.601L355.508 190.685C355.508 190.685 355.813 186.837 357.199 187.386Z" fill="black"/>
<path opacity="0.1" d="M356.131 187.386C356.131 187.386 364.92 199.601 364.276 202.854C363.631 206.107 361.028 204.367 361.028 204.367L357.554 199.601L354.44 190.685C354.44 190.685 354.746 186.837 356.131 187.386Z" fill="black"/>
<path d="M356.667 187.386C356.667 187.386 365.457 199.601 364.808 202.854C364.159 206.107 361.56 204.367 361.56 204.367L358.09 199.601L354.977 190.685C354.977 190.685 355.278 186.837 356.667 187.386Z" fill="#38383D"/>
<defs>
<linearGradient id="paint0_linear" x1="321.821" y1="337.753" x2="321.821" y2="49.4057" gradientUnits="userSpaceOnUse">
<stop stop-color="#808080" stop-opacity="0.25"/>
<stop offset="0.54" stop-color="#808080" stop-opacity="0.12"/>
<stop offset="1" stop-color="#808080" stop-opacity="0.1"/>
</linearGradient>
</defs>
</svg>
