<svg width="256" height="333" viewBox="0 0 256 333" fill="none" xmlns="http://www.w3.org/2000/svg">
<path d="M75.5027 124.977L4.0462 109.528L3.11756 109.328C2.64465 109.225 2.15237 109.258 1.6973 109.423C1.24223 109.588 0.84287 109.878 0.545138 110.26C0.247406 110.643 0.0633881 111.102 0.0142596 111.584C-0.0348689 112.067 0.0528907 112.553 0.267425 112.988L28.6386 170.733C28.8222 171.104 29.092 171.425 29.4254 171.67C29.7588 171.914 30.146 172.075 30.5543 172.138C30.9639 172.202 31.3829 172.165 31.775 172.03C32.1671 171.896 32.5207 171.667 32.805 171.365L52.5109 150.54C52.6511 150.388 52.8211 150.267 53.0103 150.184C53.1995 150.101 53.4037 150.059 53.6101 150.059C53.8907 150.055 54.1671 150.128 54.4097 150.269C54.6523 150.41 54.852 150.615 54.9874 150.861L59.0237 158.344C59.2813 158.843 59.6982 159.241 60.2077 159.475C60.7173 159.709 61.2903 159.766 61.8356 159.636L61.8557 159.631C62.4076 159.514 62.9042 159.214 63.2656 158.78C63.627 158.346 63.8323 157.802 63.8484 157.237L64.6569 139.965C64.6666 139.749 64.7203 139.538 64.8147 139.344C64.9161 139.152 65.0537 138.982 65.2199 138.843L76.5884 129.49C76.9621 129.182 77.2417 128.776 77.3954 128.316C77.549 127.857 77.5704 127.363 77.4571 126.892C77.3438 126.421 77.1003 125.992 76.7547 125.653C76.409 125.314 75.9751 125.08 75.5027 124.977H75.5027ZM75.9391 128.695L64.5707 138.048C64.4225 138.167 64.2883 138.303 64.1705 138.453L3.91705 111.065C3.86391 111.041 3.80847 111.021 3.75153 111.007C3.51913 110.947 3.27309 110.97 3.05598 111.073C2.83887 111.176 2.66433 111.351 2.56256 111.569C2.46079 111.787 2.43817 112.033 2.49863 112.266C2.55909 112.499 2.69882 112.703 2.89365 112.844L52.4355 149.317C52.1841 149.448 51.9571 149.622 51.7645 149.83L32.0588 170.655C31.8878 170.835 31.6759 170.971 31.4411 171.052C31.2063 171.133 30.9555 171.155 30.7101 171.118C30.4647 171.081 30.2319 170.985 30.0314 170.838C29.831 170.691 29.6688 170.498 29.5587 170.275L1.18763 112.531C1.06079 112.27 1.00962 111.978 1.03996 111.69C1.07029 111.401 1.1809 111.127 1.35919 110.898C1.53747 110.67 1.77627 110.496 2.04837 110.396C2.32047 110.297 2.61493 110.276 2.8982 110.337L3.84889 110.542L75.2831 125.986C75.5667 126.047 75.8273 126.188 76.0351 126.391C76.2428 126.594 76.3893 126.852 76.4578 127.134C76.5262 127.417 76.5139 127.713 76.4222 127.989C76.3305 128.265 76.1631 128.509 75.9391 128.695Z" fill="#FADE4B"/>
<path d="M90.7339 330.971C84.3243 329.236 76.5237 322.019 78.1937 312.1C79.022 307.181 82.2009 303.996 85.497 301.937C90.0562 299.089 95.2487 298.016 100.253 297.745C106.024 297.432 111.789 298.221 117.518 299.055C123.173 299.878 128.829 300.615 134.509 301.065C156.738 302.813 179.101 301.148 200.828 296.13C206.191 294.89 211.521 293.435 216.819 291.765C221.84 290.284 226.748 288.445 231.507 286.263C237.806 283.232 248.05 277.334 247.214 266.411C246.772 260.619 243.368 255.994 239.936 252.771C235.786 248.874 230.983 246.311 226.279 243.821C204.4 232.241 182.478 220.798 160.577 209.287C155.466 206.6 150.321 203.986 145.36 200.838C140.716 197.89 136.093 194.466 132.356 189.732C129.091 185.597 126.174 180.047 126.277 173.841C126.362 168.695 128.699 164.328 131.56 161.065C138.645 152.985 148.668 149.709 157.726 147.992C168.98 145.86 180.397 145.871 191.658 143.813C200.751 142.15 210.466 138.941 217.861 131.421C220.99 128.363 223.202 124.488 224.249 120.236C225.193 115.782 224.735 111.144 222.936 106.963C220.932 102.167 217.737 98.347 214.377 95.2189C210.518 91.6756 206.14 88.7445 201.397 86.5273C191.409 81.7572 180.907 79.2736 170.676 75.613C165.659 73.8178 160.591 71.8492 155.932 68.7656C151.985 66.1531 147.685 62.6317 145.489 57.3952C140.958 46.5908 151.767 40.1516 157.892 37.7126C162.055 36.1301 166.343 34.8999 170.71 34.0347C171.634 33.836 171.242 31.9884 170.323 32.1862C165.725 33.0845 161.219 34.4032 156.862 36.1255C153.169 37.6635 149.358 39.6847 146.457 43.1627C145.136 44.7331 144.159 46.5642 143.59 48.5374C143.021 50.5105 142.873 52.5815 143.154 54.6159C143.923 59.8 147.263 63.7944 150.4 66.6876C154.548 70.5136 159.278 73.0123 164.074 75.049C169.125 77.1942 174.283 78.8659 179.439 80.5057C189.742 83.7824 200.507 86.7025 209.808 93.6751C216.315 98.5526 225.153 107.698 222.989 119.033C222.028 124.065 219.111 128 215.963 130.893C212.265 134.191 208.002 136.789 203.379 138.562C182.768 146.875 160.084 140.93 140.005 152.221C133.177 156.06 124.885 163.05 124.818 174.048C124.783 179.762 127.068 185.001 129.893 189.143C133.277 194.103 137.658 197.772 142.116 200.838C146.81 203.947 151.683 206.776 156.711 209.307C162.204 212.199 167.698 215.086 173.193 217.97L206.541 235.497L223.109 244.205C228.166 246.863 233.353 249.413 237.951 253.314C241.715 256.509 246.163 261.75 245.779 268.257C245.474 273.426 242.049 277.155 238.918 279.649C234.865 282.878 230.312 284.966 225.781 286.702C220.556 288.703 215.244 290.364 209.922 291.857C199.021 294.91 187.896 297.093 176.651 298.384C165.433 299.678 154.133 300.1 142.85 299.646C137.15 299.417 131.458 298.96 125.775 298.275C119.917 297.568 114.085 296.479 108.212 295.996C102.9 295.559 97.5362 295.66 92.3047 297.065C87.9366 298.238 83.3218 300.329 80.006 304.41C77.562 307.525 76.3382 311.428 76.5647 315.384C76.7892 319.332 78.1937 323.121 80.5956 326.259C83.0354 329.463 86.4634 331.77 90.3465 332.819C91.2621 333.067 91.6538 331.22 90.734 330.971L90.7339 330.971Z" fill="#E6E6E6"/>
<path d="M256 331.846H89.4619V333H256V331.846Z" fill="#3F3D56"/>
<path d="M242.657 277.474C248.665 277.474 253.536 272.592 253.536 266.57C253.536 260.548 248.665 255.666 242.657 255.666C236.648 255.666 231.777 260.548 231.777 266.57C231.777 272.592 236.648 277.474 242.657 277.474Z" fill="#E6E6E6"/>
<path d="M222.808 123.789C228.817 123.789 233.688 118.907 233.688 112.885C233.688 106.863 228.817 101.981 222.808 101.981C216.8 101.981 211.929 106.863 211.929 112.885C211.929 118.907 216.8 123.789 222.808 123.789Z" fill="#E6E6E6"/>
<path d="M198.211 0.456195L168.002 13.6181C166.668 14.2012 165.619 15.2909 165.086 16.6482C164.552 18.0054 164.578 19.5194 165.156 20.8579L174.537 42.4839C175.118 43.8211 176.206 44.8724 177.56 45.4072C178.914 45.9419 180.425 45.9165 181.76 45.3364L211.969 32.1744C213.303 31.5914 214.352 30.5016 214.886 29.1444C215.419 27.7871 215.394 26.2732 214.815 24.9347L205.435 3.30863C204.853 1.97144 203.766 0.920147 202.411 0.385397C201.057 -0.149353 199.547 -0.123891 198.211 0.456195ZM199.462 3.33967C199.642 3.2618 199.832 3.20705 200.026 3.17671L189.813 22.4893L168.836 16.736C168.967 16.6439 169.107 16.5654 169.253 16.5016L199.462 3.33967ZM210.718 29.291L180.509 42.4529C179.937 42.7015 179.29 42.7124 178.709 42.4832C178.129 42.254 177.663 41.8035 177.414 41.2304L168.118 19.7985L190.197 25.8543C190.541 25.9486 190.906 25.9227 191.234 25.7809C191.561 25.6391 191.83 25.3899 191.997 25.0742L202.687 4.85997L211.938 26.1882C212.186 26.7618 212.197 27.4107 211.968 27.9924C211.739 28.574 211.29 29.0411 210.718 29.291Z" fill="#E6E6E6"/>
<path d="M164.329 188.044C179.52 188.044 191.835 175.701 191.835 160.476C191.835 145.25 179.52 132.908 164.329 132.908C149.137 132.908 136.822 145.25 136.822 160.476C136.822 175.701 149.137 188.044 164.329 188.044Z" fill="#FADE4B"/>
<path d="M159.994 332.185H152.408C151.522 332.184 150.673 331.831 150.047 331.203C149.421 330.576 149.068 329.725 149.067 328.837V265.472C149.068 264.584 149.421 263.733 150.047 263.105C150.673 262.477 151.522 262.124 152.408 262.123H159.994C160.88 262.124 161.729 262.477 162.355 263.105C162.981 263.733 163.334 264.584 163.335 265.472V328.837C163.334 329.725 162.981 330.576 162.355 331.203C161.729 331.831 160.88 332.184 159.994 332.185Z" fill="#38383D"/>
<path d="M174.998 332.062H167.412C166.526 332.061 165.677 331.708 165.051 331.08C164.425 330.452 164.072 329.601 164.071 328.714V265.348C164.072 264.461 164.425 263.609 165.051 262.982C165.677 262.354 166.526 262.001 167.412 262H174.998C175.884 262.001 176.733 262.354 177.359 262.982C177.985 263.609 178.338 264.461 178.339 265.348V328.714C178.338 329.601 177.985 330.452 177.359 331.08C176.733 331.708 175.884 332.061 174.998 332.062Z" fill="#38383D"/>
<path d="M206.433 258.846C206.1 258.845 205.768 258.795 205.45 258.697C205.03 258.569 204.639 258.359 204.301 258.079C203.963 257.799 203.683 257.454 203.478 257.065L173.841 201.093C173.635 200.705 173.508 200.279 173.466 199.842C173.425 199.404 173.469 198.962 173.598 198.542C173.726 198.122 173.936 197.731 174.216 197.392C174.495 197.053 174.838 196.772 175.226 196.566L181.926 193.002C182.314 192.796 182.738 192.668 183.175 192.626C183.612 192.584 184.052 192.629 184.472 192.758C184.891 192.887 185.281 193.097 185.62 193.377C185.958 193.657 186.238 194.002 186.443 194.39L216.08 250.362C216.286 250.751 216.413 251.176 216.455 251.614C216.497 252.051 216.452 252.493 216.324 252.913C216.195 253.334 215.985 253.725 215.706 254.064C215.426 254.403 215.083 254.683 214.695 254.889L207.995 258.453C207.514 258.71 206.978 258.845 206.433 258.846Z" fill="#FADE4B"/>
<path d="M144.737 207.254C144.336 207.254 143.938 207.181 143.563 207.039H143.563L84.418 184.645C84.0078 184.49 83.6321 184.255 83.3125 183.954C82.9929 183.653 82.7357 183.292 82.5555 182.891C82.3753 182.49 82.2756 182.058 82.2623 181.618C82.2489 181.179 82.3221 180.741 82.4777 180.33L85.1533 173.218C85.4691 172.388 86.0999 171.718 86.9076 171.353C87.7154 170.988 88.6343 170.959 89.4635 171.272L148.607 193.661C149.434 193.976 150.103 194.607 150.468 195.415C150.832 196.224 150.863 197.144 150.553 197.975L147.872 205.088C147.63 205.725 147.2 206.273 146.641 206.66C146.081 207.047 145.417 207.254 144.737 207.254Z" fill="#FADE4B"/>
<path d="M181.249 192.834H146.782C145.079 192.834 143.698 194.217 143.698 195.924V269.315C143.698 271.022 145.079 272.406 146.782 272.406H181.249C182.952 272.406 184.333 271.022 184.333 269.315V195.924C184.333 194.217 182.952 192.834 181.249 192.834Z" fill="#38383D"/>
<path d="M184.646 133.478C186.262 137.033 187.809 141.329 186.07 145.132C185.431 146.668 184.234 147.903 182.721 148.587C180.928 149.304 178.973 148.895 177.312 148.028C173.814 146.203 171.559 142.813 168.436 140.49C167.014 139.381 165.333 138.654 163.551 138.381C161.499 138.113 159.462 138.598 157.454 138.972C155.32 139.371 153.113 139.581 151.137 138.496C149.399 137.478 148.039 135.92 147.262 134.058C146.855 133.153 145.526 133.938 145.93 134.838C147.61 138.576 151.085 141.123 155.26 140.829C157.469 140.673 159.602 139.958 161.815 139.855C163.834 139.789 165.813 140.423 167.419 141.651C170.848 144.101 173.175 147.863 177.109 149.643C178.965 150.482 181.091 150.832 183.048 150.109C184.736 149.451 186.142 148.224 187.024 146.638C189.606 142.183 187.948 137.033 185.977 132.699C185.566 131.795 184.237 132.579 184.646 133.478Z" fill="#2F2E41"/>
<path d="M167.369 169.681C165.67 169.633 163.555 169.574 161.927 168.381C161.442 168.011 161.043 167.54 160.759 167C160.475 166.459 160.312 165.863 160.282 165.253C160.252 164.82 160.323 164.385 160.489 163.984C160.655 163.582 160.911 163.224 161.238 162.939C162.088 162.218 163.33 162.049 164.671 162.444L163.283 152.283L164.302 152.143L165.932 164.088L165.082 163.697C164.097 163.244 162.743 163.013 161.902 163.725C161.695 163.912 161.534 164.143 161.432 164.402C161.329 164.66 161.287 164.939 161.309 165.217C161.334 165.671 161.456 166.114 161.668 166.516C161.879 166.919 162.174 167.271 162.533 167.549C163.801 168.477 165.486 168.597 167.398 168.651L167.369 169.681Z" fill="#2F2E41"/>
<path d="M158.246 153.159H152.71V154.189H158.246V153.159Z" fill="#2F2E41"/>
<path d="M175.721 153.159H170.185V154.189H175.721V153.159Z" fill="#2F2E41"/>
<path d="M143.653 206.798L119.346 199.37C118.588 199.138 117.948 198.623 117.559 197.931C117.17 197.239 117.062 196.423 117.257 195.653L120.094 184.447C120.207 184.005 120.415 183.592 120.705 183.24C120.995 182.888 121.36 182.605 121.772 182.41C122.184 182.216 122.635 182.116 123.09 182.117C123.546 182.118 123.996 182.22 124.407 182.416L148.516 193.902C149.28 194.192 149.898 194.774 150.235 195.521C150.571 196.267 150.599 197.117 150.312 197.884L147.631 204.997C147.341 205.764 146.76 206.385 146.014 206.722C145.268 207.06 144.419 207.087 143.653 206.798Z" fill="#38383D"/>
<path d="M174.278 200.459L184.702 223.686C185.028 224.411 185.618 224.982 186.353 225.281C187.087 225.58 187.908 225.585 188.645 225.294L199.377 221.057C199.801 220.889 200.183 220.63 200.495 220.297C200.807 219.964 201.041 219.566 201.182 219.131C201.322 218.697 201.364 218.236 201.305 217.783C201.247 217.331 201.089 216.896 200.843 216.512L186.428 193.994C186.044 193.272 185.389 192.731 184.608 192.49C183.827 192.25 182.983 192.33 182.26 192.712L175.558 196.276C174.835 196.662 174.295 197.318 174.055 198.102C173.815 198.887 173.895 199.734 174.278 200.459Z" fill="#38383D"/>
<path d="M75.5027 124.977L4.0462 109.528L3.11756 109.328C2.64465 109.225 2.15237 109.258 1.6973 109.423C1.24223 109.588 0.84287 109.878 0.545138 110.26C0.247406 110.643 0.0633881 111.102 0.0142596 111.584C-0.0348689 112.067 0.0528907 112.553 0.267425 112.988L28.6386 170.733C28.8222 171.104 29.092 171.425 29.4254 171.67C29.7588 171.914 30.146 172.075 30.5543 172.138C30.9639 172.202 31.3829 172.165 31.775 172.03C32.1671 171.896 32.5207 171.667 32.805 171.365L52.5109 150.54C52.6511 150.388 52.8211 150.267 53.0103 150.184C53.1995 150.101 53.4037 150.059 53.6101 150.059C53.8907 150.055 54.1671 150.128 54.4097 150.269C54.6523 150.41 54.852 150.615 54.9874 150.861L59.0237 158.344C59.2813 158.843 59.6982 159.241 60.2077 159.475C60.7173 159.709 61.2903 159.766 61.8356 159.636L61.8557 159.631C62.4076 159.514 62.9042 159.214 63.2656 158.78C63.627 158.346 63.8323 157.802 63.8484 157.237L64.6569 139.965C64.6666 139.749 64.7203 139.538 64.8147 139.344C64.9161 139.152 65.0537 138.982 65.2199 138.843L76.5884 129.49C76.9621 129.182 77.2417 128.776 77.3954 128.316C77.549 127.857 77.5704 127.363 77.4571 126.892C77.3438 126.421 77.1003 125.992 76.7547 125.653C76.409 125.314 75.9751 125.08 75.5027 124.977H75.5027ZM75.9391 128.695L64.5707 138.048C64.4225 138.167 64.2883 138.303 64.1705 138.453C64.0643 138.586 63.9725 138.73 63.8969 138.883C63.8176 139.039 63.7551 139.203 63.7104 139.373L63.7115 139.378C63.6644 139.554 63.6373 139.735 63.6306 139.918L62.8223 157.19C62.8155 157.53 62.6936 157.857 62.4766 158.118C62.2597 158.379 61.9606 158.558 61.6285 158.626L61.6184 158.629C61.2912 158.71 60.9462 158.678 60.6392 158.539C60.3322 158.399 60.0813 158.159 59.9272 157.859L55.8897 150.371C55.6817 149.986 55.379 149.661 55.0102 149.426C54.6414 149.191 54.2189 149.054 53.7826 149.029L53.7777 149.03C53.719 149.027 53.6606 149.024 53.6032 149.026C53.1962 149.027 52.7953 149.126 52.4355 149.317C52.1841 149.448 51.9571 149.622 51.7645 149.83L32.0588 170.655C31.8878 170.835 31.6759 170.971 31.4411 171.052C31.2063 171.133 30.9555 171.155 30.7101 171.118C30.4647 171.081 30.2319 170.985 30.0314 170.838C29.831 170.691 29.6688 170.498 29.5588 170.275L1.18763 112.531C1.06079 112.27 1.00962 111.978 1.03996 111.69C1.07029 111.401 1.1809 111.127 1.35919 110.898C1.53747 110.67 1.77627 110.496 2.04837 110.396C2.32047 110.297 2.61493 110.276 2.8982 110.337L3.84889 110.542L75.2831 125.986C75.5667 126.047 75.8273 126.188 76.0351 126.391C76.2428 126.594 76.3893 126.852 76.4578 127.134C76.5262 127.417 76.5139 127.713 76.4222 127.989C76.3305 128.265 76.1631 128.509 75.9391 128.695Z" fill="#3F3D56"/>
<path d="M64.3979 138.555L63.9733 139.494L63.7109 139.378L63.7098 139.373L3.50413 112.012L53.7771 149.03L53.782 149.029L53.9152 149.131L53.309 149.962L52.4349 149.317L2.89305 112.844C2.69822 112.703 2.55849 112.499 2.49803 112.266C2.43758 112.033 2.46019 111.787 2.56196 111.569C2.66374 111.351 2.83828 111.176 3.05539 111.073C3.2725 110.97 3.51853 110.947 3.75094 111.007C3.80788 111.021 3.86332 111.041 3.91646 111.065L64.1699 138.453L64.3979 138.555Z" fill="#3F3D56"/>
</svg>
