<svg width="417" height="335" viewBox="0 0 417 335" fill="none" xmlns="http://www.w3.org/2000/svg">
<g clip-path="url(#clip0)">
<path d="M210.976 335C324.76 335 417 327.814 417 318.951C417 310.087 324.76 302.901 210.976 302.901C97.1921 302.901 4.95215 310.087 4.95215 318.951C4.95215 327.814 97.1921 335 210.976 335Z" fill="#38383D"/>
<path d="M385.982 289.135L387.913 303.255L374.396 304.539L376.327 287.21L385.982 289.135Z" fill="#A0616A"/>
<path d="M322.26 95.3088C322.26 95.3088 323.547 112.638 323.547 113.279C323.547 113.921 314.536 158.206 314.536 158.206C314.536 158.206 301.663 182.595 314.536 181.953C327.409 181.311 323.547 158.848 323.547 158.848L337.064 121.623L331.271 95.3088L322.26 95.3088Z" fill="#A0616A"/>
<path d="M343.5 289.135L341.569 303.255L355.086 304.539L353.155 287.21L343.5 289.135Z" fill="#A0616A"/>
<path d="M328.697 156.923L325.478 161.415C325.478 161.415 323.547 180.669 325.478 187.088C327.409 193.506 331.271 223.029 331.271 224.954C331.271 226.88 331.915 228.163 331.271 228.805C330.628 229.447 328.697 229.447 329.984 230.731C331.271 232.014 331.271 235.865 331.271 235.865V239.074L339.639 286.568C339.639 286.568 334.49 292.344 338.352 292.344C342.213 292.344 356.374 292.344 355.73 285.926L354.443 285.285C354.443 285.285 352.512 242.925 353.156 241C353.799 239.074 353.156 235.223 353.156 235.223C353.156 235.223 351.868 233.298 353.156 232.656C354.443 232.014 354.443 226.88 354.443 226.88L360.236 187.729C360.236 187.729 365.385 214.044 368.603 216.611C371.822 219.178 371.178 225.596 371.178 225.596L373.753 282.075C373.753 282.075 371.178 288.494 373.753 289.777C376.327 291.061 387.27 295.553 387.913 289.135C388.557 282.717 391.775 226.88 391.775 224.313C391.775 221.745 391.132 220.462 391.775 218.536C392.419 216.611 391.132 216.611 391.775 216.611C392.419 216.611 390.488 214.685 390.488 213.402V181.953C390.488 181.953 391.132 175.535 391.775 174.251C392.419 172.968 391.132 171.684 391.775 169.759C392.419 167.833 390.488 161.415 390.488 161.415L361.523 153.714L328.697 156.923Z" fill="#303030"/>
<path d="M351.224 300.688C351.224 300.688 354.442 297.479 349.937 297.479C347.044 297.538 344.195 298.193 341.569 299.404L338.351 310.957C338.351 310.957 325.156 321.547 339.96 320.263C354.764 318.98 352.511 319.942 352.511 319.942C352.511 319.942 357.017 318.659 357.661 317.375C358.304 316.091 356.373 297.479 356.373 297.479C356.373 297.479 354.442 302.613 351.224 300.688Z" fill="#303030"/>
<path d="M378.902 300.688C378.902 300.688 375.684 297.479 380.189 297.479C383.082 297.538 385.931 298.193 388.557 299.404L391.775 310.957C391.775 310.957 404.97 321.547 390.166 320.263C375.362 318.979 375.684 319.942 375.684 319.942C375.684 319.942 371.178 318.659 370.534 317.375C369.891 316.091 373.753 297.479 373.753 297.479C373.753 297.479 375.684 302.613 378.902 300.688Z" fill="#303030"/>
<path d="M337.063 44.6058C346.306 44.6058 353.798 37.1348 353.798 27.9187C353.798 18.7027 346.306 11.2317 337.063 11.2317C327.821 11.2317 320.328 18.7027 320.328 27.9187C320.328 37.1348 327.821 44.6058 337.063 44.6058Z" fill="#A0616A"/>
<path d="M331.271 40.1131C331.271 40.1131 333.846 52.9493 333.846 54.8747C333.846 56.8001 344.788 62.5764 344.788 62.5764L357.018 47.173C357.018 47.173 349.294 36.2622 349.294 33.695L331.271 40.1131Z" fill="#A0616A"/>
<path d="M340.926 56.8002C340.926 56.8002 335.316 55.3113 333.615 52.8467C333.615 52.8467 315.823 70.2782 315.823 73.4873L329.984 98.5179C329.984 98.5179 329.984 107.503 331.271 108.145C332.558 108.787 331.271 108.145 331.271 110.712C331.271 113.279 327.409 129.967 328.696 132.534C329.984 135.101 331.271 133.176 329.984 137.026C328.696 140.877 325.478 161.415 325.478 161.415C325.478 161.415 337.064 157.564 353.799 163.982C370.534 170.401 390.488 161.415 390.488 161.415C390.488 161.415 385.338 149.863 386.626 146.012C387.913 142.161 383.407 135.101 383.407 135.101L380.189 76.0545C380.189 76.0545 384.695 49.7403 381.477 48.4567L375.04 45.8894L354.427 43.3633C354.427 43.3633 349.294 56.1584 340.926 56.8002Z" fill="#D0CDE1"/>
<path d="M322.26 68.9946L315.823 73.4873C315.823 73.4873 312.605 83.1144 315.823 87.6071C319.041 92.0998 320.329 98.5179 320.329 98.5179L333.202 97.2342L322.26 68.9946Z" fill="#D0CDE1"/>
<path d="M324.286 10.2834L321.384 9.12454C321.384 9.12454 327.453 2.46134 335.898 3.04076L333.523 0.433386C333.523 0.433386 339.329 -1.88423 344.607 4.19955C347.381 7.39766 350.592 11.1569 352.593 15.3916H355.702L354.404 18.2403L358.945 21.0891L354.284 20.5774C354.726 23.0368 354.575 25.5656 353.843 27.9553L353.968 30.207C353.968 30.207 348.565 21.8715 348.565 20.7127V23.6098C348.565 23.6098 345.662 21.0024 345.662 19.2642L344.079 21.2921L343.287 18.1054L333.523 21.2921L335.106 18.6848L329.037 19.5539L331.412 16.3672C331.412 16.3672 324.55 20.1333 324.287 23.3201C324.023 26.5068 320.592 30.5627 320.592 30.5627L319.009 27.6657C319.009 27.6657 316.633 14.6289 324.286 10.2834Z" fill="#303030"/>
<path d="M328.169 139.67H72.3906V318.829H328.169V139.67Z" fill="#F2F2F2"/>
<path d="M158.145 208.027H93.9219V319.817H158.145V208.027Z" fill="#38383D"/>
<path d="M123.101 214.734H105.801V230.814H123.101V214.734Z" fill="#F2F2F2"/>
<path d="M146.265 214.734H128.965V230.814H146.265V214.734Z" fill="#F2F2F2"/>
<path d="M123.101 236.662H105.801V253.327H123.101V236.662Z" fill="#F2F2F2"/>
<path d="M146.265 236.662H128.965V253.327H146.265V236.662Z" fill="#F2F2F2"/>
<path d="M149.977 275.52C152.232 275.52 154.061 273.697 154.061 271.448C154.061 269.199 152.232 267.376 149.977 267.376C147.722 267.376 145.894 269.199 145.894 271.448C145.894 273.697 147.722 275.52 149.977 275.52Z" fill="#FADE4B"/>
<path d="M306.637 197.415H179.676V303.652H306.637V197.415Z" fill="#38383D"/>
<path d="M354.896 173.399H45.6611L66.2794 130.416L70.8936 120.791L76.9302 108.206L81.5444 98.5815L86.8936 87.4324H330.533L333.692 98.5815L336.42 108.206L339.988 120.791L342.716 130.416L354.896 173.399Z" fill="#38383D"/>
<path d="M188.586 241.465H184.131V268.857H188.586V241.465Z" fill="#FADE4B"/>
<path d="M188.586 245.537H184.131V248.868H188.586V245.537Z" fill="#F2F2F2"/>
<path d="M188.586 261.454H184.131V264.785H188.586V261.454Z" fill="#F2F2F2"/>
<path d="M201.578 241.465H190.812V268.857H201.578V241.465Z" fill="#FADE4B"/>
<path d="M201.578 245.537H190.812V248.868H201.578V245.537Z" fill="#F2F2F2"/>
<path d="M201.578 261.454H190.812V264.785H201.578V261.454Z" fill="#F2F2F2"/>
<path d="M208.632 241.465H204.177V268.857H208.632V241.465Z" fill="#FADE4B"/>
<path d="M208.632 245.537H204.177V248.868H208.632V245.537Z" fill="#F2F2F2"/>
<path d="M208.632 261.454H204.177V264.785H208.632V261.454Z" fill="#F2F2F2"/>
<path d="M215.314 241.465H210.859V268.857H215.314V241.465Z" fill="#FADE4B"/>
<path d="M215.314 245.537H210.859V248.868H215.314V245.537Z" fill="#F2F2F2"/>
<path d="M215.314 261.454H210.859V264.785H215.314V261.454Z" fill="#F2F2F2"/>
<path d="M219.607 241.562L215.438 243.129L225.128 268.76L229.297 267.193L219.607 241.562Z" fill="#FADE4B"/>
<path d="M221.047 245.372L216.879 246.939L218.057 250.056L222.226 248.489L221.047 245.372Z" fill="#F2F2F2"/>
<path d="M226.677 260.266L222.509 261.833L223.687 264.95L227.856 263.383L226.677 260.266Z" fill="#F2F2F2"/>
<path d="M302.553 241.465H291.787V268.857H302.553V241.465Z" fill="#FADE4B"/>
<path d="M302.553 245.537H291.787V248.868H302.553V245.537Z" fill="#F2F2F2"/>
<path d="M302.553 261.454H291.787V264.785H302.553V261.454Z" fill="#F2F2F2"/>
<path d="M289.189 241.465H284.734V268.857H289.189V241.465Z" fill="#FADE4B"/>
<path d="M289.189 245.537H284.734V248.868H289.189V245.537Z" fill="#F2F2F2"/>
<path d="M289.189 261.454H284.734V264.785H289.189V261.454Z" fill="#F2F2F2"/>
<path d="M282.507 241.465H278.052V268.857H282.507V241.465Z" fill="#FADE4B"/>
<path d="M282.507 245.537H278.052V248.868H282.507V245.537Z" fill="#F2F2F2"/>
<path d="M282.507 261.454H278.052V264.785H282.507V261.454Z" fill="#F2F2F2"/>
<path d="M273.759 241.562L264.069 267.193L268.238 268.76L277.928 243.129L273.759 241.562Z" fill="#FADE4B"/>
<path d="M272.319 245.372L271.141 248.489L275.309 250.056L276.488 246.939L272.319 245.372Z" fill="#F2F2F2"/>
<path d="M266.688 260.266L265.51 263.383L269.678 264.95L270.857 261.833L266.688 260.266Z" fill="#F2F2F2"/>
<path d="M306.637 268.857H179.676V271.448H306.637V268.857Z" fill="#F2F2F2"/>
<path d="M258.377 241.465H234.989V268.857H258.377V241.465Z" fill="#FADE4B"/>
<path d="M252.623 247.387H240.743V252.57H252.623V247.387Z" fill="#F2F2F2"/>
<path d="M244.27 197.415H242.043V221.106H244.27V197.415Z" fill="#F2F2F2"/>
<path d="M243.157 224.807C245.207 224.807 246.869 223.15 246.869 221.106C246.869 219.061 245.207 217.404 243.157 217.404C241.106 217.404 239.444 219.061 239.444 221.106C239.444 223.15 241.106 224.807 243.157 224.807Z" fill="#F2F2F2"/>
<path d="M336.421 108.206H76.9307L81.5449 98.5815H333.692L336.421 108.206Z" fill="#FADE4B"/>
<path d="M342.716 130.416H66.2793L70.8935 120.791H339.988L342.716 130.416Z" fill="#FADE4B"/>
<path d="M369.891 74.7708C369.891 74.7708 366.164 84.3279 366.942 93.7836C367.085 95.4766 367.656 97.1057 368.604 98.5178L322.94 120.135C322.94 120.135 302.307 122.265 307.456 131.25C312.605 140.235 331.271 126.757 331.271 126.757C331.271 126.757 380.19 119.698 384.052 112.638C387.914 105.578 390.488 76.0544 390.488 76.0544L369.891 74.7708Z" fill="#A0616A"/>
<path d="M371.821 48.4566H381.476C381.476 48.4566 388.556 49.7403 390.487 62.5765C392.418 75.4127 394.349 78.6217 392.418 78.6217C390.487 78.6217 367.315 77.9799 367.315 77.3381C367.315 76.6963 371.821 48.4566 371.821 48.4566Z" fill="#D0CDE1"/>
<path d="M49.5249 240.185C76.8768 240.185 99.0499 218.076 99.0499 190.803C99.0499 163.53 76.8768 141.42 49.5249 141.42C22.1731 141.42 0 163.53 0 190.803C0 218.076 22.1731 240.185 49.5249 240.185Z" fill="#FADE4B"/>
<path opacity="0.1" d="M48.5914 233.938C72.1141 233.938 91.1829 214.924 91.1829 191.469C91.1829 168.014 72.1141 149 48.5914 149C25.0688 149 6 168.014 6 191.469C6 214.924 25.0688 233.938 48.5914 233.938Z" fill="black" fill-opacity="0.76"/>
<path d="M47.484 215.863V209.682C44.3504 209.621 41.1087 208.519 39.2178 206.989L40.5143 202.889C42.7614 204.568 45.4865 205.49 48.2944 205.52C52.1305 205.52 54.7239 203.011 54.7239 199.523C54.7239 196.157 52.6167 194.076 48.6186 192.24C43.1077 189.792 39.704 186.977 39.704 181.652C39.704 176.572 42.8917 172.717 47.8623 171.799V165.618H51.212V171.554C53.7098 171.588 56.1462 172.331 58.2358 173.696L56.8849 177.735C54.8808 176.368 52.506 175.642 50.0774 175.655C45.9174 175.655 44.3504 178.47 44.3504 180.918C44.3504 184.1 46.3495 185.691 51.05 187.895C56.6147 190.465 59.4244 193.648 59.4244 199.094C59.4244 203.929 56.4528 208.458 50.8878 209.498V215.863H47.484Z" fill="#FADE4B"/>
</g>
<defs>
<clipPath id="clip0">
<rect width="417" height="335" fill="white"/>
</clipPath>
</defs>
</svg>
