<svg width="229" height="254" viewBox="0 0 229 254" fill="none" xmlns="http://www.w3.org/2000/svg">
<circle cx="130.114" cy="109.296" r="5.20455" fill="#FFF7D1"/>
<circle cx="192.568" cy="109.296" r="5.20455" fill="#FFF7D1"/>
<circle cx="98.8862" cy="109.296" r="5.20455" fill="#FFF7D1"/>
<circle cx="36.4321" cy="109.296" r="5.20455" fill="#FFF7D1"/>
<circle cx="161.341" cy="109.296" r="5.20455" fill="#FFF7D1"/>
<circle cx="67.6586" cy="109.296" r="5.20455" fill="#FFF7D1"/>
<circle cx="223.795" cy="109.296" r="5.20455" fill="#FFF7D1"/>
<circle cx="5.20455" cy="109.296" r="5.20455" fill="#FFF7D1"/>
<circle cx="130.114" cy="74.5986" r="5.20455" fill="#FFF7D1"/>
<circle cx="192.568" cy="74.5986" r="5.20455" fill="#FFF7D1"/>
<circle cx="98.8862" cy="74.5986" r="5.20455" fill="#FFF7D1"/>
<circle cx="36.4321" cy="74.5986" r="5.20455" fill="#FFF7D1"/>
<circle cx="161.341" cy="74.5986" r="5.20455" fill="#FFF7D1"/>
<circle cx="67.6586" cy="74.5986" r="5.20455" fill="#FFF7D1"/>
<circle cx="223.795" cy="74.5986" r="5.20455" fill="#FFF7D1"/>
<circle cx="5.20455" cy="74.5986" r="5.20455" fill="#FFF7D1"/>
<circle cx="130.114" cy="248.083" r="5.20455" fill="#FFF7D1"/>
<circle cx="192.568" cy="248.083" r="5.20455" fill="#FFF7D1"/>
<circle cx="98.8862" cy="248.083" r="5.20455" fill="#FFF7D1"/>
<circle cx="36.4321" cy="248.083" r="5.20455" fill="#FFF7D1"/>
<circle cx="161.341" cy="248.083" r="5.20455" fill="#FFF7D1"/>
<circle cx="67.6586" cy="248.083" r="5.20455" fill="#FFF7D1"/>
<circle cx="223.795" cy="248.083" r="5.20455" fill="#FFF7D1"/>
<circle cx="5.20455" cy="248.083" r="5.20455" fill="#FFF7D1"/>
<circle cx="130.114" cy="213.386" r="5.20455" fill="#FFF7D1"/>
<circle cx="192.568" cy="213.386" r="5.20455" fill="#FFF7D1"/>
<circle cx="98.8862" cy="213.386" r="5.20455" fill="#FFF7D1"/>
<circle cx="36.4321" cy="213.386" r="5.20455" fill="#FFF7D1"/>
<circle cx="161.341" cy="213.386" r="5.20455" fill="#FFF7D1"/>
<circle cx="67.6586" cy="213.386" r="5.20455" fill="#FFF7D1"/>
<circle cx="223.795" cy="213.386" r="5.20455" fill="#FFF7D1"/>
<circle cx="5.20455" cy="213.386" r="5.20455" fill="#FFF7D1"/>
<circle cx="130.114" cy="39.9016" r="5.20455" fill="#FFF7D1"/>
<circle cx="192.568" cy="39.9016" r="5.20455" fill="#FFF7D1"/>
<circle cx="98.8862" cy="39.9016" r="5.20455" fill="#FFF7D1"/>
<circle cx="36.4321" cy="39.9016" r="5.20455" fill="#FFF7D1"/>
<circle cx="161.341" cy="39.9016" r="5.20455" fill="#FFF7D1"/>
<circle cx="67.6586" cy="39.9016" r="5.20455" fill="#FFF7D1"/>
<circle cx="223.795" cy="39.9016" r="5.20455" fill="#FFF7D1"/>
<circle cx="5.20455" cy="39.9016" r="5.20455" fill="#FFF7D1"/>
<circle cx="130.114" cy="5.20455" r="5.20455" fill="#FFF7D1"/>
<circle cx="192.568" cy="5.20455" r="5.20455" fill="#FFF7D1"/>
<circle cx="98.8862" cy="5.20455" r="5.20455" fill="#FFF7D1"/>
<circle cx="36.4321" cy="5.20455" r="5.20455" fill="#FFF7D1"/>
<circle cx="161.341" cy="5.20455" r="5.20455" fill="#FFF7D1"/>
<circle cx="67.6586" cy="5.20455" r="5.20455" fill="#FFF7D1"/>
<circle cx="223.795" cy="5.20455" r="5.20455" fill="#FFF7D1"/>
<circle cx="5.20455" cy="5.20455" r="5.20455" fill="#FFF7D1"/>
<circle cx="130.114" cy="178.689" r="5.20455" fill="#FFF7D1"/>
<circle cx="192.568" cy="178.689" r="5.20455" fill="#FFF7D1"/>
<circle cx="98.8862" cy="178.689" r="5.20455" fill="#FFF7D1"/>
<circle cx="36.4321" cy="178.689" r="5.20455" fill="#FFF7D1"/>
<circle cx="161.341" cy="178.689" r="5.20455" fill="#FFF7D1"/>
<circle cx="67.6586" cy="178.689" r="5.20455" fill="#FFF7D1"/>
<circle cx="223.795" cy="178.689" r="5.20455" fill="#FFF7D1"/>
<circle cx="5.20455" cy="178.689" r="5.20455" fill="#FFF7D1"/>
<circle cx="130.114" cy="143.992" r="5.20455" fill="#FFF7D1"/>
<circle cx="192.568" cy="143.992" r="5.20455" fill="#FFF7D1"/>
<circle cx="98.8862" cy="143.992" r="5.20455" fill="#FFF7D1"/>
<circle cx="36.4321" cy="143.992" r="5.20455" fill="#FFF7D1"/>
<circle cx="161.341" cy="143.992" r="5.20455" fill="#FFF7D1"/>
<circle cx="67.6586" cy="143.992" r="5.20455" fill="#FFF7D1"/>
<circle cx="223.795" cy="143.992" r="5.20455" fill="#FFF7D1"/>
<circle cx="5.20455" cy="143.992" r="5.20455" fill="#FFF7D1"/>
</svg>
