<svg width="20" height="31" viewBox="0 0 20 31" fill="none" xmlns="http://www.w3.org/2000/svg">
<path d="M9.68 0.359998C12.5333 0.359998 14.8133 1.10666 16.52 2.6C18.2533 4.09333 19.12 6.2 19.12 8.92C19.12 11.4267 18.2933 13.3867 16.64 14.8C15.0133 16.1867 12.8533 16.8933 10.16 16.92L9.96 19.92H3.96L3.76 12.48H6.16C8.21333 12.48 9.77333 12.2267 10.84 11.72C11.9333 11.2133 12.48 10.2933 12.48 8.96C12.48 8.02667 12.2267 7.29333 11.72 6.76C11.2133 6.22667 10.5067 5.96 9.6 5.96C8.64 5.96 7.89333 6.24 7.36 6.8C6.82667 7.33333 6.56 8.06667 6.56 9H0.12C0.0666667 7.37333 0.4 5.90667 1.12 4.6C1.86667 3.29333 2.96 2.26667 4.4 1.52C5.86667 0.746665 7.62667 0.359998 9.68 0.359998ZM7.04 30.32C5.84 30.32 4.85333 29.9733 4.08 29.28C3.33333 28.56 2.96 27.68 2.96 26.64C2.96 25.5733 3.33333 24.68 4.08 23.96C4.85333 23.24 5.84 22.88 7.04 22.88C8.21333 22.88 9.17333 23.24 9.92 23.96C10.6933 24.68 11.08 25.5733 11.08 26.64C11.08 27.68 10.6933 28.56 9.92 29.28C9.17333 29.9733 8.21333 30.32 7.04 30.32Z" fill="url(#paint0_linear)"/>
<defs>
<linearGradient id="paint0_linear" x1="10" y1="-14" x2="10" y2="46" gradientUnits="userSpaceOnUse">
<stop stop-color="#FABB5D"/>
<stop offset="1" stop-color="#FADE4B"/>
</linearGradient>
</defs>
</svg>
