<svg width="396" height="350" viewBox="0 0 396 350" fill="none" xmlns="http://www.w3.org/2000/svg">
<g clip-path="url(#clip0)">
<path d="M198.701 349.798C198.605 349.639 196.323 345.818 195.532 337.882C194.806 330.602 195.272 318.33 201.618 301.212C213.639 268.783 198.848 242.618 198.696 242.357L199.426 241.933C199.464 241.999 203.281 248.67 205.536 259.293C208.515 273.376 207.43 288.02 202.409 301.507C190.408 333.88 199.33 349.206 199.421 349.357L198.701 349.798Z" fill="#3F3D56"/>
<path d="M194.001 240.453C197.029 240.453 199.483 237.991 199.483 234.955C199.483 231.918 197.029 229.456 194.001 229.456C190.973 229.456 188.519 231.918 188.519 234.955C188.519 237.991 190.973 240.453 194.001 240.453Z" fill="#FADE4B"/>
<path d="M211.291 260.755C214.319 260.755 216.773 258.294 216.773 255.257C216.773 252.22 214.319 249.758 211.291 249.758C208.263 249.758 205.809 252.22 205.809 255.257C205.809 258.294 208.263 260.755 211.291 260.755Z" fill="#38383D"/>
<path d="M199.483 274.29C202.511 274.29 204.965 271.828 204.965 268.792C204.965 265.755 202.511 263.293 199.483 263.293C196.455 263.293 194.001 265.755 194.001 268.792C194.001 271.828 196.455 274.29 199.483 274.29Z" fill="#FADE4B"/>
<path d="M213.821 285.71C216.849 285.71 219.303 283.248 219.303 280.212C219.303 277.175 216.849 274.713 213.821 274.713C210.793 274.713 208.339 277.175 208.339 280.212C208.339 283.248 210.793 285.71 213.821 285.71Z" fill="#FADE4B"/>
<path d="M195.266 303.474C198.294 303.474 200.749 301.013 200.749 297.976C200.749 294.939 198.294 292.477 195.266 292.477C192.239 292.477 189.784 294.939 189.784 297.976C189.784 301.013 192.239 303.474 195.266 303.474Z" fill="#38383D"/>
<path d="M202.013 350C202.013 350 196.531 336.465 212.977 326.314L202.013 350Z" fill="#3F3D56"/>
<path d="M195.271 349.754C195.271 349.754 192.776 335.361 173.465 335.485L195.271 349.754Z" fill="#3F3D56"/>
<path d="M69.5964 193.521H68.7529V299.651H69.5964V193.521Z" fill="#3F3D56"/>
<path d="M95.321 177.191H94.4775V315.981H95.321V177.191Z" fill="#3F3D56"/>
<path d="M121.046 172.568H120.202V320.604H121.046V172.568Z" fill="#3F3D56"/>
<path d="M146.769 177.191H145.926V315.981H146.769V177.191Z" fill="#3F3D56"/>
<path d="M172.494 193.521H171.65V299.651H172.494V193.521Z" fill="#3F3D56"/>
<path d="M185.609 211.057H55.6377V211.903H185.609V211.057Z" fill="#3F3D56"/>
<path d="M194.423 246.163H46.8242V247.009H194.423V246.163Z" fill="#3F3D56"/>
<path d="M185.609 281.269H55.6377V282.115H185.609V281.269Z" fill="#3F3D56"/>
<path d="M322.201 211.903C362.959 211.903 396 178.764 396 137.885C396 97.0062 362.959 63.8671 322.201 63.8671C281.442 63.8671 248.401 97.0062 248.401 137.885C248.401 178.764 281.442 211.903 322.201 211.903Z" fill="#FADE4B"/>
<path d="M197.375 123.31H196.531V229.439H197.375V123.31Z" fill="#3F3D56"/>
<path d="M223.099 106.979H222.256V245.77H223.099V106.979Z" fill="#3F3D56"/>
<path d="M248.824 102.357H247.98V250.393H248.824V102.357Z" fill="#3F3D56"/>
<path d="M274.548 106.979H273.704V245.77H274.548V106.979Z" fill="#3F3D56"/>
<path d="M300.272 123.31H299.429V229.439H300.272V123.31Z" fill="#3F3D56"/>
<path d="M313.387 140.846H183.416V141.692H313.387V140.846Z" fill="#3F3D56"/>
<path d="M322.201 175.952H174.603V176.798H322.201V175.952Z" fill="#3F3D56"/>
<path d="M313.387 211.057H183.416V211.903H313.387V211.057Z" fill="#3F3D56"/>
<path d="M305.445 13.9907H305.445C285.144 13.9907 268.687 32.3086 268.687 54.9049V83.6138H277.49L282.587 72.977L281.312 83.6138H337.898L342.531 73.9439L341.373 83.6138H347.744V61.0722C347.744 35.0698 328.806 13.9907 305.445 13.9907Z" fill="#303030"/>
<path d="M287.701 65.5899C287.701 65.5899 299.174 92.4396 283.877 97.8095L299.174 148.44L325.18 146.906L332.064 130.029L330.534 104.714L328.239 87.8368C328.239 87.8368 312.177 91.6724 313.707 63.2885L287.701 65.5899Z" fill="#FFB8B8"/>
<path d="M281.582 97.0425C281.582 97.0425 256.342 94.7411 258.636 113.152C260.931 131.563 263.225 135.399 263.225 135.399L265.52 163.016L251.752 171.454H238.75C238.75 171.454 198.977 180.66 218.863 190.633C238.75 200.606 245.633 182.961 245.633 182.961C245.633 182.961 282.347 182.961 284.642 176.824C286.936 170.687 281.582 97.0425 281.582 97.0425Z" fill="#FFB8B8"/>
<path d="M330.533 89.3711C330.533 89.3711 354.244 80.9326 355.774 99.3439C357.304 117.755 357.304 119.289 357.304 119.289L361.893 145.372C361.893 145.372 371.071 168.386 371.071 175.29C371.071 182.194 377.955 203.674 377.955 203.674C377.955 203.674 387.133 233.592 377.19 232.825C367.247 232.058 365.717 200.606 365.717 200.606L345.066 159.18L338.947 133.865L330.533 89.3711Z" fill="#FFB8B8"/>
<path d="M285.406 93.9739H279.287L278.522 126.193C278.522 126.193 268.579 140.002 280.817 152.276L283.876 172.222L339.712 169.92L343.536 149.208C343.536 149.208 351.185 132.331 340.477 116.988L330.533 85.5354H325.179C325.179 85.5354 337.58 131.393 311.412 132.331C289.995 133.098 285.406 93.9739 285.406 93.9739Z" fill="white"/>
<path d="M374.227 284.475C356.982 303.934 335.982 319.685 312.497 330.776C312.489 292.389 312.94 261.208 312.94 261.208C312.94 261.208 309.693 294.157 305.569 333.877C282.007 343.853 256.686 348.977 231.111 348.943C230.656 348.943 230.201 348.943 229.745 348.934C250.788 273.097 281.485 186.179 282.332 183.781C282.339 183.764 282.344 183.747 282.349 183.73L284.201 177.538L284.989 174.903L285.816 172.141L286.937 168.385L336.653 166.854L338.045 169.988L342.772 180.659C343.185 180.779 343.576 180.963 343.932 181.205C352.88 187.097 364.161 232.066 374.227 284.475Z" fill="#303030"/>
<path d="M342.007 160.715L281.582 163.016C281.582 163.016 278.824 183.729 281.582 183.729C282.347 183.729 345.066 189.099 344.301 179.893C343.536 170.687 342.007 160.715 342.007 160.715Z" fill="#38383D"/>
<path d="M299.523 74.3761C311.392 74.3761 321.014 64.7258 321.014 52.8214C321.014 40.9171 311.392 31.2667 299.523 31.2667C287.654 31.2667 278.032 40.9171 278.032 52.8214C278.032 64.7258 287.654 74.3761 299.523 74.3761Z" fill="#FFB8B8"/>
<path d="M315.894 25.2613C312.203 20.495 306.76 17.4761 300.683 17.4761H299.962C286.047 17.4761 274.768 30.1042 274.768 45.6819V45.6819H279.43L280.183 39.9338L281.287 45.6819H308.939L311.255 40.8189L310.676 45.6819H316.116C318.655 58.3259 315.007 70.97 305.174 83.614H314.441L319.074 73.8878L317.916 83.614H335.581L339.056 61.2437C339.056 44.4905 329.35 30.2841 315.894 25.2613Z" fill="#303030"/>
<path d="M320.973 27.6168C328.576 27.6168 334.74 21.4346 334.74 13.8084C334.74 6.18224 328.576 0 320.973 0C313.369 0 307.205 6.18224 307.205 13.8084C307.205 21.4346 313.369 27.6168 320.973 27.6168Z" fill="#303030"/>
<path d="M220.394 183.266C224.217 183.266 227.316 180.158 227.316 176.324C227.316 172.489 224.217 169.381 220.394 169.381C216.572 169.381 213.473 172.489 213.473 176.324C213.473 180.158 216.572 183.266 220.394 183.266Z" fill="#FADE4B"/>
<path d="M220.394 176.324H69.499V115.231H195.014L220.394 176.324Z" fill="#EFEFEF"/>
<path d="M221.084 176.787H51.041V101.81H190.247L190.365 102.096L221.084 176.787ZM51.9639 175.861H219.705L189.629 102.735H51.9639V175.861Z" fill="#3F3D56"/>
<path d="M169.635 124.951H94.418V131.893H169.635V124.951Z" fill="#38383D"/>
<path d="M169.635 139.298H94.418V146.24H169.635V139.298Z" fill="#38383D"/>
<path d="M169.635 153.646H94.418V160.588H169.635V153.646Z" fill="#38383D"/>
<path d="M5.06052 248.001C4.05965 248.001 3.08125 247.704 2.24905 247.146C1.41685 246.588 0.768233 245.796 0.385214 244.868C0.00219504 243.941 -0.0980234 242.92 0.097238 241.936C0.292499 240.951 0.77447 240.047 1.4822 239.337C2.18992 238.627 3.09162 238.144 4.07327 237.948C5.05491 237.752 6.07242 237.853 6.99711 238.237C7.9218 238.621 8.71214 239.271 9.2682 240.106C9.82426 240.941 10.121 241.922 10.121 242.926C10.1195 244.272 9.58586 245.562 8.63716 246.513C7.68846 247.465 6.40219 248 5.06052 248.001ZM5.06052 238.696C4.22646 238.696 3.41113 238.944 2.71763 239.409C2.02413 239.874 1.48362 240.534 1.16443 241.307C0.845252 242.08 0.761738 242.931 0.924456 243.751C1.08717 244.571 1.48881 245.325 2.07859 245.917C2.66836 246.508 3.41977 246.911 4.23781 247.074C5.05585 247.237 5.90377 247.154 6.67434 246.834C7.44492 246.513 8.10354 245.971 8.56692 245.276C9.0303 244.58 9.27763 243.762 9.27763 242.926C9.27638 241.804 8.83168 240.729 8.04109 239.936C7.2505 239.144 6.17859 238.698 5.06052 238.696Z" fill="#2F2E41"/>
<path d="M182.949 56.9458H174.624V48.5961H182.949V56.9458ZM175.264 56.3035H182.309V49.2384H175.264V56.3035Z" fill="#3F3D56"/>
<path d="M25.5006 58.6715L19.8223 52.5655L25.9102 46.8703L31.5885 52.9762L25.5006 58.6715ZM20.7274 52.5971L25.5322 57.7637L30.6835 52.9447L25.8787 47.7781L20.7274 52.5971Z" fill="#2F2E41"/>
</g>
<defs>
<clipPath id="clip0">
<rect width="396" height="350" fill="white"/>
</clipPath>
</defs>
</svg>
