<svg width="554" height="412" viewBox="0 0 554 412" fill="none" xmlns="http://www.w3.org/2000/svg">
<path d="M145.836 117.483C145.66 116.091 145.305 114.727 144.778 113.427C144.711 113.181 144.593 112.952 144.433 112.754C144.272 112.556 144.072 112.393 143.846 112.277C143.543 112.198 143.225 112.195 142.921 112.267L138.171 112.994C137.774 113.013 137.393 113.161 137.087 113.416C136.469 114.067 137.078 115.116 137.059 116.015C137.038 117.025 136.141 117.845 135.169 118.117C134.176 118.317 133.152 118.305 132.165 118.079L125.523 117.046C127.479 116.421 129.22 115.258 130.548 113.689C131.422 112.653 131.887 110.717 130.624 110.227C130.248 110.123 129.857 110.092 129.47 110.134C126.461 110.157 124.093 107.642 121.276 106.583C119.473 105.948 117.516 105.901 115.685 106.448C113.854 106.994 112.242 108.107 111.08 109.626L114.618 109.797C114.951 109.778 115.281 109.866 115.561 110.048C116.336 110.686 115.372 111.911 115.481 112.91C115.623 114.207 117.344 114.484 118.641 114.616C119.938 114.747 121.584 115.802 120.96 116.948C114.44 119.196 107.806 112.553 100.959 113.371C99.2259 113.578 97.5895 114.259 95.8976 114.688C85.5622 117.306 74.8772 110.321 64.319 111.8C61.9718 112.201 59.6649 112.81 57.4256 113.62C55.9887 114.093 54.4898 114.603 53.4457 115.699C52.4016 116.794 52.0042 118.668 52.9933 119.813C50.267 120.038 47.5225 119.777 44.8874 119.042C45.6 119.438 46.1928 120.02 46.6036 120.725C47.0144 121.43 47.2281 122.233 47.2221 123.049C42.9653 123.744 38.8213 125.009 34.9014 126.81C35.633 128.028 36.4875 129.168 37.4515 130.211L32.0625 133.678C33.8832 134.137 34.8245 136.622 33.7657 138.175C35.6535 137.334 36.8235 135.159 38.8422 134.718C40.1647 134.429 41.5104 134.971 42.765 135.479C44.0196 135.988 45.3986 136.482 46.6974 136.1C47.9962 135.718 48.9541 134.032 48.1288 132.958C53.6802 131.336 59.4174 130.438 65.1983 130.288C65.6443 130.231 66.0966 130.317 66.491 130.533C67.2436 131.056 67.0456 132.185 67.005 133.101C66.9645 134.017 67.6776 135.221 68.4954 134.808C67.5333 135.643 68.3558 137.216 69.2788 138.094C70.2019 138.973 71.3145 140.185 70.7493 141.327C70.6018 141.625 70.3517 141.864 70.2098 142.165C69.7909 143.053 70.456 144.089 71.2405 144.678C72.0249 145.268 72.9858 145.681 73.5308 146.497C74.0757 147.314 73.8282 148.744 72.8538 148.858L70.0841 145.337C69.1378 146.319 68.4891 147.55 68.2132 148.887C71.1502 151.291 71.5919 156.183 69.1331 159.076C67.8766 160.554 66.0897 161.452 64.5301 162.604C62.9705 163.757 61.5274 165.399 61.5314 167.34C61.5381 170.693 61.2645 173.808 62.5195 176.917C64.8338 182.649 67.5057 188.23 70.5194 193.627C71.3108 195.044 72.3336 196.598 73.9369 196.842C71.9107 191.903 70.0867 186.888 68.465 181.795C69.5212 181.8 70.7419 181.884 71.3611 182.74C71.8739 183.45 71.7637 184.414 71.9231 185.276C72.1257 186.11 72.4636 186.905 72.9234 187.63L82.599 204.886C83.4011 206.316 84.3211 207.852 85.8541 208.431C86.8342 208.801 87.9681 208.732 88.8703 209.265C89.5773 209.683 90.0536 210.425 90.7744 210.818C92.8127 211.932 95.647 209.797 97.5518 211.126C98.0964 211.506 98.4429 212.11 98.9447 212.545C100.704 214.07 103.59 213.05 105.621 214.187C106.929 214.921 107.608 216.387 108.306 217.716C110.055 221.045 112.884 224.307 116.632 224.572C117.809 224.655 119.011 224.432 120.162 224.694C121.313 224.956 122.445 225.962 122.261 227.129C121.944 229.129 122.931 231.32 122.666 233.328C122.183 236.986 117.001 238.593 116.556 242.256C116.458 243.058 116.611 243.886 116.42 244.671C116.186 245.633 115.465 246.416 115.208 247.372C114.722 249.185 116.019 250.988 117.444 252.207C118.868 253.426 120.568 254.478 121.347 256.184C122.17 257.988 121.765 260.092 122.033 262.057C122.618 266.347 126.319 269.527 130.127 271.578C131.288 272.202 132.534 272.807 133.285 273.891C134.265 275.306 134.168 277.171 134.495 278.861C135.297 283.001 138.777 286.412 138.876 290.627C138.946 293.624 137.283 296.342 136.289 299.169C135.357 301.878 135.02 304.756 135.301 307.607C135.581 310.458 136.472 313.215 137.914 315.69C138.657 316.947 139.546 318.132 140.072 319.494C141.011 321.925 140.706 324.689 141.571 327.147C142.715 330.398 145.859 333.082 145.558 336.515C146.985 339.482 150.136 340.94 153.305 341.823L158.984 343.406C160.072 343.709 161.208 344.014 162.315 343.795C163.422 343.575 164.479 342.655 164.451 341.525C161.666 340.896 158.791 340.228 156.496 338.529C154.2 336.83 152.627 333.804 153.498 331.082C153.902 329.82 154.761 328.362 153.945 327.319C153.477 326.722 152.621 326.566 152.094 326.021C151.271 325.171 151.554 323.744 152.145 322.719C152.737 321.694 153.592 320.778 153.831 319.619C153.951 318.971 153.871 318.301 153.6 317.699C153.329 317.098 152.881 316.594 152.316 316.254C153.369 315.856 154.327 315.241 155.127 314.449C155.867 313.603 156.208 312.3 155.627 311.34C157.353 311.559 159.392 311.666 160.526 310.344C161.431 309.288 161.369 307.709 161.011 306.364C160.653 305.019 160.049 303.713 160.03 302.321C164.013 302.51 168.006 302.375 171.967 301.916C171.394 299.984 170.093 298.352 168.338 297.365C170.132 297.061 171.767 294.911 172.334 293.18C172.9 291.448 172.756 289.563 172.406 287.775C172.271 287.315 172.252 286.828 172.352 286.359C172.554 285.714 173.186 285.321 173.772 284.984L182.677 279.864C183.209 279.597 183.691 279.241 184.101 278.811C185.035 277.714 184.896 276.057 184.419 274.698C183.941 273.339 183.176 272.06 182.992 270.631C182.441 266.356 187.011 263.29 188.554 259.266C189.159 257.687 189.282 255.97 189.4 254.283C189.525 252.471 189.535 250.366 188.145 249.198C186.813 248.078 184.731 248.328 183.337 247.287C182.059 246.332 181.618 244.478 180.222 243.707C178.954 243.007 177.364 243.452 175.954 243.123C173.471 242.543 171.908 239.678 169.372 239.412C167.941 239.263 166.322 239.963 165.149 239.129C164.116 238.394 164.074 236.916 163.878 235.662C163.533 233.714 162.6 231.918 161.205 230.516C159.809 229.115 158.019 228.175 156.074 227.824C154.598 227.587 152.993 227.677 151.738 226.865C150.467 226.043 149.884 224.504 148.886 223.366C147.277 221.532 144.743 220.88 142.369 220.321L132.715 218.049C131.001 217.645 128.791 217.432 127.872 218.935C127.599 219.507 127.407 220.114 127.299 220.739C126.954 221.869 126.261 222.86 125.318 223.57C124.375 224.281 123.231 224.674 122.051 224.693C121.242 223.311 119.931 222.295 118.392 221.858C117.413 221.585 116.365 221.555 115.432 221.153C114.923 220.904 114.471 220.554 114.102 220.125C113.733 219.695 113.456 219.195 113.287 218.654C113.118 218.113 113.061 217.544 113.119 216.98C113.178 216.417 113.351 215.871 113.627 215.377C114.184 214.384 114.399 213.236 114.239 212.11C114.079 210.983 113.553 209.94 112.742 209.142C111.1 207.666 108.725 207.31 106.524 207.458C105.947 206.198 106.911 204.777 107.95 203.861C108.989 202.946 110.251 202.046 110.477 200.679C110.833 198.529 108.093 196.895 106.012 197.536C103.931 198.178 102.603 200.201 101.725 202.196C101.222 203.34 100.793 204.545 99.9988 205.51C99.2043 206.475 97.9248 207.166 96.7146 206.856C95.0013 206.418 94.3396 204.38 93.9604 202.651C93.4517 200.33 92.94 197.978 93.0466 195.605C93.1532 193.232 93.9522 190.796 95.7 189.189C98.548 186.571 102.917 186.828 106.761 187.246C105.853 186.221 106.077 184.495 107.049 183.531C107.562 183.074 108.178 182.75 108.844 182.586C109.511 182.422 110.207 182.424 110.872 182.59C112.031 182.832 113.074 183.456 113.835 184.363C114.927 185.697 115.237 187.497 116.063 189.01C116.889 190.524 118.745 191.814 120.264 191.002C121.577 190.301 121.785 188.479 121.459 187.026C121.132 185.573 120.438 184.16 120.557 182.675C120.782 179.842 123.715 178.137 126.304 176.97C128.892 175.804 131.856 174.234 132.266 171.422C132.28 170.872 132.384 170.327 132.573 169.81C132.86 169.353 133.259 168.978 133.732 168.719C141.286 163.721 148.966 158.661 157.6 155.93C158.05 155.788 158.102 155.946 158.56 155.835C159.201 155.464 158.776 154.438 158.162 154.025C157.548 153.612 156.727 153.295 156.571 152.571C156.456 152.038 156.77 151.516 156.851 150.977C157.051 149.654 155.47 148.432 154.242 148.961C153.548 148.042 154.921 146.973 156.03 146.667C159.363 145.749 162.783 145.19 166.234 144.998C166.632 144.935 167.04 145.004 167.395 145.196C167.974 145.598 167.9 146.52 167.49 147.094C167.079 147.667 166.44 148.028 165.928 148.513C165.369 149.059 164.97 149.747 164.775 150.504C164.58 151.261 164.597 152.057 164.823 152.805C166.624 153.723 168.582 154.667 170.578 154.344C172.573 154.021 174.344 151.776 173.406 149.984C172.533 148.315 169.909 147.938 169.458 146.109C168.93 143.967 171.959 142.062 171.276 139.964C170.978 139.045 170.063 138.504 169.361 137.84C168.532 137.027 167.968 135.982 167.743 134.841C167.519 133.701 167.644 132.52 168.102 131.452C166.958 131.653 165.784 131.577 164.676 131.23C163.568 130.883 162.559 130.275 161.735 129.457C160.212 127.918 158.997 125.491 156.834 125.56C154.85 125.623 153.14 127.941 151.285 127.234C150.828 127.06 150.347 126.706 149.904 126.913C149.759 127.008 149.638 127.134 149.549 127.282C149.459 127.43 149.405 127.597 149.39 127.769C148.918 130.026 149.729 132.598 148.5 134.549C147.163 136.671 144.07 136.966 142.449 138.88C141.569 139.919 141.228 141.319 140.419 142.414C139.611 143.509 137.894 144.206 136.923 143.251C137.4 142.269 137.531 141.155 137.293 140.089C137.055 139.023 136.463 138.07 135.614 137.385C134.713 136.796 133.741 136.323 132.723 135.976C131.584 135.494 130.501 134.89 129.492 134.174C128.987 133.869 128.576 133.429 128.306 132.904C128.093 132.246 128.121 131.533 128.387 130.895C128.88 129.482 129.748 128.23 130.899 127.275C132.049 126.32 133.439 125.698 134.917 125.476C136.209 125.3 137.713 125.362 138.569 124.376C139.021 123.855 139.259 123.066 139.915 122.854C140.336 122.77 140.772 122.823 141.159 123.008L145.983 124.707C146.521 124.951 147.114 125.049 147.701 124.992C147.993 124.953 148.259 124.805 148.446 124.577C148.632 124.35 148.727 124.06 148.709 123.766C148.555 122.964 147.322 122.579 147.434 121.77C147.497 121.508 147.638 121.271 147.838 121.091C149.579 119.236 151.708 117.789 154.073 116.854C156.437 115.919 158.979 115.519 161.517 115.683C162.126 116.684 161.163 117.869 160.361 118.724C159.56 119.579 158.916 121.106 159.885 121.764C160.282 121.967 160.724 122.066 161.17 122.053C162.357 122.214 163.512 122.565 164.588 123.092C166.255 123.818 167.89 124.613 169.493 125.476C169.352 124.417 169.217 123.303 169.617 122.313C170.018 121.324 171.156 120.548 172.151 120.933C173.109 121.304 173.601 122.575 174.622 122.691C175.984 122.847 176.521 120.832 175.952 119.583C175.383 118.335 174.257 117.289 174.163 115.92C174.1 114.996 174.451 113.85 173.714 113.291C173.451 113.123 173.154 113.018 172.844 112.986L154.442 109.595C153.349 109.394 151.77 109.548 151.722 110.66C151.694 111.28 152.248 111.894 152.003 112.464C151.741 113.073 150.882 113.017 150.256 113.233C149.284 113.567 148.797 114.721 148.89 115.745C149.061 116.763 149.455 117.73 150.043 118.577C148.846 118.076 147.033 117.984 145.836 117.483Z" fill="#303030"/>
<path d="M131.153 101.843C129.992 101.458 128.742 101.44 127.571 101.792C126.4 102.143 125.365 102.846 124.607 103.806C124.304 104.205 124.049 104.756 124.303 105.188C124.667 105.808 125.593 105.563 126.277 105.342C127.281 104.982 128.374 104.956 129.394 105.267C130.035 105.488 130.609 105.877 131.254 106.09C131.567 106.221 131.911 106.264 132.247 106.215C132.584 106.166 132.9 106.026 133.163 105.81C133.605 105.359 133.633 104.657 133.634 104.024C133.665 103.813 133.648 103.597 133.585 103.393C133.521 103.188 133.413 103.001 133.268 102.844C133.011 102.694 132.721 102.608 132.423 102.593C131.756 102.47 131.154 102.117 130.719 101.596" fill="#3F3D56"/>
<path d="M137.788 99.9932C137.528 99.979 137.269 100.032 137.036 100.147C136.802 100.262 136.603 100.435 136.455 100.65C136.308 100.865 136.219 101.114 136.196 101.373C136.172 101.632 136.216 101.893 136.323 102.131C137.12 102.348 137.953 102.403 138.772 102.291C139.181 102.227 139.562 102.044 139.866 101.764C140.171 101.485 140.386 101.121 140.485 100.719C139.52 100.895 138.525 100.704 137.694 100.185" fill="#3F3D56"/>
<path d="M160.052 96.904C157.881 97.3661 155.772 98.0832 153.77 99.0406C154.714 99.4039 155.516 100.061 156.059 100.916C156.602 101.77 156.856 102.777 156.784 103.787C156.699 104.175 156.709 104.577 156.813 104.96C157.043 105.52 157.712 105.731 158.3 105.874C159.356 106.196 160.458 106.337 161.561 106.291C162.113 106.262 162.649 106.096 163.12 105.808C163.592 105.519 163.984 105.118 164.261 104.639C164.421 104.185 164.608 103.742 164.822 103.311C166.231 101.162 170.417 103.76 171.929 101.684C172.462 100.952 172.413 99.8513 173.108 99.2717C173.467 99.0192 173.884 98.8601 174.32 98.8087C177.362 98.2037 180.434 97.7655 183.524 97.4963C184.988 97.3687 186.896 96.8424 186.908 95.3712C181.394 94.287 175.677 95.0571 170.645 97.5618C168.832 98.4709 166.434 100.383 164.688 99.178C164.034 98.7267 164.066 97.5115 163.166 97.0041C162.246 96.4852 161.028 96.6963 160.052 96.904Z" fill="#303030"/>
<path d="M178.084 100.28L180.673 100.778C180.196 100.757 179.721 100.838 179.278 101.015C178.835 101.193 178.435 101.463 178.105 101.807C177.774 102.152 177.521 102.563 177.362 103.013C177.203 103.463 177.142 103.942 177.182 104.418C179.606 105.228 182.249 104.439 184.802 104.547C187.355 104.655 190.326 106.481 189.89 109.002C189.759 109.764 189.319 110.526 189.547 111.265C189.708 111.783 190.164 112.151 190.422 112.628C190.958 113.622 190.529 114.879 189.852 115.783C189.174 116.686 188.263 117.407 187.668 118.368C186.189 120.756 187.03 123.844 187.911 126.512C188.166 127.52 188.636 128.461 189.29 129.269C190.595 130.659 192.723 130.78 194.628 130.808C196.015 130.828 197.604 130.76 198.481 129.684C199.626 128.279 198.825 126.088 199.579 124.44C200.264 122.942 202.008 122.3 203.589 121.845C206.484 121.01 209.435 120.301 212.172 119.04C215.571 117.475 218.747 115.036 222.483 114.834C223.531 114.778 224.605 114.902 225.615 114.614C226.624 114.327 227.583 113.453 227.507 112.405C227.441 111.509 226.685 110.852 226.093 110.177C225.502 109.502 225.038 108.463 225.581 107.749L235.373 105.918C234.679 104.024 234.138 101.53 235.733 100.297C236.309 99.8525 237.079 99.6747 237.569 99.137C238.404 98.2206 237.984 96.6419 237.02 95.8625C236.056 95.0831 234.753 94.9021 233.518 94.7994C229.225 94.4424 224.906 94.6783 220.604 94.9144C212.195 95.3759 203.786 95.8374 195.377 96.2989C193.684 96.3918 191.729 96.2499 190.177 96.8281C188.862 97.3176 187.928 98.2162 186.424 98.5319C183.649 99.1147 180.595 98.7203 178.084 100.28Z" fill="#303030"/>
<path d="M224.455 120.764C224.191 120.723 223.921 120.784 223.701 120.936C223.556 121.096 223.469 121.301 223.456 121.517C223.289 122.471 223.488 123.453 224.013 124.267C224.281 124.666 224.65 124.986 225.083 125.193C225.516 125.401 225.997 125.489 226.475 125.448C227.641 125.299 228.499 124.304 229.571 123.818C231.222 123.07 238.236 121.904 233.384 119.28C231.712 118.375 230.632 119.174 229.314 119.769C227.815 120.537 226.135 120.881 224.455 120.764Z" fill="#303030"/>
<path d="M266.949 98.7988C266.383 99.0305 265.909 99.4435 265.601 99.9734C265.46 100.242 265.427 100.556 265.509 100.848C265.592 101.141 265.784 101.391 266.045 101.546C266.257 101.622 266.481 101.658 266.706 101.65L269.01 101.719C269.988 101.749 271.21 101.957 271.473 102.901C271.669 103.602 271.232 104.503 271.759 105.004C271.985 105.18 272.257 105.286 272.543 105.31C273.301 105.505 274.094 105.531 274.863 105.385C276.539 104.935 275.659 103.911 276.187 102.999C276.994 101.604 276.855 102.449 278.278 101.649C279.329 101.058 280.687 99.987 279.809 98.4818C278.284 95.8643 269.2 97.6743 266.949 98.7988Z" fill="#303030"/>
<path d="M312.413 97.4829L311.076 97.6616C308.059 98.0645 305.026 98.4712 302.121 99.3781C303.379 99.8758 304.698 100.2 306.043 100.341C306.783 100.378 307.518 100.482 308.239 100.654C309.523 101.037 310.815 102.024 312.055 101.518C312.824 101.205 313.074 100.403 313.711 99.9787C314.151 99.6854 315.818 99.2109 316.005 98.9149C317.512 96.5224 313.572 97.3281 312.413 97.4829Z" fill="#303030"/>
<path d="M318.287 103.569C316.5 104.569 314.842 105.785 313.351 107.188C312.722 107.78 312.08 108.515 312.137 109.377C312.213 110.522 313.432 111.187 314.487 111.634L318.763 113.447C319.282 112.715 318.807 111.704 318.271 110.985C317.735 110.265 317.098 109.433 317.335 108.568C317.605 107.58 318.808 107.243 319.817 107.073C321.46 106.796 325.894 106.818 325.361 104.166C324.734 101.041 319.937 102.646 318.287 103.569Z" fill="#303030"/>
<path d="M317.426 280.407C317.019 281.587 316.981 282.977 317.685 284.007C318.475 285.163 320.056 285.594 321.424 285.301C322.787 284.938 324.001 284.156 324.896 283.066C325.715 282.152 326.388 281.118 326.893 280C327.597 278.257 328.094 276.437 328.373 274.577L329.701 267.599C329.997 266.039 329.986 261.257 327.123 262.815C326.34 263.241 324.529 266.601 323.71 267.554C322.232 269.272 322.037 270.938 321.259 273.019C320.285 275.625 318.327 277.797 317.426 280.407Z" fill="#303030"/>
<path d="M468.654 316.12C467.717 315.753 466.808 315.32 465.933 314.823C465.056 317.237 464.59 319.78 464.554 322.349L470.965 318.717C471.929 318.17 473.022 317.411 473.001 316.302C473.01 316.165 472.982 316.028 472.919 315.906C472.857 315.784 472.763 315.68 472.647 315.607C472.505 315.55 472.349 315.532 472.198 315.554C471.247 315.634 470.38 316.102 469.483 316.428C468.587 316.753 467.538 316.926 466.715 316.442" fill="#303030"/>
<path d="M502.473 318.276C501.769 318.468 501.082 318.715 500.417 319.015C498.946 319.764 497.945 321.187 496.621 322.175C495.354 323.119 493.829 323.638 492.332 324.142C491.891 324.532 492.094 325.317 492.572 325.659C493.086 325.952 493.675 326.085 494.265 326.04C495.82 326.075 497.459 326.09 498.821 325.337C499.589 324.839 500.307 324.268 500.967 323.633C502.559 322.302 504.472 321.424 506.366 320.576C507.055 320.315 507.692 319.934 508.248 319.449C509.438 318.276 509.521 316.465 507.806 316.065C506.419 315.743 503.793 317.848 502.473 318.276Z" fill="#303030"/>
<path d="M517.416 308.503C517.493 307.696 517.385 306.881 517.102 306.121C516.818 305.361 516.366 304.676 515.779 304.116C515.762 305.732 515.713 307.453 514.805 308.789C514.158 309.742 513.144 310.385 512.436 311.291C511.727 312.198 511.413 313.636 512.244 314.431C512.775 314.836 513.422 315.059 514.09 315.068C515.744 315.263 517.659 315.372 518.819 314.175C519.453 313.522 519.761 312.554 520.533 312.074C520.821 311.953 521.078 311.769 521.285 311.535C521.604 311.028 521.097 310.359 520.527 310.176C519.956 309.993 519.328 310.079 518.754 309.905C518.181 309.732 517.655 309.086 517.949 308.564" fill="#303030"/>
<path d="M490.858 249.261C489.99 249.472 489.091 249.526 488.205 249.418C486.732 249.147 485.585 248.035 484.396 247.124C481.569 244.969 478.133 243.767 474.581 243.69C471.35 243.629 468.089 244.506 464.915 243.894C465.122 245.049 466.109 245.915 467.162 246.43C468.215 246.944 469.377 247.203 470.435 247.708C472.129 248.523 473.473 249.923 474.22 251.65C474.561 252.447 474.775 253.313 475.292 254.009C476.347 255.43 478.346 255.742 480.111 255.626C482.412 255.474 484.815 254.812 486.956 255.67C488.593 256.326 489.765 257.761 491.132 258.877C492.5 259.993 494.426 260.821 495.996 260.016C494.365 259.487 492.945 258.451 491.945 257.057C490.944 255.664 490.414 253.987 490.433 252.271C491.973 252.413 496.408 252.358 496.169 249.738C495.967 247.518 492.18 249.021 490.858 249.261Z" fill="#303030"/>
<path d="M470.714 267.324C470.988 265.823 472.483 264.497 472.017 263.044C471.695 262.039 470.531 261.543 469.477 261.518C468.424 261.493 467.388 261.807 466.335 261.837C465.649 261.801 464.961 261.81 464.277 261.866C462.185 262.211 460.896 264.406 458.924 265.186C457.726 265.661 456.379 265.57 455.133 265.898C452.303 266.643 450.512 269.32 448.534 271.478C445.338 274.95 441.175 277.381 436.582 278.457C434.973 278.83 433.244 279.068 431.965 280.115C430.271 281.5 429.855 283.875 429.478 286.032C428.437 291.989 426.846 297.836 424.726 303.498L431.445 304.357C432.722 304.52 434.046 304.68 435.277 304.301C436.171 303.963 437.018 303.512 437.797 302.957C440.79 301.097 444.139 299.886 447.628 299.404C449.388 299.162 451.233 299.118 452.884 299.773C454.535 300.428 455.952 301.913 456.09 303.685C456.804 303.463 457.565 303.439 458.292 303.616C459.019 303.793 459.684 304.164 460.216 304.69C461.268 305.763 461.957 307.14 462.185 308.627C462.362 309.547 462.54 310.65 463.393 311.036C464.088 311.351 464.887 311.012 465.648 310.951C468.231 310.744 470.375 313.759 472.914 313.24C475.637 312.683 476.306 308.6 478.962 307.782C480.488 307.312 482.628 307.883 483.359 306.462C484.003 305.21 482.718 303.765 482.851 302.362C483.014 300.635 485.048 299.902 486.617 299.166C492.024 296.625 494.59 289.339 491.97 283.965C490.417 280.781 487.363 278.275 486.798 274.777C486.364 272.086 487.424 268.948 485.71 266.83C484.838 265.752 483.362 265.157 482.844 263.871C482.517 263.062 482.648 262.144 482.472 261.289C482.297 260.434 481.552 259.539 480.708 259.761C478.261 260.404 477.479 267.975 476.169 269.815C474.177 272.611 470.087 270.769 470.714 267.324Z" fill="#303030"/>
<path d="M425.468 252.122C424.631 251.887 423.718 251.655 422.916 251.991C422.115 252.327 421.647 253.505 422.29 254.089C427.323 253.893 432.386 253.698 437.376 254.383C443.125 255.171 448.815 257.124 454.589 256.549C451.291 255.575 447.938 254.796 444.548 254.216L438.895 253.135C437.378 252.817 435.846 252.58 434.304 252.425C431.08 252.158 428.639 253.012 425.468 252.122Z" fill="#303030"/>
<path d="M430.507 234.573C430.089 234.538 429.571 234.508 429.355 234.868C429.149 235.211 429.385 235.665 429.274 236.051C429.122 236.577 428.434 236.711 427.891 236.64C427.349 236.568 426.762 236.397 426.281 236.658C426.038 236.825 425.854 237.067 425.759 237.346C425.664 237.626 425.662 237.929 425.754 238.21C425.95 238.768 426.268 239.275 426.684 239.695C427.395 240.592 428.205 241.406 429.099 242.12C430.828 243.398 433.172 244.014 434.261 245.87C434.415 246.229 434.651 246.548 434.951 246.799C435.474 247.131 436.156 246.878 436.719 246.621L438.693 245.718C439.048 245.59 439.365 245.373 439.615 245.089C440.066 244.477 439.789 243.606 439.411 242.946C439.032 242.286 438.548 241.603 438.629 240.846C438.774 239.497 440.506 238.981 441.219 237.827C441.937 236.664 441.469 235.165 441.552 233.799C441.649 232.203 442.651 230.126 441.039 228.933C439.669 227.92 438.359 228.856 437.375 229.976C435.301 232.336 434.32 234.892 430.507 234.573Z" fill="#303030"/>
<path d="M442.487 210.718C443.161 212.01 444.566 212.781 445.301 214.039C446.097 215.403 446.007 217.164 446.871 218.486C447.757 219.842 449.541 220.562 450.038 222.104C450.581 223.788 449.35 225.835 450.331 227.306C450.514 227.547 450.745 227.746 451.01 227.893C451.274 228.039 451.566 228.129 451.866 228.157C452.167 228.185 452.47 228.149 452.757 228.054C453.043 227.958 453.307 227.803 453.53 227.6C453.944 227.149 454.166 226.554 454.148 225.942C454.13 225.329 453.873 224.748 453.434 224.322C452.852 223.792 452.018 223.563 451.533 222.943C451.28 222.585 451.111 222.175 451.04 221.743C450.776 220.496 450.818 219.203 451.164 217.976C451.293 217.665 451.326 217.322 451.258 216.991C451.04 216.355 450.18 216.31 449.576 216.015C448.206 215.345 448.239 213.409 448.478 211.901C448.319 212.905 444.746 211.197 444.372 210.628C443.629 209.498 444.034 207.319 443.887 206.07C442.282 206.844 441.663 209.139 442.487 210.718Z" fill="#303030"/>
<path d="M406.498 230.594C405.838 229.855 404.845 229.082 403.961 229.527C403.287 229.867 403.101 230.802 403.366 231.51C403.688 232.198 404.183 232.79 404.804 233.227C406.646 234.748 408.63 236.121 410.237 237.889C413.113 241.053 414.637 245.323 417.764 248.238C418.393 248.914 419.226 249.365 420.135 249.523C421.046 249.608 422.069 249.024 422.174 248.113C422.26 247.363 421.738 246.692 421.228 246.137C420.013 244.813 418.683 243.596 417.536 242.213C417.006 241.682 416.673 240.986 416.592 240.239C416.586 239.495 417.264 238.716 417.985 238.9C417.108 238.676 416.459 237.215 415.173 236.94C414.098 236.71 413.838 237.376 412.559 236.827C410.12 235.78 408.206 232.508 406.498 230.594Z" fill="#303030"/>
<path d="M463.815 158.635C463.115 158.427 462.427 158.181 461.754 157.898C459.943 157.354 457.546 158.687 457.788 160.564C457.948 161.812 459.108 162.653 459.748 163.735C460.698 165.34 460.445 167.376 459.946 169.173C459.823 169.729 459.59 170.256 459.261 170.72C458.8 171.21 458.249 171.607 457.638 171.889C455.192 173.262 453.035 175.097 451.286 177.291C451.096 177.494 450.963 177.744 450.902 178.015C450.816 178.649 451.453 179.111 451.812 179.64C452.612 180.815 452.034 182.395 452.113 183.814C452.101 184.015 452.14 184.215 452.227 184.397C452.314 184.578 452.446 184.734 452.61 184.85C453.092 185.095 453.663 184.679 453.924 184.205C454.79 182.633 454.138 180.11 455.763 179.352C456.071 179.208 456.444 179.148 456.649 178.877C456.974 178.448 456.66 177.813 456.825 177.3C457.073 176.53 458.125 176.496 458.932 176.53C460.323 176.588 461.713 176.403 463.04 175.982C463.56 175.858 464.033 175.584 464.4 175.194C464.886 174.587 464.843 173.723 464.745 172.951C464.259 169.102 463.041 165.382 461.158 161.991C462.586 162.174 464.14 162.332 465.372 161.587C466.062 161.169 466.89 159.921 466.547 159.072C466.006 157.729 465.028 158.86 463.815 158.635Z" fill="#3F3D56"/>
<path d="M280.727 179.804C280.898 180.722 281.066 181.688 280.765 182.572C280.465 183.456 279.52 184.194 278.628 183.924C277.935 183.714 277.535 183.016 277.043 182.485C274.309 179.529 268.139 181.24 266.449 177.583C265.76 176.091 266.228 174.303 265.758 172.727C265.461 171.817 264.871 171.031 264.08 170.493C263.288 169.954 262.341 169.694 261.386 169.754C260.515 169.88 259.668 170.133 258.87 170.506C253.529 172.647 247.921 174.052 242.202 174.68C241.115 174.746 240.04 174.942 238.999 175.263C236.65 176.116 235.046 178.295 233.904 180.52C232.762 182.744 231.919 185.152 230.388 187.129C228.779 189.206 226.524 190.66 224.421 192.233C223.61 192.756 222.936 193.464 222.452 194.299C221.996 195.236 222.022 196.326 222.057 197.368L222.487 210.022C222.543 211.65 222.612 213.336 223.34 214.792C224.248 216.611 226.043 217.803 227.288 219.409C228.559 221.061 229.221 223.101 229.162 225.184C229.136 226.022 229.052 227.013 229.704 227.539C230.101 227.796 230.564 227.93 231.037 227.923L248.134 229.324C251.142 229.57 254.475 229.975 256.438 232.27C257.365 233.352 258.109 234.909 259.529 235.025C260.137 235.075 260.73 234.825 261.339 234.777C262.875 234.655 264.225 235.822 265.077 237.108C266.366 239.068 266.951 241.409 266.736 243.746C266.597 245.213 266.142 246.639 266.044 248.109C265.672 253.704 270.409 258.564 270.501 264.171C270.555 267.468 268.991 270.549 267.467 273.473C269.927 277.205 267.912 282.174 268.892 286.536C269.821 290.675 273.268 293.915 274.127 298.069C274.52 299.971 274.543 302.311 276.218 303.291C276.952 303.649 277.767 303.812 278.583 303.765C283.507 303.823 288.374 302.714 292.787 300.527C294.858 299.499 297.004 297.962 297.366 295.676C297.657 293.832 296.723 291.77 297.674 290.164C298.794 288.271 301.664 288.421 303.312 286.966C305.985 284.605 303.901 280.102 304.984 276.702C305.958 273.645 309.31 272.021 310.971 269.278C311.625 268.098 312.094 266.825 312.363 265.502C313.124 262.342 313.598 259.119 313.778 255.873C313.823 253.901 313.968 251.933 314.213 249.975C316.005 238.832 327.008 231.371 330.58 220.666C330.921 219.644 331.081 218.282 330.173 217.704C329.634 217.446 329.023 217.382 328.443 217.522L320.562 218.517C319.583 218.641 318.545 218.756 317.646 218.349C316.747 217.942 316.103 216.803 316.58 215.939C317.918 213.511 315.165 210.443 313.941 207.955C310.647 201.256 306.724 194.886 302.225 188.931C301.937 188.625 301.756 188.233 301.711 187.814L303.948 187.889C303.193 185.176 301.947 182.208 299.314 181.215C297.831 180.656 296.188 180.85 294.606 180.936C290.073 181.184 285.213 180.499 280.727 179.804Z" fill="#303030"/>
<path d="M294.609 118.674C295.795 119.935 297.125 121.273 298.841 121.492C301.872 121.881 304.052 118.742 305.439 116.016C305.491 116.711 305.811 117.359 306.332 117.821C306.852 118.283 307.533 118.524 308.228 118.492C308.976 118.366 309.69 118.086 310.326 117.671C316.332 114.385 323.059 112.643 329.903 112.604C329.837 112.085 329.966 111.56 330.264 111.13C330.562 110.7 331.009 110.396 331.517 110.277C332.909 110 334.163 111.205 334.834 112.456C335.505 113.707 335.924 115.158 336.99 116.094C338.057 117.031 340.121 116.99 340.543 115.634C340.947 114.332 339.592 113.221 338.467 112.454C337.341 111.686 336.155 110.265 336.913 109.132C342.663 107.858 348.449 106.579 354.334 106.325C355.336 106.36 356.334 106.188 357.266 105.82C358.164 105.379 358.877 104.378 358.636 103.407C357.352 103.709 356.007 103.621 354.772 103.155C353.538 102.689 352.471 101.866 351.706 100.79C359.871 100.115 368.555 99.54 375.791 103.387C376.659 105.253 372.234 106.806 373.418 108.489C373.795 109.026 374.552 109.089 375.208 109.101C380.236 109.194 385.294 109.286 390.265 108.526C392.082 108.248 393.917 107.856 395.741 108.081C398.78 108.457 401.378 110.486 404.367 111.148C405.584 111.417 406.948 111.426 407.973 110.718C408.999 110.009 409.44 108.396 408.599 107.475C411.414 104.714 416.085 105.398 419.797 106.72C423.51 108.042 427.027 110.175 430.957 110.469C433.775 110.681 436.632 109.922 439.416 110.404C441.166 110.707 442.794 111.486 444.505 111.965C447.739 112.871 451.16 112.68 454.519 112.723C463.087 112.839 471.562 114.525 479.523 117.698C480.559 118.035 481.508 118.597 482.303 119.342C483.044 120.136 483.422 121.371 482.924 122.336L474.697 121.133C475.472 122.66 477.477 122.921 479.106 123.448C480.734 123.975 482.423 125.775 481.444 127.181C479.68 126.619 478.081 128.385 477.189 130.01C476.298 131.635 475.212 133.581 473.363 133.68C471.707 133.769 469.704 132.357 468.625 133.618C470.116 135.501 471.393 137.545 472.432 139.712C473.498 141.936 474.258 144.738 472.816 146.739C472.59 147.097 472.246 147.364 471.844 147.495C470.667 147.793 469.902 146.351 469.058 145.477C467.994 144.376 466.385 144.064 464.945 143.548C463.504 143.032 461.987 142.016 461.874 140.488C461.804 139.537 462.305 138.654 462.675 137.775C463.295 136.295 463.567 134.691 463.468 133.088C463.387 131.798 463.026 130.457 462.101 129.556C461.176 128.655 459.579 128.37 458.586 129.195C458.123 129.58 457.751 130.196 457.15 130.219C456.087 130.259 455.27 128.404 454.415 129.037C454.516 129.712 454.376 130.401 454.02 130.983C451.468 133.205 447.547 132.265 444.257 133.05C442.692 133.499 441.194 134.154 439.802 134.998C439.282 135.221 438.839 135.593 438.529 136.068C438.118 136.867 438.571 137.891 439.295 138.422C440.063 138.893 440.926 139.188 441.821 139.285C445.832 140.046 449.902 141.223 453.069 143.803C456.236 146.382 458.313 150.647 457.311 154.609L449.4 147.041C449.701 150.219 449.871 153.405 449.912 156.6C449.963 157.224 449.877 157.852 449.661 158.439C449.097 159.686 447.569 160.106 446.229 160.381C445.857 160.452 445.503 160.601 445.192 160.818C444.881 161.035 444.62 161.316 444.425 161.642C444.23 161.967 444.106 162.331 444.062 162.708C444.017 163.085 444.052 163.467 444.166 163.829C444.641 165.382 445.828 166.593 446.914 167.799C448.001 169.006 449.07 170.377 449.212 171.995C449.354 173.613 448.135 175.437 446.517 175.325C445.29 175.239 444.379 174.14 443.856 173.025C443.333 171.911 443.021 170.669 442.235 169.723C439.855 166.857 434.509 168.085 432.376 165.029C431.833 165.646 431.456 166.393 431.282 167.197C431.107 168.001 431.141 168.836 431.379 169.624C432.371 169.002 433.729 169.579 434.474 170.483C435.22 171.386 435.571 172.544 436.157 173.559C436.946 174.928 438.203 176.142 438.313 177.719C438.284 178.315 438.294 178.913 438.344 179.508C438.539 180.464 439.346 181.15 439.905 181.949C441.207 183.807 441.143 186.361 440.304 188.469C439.465 190.578 437.958 192.34 436.465 194.049C433.857 197.033 431.197 199.999 428.106 202.477C427.224 203.185 426.282 203.88 425.733 204.868C425.184 205.857 425.155 207.245 426 207.997C425.396 208.027 424.312 208.324 423.708 208.355C423.496 205.929 423.45 203.491 423.57 201.059C421.186 199.913 418.62 202.982 418.927 205.611C419.235 208.24 421.135 210.351 422.487 212.625C423.476 214.289 424.211 216.229 423.881 218.136C423.551 220.044 421.85 221.804 419.924 221.635C416.859 221.368 415.578 216.964 412.544 216.46C412.276 216.397 411.995 216.425 411.745 216.539C411.295 216.787 411.216 217.39 411.191 217.904C411.067 220.425 410.959 223.047 411.943 225.372C413.381 228.773 417.097 231.63 416.317 235.24C412.118 233.286 409.935 228.571 408.944 224.043C407.953 219.514 407.787 214.76 406.011 210.479C404.661 212.211 401.826 210.78 400.593 208.963C399.424 207.241 398.705 205.249 397.571 203.504C396.437 201.759 394.7 200.196 392.623 200.1C390.445 200 388.556 201.496 386.895 202.91C385.529 204.072 384.127 205.281 383.328 206.888C382.166 209.226 382.47 211.983 382.414 214.595C382.354 217.418 381.756 220.396 379.834 222.463C377.912 224.53 374.365 225.25 372.246 223.387C371.139 222.415 370.603 220.962 370.126 219.567C367.825 212.845 365.909 205.996 364.387 199.056C364.031 200.64 362.641 202.682 361.314 201.748C361.016 201.498 360.775 201.186 360.606 200.835C358.13 196.634 353.545 194.114 348.913 192.603C344.28 191.092 339.406 190.387 334.825 188.727C332.258 187.796 329.806 186.573 327.517 185.082C326.933 185.94 326.593 186.941 326.531 187.977C326.469 189.013 326.688 190.047 327.166 190.968C328.182 192.77 330.481 193.812 332.45 193.183C333.467 192.857 334.326 192.15 335.336 191.801C336.345 191.452 337.7 191.623 338.141 192.597C338.563 193.529 337.925 194.656 338.242 195.629C338.724 197.111 340.957 197.225 341.737 198.574C342.318 199.577 341.84 200.91 341.011 201.719C340.182 202.529 339.075 202.973 338.063 203.537C334.778 205.365 332.442 208.487 329.571 210.916C326.701 213.345 322.651 215.118 319.23 213.56C320.045 209.426 315.126 206.39 314.221 202.275C313.923 200.92 314.078 199.481 313.653 198.161C313.037 196.25 311.343 194.936 309.954 193.487C308.269 191.711 306.956 189.616 306.093 187.323C305.229 185.031 304.834 182.589 304.928 180.142C305.004 178.441 305.316 176.712 304.929 175.054C304.542 173.396 303.171 171.792 301.472 171.867C297.591 172.038 292.703 172.327 290.667 169.016C289.941 167.834 289.625 166.102 290.675 165.197C291.416 164.558 292.51 164.618 293.483 164.714L302.226 165.575C304.271 165.777 306.481 165.943 308.236 164.873C309.991 163.802 310.751 160.961 309.126 159.702C307.939 158.782 305.812 158.832 305.467 157.369C305.18 156.151 306.526 154.768 305.799 153.75C305.277 153.02 304.105 153.223 303.394 153.77C302.684 154.317 302.168 155.118 301.373 155.532C299.978 156.259 298.311 155.567 296.81 155.097C295.309 154.627 293.297 154.587 292.569 155.983C291.754 157.543 293.291 159.589 292.483 161.153C291.414 163.221 287.797 162.044 286.296 163.822C284.575 165.864 287.468 168.907 286.887 171.515C286.146 171.882 285.322 172.051 284.496 172.005C283.67 171.958 282.871 171.698 282.175 171.25C281.491 170.784 280.946 170.141 280.598 169.39C280.25 168.639 280.111 167.807 280.197 166.983C280.341 165.81 280.952 164.613 280.543 163.504C280.212 162.608 279.313 162.075 278.478 161.612L269.982 156.912C269.193 158.377 270.19 160.193 271.437 161.293C272.684 162.394 274.247 163.223 275.066 164.671C275.584 165.674 275.7 166.838 275.391 167.924C275.081 169.01 274.369 169.937 273.4 170.515C273.278 170.599 273.14 170.656 272.995 170.681C272.849 170.706 272.7 170.7 272.558 170.662C272.422 170.582 272.304 170.476 272.21 170.35C272.116 170.224 272.049 170.08 272.011 169.927C270.512 166.086 268.262 162.299 264.663 160.293C261.065 158.287 255.895 158.699 253.535 162.079C252.975 162.882 252.599 163.797 252.11 164.645C249.517 169.155 243.956 171.29 238.76 171.15C238.252 171.179 237.746 171.06 237.304 170.808C236.464 170.227 236.502 168.995 236.631 167.982L237.176 163.68C237.285 162.817 237.444 161.862 238.127 161.323C239.089 160.563 240.478 161.042 241.704 161.025C242.632 160.981 243.525 160.653 244.261 160.084C244.997 159.516 245.54 158.734 245.818 157.846C246.065 156.949 246.064 156.001 245.813 155.105C245.563 154.208 245.072 153.398 244.396 152.76C243.834 152.231 243.08 151.568 243.377 150.856C243.495 150.659 243.655 150.49 243.845 150.361C244.036 150.233 244.252 150.148 244.479 150.112C246.681 149.472 249.007 149.304 251.172 148.549C253.337 147.794 255.437 146.248 255.949 144.011C256.107 143.325 256.178 142.495 256.793 142.155C257.102 142.025 257.433 141.957 257.768 141.956C258.942 141.788 260.011 141.187 260.764 140.271C261.517 139.354 261.901 138.188 261.838 137.003C262.876 136.277 264.33 136.811 265.334 137.583C266.337 138.355 267.223 139.375 268.445 139.708C270.721 140.328 272.921 138.311 275.28 138.301C276.272 138.297 277.298 138.648 278.232 138.312C279.178 137.97 279.743 137.027 280.469 136.331C281.195 135.634 282.469 135.209 283.14 135.96L282.569 131.726C283.718 132.016 284.917 132.058 286.084 131.846C287.251 131.635 288.36 131.176 289.335 130.501L281.956 128.005C281.699 127.94 281.462 127.813 281.266 127.635C280.729 127.057 281.262 126.156 281.698 125.498C282.742 123.925 282.917 121.334 281.201 120.551C280.03 120.017 278.685 120.659 277.561 121.286L272.175 124.293C272.004 125.318 273.256 125.899 274.031 126.589C274.501 127.007 274.833 127.557 274.984 128.167C275.136 128.777 275.099 129.419 274.88 130.008C274.66 130.597 274.268 131.106 273.754 131.468C273.24 131.829 272.629 132.027 272.001 132.035C272.356 132.496 272.603 133.032 272.722 133.602C272.842 134.172 272.833 134.761 272.694 135.327L269.07 135.588C268.664 135.67 268.241 135.587 267.895 135.358C267.508 135.014 267.56 134.41 267.47 133.899C267.254 132.665 266.047 131.8 264.816 131.579C263.584 131.357 262.325 131.641 261.105 131.922C260.588 132.108 260.019 132.095 259.51 131.885C259.219 131.695 258.997 131.415 258.879 131.087C258.345 129.79 258.845 128.265 259.703 127.155C260.562 126.045 261.737 125.234 262.792 124.31C265.317 122.093 267.171 119.213 268.147 115.995C270.142 115.159 272.207 114.022 274.202 113.185C277.277 111.626 280.726 110.957 284.161 111.253L290.916 111.382C292.916 111.42 294.971 111.469 296.82 112.233C298.67 112.996 300.295 114.648 300.423 116.646C300.461 116.873 300.442 117.105 300.366 117.322C300.29 117.538 300.16 117.732 299.989 117.885C299.728 118.028 299.432 118.094 299.135 118.078C297.27 118.143 296.475 118.609 294.609 118.674Z" fill="#303030"/>
<path d="M240.762 139.872C241.026 139.622 241.216 139.304 241.311 138.953C241.406 138.602 241.402 138.231 241.301 137.882C240.658 137.634 239.96 137.57 239.283 137.698C238.607 137.826 237.979 138.14 237.472 138.606C237.072 139.011 236.727 139.467 236.446 139.963C235.558 141.413 234.773 143.145 235.288 144.766C235.33 144.943 235.406 145.11 235.513 145.256C235.621 145.403 235.756 145.527 235.911 145.62C236.142 145.713 236.39 145.752 236.638 145.734C237.616 145.733 238.593 145.673 239.564 145.554C240.16 145.481 240.852 145.313 241.083 144.757C241.386 144.027 240.653 143.201 240.866 142.44C241.007 142.1 241.22 141.795 241.491 141.545C241.625 141.42 241.728 141.265 241.792 141.092C241.856 140.92 241.879 140.735 241.859 140.552C241.773 140.195 241.227 139.992 241.03 140.303" fill="#3F3D56"/>
<path d="M245.833 133.29C244.964 133.09 244.069 133.034 243.182 133.123C242.986 133.117 242.791 133.162 242.617 133.252C242.448 133.376 242.325 133.554 242.269 133.756C242.081 134.358 242.127 135.009 242.398 135.578C242.668 136.148 243.142 136.594 243.727 136.829C244.045 136.903 244.35 137.025 244.631 137.193C245.381 137.776 244.903 138.966 245.045 139.906C245.204 140.961 246.224 141.846 246.037 142.897C245.89 143.724 245.007 144.379 245.149 145.208C245.298 146.076 246.398 146.336 247.274 146.406C247.782 146.495 248.305 146.435 248.78 146.233C249.256 145.907 249.594 145.417 249.73 144.856C250.089 143.786 250.24 142.658 250.174 141.531C250.17 141.019 250.042 140.515 249.8 140.064C249.536 139.706 249.243 139.371 248.925 139.061C247.245 137.105 249.014 134.187 245.833 133.29Z" fill="#3F3D56"/>
<path opacity="0.8" d="M466.689 286.514C466.689 286.514 338.053 212.587 282.674 226.594C282.674 226.594 165.308 239.239 151.706 267.059C151.706 267.059 114.398 150.332 100.796 146.441" stroke="#FADE4B" stroke-width="2" stroke-miterlimit="10"/>
<path opacity="0.8" d="M151.706 267.059C173.275 209.474 367.589 145.663 367.589 145.663C339.996 152.667 282.674 226.594 282.674 226.594C282.674 226.594 161.422 138.27 100.796 146.441C100.796 146.441 367.783 155.196 466.689 286.514" stroke="#FADE4B" stroke-width="2" stroke-miterlimit="10"/>
<path d="M100.795 152.083C103.907 152.083 106.43 149.557 106.43 146.441C106.43 143.325 103.907 140.799 100.795 140.799C97.6831 140.799 95.1602 143.325 95.1602 146.441C95.1602 149.557 97.6831 152.083 100.795 152.083Z" fill="#FADE4B"/>
<path d="M151.705 272.701C154.818 272.701 157.34 270.175 157.34 267.059C157.34 263.944 154.818 261.418 151.705 261.418C148.593 261.418 146.07 263.944 146.07 267.059C146.07 270.175 148.593 272.701 151.705 272.701Z" fill="#FADE4B"/>
<path d="M367.588 151.305C370.7 151.305 373.223 148.779 373.223 145.663C373.223 142.547 370.7 140.021 367.588 140.021C364.476 140.021 361.953 142.547 361.953 145.663C361.953 148.779 364.476 151.305 367.588 151.305Z" fill="#FADE4B"/>
<path d="M466.689 292.156C469.801 292.156 472.324 289.63 472.324 286.514C472.324 283.398 469.801 280.872 466.689 280.872C463.577 280.872 461.054 283.398 461.054 286.514C461.054 289.63 463.577 292.156 466.689 292.156Z" fill="#FADE4B"/>
<path d="M282.673 232.236C285.785 232.236 288.308 229.71 288.308 226.594C288.308 223.478 285.785 220.952 282.673 220.952C279.561 220.952 277.038 223.478 277.038 226.594C277.038 229.71 279.561 232.236 282.673 232.236Z" fill="#FADE4B"/>
</svg>
