<svg width="526" height="254" viewBox="0 0 526 254" fill="none" xmlns="http://www.w3.org/2000/svg">
<path d="M122.629 23.9087C122.44 22.4996 122.058 21.1196 121.492 19.8033C121.42 19.5543 121.294 19.3223 121.122 19.122C120.949 18.9216 120.734 18.7574 120.491 18.6396C120.166 18.5598 119.825 18.5562 119.498 18.6291L114.396 19.3656C113.97 19.384 113.561 19.5339 113.233 19.7923C112.568 20.4515 113.222 21.5131 113.202 22.4226C113.179 23.4453 112.216 24.2754 111.172 24.5501C110.106 24.7533 109.006 24.7404 107.946 24.5123L100.813 23.4665C102.914 22.8337 104.783 21.6564 106.209 20.069C107.147 19.0199 107.647 17.0611 106.29 16.5643C105.887 16.4599 105.467 16.4281 105.051 16.4704C101.82 16.4941 99.2767 13.9483 96.2514 12.8761C94.3151 12.2342 92.2132 12.1865 90.2464 12.7397C88.2796 13.2929 86.5485 14.4187 85.3008 15.9561L89.1005 16.129C89.458 16.1104 89.8125 16.1996 90.1126 16.3837C90.9454 17.0292 89.9101 18.2691 90.0274 19.28C90.1798 20.5933 92.0279 20.8737 93.4211 21.0065C94.8142 21.1393 96.5816 22.2072 95.9115 23.3672C88.9093 25.6429 81.7839 18.9189 74.4302 19.7466C72.569 19.9561 70.8115 20.646 68.9944 21.0797C57.8941 23.7296 46.4184 16.6594 35.0788 18.1568C32.5579 18.5623 30.0802 19.1788 27.6753 19.9991C26.1319 20.4772 24.5221 20.9939 23.4008 22.1027C22.2794 23.2116 21.8526 25.1079 22.9149 26.2674C19.9869 26.4949 17.0392 26.2305 14.209 25.4866C14.9744 25.888 15.6111 26.4764 16.0523 27.19C16.4935 27.9036 16.723 28.7161 16.7166 29.5423C12.1448 30.2457 7.69403 31.5261 3.48405 33.3492C4.26979 34.582 5.18754 35.7355 6.22287 36.7916L0.435059 40.2999C2.39046 40.7647 3.40145 43.2805 2.26431 44.8517C4.29184 44.0007 5.5484 41.7991 7.71651 41.3527C9.1369 41.0603 10.5822 41.6085 11.9296 42.1236C13.2771 42.6386 14.7581 43.138 16.153 42.7514C17.5479 42.3649 18.5768 40.6584 17.6904 39.5711C23.6526 37.9298 29.8144 37.0214 36.0231 36.8686C36.5021 36.8119 36.9879 36.8989 37.4115 37.1173C38.2198 37.6463 38.0071 38.789 37.9636 39.7162C37.9201 40.6434 38.686 41.862 39.5643 41.4441C38.5309 42.2895 39.4143 43.8811 40.4057 44.7701C41.3971 45.6592 42.5919 46.8859 41.985 48.0423C41.8266 48.3442 41.5579 48.5857 41.4055 48.8902C40.9556 49.7892 41.6699 50.8373 42.5125 51.4343C43.355 52.0313 44.387 52.4485 44.9723 53.2752C45.5576 54.1019 45.2918 55.5489 44.2452 55.6644L41.2706 52.1009C40.2542 53.0952 39.5575 54.341 39.2611 55.6937C42.4155 58.1267 42.89 63.0789 40.2491 66.0061C38.8996 67.502 36.9805 68.411 35.3055 69.5778C33.6305 70.7446 32.0806 72.4061 32.0848 74.3706C32.0921 77.7644 31.7982 80.9175 33.1461 84.064C35.6316 89.866 38.5013 95.5148 41.738 100.977C42.588 102.411 43.6865 103.983 45.4084 104.23C43.2323 99.2319 41.2733 94.1557 39.5316 89.0017C40.666 89.0059 41.977 89.0909 42.6421 89.9581C43.1928 90.6761 43.0745 91.6524 43.2456 92.524C43.4632 93.3684 43.8262 94.1734 44.3199 94.9069L54.7116 112.372C55.5731 113.82 56.5612 115.374 58.2076 115.96C59.2603 116.335 60.4781 116.265 61.447 116.804C62.2064 117.227 62.7179 117.978 63.4921 118.377C65.6812 119.504 68.7253 117.343 70.771 118.688C71.356 119.073 71.7281 119.684 72.2671 120.124C74.1565 121.668 77.2559 120.635 79.437 121.787C80.8427 122.529 81.5713 124.013 82.321 125.358C84.1991 128.728 87.238 132.029 91.263 132.297C92.5273 132.382 93.8187 132.156 95.0546 132.421C96.2904 132.686 97.507 133.704 97.3086 134.885C96.9685 136.91 98.0289 139.127 97.7441 141.16C97.2254 144.862 91.6596 146.489 91.1815 150.196C91.0768 151.008 91.2407 151.846 91.0358 152.64C90.7848 153.614 90.0097 154.407 89.7343 155.374C89.2124 157.209 90.6051 159.034 92.1352 160.268C93.6652 161.502 95.4902 162.566 96.3267 164.293C97.2109 166.119 96.7766 168.248 97.0641 170.237C97.6919 174.579 101.667 177.798 105.757 179.873C107.004 180.506 108.342 181.118 109.149 182.215C110.202 183.647 110.097 185.534 110.448 187.245C111.309 191.435 115.048 194.888 115.154 199.154C115.229 202.187 113.442 204.938 112.375 207.8C111.375 210.541 111.012 213.454 111.314 216.34C111.615 219.226 112.572 222.016 114.12 224.521C114.919 225.793 115.873 226.992 116.438 228.371C117.446 230.832 117.119 233.629 118.048 236.118C119.277 239.407 122.653 242.124 122.33 245.599C123.863 248.602 127.247 250.078 130.65 250.971L136.75 252.573C137.918 252.88 139.138 253.189 140.327 252.967C141.517 252.745 142.652 251.813 142.621 250.67C139.63 250.033 136.543 249.357 134.077 247.637C131.611 245.917 129.922 242.855 130.858 240.1C131.292 238.822 132.215 237.347 131.337 236.291C130.835 235.687 129.916 235.529 129.35 234.978C128.466 234.118 128.769 232.673 129.405 231.635C130.04 230.598 130.959 229.671 131.215 228.498C131.344 227.842 131.258 227.164 130.967 226.555C130.676 225.946 130.195 225.436 129.589 225.092C130.72 224.69 131.748 224.067 132.608 223.265C133.402 222.409 133.768 221.09 133.144 220.118C134.998 220.34 137.188 220.449 138.405 219.11C139.378 218.041 139.311 216.443 138.927 215.082C138.543 213.721 137.893 212.399 137.873 210.99C142.151 211.182 146.439 211.044 150.694 210.58C150.079 208.625 148.68 206.973 146.796 205.974C148.723 205.666 150.478 203.49 151.087 201.738C151.696 199.985 151.541 198.077 151.164 196.267C151.02 195.801 151 195.309 151.107 194.834C151.324 194.182 152.003 193.783 152.632 193.443L162.196 188.26C162.767 187.99 163.285 187.63 163.726 187.195C164.728 186.084 164.58 184.407 164.067 183.032C163.553 181.656 162.732 180.362 162.534 178.915C161.943 174.589 166.851 171.485 168.508 167.412C169.158 165.814 169.29 164.077 169.416 162.369C169.551 160.535 169.561 158.404 168.069 157.222C166.638 156.089 164.402 156.342 162.905 155.288C161.532 154.322 161.059 152.445 159.559 151.665C158.197 150.956 156.49 151.407 154.975 151.073C152.308 150.486 150.63 147.586 147.906 147.318C146.37 147.166 144.631 147.875 143.371 147.031C142.261 146.287 142.217 144.791 142.006 143.522C141.635 141.55 140.633 139.732 139.135 138.314C137.636 136.895 135.713 135.944 133.624 135.588C132.039 135.349 130.315 135.44 128.967 134.618C127.602 133.786 126.976 132.229 125.904 131.077C124.176 129.22 121.455 128.561 118.906 127.995L108.536 125.695C106.695 125.287 104.323 125.07 103.335 126.592C103.042 127.171 102.835 127.785 102.719 128.417C102.349 129.561 101.604 130.565 100.592 131.284C99.5792 132.003 98.3511 132.401 97.0838 132.42C96.2148 131.021 94.8069 129.993 93.1539 129.551C92.1024 129.274 90.9769 129.243 89.9741 128.837C89.4279 128.585 88.9419 128.231 88.5458 127.796C88.1497 127.361 87.8518 126.855 87.6704 126.307C87.4889 125.76 87.4278 125.184 87.4906 124.613C87.5535 124.043 87.7391 123.491 88.036 122.99C88.6338 121.986 88.8647 120.824 88.693 119.684C88.5213 118.543 87.9565 117.488 87.0859 116.68C85.3224 115.187 82.7716 114.826 80.407 114.975C79.7877 113.7 80.8232 112.262 81.939 111.335C83.0549 110.409 84.4099 109.498 84.6528 108.114C85.0351 105.938 82.0919 104.285 79.8572 104.934C77.6225 105.583 76.1962 107.631 75.2533 109.649C74.7123 110.808 74.2524 112.027 73.3991 113.004C72.5458 113.981 71.1717 114.68 69.8719 114.367C68.0318 113.923 67.3211 111.86 66.9139 110.11C66.3675 107.762 65.8179 105.381 65.9324 102.979C66.0469 100.577 66.905 98.111 68.7821 96.4851C71.841 93.8355 76.5334 94.0953 80.6615 94.5179C79.6862 93.4811 79.9272 91.7338 80.9708 90.7579C81.5216 90.2961 82.1836 89.9681 82.8992 89.8022C83.6148 89.6363 84.3625 89.6376 85.0774 89.806C86.3213 90.0503 87.442 90.6825 88.2588 91.6007C89.4319 92.9502 89.7655 94.7722 90.6522 96.3039C91.5389 97.8357 93.5327 99.1421 95.1646 98.3204C96.5742 97.6106 96.7979 95.7664 96.4471 94.2957C96.0963 92.825 95.3512 91.3949 95.4783 89.8922C95.7207 87.0248 98.871 85.2989 101.651 84.118C104.431 82.9371 107.614 81.3489 108.054 78.5026C108.07 77.9453 108.181 77.3941 108.384 76.8707C108.693 76.4084 109.121 76.0282 109.629 75.7663C117.742 70.7074 125.991 65.5867 135.264 62.8224C135.746 62.6786 135.803 62.8384 136.294 62.7257C136.982 62.3505 136.527 61.3125 135.867 60.8943C135.207 60.4761 134.325 60.1555 134.158 59.4224C134.035 58.8835 134.371 58.3544 134.459 57.8094C134.674 56.4701 132.975 55.2335 131.657 55.7689C130.912 54.8382 132.386 53.7567 133.578 53.4471C137.156 52.5178 140.83 51.9516 144.536 51.758C144.964 51.6939 145.402 51.7642 145.783 51.9582C146.406 52.365 146.326 53.2981 145.885 53.8788C145.444 54.4595 144.757 54.8241 144.208 55.3154C143.607 55.8675 143.179 56.5646 142.969 57.3307C142.76 58.0968 142.778 58.9024 143.02 59.6597C144.955 60.5883 147.059 61.5442 149.201 61.217C151.344 60.8899 153.246 58.6182 152.239 56.8039C151.301 55.1144 148.484 54.7334 147.999 52.8817C147.432 50.7137 150.684 48.7856 149.952 46.6622C149.631 45.7321 148.648 45.1847 147.895 44.5132C147.004 43.6899 146.399 42.6318 146.157 41.4779C145.916 40.3239 146.05 39.1281 146.542 38.0474C145.314 38.2512 144.052 38.1742 142.863 37.8229C141.673 37.4716 140.59 36.8562 139.704 36.0283C138.068 34.4708 136.763 32.014 134.441 32.0837C132.309 32.1476 130.473 34.4938 128.48 33.778C127.99 33.6019 127.473 33.2435 126.998 33.4535C126.842 33.5489 126.712 33.6764 126.616 33.8264C126.52 33.9764 126.462 34.145 126.445 34.3195C125.939 36.6042 126.81 39.2073 125.49 41.1815C124.054 43.3299 120.732 43.6277 118.991 45.565C118.046 46.6166 117.68 48.0337 116.811 49.1424C115.943 50.2511 114.099 50.956 113.056 49.9898C113.569 48.996 113.709 47.8676 113.453 46.789C113.198 45.7104 112.562 44.7455 111.65 44.0519C110.682 43.4561 109.639 42.9773 108.545 42.6267C107.322 42.1383 106.159 41.5266 105.075 40.8022C104.533 40.4934 104.092 40.0482 103.802 39.5164C103.572 38.8506 103.603 38.1293 103.889 37.4831C104.417 36.053 105.35 34.7864 106.586 33.8199C107.822 32.8535 109.314 32.2239 110.901 31.9991C112.289 31.8209 113.905 31.8837 114.823 30.8858C115.309 30.3578 115.564 29.5595 116.27 29.3451C116.721 29.2596 117.19 29.314 117.606 29.5003L122.786 31.2209C123.365 31.4671 124.001 31.5664 124.632 31.5089C124.945 31.4691 125.231 31.3191 125.431 31.089C125.632 30.8589 125.733 30.5656 125.714 30.2682C125.549 29.4564 124.225 29.0668 124.345 28.248C124.413 27.9827 124.564 27.7429 124.779 27.5603C126.649 25.6826 128.935 24.2182 131.475 23.2719C134.015 22.3256 136.745 21.9208 139.47 22.0866C140.124 23.0999 139.089 24.2998 138.229 25.1649C137.368 26.0299 136.677 27.5756 137.718 28.2414C138.144 28.4468 138.618 28.5476 139.097 28.5346C140.373 28.6975 141.612 29.0522 142.769 29.5853C144.559 30.3205 146.315 31.1248 148.037 31.9983C147.885 30.9273 147.739 29.799 148.17 28.7975C148.6 27.7961 149.823 27.0106 150.891 27.4006C151.92 27.7765 152.448 29.0625 153.545 29.1803C155.008 29.3375 155.585 27.2984 154.974 26.0345C154.363 24.7706 153.153 23.7124 153.052 22.3265C152.984 21.3915 153.361 20.2319 152.569 19.6658C152.288 19.4958 151.968 19.39 151.636 19.3568L131.871 15.9252C130.698 15.7214 129.002 15.8776 128.95 17.0025C128.921 17.6304 129.515 18.2516 129.252 18.8289C128.971 19.4451 128.048 19.3887 127.375 19.6067C126.332 19.9448 125.809 21.1136 125.909 22.1501C126.092 23.1801 126.515 24.1589 127.147 25.0165C125.861 24.5092 123.915 24.416 122.629 23.9087Z" fill="#303030"/>
<path d="M106.859 8.07884C105.612 7.68969 104.269 7.67156 103.012 8.02692C101.754 8.38227 100.643 9.09392 99.8283 10.0654C99.5029 10.4697 99.2296 11.027 99.502 11.4648C99.8926 12.0924 100.888 11.8445 101.622 11.62C102.7 11.2564 103.874 11.23 104.97 11.5446C105.659 11.7678 106.275 12.1623 106.967 12.377C107.304 12.51 107.673 12.5539 108.034 12.5041C108.395 12.4543 108.736 12.3126 109.018 12.0943C109.493 11.6372 109.523 10.9267 109.524 10.2867C109.557 10.0725 109.538 9.85409 109.471 9.64738C109.403 9.44067 109.287 9.25088 109.131 9.09186C108.854 8.94048 108.543 8.85361 108.223 8.83846C107.507 8.71342 106.86 8.35655 106.393 7.82941" fill="#3F3D56"/>
<path d="M113.986 6.20668C113.707 6.19235 113.429 6.24596 113.178 6.36236C112.927 6.47877 112.713 6.65405 112.555 6.87134C112.397 7.08864 112.301 7.34065 112.276 7.60314C112.251 7.86563 112.298 8.12977 112.412 8.37016C113.269 8.59057 114.164 8.64562 115.043 8.53203C115.482 8.46776 115.891 8.28239 116.218 7.99928C116.545 7.71618 116.776 7.34801 116.882 6.94116C115.847 7.11899 114.778 6.9264 113.885 6.40099" fill="#3F3D56"/>
<path d="M137.896 3.08003C135.565 3.5477 133.3 4.27356 131.149 5.24252C132.163 5.61027 133.025 6.27561 133.608 7.1405C134.191 8.0054 134.464 9.0241 134.387 10.0465C134.296 10.439 134.307 10.8464 134.418 11.2342C134.666 11.801 135.384 12.0137 136.015 12.1592C137.149 12.4848 138.333 12.6274 139.518 12.581C140.11 12.5518 140.686 12.3836 141.192 12.0917C141.698 11.7998 142.119 11.3934 142.417 10.9092C142.589 10.4498 142.79 10.0006 143.02 9.56441C144.533 7.39011 149.029 10.0192 150.653 7.91767C151.225 7.17739 151.173 6.06307 151.919 5.47647C152.305 5.2209 152.752 5.05987 153.22 5.00787C156.488 4.39544 159.788 3.95198 163.106 3.67949C164.678 3.55039 166.728 3.01771 166.741 1.52867C160.818 0.431257 154.678 1.21068 149.274 3.74576C147.326 4.66593 144.751 6.60153 142.876 5.38161C142.173 4.92485 142.208 3.69491 141.242 3.1813C140.253 2.65619 138.945 2.86976 137.896 3.08003Z" fill="#303030"/>
<path d="M157.264 6.49724L160.044 7.00124C159.532 6.97985 159.021 7.06168 158.546 7.24126C158.07 7.42083 157.641 7.69404 157.286 8.04263C156.931 8.39123 156.659 8.8072 156.488 9.2628C156.317 9.7184 156.251 10.2032 156.295 10.6847C158.898 11.5053 161.736 10.7068 164.479 10.8159C167.221 10.9249 170.412 12.7732 169.944 15.325C169.802 16.0966 169.33 16.8676 169.575 17.6156C169.747 18.1398 170.237 18.5118 170.514 18.9946C171.09 20.0007 170.63 21.2733 169.902 22.1879C169.174 23.1025 168.196 23.8323 167.557 24.8042C165.968 27.2216 166.871 30.3469 167.818 33.0475C168.091 34.068 168.597 35.0201 169.299 35.8382C170.701 37.2449 172.986 37.3672 175.032 37.3954C176.522 37.4159 178.228 37.3465 179.17 36.2576C180.4 34.836 179.54 32.6181 180.35 30.9497C181.085 29.4345 182.958 28.7844 184.656 28.3234C187.765 27.4787 190.934 26.7607 193.874 25.4849C197.524 23.9006 200.936 21.4318 204.948 21.2279C206.074 21.1707 207.227 21.296 208.312 21.005C209.396 20.714 210.426 19.8296 210.344 18.7688C210.274 17.8625 209.461 17.1969 208.826 16.5137C208.191 15.8304 207.692 14.7798 208.276 14.0569L218.792 12.2035C218.047 10.2867 217.466 7.76216 219.179 6.51447C219.797 6.06429 220.625 5.88437 221.151 5.34013C222.048 4.41255 221.597 2.81469 220.562 2.02583C219.526 1.23697 218.126 1.05384 216.8 0.949904C212.189 0.588565 207.551 0.827331 202.931 1.06628C193.899 1.53338 184.868 2.00048 175.836 2.46757C174.018 2.5616 171.919 2.41795 170.251 3.00319C168.839 3.49865 167.836 4.40813 166.221 4.72767C163.241 5.31757 159.961 4.91839 157.264 6.49724Z" fill="#303030"/>
<path d="M207.066 27.23C206.783 27.1877 206.493 27.2497 206.257 27.4032C206.101 27.5655 206.008 27.7731 205.994 27.9919C205.814 28.9575 206.028 29.9515 206.592 30.7747C206.88 31.1785 207.276 31.5024 207.741 31.7127C208.206 31.923 208.722 32.012 209.236 31.9706C210.488 31.82 211.41 30.8124 212.561 30.3207C214.335 29.5636 221.867 28.3833 216.657 25.7273C214.861 24.8119 213.701 25.62 212.285 26.2228C210.675 27 208.871 27.3483 207.066 27.23V27.23Z" fill="#303030"/>
<path d="M252.705 4.99782C252.097 5.23235 251.588 5.65039 251.258 6.18664C251.106 6.45894 251.071 6.77598 251.159 7.07216C251.248 7.36834 251.454 7.621 251.735 7.77786C251.962 7.85561 252.203 7.89166 252.444 7.88409L254.918 7.95383C255.969 7.98345 257.282 8.19464 257.565 9.15023C257.774 9.85979 257.305 10.7716 257.871 11.2786C258.114 11.4562 258.407 11.5638 258.713 11.5883C259.528 11.7859 260.379 11.8118 261.206 11.6642C263.006 11.2087 262.06 10.1721 262.627 9.24915C263.494 7.83693 263.344 8.69181 264.872 7.88244C266.001 7.28471 267.46 6.20041 266.518 4.67695C264.879 2.0277 255.123 3.85971 252.705 4.99782Z" fill="#303030"/>
<path d="M301.534 3.6659L300.098 3.84678C296.858 4.25464 293.6 4.66626 290.48 5.5841C291.831 6.08792 293.248 6.41597 294.692 6.55922C295.487 6.59599 296.277 6.70192 297.052 6.87565C298.43 7.26271 299.818 8.26224 301.15 7.75023C301.975 7.43275 302.244 6.62179 302.928 6.192C303.4 5.89523 305.191 5.41488 305.392 5.11534C307.01 2.69375 302.778 3.50926 301.534 3.6659Z" fill="#303030"/>
<path d="M307.842 9.82611C305.923 10.8385 304.142 12.0686 302.54 13.4891C301.865 14.0878 301.176 14.8323 301.237 15.7044C301.319 16.8635 302.627 17.5359 303.761 17.9888L308.353 19.8233C308.91 19.0824 308.4 18.0597 307.825 17.3317C307.249 16.6036 306.565 15.7613 306.819 14.8852C307.109 13.8854 308.401 13.5447 309.485 13.3724C311.25 13.0918 316.012 13.1143 315.44 10.4301C314.766 7.26736 309.614 8.89159 307.842 9.82611Z" fill="#303030"/>
<path d="M306.919 188.81C306.481 190.004 306.44 191.411 307.196 192.454C308.045 193.623 309.743 194.06 311.212 193.763C312.676 193.396 313.98 192.604 314.941 191.501C315.82 190.576 316.544 189.53 317.086 188.398C317.842 186.634 318.376 184.792 318.676 182.91L320.101 175.846C320.42 174.268 320.408 169.428 317.333 171.005C316.492 171.435 314.547 174.837 313.667 175.801C312.08 177.539 311.87 179.226 311.035 181.332C309.989 183.97 307.886 186.168 306.919 188.81Z" fill="#303030"/>
<path d="M469.338 224.956C468.332 224.585 467.355 224.147 466.416 223.643C465.474 226.086 464.973 228.661 464.935 231.261L471.82 227.585C472.856 227.032 474.03 226.263 474.008 225.14C474.017 225.002 473.986 224.863 473.919 224.74C473.852 224.616 473.751 224.512 473.627 224.437C473.474 224.379 473.307 224.361 473.144 224.384C472.123 224.464 471.192 224.938 470.229 225.268C469.266 225.597 468.14 225.772 467.256 225.283" fill="#303030"/>
<path d="M505.659 227.138C504.904 227.333 504.165 227.582 503.451 227.886C501.871 228.645 500.796 230.085 499.374 231.084C498.014 232.04 496.376 232.565 494.768 233.076C494.295 233.47 494.512 234.265 495.025 234.611C495.578 234.908 496.211 235.042 496.844 234.997C498.515 235.032 500.274 235.047 501.738 234.286C502.562 233.781 503.334 233.203 504.042 232.56C505.752 231.214 507.807 230.325 509.841 229.466C510.581 229.202 511.265 228.816 511.862 228.326C513.14 227.138 513.23 225.305 511.387 224.901C509.898 224.574 507.077 226.706 505.659 227.138Z" fill="#303030"/>
<path d="M521.708 217.247C521.791 216.43 521.676 215.605 521.371 214.836C521.067 214.067 520.581 213.373 519.951 212.807C519.932 214.442 519.879 216.185 518.904 217.537C518.21 218.501 517.121 219.151 516.36 220.069C515.599 220.987 515.261 222.442 516.154 223.247C516.724 223.657 517.419 223.883 518.136 223.892C519.913 224.089 521.97 224.199 523.216 222.988C523.896 222.327 524.227 221.347 525.057 220.861C525.366 220.739 525.642 220.553 525.864 220.316C526.207 219.802 525.662 219.125 525.05 218.94C524.437 218.755 523.762 218.842 523.146 218.666C522.53 218.49 521.965 217.837 522.281 217.308" fill="#303030"/>
<path d="M493.185 157.286C492.253 157.5 491.288 157.554 490.335 157.445C488.753 157.17 487.522 156.045 486.245 155.123C483.209 152.942 479.519 151.725 475.704 151.648C472.233 151.586 468.731 152.473 465.322 151.854C465.545 153.023 466.605 153.899 467.736 154.42C468.866 154.941 470.115 155.203 471.251 155.714C473.071 156.539 474.514 157.956 475.316 159.704C475.682 160.51 475.912 161.387 476.467 162.091C477.6 163.53 479.747 163.845 481.643 163.728C484.114 163.574 486.695 162.904 488.994 163.773C490.753 164.437 492.012 165.89 493.48 167.019C494.949 168.148 497.017 168.986 498.703 168.171C496.952 167.636 495.427 166.587 494.352 165.177C493.278 163.767 492.709 162.069 492.729 160.332C494.383 160.476 499.146 160.42 498.889 157.769C498.672 155.522 494.605 157.044 493.185 157.286Z" fill="#303030"/>
<path d="M471.55 175.568C471.844 174.049 473.45 172.707 472.95 171.236C472.604 170.219 471.354 169.717 470.222 169.692C469.09 169.667 467.978 169.985 466.847 170.015C466.11 169.978 465.372 169.988 464.636 170.044C462.39 170.393 461.005 172.614 458.888 173.404C457.601 173.885 456.154 173.793 454.816 174.125C451.776 174.879 449.853 177.588 447.729 179.773C444.296 183.287 439.824 185.748 434.893 186.836C433.165 187.214 431.307 187.455 429.933 188.514C428.115 189.916 427.667 192.32 427.262 194.503C426.144 200.532 424.435 206.45 422.158 212.181L429.375 213.051C430.747 213.216 432.168 213.378 433.49 212.994C434.451 212.652 435.361 212.195 436.197 211.634C439.411 209.751 443.009 208.526 446.756 208.038C448.646 207.793 450.627 207.748 452.401 208.411C454.174 209.074 455.695 210.576 455.844 212.371C456.611 212.146 457.428 212.121 458.209 212.3C458.989 212.48 459.703 212.855 460.275 213.388C461.405 214.474 462.145 215.868 462.39 217.372C462.58 218.304 462.771 219.42 463.687 219.81C464.434 220.129 465.292 219.786 466.109 219.724C468.884 219.515 471.186 222.567 473.913 222.041C476.838 221.478 477.556 217.345 480.409 216.517C482.048 216.042 484.346 216.62 485.131 215.182C485.823 213.914 484.443 212.451 484.585 211.032C484.76 209.284 486.945 208.542 488.63 207.796C494.437 205.225 497.193 197.851 494.379 192.412C492.711 189.189 489.431 186.652 488.825 183.112C488.359 180.388 489.497 177.212 487.656 175.068C486.72 173.977 485.134 173.375 484.577 172.074C484.227 171.255 484.367 170.325 484.179 169.46C483.99 168.594 483.19 167.689 482.284 167.914C479.655 168.565 478.816 176.227 477.409 178.089C475.269 180.919 470.877 179.055 471.55 175.568Z" fill="#303030"/>
<path d="M422.956 160.181C422.057 159.944 421.076 159.71 420.216 160.049C419.355 160.389 418.852 161.581 419.543 162.173C424.948 161.974 430.386 161.777 435.745 162.47C441.92 163.268 448.031 165.244 454.232 164.663C450.69 163.677 447.089 162.888 443.448 162.302L437.376 161.207C435.748 160.885 434.102 160.645 432.446 160.489C428.983 160.219 426.361 161.082 422.956 160.181Z" fill="#303030"/>
<path d="M428.366 142.42C427.918 142.384 427.362 142.354 427.13 142.718C426.908 143.066 427.162 143.525 427.043 143.915C426.88 144.448 426.14 144.584 425.557 144.512C424.975 144.439 424.345 144.265 423.828 144.53C423.567 144.699 423.37 144.944 423.268 145.227C423.165 145.51 423.163 145.817 423.262 146.101C423.473 146.666 423.814 147.179 424.261 147.604C425.025 148.512 425.894 149.335 426.854 150.058C428.712 151.352 431.229 151.976 432.399 153.854C432.564 154.218 432.817 154.54 433.139 154.794C433.701 155.13 434.433 154.874 435.038 154.614L437.158 153.7C437.54 153.57 437.881 153.351 438.149 153.064C438.633 152.444 438.336 151.562 437.929 150.894C437.523 150.226 437.002 149.535 437.09 148.769C437.245 147.404 439.106 146.882 439.871 145.713C440.642 144.536 440.14 143.019 440.229 141.637C440.333 140.021 441.409 137.919 439.678 136.712C438.206 135.686 436.8 136.634 435.743 137.767C433.515 140.155 432.462 142.742 428.366 142.42Z" fill="#303030"/>
<path d="M441.234 118.276C441.958 119.583 443.467 120.363 444.256 121.637C445.111 123.017 445.014 124.8 445.942 126.138C446.894 127.51 448.81 128.239 449.344 129.8C449.927 131.504 448.604 133.576 449.659 135.065C449.855 135.308 450.103 135.51 450.387 135.659C450.671 135.807 450.984 135.898 451.307 135.926C451.63 135.954 451.956 135.918 452.263 135.821C452.571 135.724 452.854 135.568 453.094 135.363C453.539 134.906 453.777 134.303 453.757 133.684C453.738 133.064 453.463 132.476 452.99 132.045C452.366 131.508 451.47 131.276 450.949 130.648C450.677 130.286 450.496 129.871 450.42 129.434C450.136 128.172 450.181 126.863 450.552 125.622C450.692 125.307 450.727 124.959 450.654 124.625C450.419 123.981 449.496 123.935 448.848 123.637C447.375 122.959 447.411 120.999 447.668 119.472C447.497 120.488 443.66 118.76 443.259 118.184C442.46 117.041 442.895 114.835 442.737 113.571C441.014 114.354 440.349 116.677 441.234 118.276Z" fill="#303030"/>
<path d="M402.581 138.392C401.873 137.644 400.806 136.862 399.857 137.313C399.132 137.657 398.933 138.603 399.217 139.319C399.563 140.016 400.095 140.615 400.762 141.057C402.74 142.597 404.871 143.986 406.597 145.776C409.686 148.979 411.322 153.301 414.681 156.251C415.357 156.935 416.251 157.392 417.227 157.551C418.206 157.637 419.305 157.046 419.417 156.124C419.51 155.365 418.949 154.686 418.401 154.124C417.096 152.785 415.668 151.552 414.436 150.152C413.867 149.615 413.509 148.91 413.422 148.155C413.416 147.402 414.144 146.613 414.918 146.799C413.977 146.573 413.279 145.093 411.898 144.815C410.744 144.583 410.464 145.257 409.091 144.701C406.471 143.641 404.415 140.33 402.581 138.392Z" fill="#303030"/>
<path d="M464.14 65.5603C463.389 65.3495 462.65 65.1005 461.927 64.8143C459.982 64.2634 457.408 65.6124 457.667 67.5129C457.839 68.7757 459.085 69.6271 459.773 70.7224C460.793 72.3467 460.521 74.4069 459.985 76.226C459.853 76.7892 459.603 77.3218 459.249 77.7919C458.754 78.2883 458.162 78.69 457.506 78.975C454.879 80.3648 452.562 82.2217 450.684 84.4431C450.48 84.6482 450.338 84.9012 450.272 85.1758C450.179 85.8175 450.863 86.2849 451.25 86.8201C452.108 88.009 451.488 89.6087 451.572 91.0451C451.559 91.2482 451.602 91.4511 451.695 91.6345C451.788 91.8179 451.93 91.9758 452.106 92.0932C452.623 92.3412 453.237 91.9199 453.517 91.4404C454.448 89.8494 453.747 87.2954 455.493 86.5283C455.823 86.3832 456.224 86.322 456.444 86.0482C456.793 85.6139 456.456 84.9709 456.633 84.4518C456.899 83.6725 458.029 83.6375 458.896 83.672C460.39 83.731 461.883 83.5434 463.308 83.1179C463.867 82.9924 464.375 82.715 464.768 82.3199C465.29 81.7053 465.244 80.8314 465.14 80.0499C464.617 76.1541 463.309 72.3887 461.287 68.9568C462.82 69.1417 464.489 69.3018 465.813 68.5476C466.554 68.1253 467.443 66.8623 467.075 66.0027C466.494 64.6433 465.444 65.7875 464.14 65.5603Z" fill="#3F3D56"/>
<path d="M267.503 86.9865C267.686 87.9154 267.867 88.8935 267.544 89.788C267.221 90.6825 266.207 91.4299 265.248 91.1558C264.504 90.9431 264.075 90.2374 263.547 89.6995C260.609 86.7077 253.983 88.4399 252.168 84.7386C251.428 83.228 251.931 81.4183 251.426 79.8236C251.107 78.902 250.473 78.1064 249.623 77.5616C248.774 77.0169 247.756 76.7539 246.731 76.814C245.795 76.9414 244.885 77.1979 244.029 77.575C238.292 79.7427 232.269 81.164 226.126 81.7997C224.959 81.8668 223.804 82.065 222.687 82.3902C220.164 83.253 218.441 85.4593 217.214 87.7107C215.988 89.9621 215.083 92.3995 213.438 94.3997C211.71 96.5019 209.288 97.9739 207.03 99.5662C206.159 100.095 205.435 100.812 204.915 101.657C204.426 102.605 204.453 103.709 204.491 104.763L204.953 117.571C205.012 119.219 205.087 120.925 205.868 122.399C206.844 124.24 208.772 125.446 210.109 127.072C211.474 128.743 212.185 130.808 212.122 132.917C212.093 133.765 212.004 134.768 212.704 135.301C213.13 135.561 213.628 135.696 214.135 135.689L232.498 137.107C235.728 137.356 239.308 137.766 241.416 140.088C242.412 141.184 243.211 142.76 244.736 142.878C245.39 142.928 246.026 142.675 246.68 142.626C248.33 142.503 249.78 143.684 250.694 144.986C252.079 146.97 252.708 149.339 252.477 151.704C252.327 153.189 251.839 154.632 251.734 156.12C251.333 161.783 256.421 166.702 256.52 172.377C256.578 175.714 254.898 178.833 253.261 181.792C255.904 185.569 253.74 190.598 254.792 195.014C255.79 199.203 259.492 202.482 260.414 206.686C260.836 208.611 260.861 210.98 262.66 211.971C263.449 212.334 264.324 212.5 265.201 212.451C270.488 212.51 275.716 211.388 280.455 209.175C282.679 208.133 284.984 206.578 285.373 204.264C285.686 202.398 284.683 200.311 285.704 198.685C286.907 196.77 289.989 196.921 291.759 195.448C294.631 193.059 292.391 188.502 293.555 185.06C294.601 181.966 298.201 180.322 299.985 177.546C300.688 176.352 301.192 175.063 301.48 173.725C302.297 170.526 302.806 167.264 303 163.979C303.048 161.983 303.204 159.99 303.467 158.009C305.392 146.731 317.209 139.179 321.045 128.344C321.412 127.309 321.584 125.931 320.608 125.346C320.03 125.085 319.374 125.02 318.75 125.162L310.286 126.169C309.234 126.294 308.12 126.411 307.154 125.999C306.189 125.587 305.497 124.434 306.009 123.559C307.447 121.102 304.489 117.997 303.175 115.479C299.637 108.699 295.423 102.251 290.591 96.2238C290.282 95.9137 290.088 95.5169 290.04 95.0936L292.442 95.1691C291.631 92.4235 290.293 89.419 287.466 88.4147C285.873 87.8487 284.109 88.0444 282.409 88.132C277.54 88.383 272.321 87.6895 267.503 86.9865Z" fill="#303030"/>
<path d="M282.412 25.1145C283.686 26.3909 285.114 27.7443 286.957 27.9668C290.212 28.3598 292.553 25.1833 294.044 22.4242C294.099 23.1276 294.443 23.7829 295.002 24.2508C295.561 24.7187 296.292 24.9623 297.039 24.9297C297.842 24.8021 298.609 24.5192 299.292 24.0986C305.742 20.7727 312.967 19.0104 320.318 18.9702C320.247 18.4448 320.385 17.9134 320.706 17.4785C321.026 17.0435 321.505 16.7359 322.052 16.6149C323.546 16.3354 324.893 17.5545 325.614 18.821C326.334 20.0874 326.784 21.5553 327.929 22.5032C329.075 23.4512 331.293 23.4099 331.745 22.0372C332.179 20.7193 330.724 19.5954 329.515 18.8185C328.306 18.0415 327.032 16.6034 327.846 15.4568C334.022 14.1669 340.237 12.8721 346.557 12.6157C347.633 12.651 348.705 12.4768 349.706 12.1038C350.67 11.6575 351.436 10.6446 351.177 9.6616C349.798 9.96749 348.353 9.87891 347.028 9.40716C345.702 8.9354 344.556 8.10185 343.734 7.01279C352.503 6.33002 361.83 5.74805 369.602 9.64126C370.534 11.5302 365.781 13.1018 367.053 14.8055C367.459 15.3489 368.271 15.4126 368.976 15.425C374.376 15.5196 379.808 15.6124 385.147 14.8431C387.099 14.5619 389.07 14.1651 391.029 14.393C394.292 14.7727 397.083 16.827 400.293 17.4968C401.6 17.7694 403.065 17.7786 404.166 17.0616C405.267 16.3445 405.741 14.7118 404.838 13.7797C407.861 10.9846 412.877 11.6773 416.865 13.0155C420.853 14.3536 424.63 16.5116 428.851 16.8099C431.877 17.0238 434.945 16.2557 437.936 16.7439C439.815 17.0507 441.564 17.8395 443.401 18.3241C446.875 19.2406 450.549 19.0472 454.156 19.0913C463.358 19.2083 472.46 20.9147 481.011 24.1262C482.124 24.4679 483.143 25.036 483.997 25.7904C484.792 26.5943 485.198 27.8435 484.663 28.8209L475.827 27.6027C476.66 29.149 478.814 29.4125 480.563 29.946C482.312 30.4794 484.125 32.3018 483.074 33.7246C481.179 33.1553 479.462 34.943 478.504 36.5879C477.547 38.2327 476.381 40.2026 474.395 40.3028C472.616 40.3925 470.465 38.9637 469.306 40.2394C470.908 42.1456 472.279 44.2143 473.395 46.4071C474.54 48.6582 475.356 51.4948 473.808 53.5202C473.564 53.8817 473.195 54.152 472.763 54.2845C471.499 54.5865 470.678 53.1273 469.771 52.2429C468.629 51.1284 466.901 50.8127 465.354 50.29C463.807 49.7674 462.177 48.7392 462.056 47.1929C461.981 46.2309 462.519 45.3366 462.915 44.4474C463.582 42.9487 463.873 41.3253 463.767 39.7031C463.68 38.398 463.293 37.0404 462.299 36.1286C461.306 35.2167 459.591 34.9275 458.524 35.7626C458.027 36.1523 457.628 36.7756 456.982 36.799C455.84 36.8402 454.963 34.962 454.045 35.6031C454.153 36.2863 454.003 36.9834 453.621 37.5727C450.88 39.822 446.668 38.8704 443.135 39.665C441.454 40.1188 439.845 40.7817 438.35 41.6363C437.791 41.8619 437.315 42.2388 436.983 42.7193C436.542 43.5281 437.028 44.564 437.806 45.1018C438.63 45.5789 439.557 45.8773 440.519 45.9754C444.827 46.7453 449.198 47.9371 452.599 50.548C456.001 53.1589 458.231 57.4749 457.155 61.4854L448.659 53.8258C448.981 57.0419 449.165 60.2669 449.208 63.5007C449.263 64.1321 449.171 64.7673 448.939 65.3617C448.333 66.6239 446.691 67.0486 445.253 67.3273C444.853 67.399 444.473 67.5498 444.139 67.7697C443.805 67.9896 443.525 68.2737 443.315 68.6034C443.106 68.933 442.973 69.3007 442.925 69.6822C442.877 70.0638 442.915 70.4507 443.037 70.8174C443.548 72.3892 444.822 73.6146 445.989 74.8357C447.156 76.0568 448.304 77.4446 448.457 79.0824C448.61 80.7202 447.3 82.5662 445.562 82.4523C444.244 82.366 443.266 81.2529 442.704 80.125C442.142 78.9971 441.808 77.7407 440.963 76.7823C438.407 73.8816 432.665 75.1244 430.375 72.032C429.791 72.6567 429.387 73.4119 429.199 74.2257C429.012 75.0396 429.048 75.8851 429.304 76.6821C430.369 76.0528 431.828 76.6375 432.628 77.5518C433.429 78.4661 433.806 79.6383 434.435 80.6653C435.283 82.051 436.633 83.2795 436.751 84.8758C436.72 85.4794 436.731 86.0843 436.784 86.6866C436.994 87.6539 437.861 88.3484 438.461 89.1568C439.859 91.038 439.79 93.6223 438.889 95.7568C437.988 97.8912 436.369 99.6747 434.766 101.404C431.966 104.424 429.108 107.427 425.788 109.935C424.841 110.65 423.83 111.354 423.24 112.355C422.65 113.355 422.62 114.76 423.526 115.521C422.878 115.552 421.714 115.853 421.065 115.883C420.837 113.428 420.788 110.961 420.917 108.499C418.357 107.339 415.6 110.445 415.931 113.106C416.261 115.768 418.301 117.903 419.754 120.206C420.816 121.89 421.605 123.853 421.251 125.784C420.896 127.714 419.069 129.496 417.001 129.325C413.71 129.054 412.333 124.597 409.074 124.087C408.787 124.023 408.485 124.051 408.217 124.167C407.733 124.418 407.649 125.028 407.622 125.548C407.488 128.101 407.373 130.754 408.429 133.107C409.974 136.55 413.964 139.441 413.127 143.095C408.618 141.117 406.273 136.345 405.208 131.762C404.144 127.179 403.966 122.367 402.058 118.034C400.609 119.786 397.563 118.338 396.239 116.499C394.984 114.756 394.211 112.74 392.993 110.974C391.776 109.207 389.91 107.626 387.679 107.529C385.34 107.427 383.311 108.941 381.527 110.372C380.06 111.549 378.554 112.772 377.697 114.399C376.449 116.766 376.775 119.556 376.715 122.199C376.65 125.056 376.008 128.071 373.944 130.163C371.88 132.255 368.071 132.983 365.794 131.098C364.605 130.114 364.03 128.643 363.517 127.232C361.047 120.428 358.989 113.496 357.354 106.471C356.971 108.075 355.479 110.141 354.054 109.197C353.734 108.943 353.475 108.628 353.293 108.273C350.634 104.02 345.71 101.47 340.735 99.9405C335.759 98.4112 330.524 97.6979 325.604 96.0172C322.847 95.0749 320.213 93.8372 317.755 92.3283C317.128 93.1969 316.763 94.2093 316.696 95.2581C316.63 96.307 316.865 97.3532 317.378 98.2861C318.469 100.109 320.939 101.164 323.053 100.527C324.146 100.198 325.068 99.4821 326.152 99.1287C327.236 98.7753 328.691 98.9488 329.166 99.9342C329.619 100.877 328.933 102.018 329.274 103.003C329.792 104.503 332.189 104.619 333.028 105.984C333.652 106.999 333.138 108.348 332.248 109.167C331.357 109.987 330.169 110.436 329.081 111.007C325.554 112.858 323.045 116.017 319.962 118.476C316.879 120.934 312.529 122.729 308.854 121.152C309.73 116.967 304.447 113.895 303.475 109.73C303.156 108.359 303.321 106.902 302.865 105.566C302.204 103.631 300.384 102.301 298.892 100.835C297.082 99.038 295.672 96.9167 294.745 94.5968C293.818 92.2769 293.393 89.8053 293.495 87.3278C293.576 85.6063 293.911 83.8566 293.495 82.1786C293.08 80.5006 291.607 78.8764 289.782 78.9525C285.615 79.1262 280.365 79.4186 278.178 76.0667C277.398 74.8704 277.058 73.1183 278.187 72.2017C278.983 71.5552 280.158 71.6161 281.203 71.7131L290.593 72.5846C292.789 72.7885 295.163 72.9567 297.047 71.8734C298.932 70.7902 299.748 67.9147 298.003 66.6402C296.728 65.709 294.444 65.7595 294.073 64.2789C293.765 63.0458 295.211 61.6467 294.43 60.6162C293.87 59.8773 292.61 60.0823 291.847 60.6362C291.084 61.1901 290.53 62.0002 289.676 62.4196C288.178 63.1553 286.387 62.4551 284.775 61.9793C283.163 61.5034 281.002 61.463 280.22 62.8756C279.346 64.4555 280.996 66.5256 280.128 68.1087C278.981 70.2018 275.095 69.0103 273.484 70.8106C271.635 72.8765 274.742 75.957 274.119 78.5962C273.323 78.9682 272.438 79.139 271.551 79.092C270.664 79.045 269.805 78.7817 269.058 78.3279C268.323 77.8565 267.738 77.206 267.364 76.4456C266.99 75.6852 266.841 74.8434 266.934 74.0097C267.088 72.8224 267.744 71.6105 267.305 70.4886C266.949 69.5815 265.984 69.0415 265.087 68.5737L255.962 63.8162C255.115 65.299 256.186 67.1372 257.525 68.251C258.865 69.3647 260.542 70.2035 261.422 71.6692C261.979 72.6847 262.104 73.8624 261.771 74.9617C261.439 76.0611 260.674 76.9992 259.633 77.5845C259.503 77.6695 259.354 77.7268 259.198 77.7525C259.042 77.7782 258.882 77.7716 258.728 77.7334C258.583 77.6527 258.456 77.5452 258.355 77.4174C258.254 77.2895 258.182 77.1439 258.142 76.9891C256.532 73.1018 254.115 69.269 250.25 67.2383C246.386 65.2077 240.833 65.6252 238.298 69.046C237.696 69.8585 237.292 70.7846 236.768 71.6436C233.982 76.2075 228.01 78.3687 222.43 78.2275C221.884 78.256 221.341 78.1356 220.866 77.8807C219.964 77.2931 220.004 76.0461 220.143 75.0203L220.728 70.6668C220.846 69.7926 221.016 68.8263 221.75 68.2806C222.783 67.5114 224.275 67.9968 225.591 67.9789C226.588 67.9349 227.547 67.6025 228.338 67.027C229.128 66.4514 229.712 65.6605 230.01 64.7613C230.276 63.8534 230.274 62.8941 230.005 61.987C229.736 61.0799 229.209 60.2592 228.482 59.6135C227.879 59.0788 227.069 58.4071 227.388 57.6863C227.515 57.4869 227.687 57.3162 227.891 57.1863C228.096 57.0563 228.328 56.9702 228.572 56.934C230.937 56.2861 233.435 56.1163 235.76 55.3518C238.086 54.5873 240.341 53.0232 240.891 50.7588C241.06 50.0649 241.137 49.2242 241.797 48.8802C242.129 48.7481 242.485 48.6795 242.845 48.6783C244.105 48.5091 245.253 47.9007 246.062 46.973C246.871 46.0453 247.283 44.8654 247.216 43.6657C248.33 42.931 249.892 43.4715 250.97 44.2529C252.048 45.0343 253 46.0667 254.311 46.4035C256.756 47.0313 259.118 44.9891 261.652 44.9796C262.717 44.9756 263.82 45.3311 264.822 44.9903C265.839 44.6448 266.445 43.6904 267.225 42.9854C268.005 42.2803 269.373 41.8503 270.094 42.6098L269.48 38.3242C270.715 38.6186 272.003 38.6603 273.256 38.4465C274.509 38.2326 275.7 37.7683 276.747 37.0846L268.822 34.5581C268.546 34.4931 268.292 34.3646 268.081 34.1842C267.505 33.5988 268.077 32.6866 268.546 32.0211C269.667 30.4292 269.855 27.807 268.012 27.0145C266.753 26.4735 265.309 27.1229 264.102 27.7581L258.317 30.8012C258.134 31.8386 259.478 32.4266 260.311 33.1254C260.815 33.5481 261.172 34.1049 261.335 34.7225C261.497 35.3401 261.458 35.9897 261.222 36.5859C260.987 37.1821 260.565 37.697 260.013 38.0631C259.462 38.4292 258.806 38.6292 258.131 38.637C258.512 39.1043 258.777 39.6464 258.906 40.2232C259.034 40.8 259.024 41.3968 258.875 41.9693L254.983 42.2334C254.546 42.3163 254.093 42.2327 253.721 42.0009C253.305 41.6521 253.361 41.0409 253.265 40.5236C253.032 39.275 251.736 38.3998 250.414 38.1755C249.091 37.9511 247.738 38.2387 246.429 38.5227C245.873 38.7115 245.262 38.6982 244.716 38.4854C244.403 38.2934 244.165 38.01 244.038 37.6784C243.464 36.3649 244.001 34.8211 244.923 33.6979C245.845 32.5747 247.107 31.7536 248.241 30.8186C250.952 28.5742 252.944 25.6594 253.991 22.4032C256.134 21.5562 258.352 20.4054 260.494 19.5584C263.797 17.9805 267.501 17.3034 271.19 17.6031L278.446 17.7339C280.594 17.7726 282.8 17.8222 284.787 18.5949C286.773 19.3676 288.518 21.0389 288.656 23.062C288.697 23.291 288.676 23.5262 288.595 23.7455C288.513 23.9647 288.374 24.1609 288.19 24.3156C287.91 24.46 287.592 24.5276 287.273 24.5107C285.27 24.5771 284.415 25.0481 282.412 25.1145Z" fill="#303030"/>
<path d="M224.579 46.5698C224.863 46.3166 225.067 45.9946 225.169 45.6392C225.271 45.2837 225.267 44.9086 225.158 44.555C224.468 44.3039 223.718 44.2394 222.992 44.3688C222.265 44.4983 221.591 44.8165 221.046 45.2877C220.616 45.6979 220.246 46.16 219.944 46.6619C218.991 48.1295 218.148 49.8826 218.7 51.5231C218.745 51.702 218.828 51.8707 218.943 52.0191C219.058 52.1676 219.203 52.2928 219.37 52.3876C219.618 52.4814 219.885 52.5208 220.151 52.503C221.201 52.5017 222.25 52.4408 223.293 52.3205C223.933 52.2466 224.677 52.076 224.924 51.514C225.25 50.7752 224.462 49.9392 224.692 49.169C224.843 48.8246 225.072 48.5155 225.362 48.2631C225.506 48.136 225.617 47.979 225.686 47.8045C225.755 47.6299 225.779 47.4427 225.758 47.2577C225.665 46.8963 225.079 46.6913 224.867 47.0052" fill="#3F3D56"/>
<path d="M230.026 39.9074C229.093 39.7053 228.131 39.6483 227.179 39.7387C226.968 39.7328 226.759 39.7776 226.572 39.8688C226.39 39.9951 226.259 40.1749 226.198 40.3797C225.997 40.9889 226.046 41.6473 226.336 42.2237C226.627 42.8001 227.136 43.2522 227.764 43.4899C228.106 43.5641 228.434 43.6884 228.735 43.8581C229.54 44.4477 229.027 45.6527 229.18 46.6036C229.351 47.6714 230.446 48.5676 230.245 49.6308C230.087 50.4684 229.139 51.1316 229.292 51.9702C229.451 52.8484 230.633 53.1123 231.574 53.1826C232.12 53.2728 232.681 53.2121 233.191 53.0078C233.702 52.6781 234.066 52.1814 234.212 51.6137C234.597 50.5311 234.759 49.389 234.689 48.2489C234.685 47.7304 234.547 47.2207 234.287 46.7638C234.003 46.4019 233.689 46.0624 233.347 45.7486C231.543 43.7689 233.442 40.8159 230.026 39.9074Z" fill="#3F3D56"/>
<path opacity="0.8" d="M467.227 194.991C467.227 194.991 329.071 120.167 269.593 134.344C269.593 134.344 143.542 147.143 128.933 175.3C128.933 175.3 88.864 57.1565 74.2554 53.2184" stroke="#FADE4B" stroke-width="2" stroke-miterlimit="10"/>
<path opacity="0.8" d="M128.933 175.3C152.098 117.016 360.793 52.4307 360.793 52.4307C331.158 59.5194 269.593 134.344 269.593 134.344C269.593 134.344 139.368 44.9483 74.2554 53.2183C74.2554 53.2183 361.001 62.0791 467.227 194.991" stroke="#FADE4B" stroke-width="2" stroke-miterlimit="10"/>
<path d="M74.2553 58.9287C77.5978 58.9287 80.3074 56.3721 80.3074 53.2184C80.3074 50.0646 77.5978 47.5081 74.2553 47.5081C70.9128 47.5081 68.2031 50.0646 68.2031 53.2184C68.2031 56.3721 70.9128 58.9287 74.2553 58.9287Z" fill="#FADE4B"/>
<path d="M128.933 181.011C132.275 181.011 134.985 178.454 134.985 175.3C134.985 172.147 132.275 169.59 128.933 169.59C125.59 169.59 122.881 172.147 122.881 175.3C122.881 178.454 125.59 181.011 128.933 181.011Z" fill="#FADE4B"/>
<path d="M360.792 58.1411C364.135 58.1411 366.845 55.5845 366.845 52.4308C366.845 49.277 364.135 46.7205 360.792 46.7205C357.45 46.7205 354.74 49.277 354.74 52.4308C354.74 55.5845 357.45 58.1411 360.792 58.1411Z" fill="#FADE4B"/>
<path d="M467.227 200.701C470.569 200.701 473.279 198.145 473.279 194.991C473.279 191.837 470.569 189.281 467.227 189.281C463.884 189.281 461.175 191.837 461.175 194.991C461.175 198.145 463.884 200.701 467.227 200.701Z" fill="#FADE4B"/>
<path d="M269.593 140.054C272.936 140.054 275.645 137.498 275.645 134.344C275.645 131.19 272.936 128.634 269.593 128.634C266.251 128.634 263.541 131.19 263.541 134.344C263.541 137.498 266.251 140.054 269.593 140.054Z" fill="#FADE4B"/>
</svg>
